<?xml version="1.0" encoding="UTF-8" standalone="no"?>
<svg
   xmlns:dc="http://purl.org/dc/elements/1.1/"
   xmlns:cc="http://creativecommons.org/ns#"
   xmlns:rdf="http://www.w3.org/1999/02/22-rdf-syntax-ns#"
   xmlns:svg="http://www.w3.org/2000/svg"
   xmlns="http://www.w3.org/2000/svg"
   xmlns:sodipodi="http://sodipodi.sourceforge.net/DTD/sodipodi-0.dtd"
   xmlns:inkscape="http://www.inkscape.org/namespaces/inkscape"
   viewBox="0 0 64 64"
   version="1.1"
   id="svg865"
   sodipodi:docname="mountain_snapper_vial.svg"
   inkscape:version="1.0.2 (e86c870879, 2021-01-15)">
  <metadata
     id="metadata871">
    <rdf:RDF>
      <cc:Work
         rdf:about="">
        <dc:format>image/svg+xml</dc:format>
        <dc:type
           rdf:resource="http://purl.org/dc/dcmitype/StillImage" />
        <dc:title />
      </cc:Work>
    </rdf:RDF>
  </metadata>
  <defs
     id="defs869">
    <rect
       x="20.840103"
       y="33.578929"
       width="31.712364"
       height="16.029368"
       id="rect1829" />
    <rect
       x="-81.409824"
       y="-17.059822"
       width="10.783929"
       height="2.0330355"
       id="rect1108" />
    <rect
       x="40.60981"
       y="33.981441"
       width="10.340256"
       height="1.7675648"
       id="rect1095" />
  </defs>
  <sodipodi:namedview
     pagecolor="#ffffff"
     bordercolor="#666666"
     borderopacity="1"
     objecttolerance="10"
     gridtolerance="10"
     guidetolerance="10"
     inkscape:pageopacity="0"
     inkscape:pageshadow="2"
     inkscape:window-width="1606"
     inkscape:window-height="1228"
     id="namedview867"
     showgrid="false"
     showguides="true"
     inkscape:guide-bbox="true"
     inkscape:zoom="22.61672"
     inkscape:cx="30.824113"
     inkscape:cy="36.099828"
     inkscape:window-x="131"
     inkscape:window-y="230"
     inkscape:window-maximized="0"
     inkscape:current-layer="svg865"
     inkscape:document-rotation="0" />
  <text
     xml:space="preserve"
     id="text1093"
     style="font-style:normal;font-weight:normal;font-size:0.70898px;line-height:1.25;font-family:sans-serif;text-align:center;text-anchor:middle;white-space:pre;fill:#000000;fill-opacity:1;stroke:none;stroke-width:0.320356;stroke-miterlimit:4;stroke-dasharray:none"
     transform="matrix(0.78300353,0,0,0.88197412,-15.575773,-11.683061)"
     x="48.546452"
     y="44.355078"><tspan
       id="tspan1097"
       style="font-style:normal;font-variant:normal;font-weight:normal;font-stretch:normal;font-size:0.70898px;font-family:Impact;-inkscape-font-specification:Impact;text-align:center;text-anchor:middle;stroke-width:0.320356;stroke-miterlimit:4;stroke-dasharray:none" /></text>
  <text
     xml:space="preserve"
     id="text1106"
     style="font-size:0.544436px;line-height:1.25;font-family:sans-serif;text-align:center;text-anchor:middle;white-space:pre;stroke-width:0.266221;stroke-miterlimit:4;stroke-dasharray:none"
     x="47.694473"
     y="38.201882"><tspan
       id="tspan1110"
       style="font-style:normal;font-variant:normal;font-weight:normal;font-stretch:normal;font-family:Impact;-inkscape-font-specification:Impact;text-align:center;text-anchor:middle;stroke-width:0.266221;stroke-miterlimit:4;stroke-dasharray:none" /></text>
  <g
     id="g3214"
     transform="matrix(0.97460428,0,0,0.95969766,1.6482416,1.3396563)">
    <path
       style="fill:#fff6d5;fill-opacity:1;stroke:#fff6d5;stroke-width:0.472224;stroke-linecap:round;stroke-linejoin:round;stroke-miterlimit:4;stroke-dasharray:none;stroke-opacity:1"
       d="M 29.935137,62.514163 C 28.34488,62.095473 27.144084,60.880548 26.744678,59.28614 26.623748,58.803411 26.622474,58.567357 26.622474,36.698678 V 14.599049 h 4.384538 4.384535 v 22.01958 c 0,24.506833 0.03635,22.492649 -0.423418,23.463692 -0.595505,1.257724 -1.603683,2.097826 -2.925635,2.437855 -0.622874,0.160275 -1.48537,0.157784 -2.107357,-0.0053 z"
       id="path928" />
    <path
       id="path928-5"
       style="fill:#fff6d5;fill-opacity:1;stroke:#fff6d5;stroke-width:0.472224;stroke-linecap:round;stroke-linejoin:round;stroke-miterlimit:4;stroke-dasharray:none;stroke-opacity:1"
       d="m 31.006378,13.320438 a 4.3844546,1.1350503 0 0 0 -4.383904,1.136107 4.3844546,1.1350503 0 0 0 0,0.0105 h -0.02765 a 4.3844546,1.1350503 0 0 0 0,0.0069 4.3844546,1.1350503 0 0 0 0.02765,0.125071 v 21.968205 c 0,21.868679 0.0034,22.103908 0.124362,22.586637 0.399406,1.594408 1.59835,2.812439 3.188607,3.231129 0.621987,0.163121 1.484438,0.163744 2.107313,0.0036 1.321951,-0.340028 2.330552,-1.177782 2.926057,-2.435506 0.459767,-0.971043 0.424919,1.041189 0.424919,-23.465642 V 14.466967 a 4.3844546,1.1350503 0 0 0 0,-0.0105 4.3844546,1.1350503 0 0 0 -4.387359,-1.136107 z" />
    <path
       id="path875"
       style="fill:#8cc1e0;fill-opacity:0.22541;stroke:#000000;stroke-width:0.472224;stroke-linecap:round;stroke-linejoin:round;stroke-miterlimit:4;stroke-dasharray:none;stroke-opacity:1"
       d="M 26.531383,6.3262322 V 57.885328 h 0.02073 a 4.4219042,4.4471457 0 0 0 -0.02073,0.430817 4.4219042,4.4471457 0 0 0 4.421904,4.447145 4.4219042,4.4471457 0 0 0 4.421904,-4.447145 4.4219042,4.4471457 0 0 0 -0.02073,-0.430817 h 0.02073 V 6.3262322 Z" />
    <path
       style="fill:#ff5555;fill-opacity:1;stroke:#ff5555;stroke-width:0.472224;stroke-linecap:round;stroke-linejoin:round;stroke-miterlimit:4;stroke-dasharray:none;stroke-opacity:1"
       d="M 29.149074,7.2721365 C 27.707284,7.1352 26.575093,6.8743607 26.138575,6.5785775 l -0.208916,-0.1415616 -0.01627,-1.7985022 -0.01627,-1.798504 0.322863,0.1428423 c 1.16327,0.514686 3.865386,0.766679 6.332437,0.5905472 1.567813,-0.1119258 2.98538,-0.4188073 3.416951,-0.7397027 l 0.170402,-0.1266903 v 1.7554895 c 0,0.9655198 -0.02581,1.8237584 -0.05734,1.9071958 C 35.96587,6.678037 35.025655,6.9928647 33.633935,7.189569 32.853059,7.2999472 29.99561,7.352548 29.149054,7.272144 Z"
       id="path1006" />
    <path
       id="rect897"
       style="fill:none;fill-opacity:1;stroke:#000000;stroke-width:0.472224;stroke-linecap:round;stroke-linejoin:round;stroke-miterlimit:4;stroke-dasharray:none;stroke-opacity:1"
       d="m 25.771017,2.3759162 v 3.950316 h 0.01733 a 5.2180975,1.1270965 0 0 0 0,0.00694 5.2180975,1.1270965 0 0 0 5.216464,1.1291588 5.2180975,1.1270965 0 0 0 5.21986,-1.1291481 5.2180975,1.1270965 0 0 0 0,-0.00694 h 0.01733 v -3.950316 z" />
    <path
       style="fill:#ff8080;fill-opacity:1;stroke:#ff8080;stroke-width:0.472224;stroke-linecap:round;stroke-linejoin:round;stroke-miterlimit:4;stroke-dasharray:none;stroke-opacity:1"
       d="m 29.087751,3.3235123 c -1.238117,-0.1098801 -2.454928,-0.3742398 -2.913649,-0.633021 -0.653699,-0.3687751 0.0046,-0.8082545 1.625883,-1.0853224 2.878691,-0.4919717 7.25848,-0.1840958 8.132092,0.5716415 0.424013,0.3668024 -0.412195,0.7607572 -2.192127,1.0327553 -0.950877,0.145315 -3.574646,0.2095709 -4.652199,0.1139537 z"
       id="path1010" />
    <path
       id="path880"
       style="fill:none;fill-opacity:1;stroke:#000000;stroke-width:0.472224;stroke-linecap:round;stroke-linejoin:round;stroke-miterlimit:4;stroke-dasharray:none;stroke-opacity:1"
       d="m 30.986475,1.2367852 a 5.2180978,1.1270965 0 0 0 -5.216466,1.129157 5.2180978,1.1270965 0 0 0 0,0.010495 h -0.03454 a 5.2180978,1.1270965 0 0 0 0,0.00694 5.2180978,1.1270965 0 0 0 5.216466,1.1291587 5.2180978,1.1270965 0 0 0 5.21992,-1.1291587 5.2180978,1.1270965 0 0 0 0,-0.00694 h 0.03454 a 5.2180978,1.1270965 0 0 0 0,-0.010495 5.2180978,1.1270965 0 0 0 -5.21992,-1.129157 z" />
    <path
       id="path1006-6"
       style="fill:#ff5555;fill-opacity:1;stroke:#000000;stroke-width:0.472224;stroke-linecap:round;stroke-linejoin:round;stroke-miterlimit:4;stroke-dasharray:none;stroke-opacity:1"
       d="m 35.38874,24.352793 -0.146931,0.128576 c -0.374335,0.32467 -1.603444,0.6338 -2.963328,0.747031 -2.139862,0.178203 -4.486296,-0.07688 -5.495286,-0.597625 l -0.278204,-0.142469 0.01256,1.817202 0.01574,1.820675 0.01256,1.643473 0.01256,1.639999 0.01574,1.820674 0.01256,1.639999 v 0.17721 l 0.01574,1.643473 0.01256,1.820674 0.178175,0.142468 c 0.371843,0.299258 1.335049,0.563335 2.563218,0.701863 0.721126,0.08138 3.154635,0.02827 3.819816,-0.08337 1.18552,-0.199019 1.988791,-0.518452 2.088082,-0.830423 0.0055,-0.0169 0.0048,-0.311563 0.0096,-0.385677 8.51e-4,-0.01334 0.0021,-0.05447 0.0032,-0.06948 0.01751,-0.318134 0.03439,-0.726941 0.03439,-1.47322 v -1.778981 l 0.0062,-0.865169 c 0.0078,-0.282475 0.0219,-0.402878 0.0219,-0.816523 v -1.778981 l 0.0062,-0.865169 c 0.0078,-0.282477 0.02188,-0.402881 0.02188,-0.816524 V 27.81351 l 0.0062,-1.104915 c 0.0042,-0.230656 0.01574,-0.286828 0.01574,-0.580253 z m -0.0219,2.647624 -0.0062,0.82 -0.01574,0.01388 c 0.01114,-0.11157 0.01397,-0.553733 0.0219,-0.833896 z m -0.03437,3.877623 -0.0032,0.40305 -0.0062,0.0069 c 0.0055,-0.05609 0.0044,-0.312009 0.0096,-0.409998 z m -0.02814,3.523215 -0.0032,0.340509 -0.0062,0.0069 c 0.0048,-0.04753 0.0051,-0.269634 0.0096,-0.347457 z" />
    <path
       style="fill:#ffffff;fill-opacity:1;stroke:#ffffff;stroke-width:0.472224;stroke-linecap:round;stroke-linejoin:round;stroke-miterlimit:4;stroke-dasharray:none;stroke-opacity:1"
       d="m 29.95503,29.543683 c -1.122589,-0.05214 -2.420695,-0.257511 -2.907749,-0.460027 l -0.127899,-0.05319 -9e-5,-1.390155 c -4.8e-5,-0.764583 -0.01026,-1.646894 -0.02264,-1.960686 -0.02188,-0.55317 -0.02055,-0.570065 0.04272,-0.555278 0.03591,0.0084 0.201988,0.0483 0.369077,0.08869 1.871062,0.452266 5.038866,0.460838 7.058502,0.0191 0.209211,-0.04575 0.438607,-0.103138 0.509771,-0.127508 l 0.129385,-0.04431 -0.02283,1.978653 c -0.01256,1.088259 -0.03363,1.988448 -0.04684,2.000424 -0.01309,0.01192 -0.168599,0.06411 -0.345339,0.115857 -0.612702,0.179414 -1.565911,0.320449 -2.555448,0.378101 -0.449579,0.02618 -1.61439,0.03197 -2.080621,0.01032 z"
       id="path1169" />
    <path
       style="fill:#ff8080;fill-opacity:1;stroke:#ff8080;stroke-width:0.472224;stroke-linecap:round;stroke-linejoin:round;stroke-miterlimit:4;stroke-dasharray:none;stroke-opacity:1"
       d="m 29.992816,32.332577 c -1.154004,-0.0679 -2.278727,-0.263695 -2.850529,-0.496211 L 26.963598,31.7637 v -0.401234 c 0,-0.22068 -0.01008,-0.795671 -0.02243,-1.277758 l -0.02243,-0.876522 0.25217,0.08017 c 1.081504,0.343851 3.112393,0.505362 4.949162,0.393593 1.010465,-0.0615 2.114365,-0.233896 2.621798,-0.409475 0.108266,-0.03746 0.20339,-0.06811 0.211392,-0.06811 0.0349,0 -0.02436,2.405196 -0.06031,2.448778 -0.02069,0.02508 -0.147638,0.09163 -0.282066,0.147841 -0.456257,0.190835 -1.297532,0.370739 -2.184483,0.467146 -0.463061,0.05032 -1.98737,0.09069 -2.433587,0.06443 z"
       id="path1222" />
    <path
       style="fill:none;fill-opacity:1;stroke:none;stroke-width:0.472224;stroke-linecap:round;stroke-linejoin:round;stroke-miterlimit:4;stroke-dasharray:none;stroke-opacity:1"
       d="m 29.95713,30.558921 c -1.12021,-0.06384 -2.415563,-0.315325 -2.901583,-0.563312 l -0.127634,-0.06512 -9e-5,-1.70227 c -4.8e-5,-0.936249 -0.01026,-2.016652 -0.02259,-2.400896 -0.02183,-0.677368 -0.02052,-0.698058 0.04263,-0.679949 0.03583,0.01032 0.201559,0.05915 0.368293,0.108599 1.867094,0.553806 5.028183,0.564302 7.043536,0.02339 0.208767,-0.05603 0.437677,-0.126299 0.508689,-0.156131 l 0.12912,-0.05426 -0.02278,2.422898 c -0.01256,1.332592 -0.03355,2.434892 -0.04673,2.449555 -0.01309,0.01459 -0.168244,0.0785 -0.344606,0.141882 -0.611404,0.219694 -1.562591,0.392395 -2.55003,0.462992 -0.448626,0.03207 -1.610966,0.03915 -2.076208,0.01263 z m 1.327411,-1.880119 c 0,-0.03497 0.0187,-0.0478 0.05135,-0.03519 0.02825,0.01085 0.0895,0.0052 0.136142,-0.01263 0.08041,-0.03074 0.08476,-0.04622 0.08428,-0.298556 -7.18e-4,-0.366995 0.0032,-0.363049 -0.34835,-0.355767 -0.161736,0.0034 -0.195887,0.01441 -0.196743,0.06397 -9.73e-4,0.0563 -0.0032,0.05623 -0.0364,-0.0012 -0.02579,-0.04458 -0.07388,-0.05997 -0.177655,-0.05683 -0.07827,0.0023 -0.165255,4.75e-4 -0.193343,-0.0041 -0.02809,-0.0046 -0.131472,-0.006 -0.229745,-0.003 l -0.178689,0.0053 v 0.32519 0.325189 h 0.119126 0.119126 l 0.0069,-0.265286 0.0069,-0.265285 0.01167,0.265285 0.01167,0.265286 h 0.117694 0.117693 l 5.22e-4,-0.21394 c 2.72e-4,-0.117671 0.01592,-0.237045 0.03477,-0.265286 0.02356,-0.03531 0.02724,0.03152 0.01185,0.21394 l -0.02246,0.265286 h 0.121726 c 0.11948,0 0.122133,-0.003 0.143518,-0.162587 0.03408,-0.254434 0.04487,-0.250567 0.04777,0.01708 l 0.0027,0.24817 h 0.119126 c 0.08672,0 0.119126,-0.01494 0.119126,-0.055 z m -1.123194,-0.355021 c 0,-0.34227 -0.02287,-0.377273 -0.246528,-0.377273 -0.141271,0 -0.219233,0.0563 -0.248822,0.179711 -0.01976,0.08241 -0.01256,0.09419 0.0577,0.09465 0.06431,4.2e-4 0.07013,0.0071 0.02922,0.03371 -0.07402,0.04812 -0.136142,0.04161 -0.136142,-0.01423 0,-0.02666 -0.04211,-0.0801 -0.0936,-0.118721 l -0.0936,-0.07023 0.110619,-0.0011 c 0.09413,-9.23e-4 0.110618,-0.01352 0.110618,-0.08421 0,-0.129217 -0.08639,-0.190712 -0.267913,-0.190712 -0.08853,0 -0.179322,0.01848 -0.201787,0.04107 -0.06979,0.07019 -0.04969,0.290271 0.03364,0.368355 l 0.0745,0.0698 h -0.09152 c -0.08161,0 -0.09151,0.01281 -0.09151,0.117867 0,0.144265 0.09765,0.224439 0.273356,0.224439 0.146737,0 0.227212,-0.05573 0.247162,-0.171144 0.01256,-0.07222 0.01556,-0.06847 0.01942,0.02398 0.0058,0.137665 0.05985,0.167853 0.312959,0.174861 l 0.202219,0.0057 z m 1.703967,0.196089 c 0.0019,-0.101253 0.005,-0.104313 0.03304,-0.03396 0.04208,0.105326 0.172101,0.158657 0.319161,0.130906 0.197047,-0.03718 0.274188,-0.27806 0.09663,-0.301698 -0.0647,-0.0085 -0.03316,-0.0211 0.102111,-0.04045 0.186594,-0.02668 0.195708,-0.03259 0.195708,-0.126743 0,-0.0869 -0.0122,-0.09875 -0.10211,-0.09875 -0.08234,0 -0.102677,0.01494 -0.105029,0.07702 -0.0025,0.06504 -0.0076,0.06148 -0.0326,-0.02275 -0.03695,-0.124289 -0.08499,-0.155757 -0.238775,-0.156433 -0.18193,-7.86e-4 -0.247206,0.0658 -0.272712,0.278167 -0.01965,0.163709 -0.02253,0.150812 -0.02681,-0.119912 l -0.0048,-0.303326 -0.127634,0.02398 c -0.0702,0.01316 -0.127633,0.02645 -0.127633,0.02948 0,0.003 0.0048,0.178795 0.01061,0.390596 l 0.01061,0.385093 H 31.7291 c 0.128076,0 0.134107,-0.005 0.136177,-0.11125 z m 0.780675,-0.02567 c 0,-0.09127 -0.01132,-0.102694 -0.102111,-0.102694 -0.09076,0 -0.102111,0.01139 -0.102111,0.102694 0,0.09129 0.01132,0.102693 0.102111,0.102693 0.09076,0 0.102111,-0.01139 0.102111,-0.102693 z m 0.668512,-0.01884 c 0.05985,-0.0602 0.08106,-0.110681 0.06831,-0.162588 -0.01716,-0.06996 -0.0058,-0.07565 0.160762,-0.08039 0.168457,-0.0048 0.181507,8.92e-4 0.216502,0.09414 0.03437,0.09158 0.0506,0.09923 0.21038,0.09923 0.184613,0 0.309282,-0.07896 0.309282,-0.195884 0,-0.04847 0.0094,-0.04541 0.05299,0.01708 0.09658,0.13868 0.438604,0.07838 0.47925,-0.0845 0.03216,-0.128878 -0.04896,-0.277534 -0.176823,-0.324035 -0.118861,-0.04323 -0.126113,-0.0973 -0.01309,-0.0973 0.07977,0 0.08463,-0.0608 0.01309,-0.163531 -0.07475,-0.107318 -0.284716,-0.104543 -0.411855,0.0055 -0.07609,0.06582 -0.108725,0.07487 -0.169482,0.04705 -0.100678,-0.04614 -0.295212,-0.006 -0.369127,0.07612 -0.04558,0.05064 -0.05418,0.09638 -0.03624,0.192597 0.02722,0.145955 -0.0085,0.183311 -0.175921,0.184113 -0.07661,3.67e-4 -0.120877,-0.02099 -0.147621,-0.07124 -0.03099,-0.05824 -0.06337,-0.06936 -0.171693,-0.05897 -0.08135,0.0078 -0.129014,-9.34e-4 -0.122045,-0.02236 0.0064,-0.01934 0.06843,-0.03999 0.13807,-0.0459 0.112705,-0.0096 0.124096,-0.01894 0.103755,-0.08558 -0.01256,-0.04116 -0.02478,-0.07633 -0.02713,-0.07814 -0.01716,-0.01316 -0.431072,0.04458 -0.449116,0.06272 -0.01256,0.01263 -0.01221,0.108439 6.98e-4,0.212847 0.02264,0.182184 0.02765,0.189833 0.124309,0.189833 0.05796,0 0.109009,-0.02172 0.12024,-0.05114 0.03538,-0.09271 0.08053,-0.01583 0.0765,0.130194 -0.0021,0.07891 -0.01132,0.112655 -0.02032,0.075 -0.02554,-0.106767 -0.06276,-0.128576 -0.176558,-0.103441 -0.09328,0.0206 -0.103065,0.03383 -0.08487,0.114719 0.04841,0.21508 0.317618,0.284918 0.477693,0.123933 z m -4.416518,-0.246452 c -0.0064,-0.473762 -0.01733,-0.501412 -0.209141,-0.523609 l -0.161594,-0.01871 -0.05833,0.206978 c -0.06415,0.227597 -0.100218,0.187634 -0.04673,-0.05178 0.01845,-0.08259 0.03058,-0.152626 0.02696,-0.15565 -0.0037,-0.003 -0.05637,-0.01619 -0.117216,-0.02932 -0.102341,-0.02204 -0.110618,-0.01725 -0.110618,0.06447 0,0.118081 -0.06069,0.113313 -0.07432,-0.0059 -0.009,-0.07843 -0.02922,-0.09592 -0.12139,-0.104864 -0.07169,-0.0069 -0.110618,0.0044 -0.110618,0.03222 0,0.0277 -0.01504,0.02323 -0.04254,-0.01263 -0.03843,-0.0502 -0.424842,-0.185725 -0.449083,-0.157517 -0.01663,0.01943 -0.223131,0.704433 -0.223131,0.740408 0,0.03997 0.259762,0.109969 0.408131,0.109969 0.08621,0 0.114987,-0.02051 0.156111,-0.111249 l 0.05043,-0.11125 -0.02027,0.141063 c -0.01924,0.133806 -0.01539,0.142007 0.07556,0.159564 0.114916,0.0222 0.113873,0.02305 0.147373,-0.119184 l 0.0266,-0.112993 0.0035,0.124698 c 0.0041,0.14254 0.02144,0.153285 0.300693,0.185057 0.186878,0.02126 0.202171,0.01761 0.238247,-0.05794 l 0.03856,-0.08067 0.0023,0.09414 c 0.0021,0.08661 0.01327,0.09414 0.138459,0.09414 h 0.136141 z"
       id="path1141" />
    <g
       id="g1844"
       style="stroke-width:0.266221;stroke-miterlimit:4;stroke-dasharray:none"
       transform="matrix(1.7687617,0,0,1.7788583,-26.531468,-33.321673)">
      <path
         id="path1824"
         style="fill:#ffdf00;fill-opacity:1;stroke:#000000;stroke-width:0.266221;stroke-linecap:round;stroke-linejoin:round;stroke-miterlimit:4;stroke-dasharray:none;stroke-opacity:1"
         d="m 32.510722,37.314624 -1.48811,2.971649 2.974656,0.003 z" />
      <text
         xml:space="preserve"
         id="text1827"
         style="font-size:1.33333px;line-height:1.25;font-family:sans-serif;white-space:pre;shape-inside:url(#rect1829);stroke-width:0.12771;stroke-miterlimit:4;stroke-dasharray:none;"
         transform="matrix(2.3195191,0,0,1.8734171,-16.414467,-25.213814)" />
    </g>
    <path
       style="fill:#000000;stroke:#000000;stroke-width:0.00216518;stroke-linecap:round;stroke-linejoin:round;paint-order:stroke markers fill"
       d="m 30.742318,37.553289 v -0.226141 h 0.269444 0.269444 v 0.226141 0.226141 h -0.269444 -0.269444 z"
       id="path3070" />
    <path
       style="fill:#000000;stroke:#000000;stroke-width:0.00216518;stroke-linecap:round;stroke-linejoin:round;paint-order:stroke markers fill"
       d="m 30.788556,36.86404 c -0.0014,-0.01389 -0.01781,-0.515673 -0.03644,-1.115067 -0.01863,-0.599393 -0.03521,-1.114164 -0.03685,-1.143936 l -0.003,-0.05413 h 0.296484 0.296485 v 0.04075 c 0,0.04802 -0.0607,2.116935 -0.06526,2.224272 l -0.0031,0.07338 H 31.013992 30.79111 Z"
       id="path3072" />
    <path
       style="fill:#000000;stroke:#000000;stroke-width:0.00216518;stroke-linecap:round;stroke-linejoin:round;paint-order:stroke markers fill"
       d="m 30.812885,30.996685 c -0.0018,-0.133343 -0.0032,-0.294948 -0.0032,-0.359121 l -5e-6,-0.116679 h 0.09382 0.09382 v 0.0291 0.0291 l 0.02387,-0.02387 c 0.04247,-0.04247 0.102841,-0.05545 0.151749,-0.03263 0.03006,0.01403 0.05836,0.04478 0.06348,0.06899 0.0021,0.01008 0.0039,0.121177 0.0039,0.246877 v 0.228547 l -0.01328,0.02705 c -0.03633,0.07398 -0.139786,0.08348 -0.20363,0.0187 -0.01037,-0.01052 -0.02048,-0.01916 -0.02246,-0.01921 -0.002,-4.4e-5 -0.0036,0.03131 -0.0036,0.06969 v 0.06977 h -0.04737 c -0.02606,0 -0.06684,0.0014 -0.09062,0.0031 l -0.04325,0.0031 z m 0.237983,0.04551 c 0.0054,-0.0065 0.0066,-0.04578 0.0066,-0.20969 0,-0.194138 -3.51e-4,-0.201987 -0.0093,-0.208557 -0.01191,-0.0087 -0.02715,-0.0087 -0.03906,-2e-6 -0.0089,0.0065 -0.0094,0.01513 -0.01081,0.188851 -0.0015,0.190954 -1.54e-4,0.218207 0.01172,0.230084 0.0097,0.0097 0.03262,0.0093 0.04088,-6.86e-4 z"
       id="path3074" />
    <path
       style="fill:#000000;stroke:#000000;stroke-width:0.00216518;stroke-linecap:round;stroke-linejoin:round;paint-order:stroke markers fill"
       d="m 27.79411,30.920642 c -0.03768,-0.0072 -0.06958,-0.0142 -0.07088,-0.0155 -0.0019,-0.0019 0.07717,-0.452834 0.0868,-0.494922 0.0018,-0.0079 0.0011,-0.01037 -0.0019,-0.0072 -0.0026,0.0026 -0.03933,0.112671 -0.08165,0.244499 -0.04232,0.131828 -0.0781,0.240839 -0.07951,0.242246 -0.0031,0.0031 -0.102136,-0.01333 -0.110029,-0.01821 -0.0041,-0.0025 -0.0033,-0.06644 0.0031,-0.254228 0.0047,-0.137952 0.0076,-0.251805 0.0064,-0.253007 -0.0012,-0.0012 -0.0222,0.10876 -0.04666,0.24436 -0.02446,0.135599 -0.04501,0.247083 -0.04567,0.247742 -0.0012,0.0012 -0.163791,-0.02772 -0.164375,-0.02922 -3.7e-4,-9.46e-4 0.133819,-0.746297 0.134521,-0.747201 0.0015,-0.0019 0.24328,0.04443 0.245867,0.04707 0.003,0.003 -0.0042,0.234618 -0.0098,0.315641 -0.0015,0.02183 -9.86e-4,0.03966 0.0011,0.03962 0.0021,-4.4e-5 0.02765,-0.07644 0.05673,-0.16977 l 0.05287,-0.16969 0.121514,0.02218 c 0.06683,0.0122 0.122732,0.0234 0.124222,0.02489 0.0015,0.0015 -0.02722,0.169126 -0.06379,0.372526 l -0.0665,0.369817 -0.01196,7.59e-4 c -0.0066,4.17e-4 -0.04279,-0.0052 -0.08048,-0.01239 z"
       id="path3076" />
    <path
       style="fill:#000000;stroke:#000000;stroke-width:0.00216518;stroke-linecap:round;stroke-linejoin:round;paint-order:stroke markers fill"
       d="m 28.136222,30.978315 c -0.0707,-0.01904 -0.116318,-0.05255 -0.13929,-0.102301 -0.01313,-0.02845 -0.01399,-0.03398 -0.01356,-0.08809 4.72e-4,-0.05945 0.02423,-0.247744 0.03818,-0.302581 0.01,-0.03926 0.03405,-0.08238 0.05687,-0.101912 0.03342,-0.02861 0.06475,-0.0379 0.128224,-0.03804 0.06026,-1.33e-4 0.08749,0.0055 0.129911,0.02667 0.0402,0.02011 0.06495,0.04412 0.0828,0.08032 0.01468,0.02978 0.01595,0.03621 0.01741,0.08761 0.0013,0.04606 -0.0086,0.155985 -0.01451,0.161274 -8.22e-4,7.34e-4 -0.05454,-0.0059 -0.119376,-0.01482 -0.06484,-0.0089 -0.119134,-0.01621 -0.120664,-0.01628 -0.0049,-2.2e-4 -0.02525,0.175807 -0.02187,0.189292 0.0037,0.01471 0.02293,0.02437 0.04001,0.02008 0.01681,-0.0042 0.02528,-0.0266 0.03523,-0.09312 0.005,-0.03357 0.0092,-0.06117 0.0093,-0.06131 6.6e-4,-8.36e-4 0.171144,0.02285 0.172221,0.02392 0.004,0.004 -0.01984,0.118973 -0.02829,0.136409 -0.01543,0.03187 -0.05411,0.07111 -0.08507,0.08629 -0.0242,0.01187 -0.03353,0.01356 -0.0803,0.01463 -0.0401,9.14e-4 -0.06125,-0.001 -0.08727,-0.008 z m 0.11856,-0.405707 c 7e-6,-0.0033 0.0024,-0.02515 0.0052,-0.04853 0.0062,-0.05056 0.0036,-0.06444 -0.01323,-0.07084 -0.02728,-0.01037 -0.03647,0.0013 -0.04485,0.05695 -0.0027,0.0178 -0.006,0.03923 -0.0074,0.04764 -0.0022,0.01308 -9.82e-4,0.01559 0.0084,0.01739 0.02461,0.0047 0.05187,0.0034 0.05189,-0.0026 z"
       id="path3078" />
    <path
       style="fill:#000000;stroke:#000000;stroke-width:0.00216518;stroke-linecap:round;stroke-linejoin:round;paint-order:stroke markers fill"
       d="m 28.538647,31.020077 c -0.04631,-0.0053 -0.085,-0.01034 -0.08599,-0.01121 -0.0027,-0.0024 0.06299,-0.61019 0.06641,-0.614187 0.0017,-0.0019 0.04172,7.77e-4 0.08904,0.006 0.04731,0.0052 0.08758,0.0095 0.08948,0.0095 0.0019,0 5.5e-4,0.01353 -0.003,0.03007 -0.0035,0.01654 -0.0065,0.03527 -0.0066,0.04162 -1.51e-4,0.01032 0.0013,0.0095 0.01394,-0.0079 0.01492,-0.0206 0.03661,-0.03872 0.06047,-0.05053 0.01763,-0.0087 0.05046,-0.0151 0.05069,-0.0098 9e-5,0.0021 -0.0047,0.05092 -0.01062,0.108477 l -0.01078,0.10465 h -0.03043 c -0.05351,0 -0.07535,0.01559 -0.08591,0.06133 -0.005,0.02146 -0.04044,0.318686 -0.04044,0.338754 0,0.0022 -0.0027,0.0038 -0.006,0.0035 -0.0033,-3.3e-4 -0.0439,-0.0049 -0.09022,-0.01023 z"
       id="path3080" />
    <path
       style="fill:#000000;stroke:#000000;stroke-width:0.00216518;stroke-linecap:round;stroke-linejoin:round;paint-order:stroke markers fill"
       d="m 28.884136,31.055364 c -0.04683,-0.0043 -0.08601,-0.0089 -0.08708,-0.01016 -0.0014,-0.0016 0.05242,-0.61695 0.05409,-0.618346 0.0014,-0.0012 0.179464,0.01664 0.180945,0.01812 0.0011,0.0011 -0.0012,0.01897 -0.0052,0.0397 -0.004,0.02073 -0.0066,0.03833 -0.0058,0.0391 7.75e-4,7.75e-4 0.0104,-0.01021 0.02138,-0.0244 0.02322,-0.03002 0.05599,-0.05095 0.08482,-0.0542 l 0.02032,-0.0023 -0.0094,0.10636 -0.0094,0.106361 -0.02202,2.7e-5 c -0.0496,6e-5 -0.08227,0.01949 -0.09099,0.05412 -0.0057,0.02258 -0.0148,0.107151 -0.02775,0.257398 -0.0054,0.06236 -0.01026,0.09719 -0.01358,0.09677 -0.0029,-3.65e-4 -0.0435,-0.0042 -0.09032,-0.0086 z"
       id="path3082" />
    <path
       style="fill:#000000;stroke:#000000;stroke-width:0.00216518;stroke-linecap:round;stroke-linejoin:round;paint-order:stroke markers fill"
       d="m 29.464862,31.100416 c -0.04234,-0.0033 -0.08041,-0.0063 -0.0846,-0.0065 -0.0063,-3.71e-4 -0.0072,-0.0053 -0.0054,-0.02812 l 0.0022,-0.02767 -0.0259,0.02433 c -0.04357,0.04093 -0.09167,0.04613 -0.151989,0.01644 -0.04783,-0.02355 -0.05916,-0.04708 -0.05916,-0.122937 0,-0.06553 0.008,-0.120328 0.0209,-0.143975 0.01338,-0.02444 0.03919,-0.03869 0.12104,-0.0668 0.116888,-0.04015 0.114314,-0.03767 0.115006,-0.110946 4.06e-4,-0.04289 -8.13e-4,-0.05112 -0.0089,-0.0601 -0.013,-0.01444 -0.03658,-0.01192 -0.04453,0.0047 -0.0032,0.0068 -0.0071,0.03057 -0.0087,0.05293 -0.0016,0.02235 -0.004,0.04796 -0.0053,0.05691 l -0.0025,0.01627 -0.05139,-0.0032 c -0.02826,-0.0018 -0.0669,-0.0045 -0.08586,-0.0061 l -0.03447,-0.0029 0.0023,-0.02704 c 0.0071,-0.08509 0.0206,-0.124851 0.05232,-0.154093 0.025,-0.02305 0.05069,-0.03662 0.08741,-0.04619 0.05372,-0.01399 0.144011,-0.0055 0.195658,0.01844 0.02801,0.01297 0.0611,0.04437 0.07394,0.07015 0.01387,0.02784 0.01365,0.137687 -6.97e-4,0.347872 -0.0068,0.09952 -0.01235,0.186556 -0.01235,0.193418 0,0.0071 -0.0026,0.01217 -0.006,0.01177 -0.0033,-3.88e-4 -0.04066,-0.0034 -0.083,-0.0068 z m -0.0989,-0.110084 c 0.0076,-0.0092 0.01316,-0.05078 0.01741,-0.13097 l 0.0035,-0.06618 -0.02356,0.01711 c -0.03512,0.02551 -0.0452,0.04909 -0.04861,0.113667 -0.0026,0.04937 -0.0021,0.05329 0.0075,0.06296 0.01181,0.01181 0.03524,0.01364 0.04372,0.0034 z"
       id="path3084" />
    <path
       style="fill:#000000;stroke:#000000;stroke-width:0.00216518;stroke-linecap:round;stroke-linejoin:round;paint-order:stroke markers fill"
       d="m 29.870401,31.122501 c -0.03629,-0.0017 -0.06737,-0.0044 -0.06905,-0.0061 -0.0034,-0.0034 0.02812,-0.752507 0.03175,-0.75592 0.0021,-0.002 0.188679,0.0058 0.190328,0.0079 4.11e-4,5.27e-4 -0.0065,0.163346 -0.01529,0.36182 -0.0088,0.198475 -0.01613,0.368983 -0.01623,0.378907 l -1.9e-4,0.01804 -0.02767,-7.94e-4 c -0.01522,-4.36e-4 -0.05736,-0.0022 -0.09365,-0.0038 z"
       id="path3086" />
    <path
       style="fill:#000000;stroke:#000000;stroke-width:0.00216518;stroke-linecap:round;stroke-linejoin:round;paint-order:stroke markers fill"
       d="m 30.579251,31.14285 -0.01631,-0.002 0.0034,-0.181279 c 0.0048,-0.253978 0.0044,-0.320782 -0.0019,-0.332488 -0.004,-0.0076 -0.01003,-0.01 -0.02466,-0.01 -0.03168,0 -0.03261,0.0052 -0.03802,0.212858 -0.0026,0.0986 -0.0047,0.209393 -0.0048,0.246199 l -1.03e-4,0.06692 -0.08977,-0.0031 c -0.04938,-0.0017 -0.09025,-0.0037 -0.09083,-0.0044 -5.8e-4,-6.86e-4 7.23e-4,-0.07161 0.0029,-0.15762 0.0062,-0.246424 0.0056,-0.347817 -0.002,-0.35834 -0.0092,-0.01254 -0.0359,-0.01186 -0.04647,0.0012 -0.01043,0.01289 -0.01316,0.06345 -0.01741,0.32282 l -0.0032,0.194221 -0.0895,-0.0035 c -0.04923,-0.0019 -0.08989,-0.0038 -0.09035,-0.0042 -4.68e-4,-4.06e-4 0.0022,-0.130627 0.0059,-0.28938 0.0037,-0.158754 0.0068,-0.297844 0.0069,-0.309091 l 1.46e-4,-0.02045 h 0.09198 0.09198 l -0.0034,0.03182 -0.0034,0.03182 0.02638,-0.02638 c 0.02985,-0.02985 0.05809,-0.04208 0.0972,-0.04208 0.0455,0 0.08779,0.02289 0.114194,0.06182 l 0.0077,0.0113 0.01806,-0.01999 c 0.0099,-0.01099 0.02798,-0.02582 0.04011,-0.03295 0.01931,-0.01135 0.02715,-0.01296 0.06295,-0.01291 0.03271,4.6e-5 0.04484,0.0022 0.0606,0.01054 0.02462,0.0131 0.04706,0.03828 0.05557,0.06236 0.0073,0.02062 0.008,0.19285 0.0017,0.428637 l -0.0035,0.131114 -0.07283,-7.7e-4 c -0.04006,-4.24e-4 -0.08017,-0.0017 -0.08914,-0.0028 z"
       id="path3088" />
    <path
       style="fill:#000000;stroke:#000000;stroke-width:0.00216518;stroke-linecap:round;stroke-linejoin:round;paint-order:stroke markers fill"
       d="m 31.452678,31.1459 c -0.03357,-0.0049 -0.07715,-0.0239 -0.09612,-0.04189 -0.04176,-0.03962 -0.05035,-0.07748 -0.05602,-0.246843 -0.0058,-0.172051 -0.0011,-0.220114 0.02597,-0.266259 0.03285,-0.05606 0.0943,-0.08434 0.183241,-0.08434 0.12832,0 0.201261,0.05846 0.213632,0.171217 0.0071,0.06479 0.01041,0.255276 0.0052,0.300809 -0.01456,0.127625 -0.118033,0.190369 -0.275929,0.16731 z m 0.0838,-0.109431 c 0.01088,-0.0088 0.01095,-0.0096 0.0098,-0.119085 -0.0018,-0.177393 -0.0072,-0.288593 -0.01453,-0.297399 -0.0092,-0.01106 -0.03729,-0.01001 -0.04352,0.0016 -0.0057,0.01062 -0.0061,0.180298 -8.18e-4,0.317248 0.0033,0.08465 0.0039,0.08877 0.0146,0.09743 0.01399,0.01133 0.02062,0.01136 0.03443,1.78e-4 z"
       id="path3090" />
    <path
       style="fill:#000000;stroke:#000000;stroke-width:0.00216518;stroke-linecap:round;stroke-linejoin:round;paint-order:stroke markers fill"
       d="m 31.805357,31.130509 c -6.47e-4,-0.0021 -0.02726,-0.621689 -0.02672,-0.622282 3.11e-4,-3.46e-4 0.04202,-0.0022 0.09268,-0.0041 l 0.09212,-0.0034 -0.0023,0.04257 -0.0023,0.04257 0.01429,-0.02416 c 0.01887,-0.0319 0.05297,-0.06277 0.07746,-0.0701 0.01086,-0.0033 0.02074,-0.0049 0.02196,-0.0037 0.0027,0.0027 0.01275,0.207234 0.01034,0.209644 -9.24e-4,9.23e-4 -0.01409,0.0037 -0.02925,0.0062 -0.03508,0.0057 -0.05561,0.01761 -0.06676,0.03869 -0.0081,0.01533 -0.0086,0.02642 -0.0061,0.136964 0.0015,0.06616 0.0042,0.147663 0.0059,0.181123 l 0.0032,0.06084 -0.05244,0.0029 c -0.113127,0.0063 -0.131841,0.0072 -0.132134,0.0063 z"
       id="path3092" />
    <path
       style="fill:#000000;stroke:#000000;stroke-width:0.00216518;stroke-linecap:round;stroke-linejoin:round;paint-order:stroke markers fill"
       d="m 32.253543,31.102699 c -0.02866,-0.0057 -0.05599,-0.02464 -0.06722,-0.04666 -0.01154,-0.02262 -0.01683,-0.0761 -0.02701,-0.272926 -0.0099,-0.192259 -0.0079,-0.180432 -0.03087,-0.180432 -0.01752,0 -0.01854,-8.59e-4 -0.02138,-0.01804 -0.0016,-0.0099 -0.003,-0.03026 -0.003,-0.04519 -5.6e-5,-0.02904 0.0032,-0.03299 0.02749,-0.03299 h 0.01232 l -0.0033,-0.04773 c -0.003,-0.04337 -0.0025,-0.04795 0.0053,-0.05016 0.0047,-0.0013 0.04326,-0.0038 0.0856,-0.0055 0.04234,-0.0017 0.08077,-0.0042 0.08541,-0.0055 0.0075,-0.0021 0.0084,0.0016 0.0084,0.0334 0,0.0197 0.0014,0.04284 0.0031,0.05143 0.0031,0.0155 0.0033,0.0156 0.02598,0.01292 0.02737,-0.0032 0.02847,-0.0011 0.02857,0.05567 l 6.6e-5,0.03729 h -0.02137 c -0.01175,0 -0.02271,0.0022 -0.02435,0.0048 -0.0033,0.0053 0.01536,0.350641 0.02081,0.384912 l 0.0034,0.02165 0.0269,0.0014 0.0269,0.0014 0.003,0.03226 c 0.0057,0.06005 0.0051,0.06279 -0.01252,0.06547 -0.0323,0.0049 -0.131916,0.0065 -0.152353,0.0025 z"
       id="path3094" />
    <path
       style="fill:#000000;stroke:#000000;stroke-width:0.00216518;stroke-linecap:round;stroke-linejoin:round;paint-order:stroke markers fill"
       d="m 32.561068,31.086801 c -0.08565,-0.02531 -0.111213,-0.06149 -0.123084,-0.174221 l -0.0031,-0.02931 0.08027,-0.006 c 0.04415,-0.0033 0.08089,-0.0053 0.08166,-0.0044 7.63e-4,9.14e-4 0.0038,0.02303 0.0066,0.04914 0.0036,0.0321 0.0079,0.05041 0.01345,0.05654 0.01127,0.01245 0.0376,0.01184 0.0506,-0.0012 0.0091,-0.0091 0.0099,-0.01413 0.0078,-0.04451 -0.004,-0.05701 -0.0024,-0.05532 -0.09605,-0.10204 -0.102271,-0.05104 -0.128592,-0.06992 -0.145065,-0.104084 -0.02531,-0.05248 -0.02918,-0.144995 -0.0079,-0.188953 0.0219,-0.04523 0.07826,-0.07515 0.158769,-0.08427 0.08101,-0.0092 0.140864,0.0065 0.183614,0.04811 0.03001,0.0292 0.03619,0.04682 0.03886,0.110664 l 0.0013,0.03128 -0.0433,0.0032 c -0.02382,0.0017 -0.05983,0.0045 -0.08002,0.0061 l -0.03672,0.0029 -0.0035,-0.037 c -0.0047,-0.05065 -0.0093,-0.05938 -0.03093,-0.05929 -0.0095,4.1e-5 -0.02002,0.0018 -0.02337,0.0039 -0.01072,0.0068 -0.01523,0.03328 -0.01063,0.06232 0.0058,0.03679 0.02231,0.05078 0.09764,0.08291 0.135654,0.05784 0.160113,0.0859 0.165582,0.189961 0.0054,0.101837 -0.02184,0.148983 -0.103408,0.179277 -0.02707,0.01005 -0.04272,0.01231 -0.09496,0.01369 -0.04245,0.0011 -0.06951,-4.08e-4 -0.0842,-0.0047 z"
       id="path3096" />
    <path
       style="fill:#000000;stroke:#000000;stroke-width:0.00216518;stroke-linecap:round;stroke-linejoin:round;paint-order:stroke markers fill"
       d="m 33.06415,31.034513 c -0.0037,-0.01748 -0.0138,-0.133631 -0.01176,-0.135645 10e-4,-0.001 0.0317,-0.0048 0.06817,-0.0085 0.07727,-0.0078 0.06749,-0.01635 0.07539,0.06598 0.0083,0.08657 0.01391,0.07708 -0.04936,0.0835 -0.07642,0.0077 -0.0797,0.0075 -0.08244,-0.0053 z"
       id="path3098" />
    <path
       style="fill:#000000;stroke:#000000;stroke-width:0.00216518;stroke-linecap:round;stroke-linejoin:round;paint-order:stroke markers fill"
       d="m 33.43195,31.004389 c 0,-0.0014 -0.02059,-0.170574 -0.04576,-0.376048 -0.02517,-0.205474 -0.0452,-0.374004 -0.04451,-0.374512 0.0033,-0.0024 0.186843,-0.02289 0.188672,-0.02106 0.0023,0.0023 0.09476,0.751141 0.09286,0.752447 -0.002,0.0014 -0.173796,0.02178 -0.182845,0.02171 -0.0046,-3.9e-5 -0.0084,-0.0012 -0.0084,-0.0025 z"
       id="path3100" />
    <path
       style="fill:#000000;stroke:#000000;stroke-width:0.00216518;stroke-linecap:round;stroke-linejoin:round;paint-order:stroke markers fill"
       d="m 33.701395,30.974312 c 0,-0.0015 -0.01941,-0.132853 -0.04314,-0.291849 -0.02373,-0.158996 -0.04376,-0.29648 -0.04451,-0.30552 l -0.0014,-0.01644 0.08661,-0.01344 c 0.04763,-0.0074 0.08931,-0.01353 0.09262,-0.01364 0.0037,-1.17e-4 0.0062,0.0068 0.0065,0.01785 2.63e-4,0.0099 0.002,0.02339 0.0038,0.02992 0.0033,0.01181 0.0033,0.01179 0.0098,-0.0039 0.01089,-0.02629 0.04387,-0.0562 0.07288,-0.0661 0.03507,-0.01197 0.07828,-0.01132 0.103065,0.0015 0.038,0.01971 0.05446,0.04574 0.06721,0.106351 0.01112,0.05286 0.07522,0.487819 0.07232,0.49072 -0.0028,0.0028 -0.176837,0.03004 -0.178879,0.028 -6.6e-4,-6.59e-4 -0.01436,-0.08987 -0.03043,-0.198243 -0.03435,-0.23148 -0.04195,-0.278224 -0.04867,-0.29929 -0.0062,-0.01929 -0.02304,-0.025 -0.04036,-0.01365 -0.01055,0.0069 -0.01199,0.01129 -0.01199,0.03639 0,0.01569 0.01521,0.130705 0.0338,0.255582 0.01859,0.124877 0.03304,0.227808 0.03211,0.228736 -9.27e-4,9.28e-4 -0.03833,0.0072 -0.08312,0.01386 -0.04479,0.0067 -0.08522,0.013 -0.08985,0.01402 -0.0046,10e-4 -0.0084,6.03e-4 -0.0084,-9.18e-4 z"
       id="path3102" />
    <path
       style="fill:#000000;stroke:#000000;stroke-width:0.00216518;stroke-linecap:round;stroke-linejoin:round;paint-order:stroke markers fill"
       d="m 34.281177,30.870259 c -0.02543,-0.008 -0.05704,-0.02924 -0.07131,-0.04798 -0.03104,-0.04078 -0.0442,-0.08272 -0.07387,-0.235596 -0.01809,-0.09319 -0.02265,-0.126842 -0.0229,-0.169246 -2.94e-4,-0.04897 6.41e-4,-0.05456 0.01251,-0.07474 0.05677,-0.09657 0.204914,-0.138197 0.307139,-0.08631 0.03223,0.01636 0.05302,0.03747 0.0696,0.07068 0.01331,0.02666 0.03544,0.104824 0.03094,0.109319 -0.0045,0.0045 -0.163022,0.03326 -0.166122,0.03016 -0.0016,-0.0016 -0.0071,-0.02392 -0.01223,-0.04961 -0.01235,-0.06177 -0.01886,-0.07407 -0.03924,-0.07407 -0.021,0 -0.0273,0.0074 -0.0273,0.03225 0,0.02278 0.05915,0.3383 0.06758,0.360465 0.0078,0.02049 0.01891,0.0307 0.03346,0.0307 0.03028,0 0.03609,-0.03472 0.01983,-0.118581 l -0.0085,-0.044 0.07915,-0.01514 c 0.04353,-0.0083 0.07988,-0.01441 0.08078,-0.01351 0.0035,0.0035 0.01639,0.09373 0.0164,0.114586 6.3e-5,0.07178 -0.05079,0.142746 -0.119901,0.167305 -0.05745,0.02042 -0.134722,0.02627 -0.175992,0.01334 z"
       id="path3104" />
    <path
       style="fill:#000000;stroke:#000000;stroke-width:0.00216518;stroke-linecap:round;stroke-linejoin:round;paint-order:stroke markers fill"
       d="m 33.980208,27.969412 c -0.0466,-0.01589 -0.06823,-0.03536 -0.09109,-0.08199 -0.0216,-0.04407 -0.05656,-0.160565 -0.05,-0.166626 0.0095,-0.0088 0.170946,-0.05683 0.172781,-0.05143 10e-4,0.003 0.0085,0.03258 0.01669,0.06565 0.01787,0.07249 0.02712,0.09324 0.04258,0.09543 0.04719,0.0067 0.05993,-0.03529 0.03482,-0.114672 -0.01975,-0.06246 -0.02359,-0.06543 -0.143827,-0.111365 -0.101591,-0.03881 -0.121214,-0.04882 -0.147243,-0.07509 -0.04643,-0.04687 -0.08048,-0.145713 -0.08162,-0.236957 -5.85e-4,-0.04679 4.12e-4,-0.05265 0.01349,-0.07939 0.02754,-0.0563 0.09602,-0.105302 0.175932,-0.12589 0.07119,-0.01834 0.149518,-0.0057 0.18502,0.02976 0.02453,0.02453 0.05127,0.08967 0.06715,0.163593 l 0.0031,0.01453 -0.08314,0.02636 c -0.04573,0.0145 -0.08511,0.02636 -0.08751,0.02636 -0.0024,0 -0.01012,-0.02212 -0.01715,-0.04915 -0.007,-0.02703 -0.01676,-0.05356 -0.02163,-0.05894 -0.02182,-0.02411 -0.05548,-0.0024 -0.05548,0.0357 0,0.0246 0.01199,0.06689 0.02498,0.08815 0.0122,0.01997 0.02314,0.02548 0.107948,0.05438 0.169631,0.05782 0.202149,0.09156 0.24241,0.251536 0.02875,0.114253 0.01939,0.167671 -0.03962,0.226125 -0.07106,0.07038 -0.186113,0.102043 -0.268611,0.07392 z"
       id="path3106" />
    <path
       style="fill:#000000;stroke:#000000;stroke-width:0.00216518;stroke-linecap:round;stroke-linejoin:round;paint-order:stroke markers fill"
       d="m 33.225056,28.159447 c 0,-0.0021 -0.03018,-0.188836 -0.06706,-0.414993 -0.03689,-0.226156 -0.06774,-0.417569 -0.06856,-0.425363 l -0.0015,-0.01417 0.120287,-0.02537 c 0.06616,-0.01395 0.122631,-0.02544 0.125495,-0.02552 0.0062,-1.9e-4 0.0034,-0.0087 0.06769,0.209141 0.0281,0.09527 0.05319,0.175379 0.05574,0.178025 0.003,0.0031 0.0037,-0.0054 0.0019,-0.02406 -0.0046,-0.04823 -0.01928,-0.382299 -0.0169,-0.384684 0.0043,-0.0043 0.247249,-0.05398 0.250139,-0.05118 0.0046,0.0044 0.141161,0.851528 0.137853,0.854836 -0.0034,0.0034 -0.162727,0.03717 -0.164544,0.03486 -6.7e-4,-8.53e-4 -0.02231,-0.131461 -0.04809,-0.290241 -0.02578,-0.15878 -0.04776,-0.289593 -0.04885,-0.290695 -0.0033,-0.0033 -0.0023,0.02529 0.01005,0.302724 0.0066,0.146871 0.01196,0.273544 0.01198,0.281496 l 4.8e-5,0.01446 -0.05905,0.0122 -0.05905,0.0122 -0.08168,-0.273699 c -0.04493,-0.150535 -0.08363,-0.2749 -0.086,-0.276367 -0.0024,-0.0015 -0.0031,0.0025 -0.0016,0.0089 0.0074,0.03071 0.09052,0.553983 0.08839,0.556114 -0.0024,0.0024 -0.153717,0.03522 -0.16236,0.03522 -0.0024,0 -0.0044,-0.0017 -0.0044,-0.0038 z"
       id="path3108" />
    <path
       style="fill:#000000;stroke:#000000;stroke-width:0.00216518;stroke-linecap:round;stroke-linejoin:round;paint-order:stroke markers fill"
       d="m 32.881883,27.904627 c -0.0062,-0.04036 -0.01446,-0.121511 -0.01252,-0.12345 0.0037,-0.0037 0.240068,-0.03829 0.242824,-0.03553 0.0034,0.0034 0.01905,0.137766 0.01631,0.140354 -0.0024,0.0022 -0.224206,0.03674 -0.236017,0.0367 -0.0053,-1.8e-5 -0.0087,-0.0058 -0.01059,-0.01807 z"
       id="path3110" />
    <path
       style="fill:#000000;stroke:#000000;stroke-width:0.00216518;stroke-linecap:round;stroke-linejoin:round;paint-order:stroke markers fill"
       d="m 32.664964,28.21717 c -0.0015,-0.01246 -0.0094,-0.09302 -0.01743,-0.179023 -0.03487,-0.37281 -0.03745,-0.392698 -0.05288,-0.406655 -0.01291,-0.01168 -0.04072,-0.01579 -0.08335,-0.0123 l -0.03637,0.003 -0.0025,-0.01695 c -0.0014,-0.0093 -0.0038,-0.03102 -0.0054,-0.04822 l -0.0029,-0.03128 0.03827,-0.01784 c 0.06412,-0.02989 0.103894,-0.06565 0.157294,-0.141436 0.0031,-0.0044 0.02372,-0.0092 0.05774,-0.01333 0.02911,-0.0036 0.05326,-0.0063 0.05367,-0.006 0.0014,0.001 0.08321,0.866055 0.08199,0.867273 -6.76e-4,6.76e-4 -0.03689,0.0057 -0.08047,0.01107 -0.04359,0.0054 -0.08501,0.01085 -0.09205,0.01208 -0.01208,0.0021 -0.01297,9.6e-4 -0.01561,-0.02041 z"
       id="path3112" />
    <path
       style="fill:#000000;stroke:#000000;stroke-width:0.00216518;stroke-linecap:round;stroke-linejoin:round;paint-order:stroke markers fill"
       d="m 32.188718,28.238004 c -0.0017,-0.02656 -0.0044,-0.0658 -0.006,-0.08719 l -0.0029,-0.03889 0.06862,-0.0057 c 0.03774,-0.0032 0.06963,-0.0047 0.07086,-0.0035 0.0051,0.0051 0.01336,0.171251 0.0085,0.171466 -0.0027,1.21e-4 -0.0344,0.0029 -0.07044,0.0062 l -0.06554,0.006 z"
       id="path3114" />
    <path
       style="fill:#000000;stroke:#000000;stroke-width:0.00216518;stroke-linecap:round;stroke-linejoin:round;paint-order:stroke markers fill"
       d="m 32.166198,27.893145 c -0.0012,-0.0063 -0.01226,-0.170404 -0.01159,-0.171433 4.63e-4,-7.04e-4 0.02553,-0.0034 0.0557,-0.006 0.03017,-0.0026 0.06154,-0.0056 0.06972,-0.0067 l 0.01486,-0.002 0.0056,0.0842 c 0.0031,0.04631 0.0046,0.08587 0.0033,0.08792 -0.0013,0.002 -0.02347,0.0052 -0.04934,0.0069 -0.02587,0.0018 -0.05624,0.0045 -0.06749,0.006 -0.01125,0.0016 -0.0206,0.002 -0.02078,0.0011 z"
       id="path3116" />
    <path
       style="fill:#000000;stroke:#000000;stroke-width:0.00216518;stroke-linecap:round;stroke-linejoin:round;paint-order:stroke markers fill"
       d="m 31.849925,28.31711 c -0.09098,-0.01325 -0.147142,-0.06745 -0.166915,-0.161081 -0.01139,-0.05393 -0.02453,-0.341776 -0.01797,-0.393723 0.01211,-0.09598 0.06545,-0.15642 0.155758,-0.176515 0.04019,-0.0089 0.120612,-0.0043 0.149763,0.0087 0.07116,0.03162 0.107997,0.08444 0.123329,0.176851 0.0044,0.02651 0.01512,0.170366 0.01296,0.173839 -2.83e-4,4.55e-4 -0.0557,0.0044 -0.123158,0.0088 -0.06745,0.0044 -0.123574,0.0089 -0.124711,0.01004 -0.0051,0.0051 0.0083,0.20318 0.01462,0.216479 0.0089,0.01871 0.03604,0.02223 0.05019,0.0065 0.0086,-0.0095 0.0093,-0.01755 0.0089,-0.0936 l -4.53e-4,-0.08318 0.02451,-0.0028 c 0.01348,-0.0015 0.05286,-0.0042 0.08752,-0.0059 l 0.06301,-0.0031 0.0031,0.0259 c 0.0046,0.03825 0.0039,0.0956 -0.0016,0.125081 -0.0077,0.04177 -0.03488,0.09141 -0.06502,0.118959 -0.02976,0.0272 -0.06328,0.0418 -0.112182,0.04887 -0.03607,0.0052 -0.04536,0.0052 -0.08166,-8.1e-5 z m 0.04906,-0.471371 0.01394,-5.3e-5 -0.0033,-0.05557 c -0.0044,-0.07367 -0.01027,-0.08852 -0.03504,-0.0887 -0.02246,-1.58e-4 -0.0256,0.01 -0.0256,0.08269 v 0.06765 l 0.01804,-0.003 c 0.0099,-0.0016 0.02432,-0.003 0.03198,-0.003 z"
       id="path3118" />
    <path
       style="fill:#000000;stroke:#000000;stroke-width:0.00216518;stroke-linecap:round;stroke-linejoin:round;paint-order:stroke markers fill"
       d="m 31.420809,28.315557 c 3.8e-5,-0.0084 -0.0056,-0.204244 -0.0125,-0.435318 -0.0069,-0.231074 -0.0116,-0.421105 -0.01041,-0.422292 0.0012,-0.0012 0.04454,-0.0037 0.09635,-0.0057 l 0.09419,-0.0035 0.0027,0.0433 c 0.0015,0.02382 0.007,0.203526 0.01232,0.399355 0.0053,0.195828 0.01051,0.372638 0.0116,0.39291 l 0.002,0.03686 -0.04883,0.0027 c -0.02686,0.0015 -0.07103,0.0036 -0.09815,0.0048 l -0.04932,0.0021 z"
       id="path3120" />
    <path
       style="fill:#000000;stroke:#000000;stroke-width:0.00216518;stroke-linecap:round;stroke-linejoin:round;paint-order:stroke markers fill"
       d="m 30.908383,28.035495 c -0.002,-0.22375 -0.0028,-0.407506 -0.0018,-0.408347 9.67e-4,-8.41e-4 0.04344,-0.003 0.09438,-0.0049 l 0.09262,-0.0034 v 0.0316 c 0,0.01738 0.0016,0.0316 0.0036,0.03159 0.002,-7e-6 0.0079,-0.0067 0.01323,-0.01488 0.02426,-0.03749 0.08389,-0.06608 0.125845,-0.06032 0.041,0.0056 0.08009,0.03513 0.09551,0.07212 0.01328,0.03183 0.0174,0.123381 0.01588,0.352222 -0.0013,0.199716 -0.0023,0.222881 -0.01004,0.240036 -0.02243,0.0497 -0.05986,0.07474 -0.111719,0.07474 -0.03805,0 -0.07011,-0.01517 -0.100031,-0.04731 -0.01268,-0.01362 -0.02412,-0.02477 -0.02544,-0.02477 -0.0013,0 -9.12e-4,0.03647 8.98e-4,0.08105 l 0.0033,0.08105 -0.01574,0.0031 c -0.0087,0.0017 -0.052,0.0031 -0.09631,0.0031 h -0.08057 z m 0.242913,0.185573 c 0.0063,-0.004 0.0072,-0.03523 0.0069,-0.235126 -2.55e-4,-0.209373 -0.001,-0.231703 -0.0085,-0.243139 -0.01032,-0.01574 -0.03151,-0.0169 -0.04457,-0.0024 -0.0088,0.0097 -0.0091,0.0193 -0.0079,0.212909 0.0014,0.219875 0.0032,0.254688 0.01399,0.265454 0.008,0.008 0.02921,0.0092 0.04006,0.0023 z"
       id="path3122" />
    <path
       style="fill:#000000;stroke:#000000;stroke-width:0.00216518;stroke-linecap:round;stroke-linejoin:round;paint-order:stroke markers fill"
       d="m 30.683041,28.337706 -0.028,-0.0017 0.0034,-0.164544 c 0.0019,-0.0905 0.0037,-0.220916 0.0039,-0.289814 4.72e-4,-0.112358 -3.53e-4,-0.126617 -0.008,-0.138331 -0.01492,-0.02284 -0.04311,-0.01481 -0.05151,0.01466 -0.003,0.01069 -0.0073,0.131151 -0.01043,0.297054 -0.0029,0.153487 -0.006,0.279816 -0.0068,0.280731 -8.05e-4,9.15e-4 -0.04176,8.3e-5 -0.09101,-0.0019 l -0.08954,-0.0035 0.0034,-0.290121 c 0.0031,-0.269728 0.0028,-0.29101 -0.0049,-0.302761 -0.01089,-0.01663 -0.0339,-0.01521 -0.04736,0.0029 -0.0089,0.01195 -0.0096,0.0272 -0.01437,0.300719 -0.0028,0.158474 -0.0053,0.28848 -0.0056,0.288901 -2.95e-4,4.21e-4 -0.04148,-4.53e-4 -0.09151,-0.0019 l -0.09098,-0.0027 0.0032,-0.197736 c 0.0017,-0.108755 0.0046,-0.269728 0.0063,-0.357719 l 0.0032,-0.159982 h 0.02734 c 0.01504,0 0.0571,0.0014 0.09347,0.0032 l 0.06613,0.0032 -0.0033,0.03412 -0.0033,0.03412 0.02552,-0.02835 c 0.04138,-0.04597 0.08801,-0.06091 0.140857,-0.04513 0.01945,0.0058 0.05905,0.04011 0.07648,0.06626 l 0.008,0.01203 0.01082,-0.01443 c 0.03308,-0.04412 0.06544,-0.0621 0.11223,-0.06236 0.02702,-1.5e-4 0.03856,0.0023 0.05769,0.0121 0.02739,0.01408 0.05221,0.04384 0.06116,0.07332 0.0067,0.02215 0.0073,0.292841 0.0011,0.521846 l -0.0033,0.121491 -0.06321,-9.1e-4 c -0.03477,-5e-4 -0.07581,-0.0017 -0.09121,-0.0027 z"
       id="path3124" />
    <path
       style="fill:#000000;stroke:#000000;stroke-width:0.00216518;stroke-linecap:round;stroke-linejoin:round;paint-order:stroke markers fill"
       d="m 30.683377,28.337716 -0.02767,-0.0017 5.6e-5,-0.02743 c 2.9e-5,-0.01508 0.0023,-0.132437 0.005,-0.260784 0.0054,-0.252233 0.004,-0.294063 -0.01045,-0.30848 -0.01829,-0.01829 -0.04067,-0.0078 -0.04781,0.02232 -0.0025,0.01051 -0.007,0.143615 -0.01,0.295779 -0.003,0.152164 -0.0061,0.27741 -0.0069,0.278325 -7.91e-4,9.15e-4 -0.04175,8.2e-5 -0.09102,-0.0019 l -0.08958,-0.0035 0.0034,-0.290129 c 0.0031,-0.267181 0.0028,-0.291106 -0.0047,-0.302476 -0.0097,-0.01474 -0.02623,-0.01609 -0.04188,-0.0034 -0.01011,0.0082 -0.01132,0.01425 -0.0146,0.07338 -0.002,0.03545 -0.0051,0.168134 -0.0069,0.294857 l -0.0034,0.230407 -0.03623,-0.0031 c -0.01993,-0.0017 -0.06115,-0.0031 -0.09161,-0.0031 h -0.05538 l 0.0032,-0.20088 c 0.0018,-0.110485 0.0046,-0.27179 0.0063,-0.358458 l 0.0032,-0.157576 h 0.02735 c 0.01504,0 0.0571,0.0014 0.09348,0.0032 l 0.06613,0.0032 -0.0033,0.03412 -0.0033,0.03412 0.02552,-0.02835 c 0.04118,-0.04574 0.08809,-0.06092 0.140144,-0.04532 0.02156,0.0065 0.063,0.04144 0.07377,0.06227 0.0039,0.0076 0.0087,0.01368 0.01063,0.01354 0.0019,-1.51e-4 0.01122,-0.01044 0.02067,-0.02285 0.03791,-0.0498 0.107323,-0.06669 0.160891,-0.03916 0.02739,0.01408 0.05221,0.04384 0.06116,0.07332 0.0067,0.02215 0.0073,0.292841 0.0011,0.521846 l -0.0033,0.121491 -0.06321,-9.1e-4 c -0.03477,-5e-4 -0.07566,-0.0017 -0.09088,-0.0026 z"
       id="path3126" />
    <path
       style="fill:#000000;stroke:#000000;stroke-width:0.00216518;stroke-linecap:round;stroke-linejoin:round;paint-order:stroke markers fill"
       d="m 29.982099,28.314655 c -0.04631,-0.0033 -0.08449,-0.0063 -0.08485,-0.0066 -3.57e-4,-2.74e-4 4.47e-4,-0.01511 0.0018,-0.03298 0.0026,-0.03497 0.0026,-0.03497 -0.02204,-0.0028 -0.05426,0.07074 -0.181001,0.04739 -0.211129,-0.0389 -0.007,-0.01999 -0.0084,-0.03821 -0.0076,-0.09946 0.0011,-0.08665 0.0098,-0.137513 0.02748,-0.160663 0.01362,-0.01785 0.06518,-0.04568 0.13273,-0.07164 0.05927,-0.02278 0.08274,-0.0364 0.09048,-0.05252 0.0084,-0.01751 0.0097,-0.117471 0.0017,-0.132114 -0.01024,-0.01879 -0.04413,-0.02029 -0.05127,-0.0023 -0.0018,0.0045 -0.0055,0.03963 -0.0082,0.078 -0.0027,0.03837 -0.0052,0.07 -0.0056,0.07028 -9.21e-4,7.24e-4 -0.173645,-0.009 -0.174893,-0.0099 -0.0027,-0.0018 0.0088,-0.116254 0.01373,-0.136275 0.02171,-0.08874 0.09355,-0.137543 0.201034,-0.136553 0.100901,9.3e-4 0.165709,0.03375 0.198616,0.100599 l 0.0158,0.0321 0.0013,0.08438 c 7.13e-4,0.04641 -0.0036,0.182868 -0.0096,0.303242 -0.0092,0.185779 -0.01197,0.218955 -0.0181,0.219475 -0.004,3.38e-4 -0.04511,-0.0021 -0.09142,-0.0055 z m -0.09451,-0.124943 c 0.004,-0.004 0.0085,-0.01858 0.0101,-0.03248 0.0038,-0.03335 0.01147,-0.188345 0.0094,-0.190666 -0.0039,-0.0044 -0.04974,0.03944 -0.05677,0.05425 -0.0096,0.02031 -0.01917,0.108382 -0.01489,0.137612 0.0017,0.01191 0.0066,0.02544 0.0107,0.03007 0.0092,0.01032 0.03167,0.01097 0.04144,0.0012 z"
       id="path3128" />
    <path
       style="fill:#000000;stroke:#000000;stroke-width:0.00216518;stroke-linecap:round;stroke-linejoin:round;paint-order:stroke markers fill"
       d="m 29.337987,28.280931 c -0.07406,-0.01607 -0.137078,-0.06346 -0.159764,-0.120126 -0.01088,-0.02717 -0.01152,-0.0343 -0.01116,-0.123909 2.1e-4,-0.05229 0.0014,-0.09612 0.0027,-0.09739 0.0032,-0.0032 0.175942,0.01397 0.179797,0.01782 0.0017,0.0017 7.71e-4,0.0341 -0.002,0.07202 -0.0061,0.08151 -0.0033,0.09993 0.0161,0.109285 0.01748,0.0084 0.03407,0.0031 0.04784,-0.01543 0.0087,-0.01163 0.01036,-0.0218 0.01182,-0.07082 0.0024,-0.07941 2.43e-4,-0.08322 -0.09503,-0.170597 -0.08395,-0.07699 -0.101782,-0.0971 -0.118485,-0.133645 -0.0285,-0.06236 -0.02682,-0.186215 0.0036,-0.267612 0.02637,-0.07048 0.109011,-0.112767 0.203368,-0.104066 0.09667,0.0089 0.16914,0.04814 0.198182,0.107283 0.01318,0.02685 0.01353,0.02957 0.01353,0.107735 0,0.04411 -0.0012,0.0814 -0.0027,0.08288 -0.0025,0.0025 -0.149104,-0.0095 -0.17104,-0.01406 -0.0098,-0.002 -0.01006,-0.0041 -0.0078,-0.05907 0.0029,-0.07038 -3.64e-4,-0.07909 -0.0288,-0.07698 -0.03002,0.0022 -0.0388,0.01728 -0.04136,0.07091 -0.003,0.06246 0.0038,0.07413 0.08092,0.140062 0.09439,0.08065 0.131339,0.125842 0.147354,0.180225 0.01684,0.05718 0.0092,0.205193 -0.01382,0.266621 -0.03056,0.08168 -0.138383,0.123775 -0.253223,0.09886 z"
       id="path3130" />
    <path
       style="fill:#000000;stroke:#000000;stroke-width:0.00216518;stroke-linecap:round;stroke-linejoin:round;paint-order:stroke markers fill"
       d="m 28.834944,28.205985 c -0.04742,-0.0076 -0.08699,-0.01467 -0.08794,-0.01562 -9.49e-4,-9.5e-4 5.59e-4,-0.03589 0.0034,-0.07764 0.0028,-0.04175 0.0042,-0.07684 0.003,-0.07798 -0.0011,-0.0011 -0.01766,-0.0044 -0.03673,-0.0072 -0.02606,-0.0039 -0.03554,-0.0037 -0.03815,4.82e-4 -0.0019,0.0031 -0.0096,0.03792 -0.01697,0.07739 l -0.01349,0.07176 -0.01259,-0.0024 c -0.0069,-0.0013 -0.05156,-0.0084 -0.09919,-0.01568 -0.07821,-0.01196 -0.08658,-0.01415 -0.08632,-0.02258 1.6e-4,-0.0051 0.04558,-0.196687 0.100932,-0.42568 l 0.100641,-0.416351 0.142049,0.02208 0.142049,0.02208 0.0032,0.266769 c 0.0018,0.146723 0.0039,0.345257 0.0048,0.441187 l 0.0016,0.174417 -0.01203,-5.53e-4 c -0.0066,-3.05e-4 -0.05083,-0.0068 -0.09825,-0.01445 z m -0.06372,-0.433674 c 0.0017,-0.06153 0.0042,-0.146511 0.0055,-0.188852 l 0.0023,-0.07698 -0.01924,0.07458 c -0.01923,0.07451 -0.06046,0.256333 -0.06328,0.279068 -0.0014,0.0114 2.61e-4,0.01231 0.03219,0.01747 0.01852,0.003 0.03496,0.0057 0.03653,0.006 0.0016,3.14e-4 0.0043,-0.04977 0.006,-0.111297 z"
       id="path3132" />
    <path
       style="fill:#000000;stroke:#000000;stroke-width:0.00216518;stroke-linecap:round;stroke-linejoin:round;paint-order:stroke markers fill"
       d="m 28.320952,28.119952 c -0.04431,-0.0097 -0.08161,-0.01864 -0.08288,-0.01992 -0.0013,-0.0013 -0.0101,-0.09096 -0.01963,-0.199302 -0.0095,-0.108343 -0.01891,-0.201118 -0.02085,-0.206167 -0.0022,-0.0056 -0.01604,0.06579 -0.0359,0.185016 -0.0178,0.106808 -0.03323,0.19506 -0.03428,0.196116 -0.0016,0.0016 -0.12897,-0.02408 -0.152092,-0.0307 -0.0066,-0.0019 0.0018,-0.05825 0.06409,-0.429068 0.03943,-0.234789 0.07249,-0.427678 0.07345,-0.42864 0.002,-0.002 0.155746,0.03068 0.15875,0.03369 0.001,10e-4 0.01217,0.09442 0.02472,0.207508 0.01255,0.113083 0.02426,0.203956 0.02602,0.20194 0.0018,-0.002 0.01704,-0.08775 0.03395,-0.190529 0.01691,-0.102775 0.03184,-0.188599 0.03317,-0.190721 0.0021,-0.0033 0.15311,0.02626 0.157752,0.0309 0.0024,0.0024 -0.13951,0.85131 -0.142894,0.854679 -0.0015,0.0015 -0.03906,-0.0051 -0.08337,-0.01481 z"
       id="path3136" />
    <path
       style="fill:#000000;stroke:#000000;stroke-width:0.00216518;stroke-linecap:round;stroke-linejoin:round;paint-order:stroke markers fill"
       d="m 27.770676,27.984895 c -0.02441,-0.0042 -0.115442,-0.03111 -0.254928,-0.07542 l -0.07263,-0.02307 0.04197,-0.170722 c 0.02308,-0.0939 0.06955,-0.282889 0.103246,-0.41998 l 0.06127,-0.249258 0.0149,0.0033 c 0.0381,0.0084 0.246239,0.07993 0.279149,0.09598 0.06512,0.03175 0.09868,0.07166 0.109505,0.130249 0.0072,0.03883 -0.0011,0.08375 -0.061,0.328972 -0.05695,0.233352 -0.07737,0.302173 -0.09951,0.335292 -0.0251,0.03755 -0.06923,0.05372 -0.121991,0.04467 z m -0.04656,-0.17674 c 0.01305,-0.0083 0.028,-0.05803 0.07577,-0.252109 0.06001,-0.24381 0.06402,-0.263802 0.05632,-0.280712 -0.0048,-0.01059 -0.04682,-0.03554 -0.05097,-0.03028 -6.98e-4,8.82e-4 -0.03197,0.127024 -0.06949,0.280314 -0.05277,0.2156 -0.06683,0.279591 -0.06208,0.282603 0.0078,0.0049 0.04276,0.0051 0.05045,1.89e-4 z"
       id="path3138" />
  </g>
</svg>
