<?xml version="1.0" encoding="UTF-8" standalone="no"?>
<svg
   xmlns:dc="http://purl.org/dc/elements/1.1/"
   xmlns:cc="http://creativecommons.org/ns#"
   xmlns:rdf="http://www.w3.org/1999/02/22-rdf-syntax-ns#"
   xmlns:svg="http://www.w3.org/2000/svg"
   xmlns="http://www.w3.org/2000/svg"
   xmlns:sodipodi="http://sodipodi.sourceforge.net/DTD/sodipodi-0.dtd"
   xmlns:inkscape="http://www.inkscape.org/namespaces/inkscape"
   version="1.1"
   viewBox="0 0 64 64"
   id="svg863"
   sodipodi:docname="icon.svg"
   inkscape:version="1.0.2 (e86c870879, 2021-01-15)">
  <metadata
     id="metadata869">
    <rdf:RDF>
      <cc:Work
         rdf:about="">
        <dc:format>image/svg+xml</dc:format>
        <dc:type
           rdf:resource="http://purl.org/dc/dcmitype/StillImage" />
        <dc:title />
      </cc:Work>
    </rdf:RDF>
  </metadata>
  <defs
     id="defs867">
    <inkscape:path-effect
       effect="spiro"
       id="path-effect1452"
       is_visible="true"
       lpeversion="1" />
  </defs>
  <sodipodi:namedview
     pagecolor="#ffffff"
     bordercolor="#666666"
     borderopacity="1"
     objecttolerance="10"
     gridtolerance="10"
     guidetolerance="10"
     inkscape:pageopacity="0"
     inkscape:pageshadow="2"
     inkscape:window-width="3840"
     inkscape:window-height="2066"
     id="namedview865"
     showgrid="false"
     inkscape:zoom="22.607389"
     inkscape:cx="47.965674"
     inkscape:cy="41.112461"
     inkscape:window-x="-11"
     inkscape:window-y="-11"
     inkscape:window-maximized="1"
     inkscape:current-layer="svg863"
     inkscape:document-rotation="0" />
  <g
     id="g1471"
     transform="translate(1.2)">
    <path
       style="fill:#ff8080;fill-opacity:1;stroke:#ff8080;stroke-width:0.207;stroke-linecap:round;stroke-linejoin:round;stroke-miterlimit:4;stroke-dasharray:none;stroke-opacity:1;paint-order:normal"
       d="M 19.796314,24.926006 C 19.423078,24.770708 19.368225,24.737616 19.1723,24.549557 18.998257,24.382503 18.917798,24.270626 18.748338,23.960052 l -0.209152,-0.383319 -0.02134,-0.423022 -0.02134,-0.423021 0.266045,-0.701816 c 0.146325,-0.385999 0.396062,-1.032202 0.554971,-1.436009 0.15891,-0.403806 0.288927,-0.744202 0.288927,-0.756437 0,-0.01223 0.06738,-0.09847 0.149738,-0.191606 0.08235,-0.09315 0.354267,-0.451583 0.604248,-0.796519 0.249981,-0.344935 0.639976,-0.866961 0.866655,-1.160059 0.660863,-0.8545 0.889147,-1.225882 0.961346,-1.563959 0.04371,-0.204729 0.295484,-0.681149 0.741541,-1.40325 0.299149,-0.484275 0.413143,-0.707846 0.635464,-1.246292 0.01946,-0.04714 0.08295,0.02926 0.347481,0.418102 0.178016,0.261681 0.44466,0.670649 0.592544,0.908819 0.147882,0.238169 0.361494,0.553986 0.474693,0.701815 0.1132,0.147829 0.215567,0.284568 0.227482,0.303864 0.02811,0.04552 -0.0965,0.184231 -0.867552,0.965684 -1.032284,1.046207 -1.926402,2.24966 -2.684536,3.613299 -0.330913,0.595208 -0.372506,0.688966 -0.569674,1.284174 -0.181678,0.54844 -0.542661,1.940986 -0.825303,3.183712 l -0.05505,0.242059 z"
       id="path2433" />
    <path
       style="fill:#ff8080;fill-opacity:1;stroke:#ff8080;stroke-width:0.207;stroke-linecap:round;stroke-linejoin:round;stroke-miterlimit:4;stroke-dasharray:none;stroke-opacity:1;paint-order:normal"
       d="m 20.763194,25.127607 c 0,-0.02123 0.293783,-1.254031 0.475453,-1.995146 0.09462,-0.385999 0.262744,-0.977315 0.373609,-1.314039 0.189105,-0.57435 0.225017,-0.653973 0.580522,-1.287143 0.750047,-1.335864 1.55586,-2.416256 2.559357,-3.431449 0.349079,-0.353147 0.68646,-0.70154 0.749738,-0.774206 l 0.115049,-0.13212 0.222891,0.208585 c 0.235484,0.220371 0.455759,0.379862 0.88341,0.639641 0.231278,0.140491 0.295216,0.164276 0.559209,0.208013 0.375426,0.0622 0.809286,0.03652 1.422347,-0.08415 0.37328,-0.07348 0.462472,-0.102922 0.67508,-0.222826 0.134735,-0.07599 0.249177,-0.134072 0.254313,-0.129079 0.0052,0.005 -0.0044,0.04439 -0.02135,0.08756 -0.01688,0.04315 -0.04006,0.16736 -0.05151,0.276005 -0.01493,0.141702 -0.03914,0.215656 -0.08563,0.261647 -0.03564,0.03526 -0.301833,0.393369 -0.591526,0.795794 -0.464767,0.645624 -0.604381,0.870678 -1.187061,1.913493 -0.584627,1.046299 -0.726759,1.275255 -1.239535,1.996723 l -0.579189,0.814912 -0.62403,0.522854 c -0.343218,0.28757 -0.665419,0.556708 -0.716004,0.598085 -0.05357,0.04381 -0.565102,0.252792 -1.224998,0.500448 l -1.133025,0.425219 -0.577994,0.04974 c -0.317897,0.02736 -0.636749,0.05745 -0.708562,0.06687 -0.07182,0.0094 -0.130567,0.01148 -0.130567,0.0046 z"
       id="path2431" />
    <path
       style="fill:#ffe6d5;fill-opacity:1;stroke:#ffe6d5;stroke-width:0.203;stroke-linecap:round;stroke-linejoin:round;stroke-miterlimit:4;stroke-dasharray:none;stroke-opacity:1;paint-order:normal"
       d="m 36.646084,28.853807 c -0.237179,-0.139973 -0.417726,-0.222569 -0.583714,-0.267035 -0.132176,-0.03542 -0.413131,-0.11755 -0.624343,-0.182534 -0.211212,-0.06498 -0.526816,-0.150175 -0.701339,-0.18931 l -0.317318,-0.07115 -0.404645,0.05591 c -0.222555,0.03076 -0.486302,0.08346 -0.586105,0.117132 -0.0998,0.03367 -0.200101,0.06122 -0.222887,0.06122 -0.06349,0 0.504814,-1.078953 0.799235,-1.517383 0.25748,-0.38342 0.338666,-0.47806 0.369071,-0.430239 0.0092,0.01449 0.02632,0.255639 0.03801,0.535899 l 0.02127,0.509561 0.152418,0.174835 c 0.183616,0.210619 0.514442,0.408786 0.643918,0.385709 0.04594,-0.0082 0.159327,-0.06382 0.251997,-0.123631 0.148434,-0.09581 0.179345,-0.134129 0.259698,-0.321982 0.12938,-0.302465 0.134631,-0.338092 0.08427,-0.571604 -0.02479,-0.114979 -0.06219,-0.371521 -0.08311,-0.570094 -0.03603,-0.342042 -0.03442,-0.375045 0.03047,-0.627154 0.08958,-0.347992 0.196102,-0.457876 0.49451,-0.510137 0.2957,-0.05178 0.468647,-0.04669 0.773083,0.0228 0.270602,0.06176 0.276697,0.06518 0.525265,0.294484 l 0.251487,0.232001 -0.204095,0.414799 c -0.332852,0.676482 -0.615198,1.423227 -0.702143,1.857011 -0.04643,0.231627 -0.02385,0.636646 0.04429,0.794745 0.02764,0.06411 0.04661,0.11933 0.04216,0.122695 -0.0044,0.0034 -0.162611,-0.08507 -0.351478,-0.196537 z"
       id="path2407" />
    <path
       style="fill:#ffe6d5;fill-opacity:1;stroke:#ffe6d5;stroke-width:0.207;stroke-linecap:round;stroke-linejoin:round;stroke-miterlimit:4;stroke-dasharray:none;stroke-opacity:1;paint-order:normal"
       d="m 42.023722,13.517934 c -0.0099,-0.04813 -0.121122,-0.241908 -0.247151,-0.430605 -0.187893,-0.281318 -0.251323,-0.409312 -0.352342,-0.710959 -0.06776,-0.202332 -0.11931,-0.371655 -0.114558,-0.376275 0.0047,-0.0046 0.08562,0.0288 0.17971,0.07427 0.198588,0.09597 0.282121,0.221839 0.461139,0.694886 0.156647,0.41394 0.227663,0.730539 0.177138,0.789718 -0.05782,0.06773 -0.08366,0.05753 -0.103932,-0.04102 z"
       id="path2447" />
    <path
       style="fill:#365900;fill-opacity:1;stroke:#365900;stroke-width:0.407;stroke-linecap:round;stroke-linejoin:round;stroke-miterlimit:4;stroke-dasharray:none;stroke-opacity:1;paint-order:normal"
       d="m 42.53811,15.984822 c -1.129858,-0.263488 -1.350824,-0.36817 -2.108968,-0.999115 -0.798645,-0.664652 -0.901725,-0.767392 -1.08379,-1.080218 -0.202793,-0.348439 -0.232267,-0.426537 -0.385559,-1.021612 -0.14469,-0.56168 -0.173182,-0.717727 -0.21553,-1.180416 -0.01808,-0.19753 -0.05302,-0.432713 -0.07763,-0.52263 -0.02461,-0.08992 -0.04493,-0.178942 -0.04513,-0.197834 -5.18e-4,-0.0488 0.46375,-0.435634 0.736943,-0.614034 l 0.23041,-0.150458 0.384014,0.01673 c 1.147726,0.05 1.742576,0.337796 2.737497,1.324419 0.465641,0.461758 0.627207,0.677526 0.673335,0.899225 0.01959,0.09413 0.08183,0.252416 0.138316,0.351738 0.155449,0.273328 0.180053,0.474013 0.181877,1.483483 l 0.0016,0.88759 -0.215049,0.21293 c -0.373171,0.369494 -0.685965,0.625286 -0.760546,0.621947 -0.03791,-0.0017 -0.124225,-0.01598 -0.191812,-0.03175 z m -0.143437,-2.246623 c 0.121132,-0.12144 0.220241,-0.235094 0.220241,-0.252564 0,-0.06853 -0.214659,-0.838199 -0.292765,-1.049725 -0.04549,-0.123191 -0.145164,-0.342292 -0.221502,-0.48689 -0.122745,-0.232511 -0.156982,-0.273087 -0.296122,-0.350955 -0.232634,-0.130192 -0.476033,-0.212468 -0.64404,-0.217706 -0.130857,-0.0041 -0.157888,0.0061 -0.224414,0.08496 -0.04161,0.04927 -0.102972,0.140303 -0.136384,0.202283 -0.06982,0.129528 -0.06666,0.148429 0.116153,0.693652 0.122182,0.364394 0.178632,0.482414 0.404394,0.845474 0.08488,0.136501 0.17827,0.31121 0.207534,0.388238 0.02926,0.07703 0.06811,0.15904 0.08632,0.182241 0.05282,0.06729 0.330174,0.178199 0.450336,0.180078 0.09735,0.0015 0.135358,-0.0237 0.330253,-0.219081 z"
       id="path2739" />
    <path
       style="fill:#c2b400;fill-opacity:1;stroke:#c2b400;stroke-width:0.107012;stroke-linecap:round;stroke-linejoin:round;stroke-miterlimit:4;stroke-dasharray:none;stroke-opacity:1;paint-order:normal"
       d="m 30.223639,30.574924 c -0.123351,-0.100898 -0.227444,-0.34911 -0.244509,-0.583047 -0.01276,-0.174926 -0.0071,-0.200563 0.05819,-0.259283 0.08499,-0.07655 0.748885,-0.295153 1.049348,-0.345526 0.360061,-0.06036 0.402333,0.05256 0.153286,0.409497 -0.197628,0.283245 -0.77137,0.852509 -0.859112,0.852408 -0.03673,-4.2e-5 -0.107462,-0.03336 -0.157202,-0.07405 z"
       id="path2731" />
    <path
       style="fill:#ff8080;fill-opacity:1;stroke:#ff8080;stroke-width:0.209;stroke-linecap:round;stroke-linejoin:round;stroke-miterlimit:4;stroke-dasharray:none;paint-order:stroke markers fill"
       d="m 38.531765,20.739834 c -0.172751,-0.36716 -0.22837,-0.441581 -0.482863,-0.64609 -0.265055,-0.212996 -0.29901,-0.260584 -0.432733,-0.606473 -0.07981,-0.206437 -0.177397,-0.40432 -0.216859,-0.439739 -0.03946,-0.03542 -0.280753,-0.156129 -0.536201,-0.268244 l -0.46445,-0.203847 1.017367,-1.033458 c 1.451,-1.47395 2.227991,-2.192331 2.372123,-2.19319 0.01527,-9.1e-5 0.164588,0.114288 0.331826,0.254176 0.503927,0.421514 0.941584,0.668266 1.439401,0.811536 0.245422,0.07063 0.485571,0.128422 0.533664,0.128422 0.06742,0 0.01293,0.08164 -0.237937,0.356481 -0.564588,0.618557 -0.915804,1.061535 -1.367477,1.724757 -0.241091,0.35401 -0.577445,0.811824 -0.747455,1.017366 -0.592204,0.715976 -0.83949,1.06177 -0.892425,1.247928 -0.02931,0.103061 -0.06846,0.204923 -0.08701,0.226358 -0.01855,0.02144 -0.121587,-0.147756 -0.228968,-0.375983 z"
       id="path1416" />
    <path
       style="fill:#ff8080;fill-opacity:1;stroke:#ff8080;stroke-width:0.207;stroke-linecap:round;stroke-linejoin:round;stroke-miterlimit:4;stroke-dasharray:none;stroke-opacity:1;paint-order:normal"
       d="m 35.905862,18.34596 -0.276618,-0.124443 -0.959567,-0.01927 c -0.527761,-0.01059 -1.39159,-0.02641 -1.919622,-0.03514 -0.528031,-0.0087 -1.032169,-0.02308 -1.120306,-0.03189 l -0.16025,-0.01601 0.759325,-0.724455 c 1.188273,-1.133706 1.477551,-1.379833 1.704845,-1.45054 0.257353,-0.08005 2.18536,-1.409844 2.499205,-1.723755 0.411608,-0.411695 0.786701,-1.039037 0.871682,-1.457883 0.04455,-0.21961 0.07134,-0.261332 0.361178,-0.562607 0.210574,-0.218885 0.343024,-0.419751 0.344755,-0.522838 8.76e-4,-0.05222 0.125179,-0.222045 0.146997,-0.200835 0.0092,0.0089 0.03341,0.228104 0.05381,0.487017 0.03147,0.399616 0.06261,0.568173 0.206001,1.115426 0.163196,0.622803 0.176976,0.65901 0.406177,1.067366 0.234584,0.417941 0.240814,0.425602 0.553989,0.681379 l 0.316738,0.258685 -0.280843,0.255779 c -0.609356,0.554977 -1.194275,1.125642 -1.855932,1.81071 -0.38074,0.394211 -0.84586,0.851973 -1.033597,1.017247 l -0.341342,0.3005 z"
       id="path2435" />
    <path
       style="fill:#c2b400;fill-opacity:1;stroke:#c2b400;stroke-width:0.207;stroke-linecap:round;stroke-linejoin:round;stroke-miterlimit:4;stroke-dasharray:none;stroke-opacity:1;paint-order:normal"
       d="m 20.664686,27.567555 c -0.855917,-0.05818 -1.20418,-0.169309 -1.862434,-0.594272 -0.396386,-0.255903 -0.704309,-0.620094 -1.068307,-1.263528 L 17.592506,25.45974 v -0.602964 c 0,-0.511918 0.0095,-0.638253 0.06297,-0.836673 0.08242,-0.305892 0.147799,-0.425082 0.347667,-0.633819 0.199447,-0.208295 0.247822,-0.19462 0.273181,0.07723 0.01328,0.142306 0.05971,0.258173 0.241691,0.603079 0.198386,0.375995 0.257582,0.459795 0.496165,0.702394 l 0.270903,0.275463 0.476723,0.196678 c 0.826958,0.341171 0.720468,0.323471 1.537052,0.255466 0.386223,-0.03216 0.803198,-0.06734 0.926608,-0.07816 0.189495,-0.01663 0.41233,-0.09039 1.433152,-0.474442 l 1.208768,-0.45476 0.756092,-0.633183 0.756093,-0.633182 0.432304,-0.609817 c 0.237766,-0.3354 0.444042,-0.616869 0.458388,-0.625488 0.04395,-0.0264 0.05463,0.01844 0.09268,0.38907 l 0.03673,0.357777 -0.115187,0.582358 -0.115187,0.582358 -0.229543,0.313578 c -0.126249,0.172467 -0.47533,0.669711 -0.775735,1.104986 l -0.546193,0.79141 -0.425891,0.24383 c -0.580934,0.332592 -0.712023,0.39257 -1.348347,0.616897 -0.73223,0.258139 -1.409788,0.460629 -1.665551,0.497755 -0.288924,0.04193 -1.171315,0.120684 -1.282942,0.11449 -0.05069,-0.0028 -0.154376,-0.0093 -0.230414,-0.01452 z"
       id="path2733" />
    <path
       style="fill:#365900;fill-opacity:1;stroke:#365900;stroke-width:0.107012;stroke-linecap:round;stroke-linejoin:round;stroke-miterlimit:4;stroke-dasharray:none;stroke-opacity:1;paint-order:normal"
       d="m 34.460923,35.716061 -0.368661,-0.03366 -0.319095,-0.180066 c -0.472066,-0.266386 -0.507824,-0.333771 -0.783591,-1.476669 -0.100897,-0.418168 -0.105229,-0.461427 -0.126156,-1.259962 -0.02268,-0.865736 -0.0081,-1.129198 0.06224,-1.129198 0.05382,0 0.181979,0.157172 0.570666,0.699816 0.37121,0.518245 0.570234,0.740646 0.710622,0.794081 0.05521,0.02101 0.339903,0.145104 0.63267,0.275762 0.292767,0.130657 0.585009,0.244431 0.649426,0.252831 l 0.117122,0.01528 0.184237,0.451946 c 0.359716,0.882414 0.460711,1.317918 0.321818,1.387738 -0.09151,0.046 -1.160748,0.250564 -1.251914,0.239514 -0.0169,-0.002 -0.19662,-0.01888 -0.399384,-0.03738 z"
       id="path2455" />
    <path
       style="fill:#ff8080;fill-opacity:1;stroke:#ff8080;stroke-width:0.207;stroke-linecap:round;stroke-linejoin:round;stroke-miterlimit:4;stroke-dasharray:none;stroke-opacity:1;paint-order:normal"
       d="m 14.160719,53.220238 c -0.205724,-0.11379 -1.60295,-0.311441 -3.247616,-0.459412 -1.5799611,-0.142149 -2.4105021,-0.258204 -2.6312511,-0.367682 -0.188701,-0.09359 -0.584665,-0.153837 -1.224335,-0.186316 -1.181318,-0.05997 -1.538141,-0.153477 -1.598076,-0.418745 -0.113598,-0.502771 1.560025,-1.737111 3.963655,-2.923298 0.7249161,-0.357745 1.1424031,-0.525814 1.4116321,-0.568282 0.100518,-0.01586 0.255764,-0.06355 0.344993,-0.105989 0.348098,-0.165555 0.470165,-0.442317 0.493609,-1.119167 0.01802,-0.520087 -0.0272,-0.744756 -0.191057,-0.949195 -0.0809,-0.10094 -0.108676,-0.168784 -0.122684,-0.299651 -0.01001,-0.09305 -0.05623,-0.283598 -0.102816,-0.423455 l -0.08471,-0.254285 0.11192,-0.618582 0.111919,-0.618581 -0.120444,-1.15792 -0.120443,-1.157919 0.01592,-1.015394 0.01592,-1.015394 0.167406,-0.940731 c 0.167397,-0.940685 0.16741,-0.940804 0.248322,-2.344364 0.08238,-1.428976 0.185769,-2.49749 0.414669,-4.285556 l 0.120428,-0.940732 0.305607,-0.761546 c 0.168086,-0.418849 0.450266,-1.077362 0.627071,-1.46336 0.439204,-0.958869 0.969481,-1.800215 1.836859,-2.914397 0.543508,-0.69816 0.716745,-0.894964 1.318846,-1.498264 0.611349,-0.612569 0.903677,-0.872777 0.940401,-0.837079 0.0061,0.0059 -0.02276,0.117866 -0.06426,0.248619 -0.07156,0.225465 -0.07546,0.276118 -0.07546,0.981635 l -5e-6,0.743905 0.235544,0.420811 c 0.298017,0.532425 0.619408,0.942653 0.918556,1.172461 0.125227,0.0962 0.411951,0.278356 0.637164,0.404789 0.394655,0.221558 0.424976,0.233038 0.837518,0.317067 0.623073,0.126913 1.110906,0.142978 1.966969,0.06478 0.658508,-0.06016 0.696022,-0.0672 1.259594,-0.236472 0.31948,-0.09597 0.850457,-0.271005 1.179948,-0.388993 0.520859,-0.186515 0.674684,-0.257879 1.178176,-0.546583 0.663673,-0.380553 0.586856,-0.302677 1.21093,-1.227647 0.212289,-0.314646 0.535286,-0.775337 0.71777,-1.023757 l 0.331789,-0.451673 0.130177,-0.658967 0.13019,-0.658964 -0.0384,-0.4171 c -0.0211,-0.229404 -0.0462,-0.463984 -0.0558,-0.52129 l -0.0174,-0.104192 0.42591,0.116398 c 0.23426,0.06402 0.6015,0.141183 0.81609,0.171474 0.38932,0.05495 0.39126,0.05493 0.89202,-0.01157 0.4938,-0.06557 0.50749,-0.06939 0.85339,-0.238021 0.19335,-0.09426 0.60046,-0.263799 0.90469,-0.376748 l 0.55316,-0.205363 0.55613,-0.04541 c 0.30587,-0.02498 0.82228,-0.07097 1.14756,-0.102199 l 0.59143,-0.05679 0.39946,-0.244649 c 0.2197,-0.134557 0.51919,-0.294853 0.66554,-0.35621 0.257,-0.107755 0.28547,-0.112832 0.83443,-0.148777 0.31259,-0.02047 0.68791,-0.0608 0.83403,-0.08961 l 0.26568,-0.05239 0.22153,0.183327 0.22153,0.18333 0.27465,0.576929 0.27465,0.576928 -0.0326,0.153586 c -0.0534,0.251892 -0.0918,0.862449 -0.0931,1.482556 -0.002,0.982535 -0.0756,2.141069 -0.14249,2.246282 -0.0102,0.01615 -0.0965,-0.04388 -0.19162,-0.133405 -0.28891,-0.27191 -0.42894,-0.350736 -0.76237,-0.42916 -0.3577,-0.08414 -0.69958,-0.09171 -1.10027,-0.02438 l -0.2765,0.04646 -0.22027,0.211636 -0.22028,0.211635 -0.0965,0.377509 -0.0966,0.37751 0.0484,0.426849 c 0.0266,0.234767 0.0626,0.488479 0.08,0.5638 0.0256,0.110937 0.0215,0.164175 -0.0214,0.280272 -0.0292,0.07883 -0.0715,0.150223 -0.0941,0.158659 -0.0226,0.0084 -0.0939,-0.03758 -0.15853,-0.102271 l -0.11742,-0.117616 -0.0212,-0.480976 c -0.0197,-0.448822 -0.0275,-0.495321 -0.11667,-0.69552 -0.15883,-0.35679 -0.27728,-0.416017 -0.54343,-0.271731 -0.29386,0.159317 -0.75405,0.814146 -1.25229,1.781972 -0.17953,0.348737 -0.34604,0.698306 -0.37002,0.77682 -0.024,0.07852 -0.0786,0.192845 -0.12132,0.25407 -0.0542,0.07763 -0.0727,0.135651 -0.0612,0.19171 0.009,0.04421 -0.006,0.151726 -0.0325,0.238916 -0.0439,0.141876 -0.045,0.240076 -0.0107,0.935002 0.0299,0.606061 0.0304,0.887849 0.002,1.283923 -0.0239,0.33491 -0.0294,0.832466 -0.016,1.463362 l 0.0203,0.955914 0.16722,0.701816 c 0.16131,0.676945 0.17345,0.712266 0.34274,0.996696 l 0.1755,0.294881 0.41475,0.224504 0.41474,0.224506 0.5532,0.04463 0.55319,0.04463 0.61119,-0.123985 c 0.33615,-0.06819 0.61361,-0.120412 0.61656,-0.116047 0.0353,0.05216 0.23113,0.485951 0.23113,0.512057 0,0.02294 -0.0431,0.03102 -0.12487,0.02345 -0.16485,-0.01528 -0.35486,0.05813 -0.56918,0.219909 -0.26974,0.203613 -0.99343,0.904861 -1.00974,0.978436 -0.008,0.03628 -0.0364,0.811829 -0.063,1.723443 -0.0648,2.219366 -0.0959,2.612182 -0.22629,2.859008 -0.0612,0.11587 -0.34108,0.40619 -0.51954,0.538938 -0.0914,0.06802 -0.11179,0.07192 -0.21505,0.04132 -0.20022,-0.05933 -0.30731,-0.141914 -0.34313,-0.264616 -0.0962,-0.329637 -0.18977,-1.534143 -0.24543,-3.159724 -0.0296,-0.863182 -0.0585,-1.066349 -0.22316,-1.567886 -0.17125,-0.5215 -0.3719,-0.826709 -0.58692,-0.892758 -0.11607,-0.03565 -0.0942,-0.0343 -0.83999,-0.05167 l -0.58847,-0.0137 -0.46563,0.10869 c -0.7148,0.166855 -1.44971,0.426517 -1.93652,0.684217 -0.2281,0.120755 -0.5599,0.276397 -0.73732,0.345873 -0.177417,0.06947 -0.339853,0.139525 -0.360966,0.155665 -0.02111,0.01615 -0.125757,0.205773 -0.232539,0.421405 -0.176014,0.35544 -0.209995,0.403911 -0.363831,0.518982 -0.148703,0.111229 -0.188326,0.126628 -0.320454,0.124528 -0.08292,-0.0013 -0.218952,-0.02484 -0.302286,-0.05226 -0.136854,-0.04504 -0.169799,-0.07554 -0.340494,-0.315155 -0.103942,-0.145907 -0.248868,-0.399103 -0.322064,-0.562658 -0.117932,-0.263514 -0.150873,-0.310076 -0.289303,-0.408931 -0.239404,-0.170961 -0.702464,-0.467389 -0.765398,-0.489972 -0.0309,-0.01108 -0.34196,0.03513 -0.69124,0.102707 L 23.125015,37.7312 22.418414,37.67813 C 21.744308,37.6275 21.684944,37.6179 21.127622,37.469346 20.638675,37.339019 20.473391,37.279403 20.113803,37.103678 L 19.68418,36.893705 19.300158,36.442219 c -0.271851,-0.319608 -0.483255,-0.610479 -0.723744,-0.9958 L 18.236675,34.90211 18.062214,34.274957 c -0.120886,-0.434565 -0.205917,-0.827409 -0.276901,-1.279262 l -0.102436,-0.652107 0.09435,-0.06699 c 0.0519,-0.03684 0.387722,-0.186825 0.746286,-0.333282 l 0.651935,-0.266285 0.351638,-0.298785 c 0.193399,-0.164331 0.588689,-0.556304 0.878419,-0.87105 l 0.526784,-0.572266 0.59356,-0.390148 c 0.326458,-0.214583 0.602079,-0.41173 0.612491,-0.438105 0.03699,-0.09369 0.01865,-0.24311 -0.03569,-0.29092 -0.03004,-0.02643 -0.254697,-0.117015 -0.49923,-0.201299 l -0.444604,-0.153244 -0.599075,0.01803 c -0.329491,0.0099 -0.885627,0.02787 -1.235856,0.03987 l -0.636782,0.02185 -0.248863,0.238916 c -0.151764,0.145696 -0.283506,0.304842 -0.337647,0.40788 l -0.08878,0.168965 -0.275359,0.03658 c -0.273603,0.03634 -0.278479,0.0385 -0.765326,0.338732 -0.430744,0.26563 -0.514305,0.330616 -0.69129,0.537624 -0.251136,0.293736 -0.448804,0.41183 -1.2109,0.723441 l -0.560799,0.229302 -0.171926,0.25703 c -0.160635,0.240155 -0.170717,0.265814 -0.153531,0.390767 0.01011,0.07355 0.02727,0.410954 0.03812,0.749778 l 0.01973,0.616044 -0.140575,0.325344 c -0.305094,0.706107 -0.565899,1.97747 -0.697753,3.401388 -0.07578,0.818274 -0.122719,1.105809 -0.231917,1.420387 -0.238479,0.687015 -0.315329,1.027418 -0.333668,1.477936 -0.01464,0.359814 -0.0064,0.478907 0.05751,0.836207 0.101835,0.568936 0.361657,1.385221 0.643977,2.023213 l 0.235176,0.531452 0.09982,0.707924 c 0.0951,0.674481 0.09883,0.736141 0.07898,1.305215 -0.03307,0.947956 -0.08859,1.654523 -0.182573,2.323858 l -0.08728,0.621582 0.04553,0.572999 c 0.04215,0.530456 0.05673,0.610213 0.196302,1.07426 0.101203,0.336458 0.214796,0.631023 0.3455,0.895933 l 0.194727,0.394676 -0.02121,0.59729 c -0.01626,0.457849 -0.04009,0.69141 -0.102067,1.000461 -0.09856,0.491468 -0.107301,0.51446 -0.180295,0.474086 z M 24.50798,36.828055 c 0.125466,-0.0823 0.240774,-0.173014 0.25624,-0.201586 0.01547,-0.02857 0.05964,-0.196336 0.09815,-0.372811 0.06822,-0.312499 0.06867,-0.325651 0.0175,-0.504551 -0.02889,-0.101032 -0.06057,-0.332934 -0.07039,-0.515344 -0.01676,-0.311269 -0.01286,-0.343585 0.06361,-0.525774 0.04481,-0.106765 0.18345,-0.375546 0.308107,-0.59729 0.175451,-0.312105 0.238821,-0.45843 0.280552,-0.64782 l 0.05391,-0.244649 -0.176527,-0.287557 c -0.133399,-0.217304 -0.273907,-0.385059 -0.575129,-0.686656 -0.427537,-0.428068 -0.503215,-0.472555 -0.665279,-0.391087 -0.10112,0.05083 -0.128853,0.100509 -0.128853,0.230785 0,0.07314 0.07093,0.159605 0.408319,0.497788 0.224878,0.225405 0.452192,0.483989 0.505974,0.575576 0.121923,0.207629 0.11407,0.242694 -0.164054,0.732511 -0.111022,0.195524 -0.250753,0.469731 -0.310514,0.609348 l -0.108654,0.253848 0.01601,0.477833 c 0.0088,0.262807 0.03267,0.531507 0.05304,0.597109 0.02919,0.09406 0.0287,0.162067 -0.0023,0.321638 -0.03455,0.178008 -0.05141,0.209647 -0.14006,0.262908 l -0.100782,0.06055 -0.13831,-0.06861 c -0.236128,-0.117131 -0.5881,-0.666037 -0.730319,-1.138945 -0.08022,-0.266768 -0.08911,-0.333534 -0.07345,-0.552573 l 0.01781,-0.249141 -0.184607,-0.453714 c -0.153176,-0.376464 -0.204778,-0.471334 -0.303069,-0.5572 -0.113471,-0.09913 -0.119361,-0.113551 -0.139816,-0.342403 -0.04016,-0.449234 -0.09288,-0.535415 -0.316246,-0.516889 -0.0777,0.0065 -0.129146,0.0331 -0.172025,0.08918 -0.0583,0.07623 -0.05938,0.09586 -0.0231,0.418105 0.05399,0.479495 0.07478,0.542642 0.213869,0.649732 0.099,0.07622 0.143514,0.150888 0.263809,0.442533 0.139115,0.337272 0.143951,0.359082 0.125074,0.56412 -0.01731,0.188079 -0.0065,0.258665 0.09082,0.59729 0.118416,0.411673 0.272025,0.711907 0.589747,1.152679 0.175482,0.243443 0.25862,0.303022 0.576352,0.413032 0.252776,0.08752 0.329284,0.07549 0.584553,-0.09197 z m 6.113164,-5.735897 c 0.14012,-0.04177 0.57995,-0.523588 0.91169,-0.998718 0.26822,-0.384156 0.2938,-0.433283 0.3111,-0.597289 0.15611,-1.48066 0.15686,-1.495374 0.099,-1.940143 -0.0299,-0.230269 -0.07,-0.462307 -0.0891,-0.515639 -0.019,-0.05334 -0.15072,-0.2314 -0.29266,-0.395705 -0.24999,-0.289364 -0.26205,-0.298736 -0.38451,-0.298736 -0.12068,0 -0.14259,0.01592 -0.48283,0.350907 -0.40962,0.403304 -0.64082,0.740575 -0.79572,1.160796 -0.30021,0.81445 -0.40499,1.147723 -0.43077,1.370221 -0.0152,0.131405 -0.0365,0.297197 -0.0472,0.36843 -0.0121,0.08022 -0.007,0.142169 0.0147,0.162762 0.0188,0.01829 0.0342,0.115273 0.0342,0.215526 0,0.285262 0.17787,0.76651 0.34587,0.935765 0.21677,0.218396 0.28404,0.248132 0.51434,0.227333 0.10983,-0.0099 0.24116,-0.03041 0.29186,-0.04551 z"
       id="path2403" />
    <path
       style="fill:#ff8080;fill-opacity:1;stroke:#ff8080;stroke-width:0.207;stroke-linecap:round;stroke-linejoin:round;stroke-miterlimit:4;stroke-dasharray:none;stroke-opacity:1;paint-order:normal"
       d="m 21.936506,53.327191 c 0,-0.03848 0.382346,-0.614908 0.772633,-1.164828 0.244805,-0.344936 0.588322,-0.83546 0.763372,-1.090054 0.47378,-0.689076 1.020289,-1.383052 1.563974,-1.985991 0.438548,-0.486343 0.576926,-0.671294 1.452364,-1.941192 0.532198,-0.771998 1.103365,-1.618656 1.269261,-1.881464 0.165894,-0.262808 0.314886,-0.491272 0.331089,-0.507697 0.01882,-0.01908 0.02363,0.196659 0.01331,0.597291 -0.01611,0.625593 -0.01642,0.627899 -0.125758,0.9258 -0.103522,0.282048 -0.109645,0.319697 -0.110276,0.677472 -3.65e-4,0.208356 0.01294,0.413626 0.02958,0.456156 0.01663,0.04253 0.119765,0.177109 0.229179,0.299065 0.109416,0.121956 0.239852,0.300527 0.289858,0.396827 0.05001,0.0963 0.182464,0.284019 0.29435,0.417157 l 0.203429,0.24207 0.04395,0.457903 c 0.02416,0.251846 0.04434,0.461006 0.04482,0.464798 4.86e-4,0.0038 0.123219,0.144902 0.27274,0.313577 0.256914,0.289826 0.292795,0.31806 0.652839,0.513677 0.53895,0.292819 1.189985,0.69849 1.22603,0.76396 0.04962,0.09015 0.03623,0.148965 -0.03389,0.148965 -0.03543,0 -0.792337,0.140427 -1.682019,0.312061 -1.904757,0.367457 -2.290022,0.432245 -3.291943,0.553593 -1.493533,0.18089 -3.280561,0.601506 -3.93239,0.925574 -0.180376,0.08968 -0.276496,0.126277 -0.276496,0.10528 z"
       id="path2429" />
    <path
       style="fill:#ff8080;fill-opacity:1;stroke:#ff8080;stroke-width:0.207;stroke-linecap:round;stroke-linejoin:round;stroke-miterlimit:4;stroke-dasharray:none;stroke-opacity:1;paint-order:normal"
       d="m 33.02862,50.497705 -0.270883,-0.490363 -0.228526,-0.106928 c -0.125688,-0.05881 -0.235149,-0.106927 -0.243246,-0.106927 -0.0081,0 -0.225104,-0.139674 -0.48224,-0.310385 -0.26681,-0.177133 -0.620108,-0.380287 -0.822946,-0.473213 -0.195483,-0.08956 -0.474612,-0.248902 -0.620285,-0.354101 -0.263096,-0.189996 -0.265772,-0.193264 -0.401268,-0.489918 -0.07503,-0.164253 -0.1745,-0.397784 -0.22106,-0.518955 l -0.08466,-0.22031 0.01614,-0.645761 c 0.01001,-0.401352 0.03601,-0.758791 0.06866,-0.944404 l 0.05252,-0.298645 0.27304,-0.268938 c 0.232196,-0.228705 0.288669,-0.304653 0.377512,-0.507695 0.05746,-0.131319 0.142416,-0.321764 0.188797,-0.423212 l 0.08433,-0.18445 0.145336,0.21642 c 0.236453,0.3521 0.511913,0.533239 0.890225,0.585396 0.119331,0.01645 0.302747,0.0638 0.407588,0.105209 0.539311,0.213025 1.746785,0.966835 3.507662,2.189784 0.967896,0.672212 1.201995,0.859514 1.230178,0.984253 0.02764,0.122329 -0.06911,0.737129 -0.155468,0.988004 -0.10756,0.312444 -0.309744,0.598988 -0.668795,0.947843 -0.439964,0.427473 -0.448353,0.430724 -1.232748,0.477817 -0.720978,0.04329 -1.068504,0.109108 -1.328153,0.251556 -0.08851,0.04855 -0.172154,0.08829 -0.185879,0.08829 -0.01373,0 -0.146854,-0.220664 -0.295838,-0.490362 z"
       id="path2427" />
    <path
       style="fill:#008f00;fill-opacity:1;stroke:#008f00;stroke-width:0.207;stroke-linecap:round;stroke-linejoin:round;stroke-miterlimit:4;stroke-dasharray:none;stroke-opacity:1;paint-order:normal"
       d="m 31.682994,51.321439 c -0.02086,-0.01702 -0.05369,-0.08518 -0.07295,-0.151462 -0.01926,-0.06629 -0.06355,-0.150295 -0.09843,-0.186686 -0.08349,-0.08711 -0.492833,-0.352573 -1.044055,-0.677072 -0.508129,-0.299129 -0.828887,-0.538213 -0.935951,-0.697631 -0.05988,-0.08916 -0.08304,-0.188096 -0.122389,-0.522923 -0.02683,-0.228219 -0.07066,-0.455342 -0.09798,-0.507696 -0.02718,-0.05211 -0.135108,-0.208967 -0.239815,-0.348584 -0.104712,-0.139617 -0.237732,-0.327764 -0.295614,-0.418104 -0.05789,-0.09034 -0.17973,-0.24997 -0.270772,-0.354733 l -0.165532,-0.190479 0.02109,-0.324155 c 0.0145,-0.222757 0.04665,-0.401389 0.102784,-0.571065 l 0.08169,-0.246911 0.0047,-1.090055 0.0047,-1.090054 0.72956,-1.357368 c 0.401258,-0.746551 0.764864,-1.411732 0.808014,-1.478179 0.07776,-0.119738 0.07866,-0.120149 0.102162,-0.04626 0.01303,0.041 0.06727,0.457559 0.12052,0.925685 0.05325,0.468127 0.11709,0.958651 0.141873,1.090055 0.09306,0.493381 0.107219,0.419656 -0.197968,1.030325 -0.228508,0.457237 -0.312442,0.593268 -0.48682,0.788984 -0.115889,0.130068 -0.250738,0.282444 -0.299666,0.338612 -0.05181,0.05946 -0.100148,0.160275 -0.115737,0.241343 -0.06851,0.356129 -0.121533,0.904826 -0.137563,1.423392 l -0.01754,0.567426 0.09045,0.253848 c 0.14315,0.40171 0.373336,0.912102 0.469644,1.041342 0.09681,0.129918 0.499258,0.398638 1.013207,0.676539 0.177418,0.09593 0.543776,0.308044 0.814128,0.471357 0.270351,0.163314 0.576433,0.337737 0.680181,0.387609 l 0.188633,0.09068 0.188096,0.375982 c 0.103458,0.206789 0.187922,0.391104 0.187709,0.409588 -2.46e-4,0.02019 -0.169019,0.05846 -0.422811,0.09586 -0.537651,0.07924 -0.680623,0.08922 -0.727721,0.05079 z"
       id="path2453" />
    <path
       style="fill:none;stroke:#000000;stroke-width:0.467528;stroke-linecap:round;stroke-linejoin:round;stroke-miterlimit:4;stroke-dasharray:none;stroke-opacity:1;paint-order:normal"
       d="m 16.318358,53.801372 c -0.907899,-0.03406 -1.884821,-0.168083 -2.17094,-0.297818 -0.286118,-0.129734 -1.692841,-0.33213 -3.12605,-0.44977 -1.4332104,-0.117639 -2.6797764,-0.286103 -2.7701474,-0.374363 -0.09037,-0.08826 -0.5592,-0.17165 -1.041842,-0.18531 -1.493017,-0.04225 -1.912685,-0.190105 -1.969815,-0.693978 -0.07225,-0.637189 1.483597,-1.817129 4.144184,-3.142921 0.6182774,-0.308092 1.2490814,-0.559504 1.4017864,-0.558694 0.152704,8.09e-4 0.371943,-0.09014 0.4872,-0.202096 0.253364,-0.246127 0.285337,-1.437067 0.04259,-1.586049 -0.0953,-0.05848 -0.172497,-0.262652 -0.171555,-0.453705 9.42e-4,-0.191053 -0.140038,-0.55186 -0.313287,-0.801789 -0.781302,-1.127102 -0.801369,-1.334778 -0.770891,-7.977838 0.02075,-4.524283 0.0881,-6.44348 0.236369,-6.736145 0.114039,-0.2251 0.258116,-0.771799 0.320171,-1.214891 0.06206,-0.44309 0.186735,-0.849923 0.277064,-0.904073 0.09033,-0.05414 0.165259,-0.228241 0.166507,-0.386869 0.0013,-0.158627 0.28003,-0.813198 0.619512,-1.454605 1.638168,-3.095094 5.895671,-6.957737 7.3578,-6.675405 0.344576,0.06654 0.525204,-0.07674 1.065537,-0.845156 0.357843,-0.508901 0.945714,-1.293346 1.306379,-1.74321 0.360667,-0.449865 0.656419,-0.952159 0.657228,-1.116212 8.09e-4,-0.164052 0.323254,-0.792832 0.716546,-1.397287 0.540313,-0.830416 0.74052,-1.334093 0.819187,-2.060892 0.152592,-1.409753 0.609097,-2.311351 1.440675,-2.8453288 0.632021,-0.4058362 0.825491,-0.4448999 1.793258,-0.3620841 1.382878,0.1183394 2.324231,0.6094599 3.395166,1.7713199 0.883774,0.958808 1.057476,1.456278 1.053524,3.017194 -0.0015,0.579088 -0.11165,0.928381 -0.402869,1.277115 -0.714773,0.855941 -0.998728,1.393172 -1.0012,1.894218 -0.0024,0.490352 0.445904,1.058206 0.837095,1.060281 0.113672,6.03e-4 0.827818,-0.60965 1.586994,-1.356119 0.759175,-0.746468 1.463963,-1.35677 1.566194,-1.356228 0.167155,8.87e-4 1.00081,-0.547335 2.314904,-1.522311 0.463321,-0.343753 1.015782,-1.220585 1.017728,-1.615271 5.51e-4,-0.111763 0.158097,-0.341296 0.3501,-0.510075 0.192006,-0.168779 0.349532,-0.394528 0.35006,-0.501663 0.0013,-0.253061 1.211841,-1.368727 1.64512,-1.516123 0.184118,-0.06263 0.750636,-0.02685 1.258928,0.07951 0.727223,0.15218 1.127104,0.377311 1.876448,1.05644 0.523752,0.474676 0.951582,1.004322 0.950732,1.176993 -8.5e-4,0.172668 0.0764,0.361794 0.17172,0.42028 0.0953,0.05848 0.17059,0.64912 0.16732,1.312525 l -0.006,1.206192 -1.28247,1.207488 c -0.705357,0.664119 -1.541407,1.62827 -1.857885,2.142555 -0.316479,0.514287 -0.840432,1.221715 -1.164336,1.572062 -0.323906,0.350346 -0.589441,0.742504 -0.590076,0.871462 -6.37e-4,0.128957 -0.118935,0.329394 -0.262887,0.445416 -0.204438,0.164774 -0.263813,0.633529 -0.27125,2.141469 -0.0053,1.061785 -0.08183,1.973872 -0.170226,2.026857 -0.334718,0.200652 -1.241312,2.271189 -1.244125,2.841408 -0.0024,0.500574 0.186376,0.796626 1.18538,1.858322 0.65357,0.69459 1.30068,1.498577 1.438017,1.78664 0.349091,0.732209 1.322023,2.799517 1.654786,3.516125 0.152846,0.329152 0.455052,0.866671 0.671571,1.194484 0.216521,0.327816 0.392671,0.799072 0.391448,1.047237 -0.0013,0.248165 0.11461,0.547381 0.25741,0.664925 0.142803,0.117543 0.259113,0.319446 0.258473,0.448673 -6.3e-4,0.129228 0.0602,0.235285 0.13516,0.235684 0.17882,9.48e-4 0.73718,-0.920825 0.73866,-1.219418 6.3e-4,-0.127915 0.19105,-0.50392 0.42316,-0.835566 0.23211,-0.331647 0.48071,-0.981377 0.55244,-1.443844 0.0717,-0.462467 0.2377,-0.99168 0.36883,-1.176029 0.13112,-0.184347 0.23902,-0.462209 0.23979,-0.617468 7.6e-4,-0.15526 0.11412,-0.373148 0.2519,-0.4842 0.13779,-0.111049 0.30122,-0.423342 0.3632,-0.693981 0.13048,-0.569787 2.90645,-3.220196 3.37192,-3.219398 0.16092,3.42e-4 0.52781,-0.122336 0.81531,-0.272474 0.33082,-0.17276 1.13556,-0.301271 2.19206,-0.350052 1.8255,-0.0843 2.82854,0.160615 4.39681,1.073531 0.91105,0.530344 1.92351,1.697592 2.09523,2.415574 0.0673,0.281364 0.20879,0.61966 0.31445,0.751771 0.12403,0.155103 0.18699,1.273374 0.17771,3.156434 -0.0123,2.491254 -0.0622,3.015406 -0.34262,3.596762 -0.48878,1.013401 -1.30914,1.784009 -1.89586,1.780897 -0.72128,-0.0038 -0.79373,-0.439327 -0.17937,-1.078239 0.64346,-0.669176 1.27616,-1.860379 1.27886,-2.407742 0.001,-0.226096 0.0805,-0.458107 0.17634,-0.515579 0.0959,-0.05746 0.17634,-0.517574 0.17883,-1.022453 0.002,-0.504879 -0.0735,-0.965813 -0.16874,-1.024299 -0.0953,-0.05848 -0.17214,-0.334529 -0.17076,-0.613435 0.006,-1.129016 -1.01662,-2.593735 -2.41603,-3.461995 -0.51891,-0.321957 -0.84699,-0.375781 -2.27351,-0.372988 -1.39941,0.0028 -1.76647,0.06284 -2.28603,0.374297 -1.22874,0.736588 -2.37102,2.63577 -2.51923,4.188516 -0.054,0.56528 -0.22097,1.310742 -0.37115,1.656584 -0.15019,0.34584 -0.23452,0.83206 -0.1874,1.080485 0.10242,0.540083 -0.15083,1.425262 -0.69987,2.446215 -0.2213,0.411499 -0.40353,0.984982 -0.40495,1.274408 -0.002,0.429593 -0.21899,0.722842 -1.18098,1.596913 -0.95372,0.866552 -1.27775,1.064092 -1.69959,1.036107 -0.28666,-0.01902 -0.65965,0.0224 -0.82887,0.09203 -0.667387,0.274649 -2.116984,-0.326817 -3.698775,-1.5347 -1.139171,-0.86989 -1.282151,-1.042636 -1.279667,-1.546075 0.0016,-0.311719 -0.114041,-0.662935 -0.25684,-0.780479 -0.1428,-0.117542 -0.261673,-0.338649 -0.264163,-0.491345 -0.0025,-0.152698 -0.154116,-0.585446 -0.336946,-0.961663 -0.182831,-0.376218 -0.334485,-0.803013 -0.337011,-0.948436 -0.0025,-0.145422 -0.07642,-0.337702 -0.164209,-0.427288 -0.08779,-0.08959 -0.184089,-0.385539 -0.213997,-0.657672 -0.0299,-0.272132 -0.188451,-0.578128 -0.352314,-0.67999 -0.241185,-0.149926 -0.412842,-0.07701 -0.901232,0.382822 l -0.6033,0.568023 -0.06775,2.277879 c -0.06587,2.214647 -0.08085,2.290597 -0.539969,2.736122 -0.405006,0.393019 -0.531199,0.431498 -0.886578,0.270341 -0.379589,-0.172135 -0.423276,-0.320285 -0.520641,-1.765578 -0.05845,-0.867722 -0.104691,-1.899482 -0.102753,-2.292802 0.0034,-0.681823 -0.406282,-1.799464 -0.655629,-1.788759 -0.57914,0.02486 -2.234382,2.703227 -1.977861,3.200396 0.0797,0.154457 0.193077,0.911325 0.251962,1.681927 0.131013,1.714556 0.592206,2.592351 1.370165,2.607848 0.448649,0.0089 1.997211,0.948816 4.583833,2.782095 0.736235,0.521807 0.742869,0.535812 0.625521,1.320347 -0.08782,0.587122 -0.28135,0.958106 -0.745597,1.429246 -0.563307,0.571667 -0.716575,0.635825 -1.508891,0.631622 -0.50523,-0.0027 -1.042457,0.104474 -1.257821,0.250882 -0.206758,0.140557 -0.752821,0.296085 -1.213474,0.345617 -0.460655,0.04952 -1.346394,0.191057 -1.968311,0.314503 -2.79459,0.554703 -3.289421,0.639837 -4.435477,0.763115 -1.308774,0.14078 -3.424935,0.667945 -3.783088,0.94242 -0.25373,0.194451 -3.460864,0.319943 -5.868187,0.229617 z"
       id="path1446" />
    <path
       style="fill:none;stroke:#000000;stroke-width:0.467528;stroke-linecap:round;stroke-linejoin:round;stroke-miterlimit:4;stroke-dasharray:none;stroke-opacity:1"
       d="m 29.647684,17.592574 -1.06938,1.479354 -1.31617,2.358969 -1.19278,1.679267 -1.48069,1.239458 -2.34443,0.879616 -1.80973,0.159931 -1.15165,-0.479791 -0.49356,-0.47979 -0.45243,-0.839634 -0.0411,-0.95958 0.57582,-1.519337 0.53469,-1.359406"
       id="path1474" />
    <path
       style="fill:none;stroke:#000000;stroke-width:0.467528;stroke-linecap:round;stroke-linejoin:round;stroke-miterlimit:4;stroke-dasharray:none;stroke-opacity:1"
       d="m 18.396154,22.630376 -0.863738,0.919598 -0.205652,0.679702 v 0.599738 0.719687 l 0.452433,0.799651 0.411304,0.519773 0.411303,0.319859 0.781475,0.439808 0.781474,0.159931 0.822606,0.03998 1.316169,-0.119947 1.069387,-0.319861 1.23391,-0.439807 1.110517,-0.639721 0.370172,-0.519773 0.616954,-0.9196 0.616954,-0.839632 0.246782,-1.239459 -0.08226,-0.799651 -0.12339,-0.559755"
       id="path1476" />
    <path
       style="fill:none;stroke:#000000;stroke-width:0.467528;stroke-linecap:round;stroke-linejoin:round;stroke-miterlimit:4;stroke-dasharray:none;stroke-opacity:1"
       d="m 31.210766,26.556977 -0.616956,0.599739 -0.329041,0.519773 -0.205652,0.559755 -0.287912,0.839633 v 1.039546 l 0.164521,0.47979 0.287913,0.279878 0.370171,-0.03999 0.493564,-0.519773 0.534694,-0.759667 0.08226,-0.879616 0.08226,-0.719686 -0.123392,-0.879616 z"
       id="path1478" />
    <path
       style="fill:none;stroke:#000000;stroke-width:0.467528;stroke-linecap:round;stroke-linejoin:round;stroke-miterlimit:4;stroke-dasharray:none;stroke-opacity:1"
       d="m 29.688945,29.59565 0.534694,-0.119947 0.534693,-0.199913 0.616955,-0.15993 0.246781,0.03998"
       id="path1480" />
    <path
       style="fill:none;stroke:#000000;stroke-width:0.467528;stroke-linecap:round;stroke-linejoin:round;stroke-miterlimit:4;stroke-dasharray:none;stroke-opacity:1"
       d="m 36.393181,35.712978 -1.39843,0.279878 -0.987126,-0.07996 -0.740346,-0.399824 -0.287911,-0.479791 -0.329043,-1.359405 v -0.679704 l -0.04113,-1.039545 0.04113,-0.679705 0.04113,-0.599738 -0.04113,-0.599737 -0.04113,-0.799651 0.287913,-0.919598 0.329041,-0.639721 0.329043,-0.639721 0.452433,-0.679702 0.287912,-0.319861 0.16452,-0.07996 0.164522,0.359843 0.04113,0.559756 v 0.439808 l 0.246781,0.279878 0.287913,0.159929 0.246781,-0.159929 0.164522,-0.399826 -0.08226,-0.399825 -0.08226,-0.759669 0.164522,-0.63972 0.329042,-0.31986 0.493563,-0.07996 h 0.411303 l 0.534694,0.119948 0.287911,0.199913 0.370174,0.359843"
       id="path1482" />
    <path
       style="fill:none;stroke:#000000;stroke-width:0.467528;stroke-linecap:round;stroke-linejoin:round;stroke-miterlimit:4;stroke-dasharray:none;stroke-opacity:1"
       d="m 32.691456,28.795999 1.069387,-0.31986 0.658084,-0.07996 0.534694,0.119948 0.781475,0.239895 0.452434,0.119947 0.616954,0.359843 0.534693,0.279878 0.452434,0.359842"
       id="path1484" />
    <path
       style="fill:none;stroke:#000000;stroke-width:0.467528;stroke-linecap:round;stroke-linejoin:round;stroke-miterlimit:4;stroke-dasharray:none;stroke-opacity:1"
       d="m 17.473251,32.354446 0.205651,1.319424 0.370174,1.319422 0.699215,1.119512 0.822605,0.95958 0.904866,0.439808 1.192778,0.31986 1.48069,0.119949 1.275038,-0.239897 0.781477,0.519774 0.246781,0.559756 0.452433,0.63972 0.452434,0.119948 h 0.411302 l 0.452433,-0.359843 0.370173,-0.759668 0.699214,-0.279878 0.740346,-0.399826 1.069387,-0.359842 0.863735,-0.199913 h 0.987128"
       id="path1486" />
    <path
       style="fill:none;stroke:#000000;stroke-width:0.467528;stroke-linecap:round;stroke-linejoin:round;stroke-miterlimit:4;stroke-dasharray:none;stroke-opacity:1"
       d="m 23.601532,12.914618 0.45243,0.599737 0.45244,0.679704 0.57582,0.919598 0.5347,0.679703 0.49356,0.519772 0.45243,0.319861 0.5347,0.31986 0.49356,0.07996 0.61695,-0.03998 0.82261,-0.159931 0.78147,-0.439808 0.32905,-0.199912"
       id="path1488" />
    <path
       style="fill:none;stroke:#000000;stroke-width:0.467528;stroke-linecap:round;stroke-linejoin:round;stroke-miterlimit:4;stroke-dasharray:none;stroke-opacity:1"
       d="m 18.37812,22.518742 -1.562954,0.95958 -1.439559,1.439371 -1.275039,1.639284 -0.904866,1.439371 -0.658084,1.439371 -0.616955,1.55932 -0.287911,2.318988 -0.164521,1.559318 -0.164523,2.798777 -0.329041,1.839197 -0.04113,1.919162 0.246781,2.438934 -0.246781,1.359407"
       id="path1490" />
    <path
       style="fill:#008f00;fill-opacity:1;stroke:#008f00;stroke-width:0.207;stroke-linecap:round;stroke-linejoin:round;stroke-miterlimit:4;stroke-dasharray:none;stroke-opacity:1;paint-order:normal"
       d="m 28.768848,21.637276 c -0.352846,-0.0718 -1.025783,-0.242587 -1.050504,-0.266617 -0.0079,-0.0077 0.01099,-0.05151 0.0419,-0.09747 0.03091,-0.04596 0.03893,-0.07321 0.01782,-0.06056 -0.02111,0.01265 -0.03839,0.0153 -0.03839,0.0058 0,-0.05551 0.984163,-1.774817 1.221683,-2.134251 0.227165,-0.343766 0.737399,-1.03983 0.781757,-1.066479 0.02168,-0.01303 0.06146,0.01299 0.0993,0.06496 0.134734,0.184994 0.39942,0.432837 0.525739,0.49228 0.151067,0.07109 0.399518,0.08393 0.538807,0.02785 0.07196,-0.02898 0.328271,-0.0297 1.203986,-0.0034 0.611909,0.01839 1.650459,0.04207 2.307889,0.05264 l 1.195325,0.01921 0.683416,0.312458 0.683416,0.31246 0.08181,0.177222 c 0.118725,0.257176 0.103121,0.302407 -0.119044,0.345034 -0.09978,0.01915 -0.403922,0.04998 -0.675878,0.06851 -0.271959,0.01854 -0.56218,0.04683 -0.644936,0.06288 -0.202825,0.03933 -0.572627,0.211291 -1.013204,0.471142 -0.425715,0.251087 -0.329639,0.2313 -1.693457,0.348765 l -0.921653,0.07938 -0.491549,0.180644 c -0.270353,0.09936 -0.705834,0.271992 -0.967738,0.383639 -0.406718,0.173383 -0.523823,0.209815 -0.80271,0.249741 -0.423603,0.06064 -0.555843,0.05709 -0.963793,-0.02592 z"
       id="path2449" />
    <path
       style="fill:none;stroke:#000000;stroke-width:0.467528;stroke-linecap:round;stroke-linejoin:round;stroke-miterlimit:4;stroke-dasharray:none;stroke-opacity:1"
       d="m 27.397701,21.58486 1.357294,0.359845 0.616954,0.07996 0.904867,-0.119947 0.658084,-0.319861 1.192779,-0.439808 0.987126,-0.07996 1.275039,-0.119947 0.781475,-0.47979 0.575824,-0.239896 0.699215,-0.03998 0.493563,-0.03998 0.411303,-0.07996 0.205651,-0.03998"
       id="path1492" />
    <path
       style="fill:none;stroke:#000000;stroke-width:0.467528;stroke-linecap:round;stroke-linejoin:round;stroke-miterlimit:4;stroke-dasharray:none;stroke-opacity:1"
       d="M 38.667393,21.624847 38.1327,20.505336 37.556875,20.025556 37.227832,19.225895 35.706013,18.546191 h -1.275039 l -1.069387,-0.03998 h -1.110518 l -0.699214,-0.03998 h -0.740346"
       id="path1494" />
    <path
       style="fill:none;stroke:#000000;stroke-width:0.467528;stroke-linecap:round;stroke-linejoin:round;stroke-miterlimit:4;stroke-dasharray:none;stroke-opacity:1"
       d="m 30.100248,40.430918 -0.904866,1.759231 -0.945997,1.759232 -1.069387,1.679266 -0.987127,1.439371 -0.945996,1.359406 -0.904867,0.999564 -0.863735,1.119511 -0.575825,0.839634 -0.904866,1.279441 -0.616954,0.999563"
       id="path1496" />
    <path
       style="fill:none;stroke:#000000;stroke-width:0.467528;stroke-linecap:round;stroke-linejoin:round;stroke-miterlimit:4;stroke-dasharray:none;stroke-opacity:1"
       d="m 21.956452,28.955929 -1.151647,0.759669 -1.110518,1.199476 -0.616955,0.519773 -1.357299,0.559756 -0.987127,0.879616 -1.398429,1.839196 -0.246782,1.359406 -0.370172,1.519336 0.08226,2.079092 0.08226,1.199476 0.246781,1.759232 0.534694,2.35897 0.575824,2.039109 0.658085,1.199476 0.04113,1.399389 -0.287912,1.159494 0.370173,1.519336 0.287911,0.919598 v 0.519773"
       id="path1498" />
    <path
       style="fill:none;stroke:#000000;stroke-width:0.467528;stroke-linecap:round;stroke-linejoin:round;stroke-miterlimit:4;stroke-dasharray:none;stroke-opacity:1"
       d="m 14.470741,53.545189 0.246782,-1.239458 0.04113,-1.239458 -0.411303,-0.839635 -0.287912,-0.95958 -0.08226,-1.079528 0.164522,-1.159494 0.08226,-1.199475 0.04112,-1.239459 -0.205652,-1.439372 -0.493563,-1.119512 -0.329042,-1.079528 -0.12339,-0.719685 0.04112,-0.839633 0.164521,-0.559755 0.246781,-0.719686 0.08226,-0.679704 0.08226,-0.879616 0.123391,-0.95958 0.246781,-1.159494 0.164522,-0.559755 0.246781,-0.559755 v -0.879616 l -0.04112,-0.679704 0.246782,-0.359843 1.069387,-0.439808 0.493563,-0.279878 0.411303,-0.47979 0.452433,-0.279877 0.452433,-0.279878 0.616955,-0.07996 0.205651,-0.399826 0.411303,-0.399825 h 0.781475 l 0.781476,-0.07996 h 0.740345 l 0.822606,0.279877"
       id="path1500" />
    <path
       style="fill:none;stroke:#000000;stroke-width:0.467528;stroke-linecap:round;stroke-linejoin:round;stroke-miterlimit:4;stroke-dasharray:none;stroke-opacity:1"
       d="m 40.96451,11.878649 0.287913,0.879617 0.452433,0.679704 0.08226,0.279877 0.287911,0.119948 0.329043,-0.319861 -0.205651,-0.759668 -0.205652,-0.519774 -0.205651,-0.359843 -0.205651,-0.07996 -0.205652,-0.119947 -0.246781,-0.03998 z"
       id="path1504" />
    <path
       style="fill:none;stroke:#000000;stroke-width:0.467528;stroke-linecap:round;stroke-linejoin:round;stroke-miterlimit:4;stroke-dasharray:none;stroke-opacity:1"
       d="M 42.692398,16.481389 42.486746,16.361442 41.869792,16.241495 41.211708,16.041582 40.512493,15.601774 39.772148,14.962054 39.237454,14.522246 38.785022,13.722595 38.6205,13.042891 38.455979,12.443153 38.414849,11.683485 38.250328,11.043764"
       id="path1506" />
    <path
       style="fill:none;stroke:#000000;stroke-width:0.467528;stroke-linecap:round;stroke-linejoin:round;stroke-miterlimit:4;stroke-dasharray:none;stroke-opacity:1"
       d="m 20.434504,25.389169 0.329043,-1.399389 0.411302,-1.679267 0.411303,-1.239459 0.740345,-1.319423 0.699215,-1.039547 0.904865,-1.159493 0.904868,-0.919598 0.287907,-0.279878 0.49357,-0.559755"
       id="path1508" />
    <path
       style="fill:none;stroke:#000000;stroke-width:0.467528;stroke-linecap:round;stroke-linejoin:round;stroke-miterlimit:4;stroke-dasharray:none;stroke-opacity:1"
       d="M 33.143889,51.226203 32.568065,50.186656 32.115632,49.986744 31.210766,49.387005 30.51155,49.067146 29.894596,48.627338 29.647815,48.107565 29.401033,47.467844 v -0.63972 l 0.04112,-0.759669 0.123391,-0.679702 0.575824,-0.559757 0.123391,-0.319859 0.411303,-0.839634"
       id="path1512" />
    <path
       style="fill:none;stroke:#000000;stroke-width:0.467528;stroke-linecap:round;stroke-linejoin:round;stroke-miterlimit:4;stroke-dasharray:none;stroke-opacity:1"
       d="m 31.457548,51.626028 -0.123391,-0.519773 -0.493564,-0.31986 -0.534694,-0.319861 -0.658084,-0.359843 -0.452433,-0.519773 -0.08226,-0.919598 -0.411303,-0.47979 -0.246781,-0.439808 -0.370173,-0.399826 v -0.759668 l 0.205651,-0.559755 0.04113,-1.079528 -0.08226,-0.999564"
       id="path1514" />
    <path
       style="fill:none;stroke:#000000;stroke-width:0.45;stroke-linecap:round;stroke-linejoin:round;stroke-miterlimit:4;stroke-dasharray:none;stroke-opacity:1"
       d="m 22.238764,32.753662 0.08226,0.679702 0.246781,0.199914 0.329043,0.799649 -0.04112,0.439808 0.205651,0.719686 0.287911,0.479791 0.287913,0.399825 0.246781,0.119947 0.246782,0.07996 0.370174,-0.239894 0.123391,-0.559757 -0.08226,-0.279877 -0.04112,-0.399825 v -0.439805 l 0.205651,-0.47979 0.411303,-0.719686 0.08226,-0.359842 -0.246782,-0.399826 -0.246781,-0.279878 -0.246782,-0.239895 -0.287913,-0.279878"
       id="path1516" />
    <path
       style="fill:none;stroke:#000000;stroke-width:0.467528;stroke-linecap:round;stroke-linejoin:round;stroke-miterlimit:4;stroke-dasharray:none;stroke-opacity:1"
       d="m 32.938238,31.274916 0.575824,0.759669 0.411303,0.599738 0.287911,0.319861 0.370173,0.119947 0.822605,0.399825 0.329042,0.03998"
       id="path1518" />
    <path
       style="fill:none;stroke:#000000;stroke-width:0.467528;stroke-linecap:round;stroke-linejoin:round;stroke-miterlimit:4;stroke-dasharray:none;stroke-opacity:1"
       d="M 36.722223,36.792506 V 36.392681 L 36.393181,35.712978 36.352051,35.113241 36.1464,34.473519 35.735097,33.513937 35.447184,32.834236 35.282663,32.634323 34.912491,32.274481 34.665709,32.074568 34.418927,31.874656 h -0.493562 l -0.411303,0.07996"
       id="path1520" />
    <path
       style="fill:none;stroke:#000000;stroke-width:0.467528;stroke-linecap:round;stroke-linejoin:round;stroke-miterlimit:4;stroke-dasharray:none;stroke-opacity:1"
       d="m 35.827954,18.684594 0.822605,-0.719685 1.15165,-1.199476 0.904865,-0.879616 0.658085,-0.599738 0.329042,-0.199912"
       id="path2127" />
    <path
       style="fill:#ffe6d5;fill-opacity:1;stroke:#ffe6d5;stroke-width:0.107012;stroke-linecap:round;stroke-linejoin:round;stroke-miterlimit:4;stroke-dasharray:none;stroke-opacity:1;paint-order:normal"
       d="m 30.03099,29.188292 c 0,-0.144085 0.423747,-1.317366 0.561988,-1.556045 0.113357,-0.195717 0.545732,-0.687707 0.604375,-0.687707 0.01182,0 0.06775,0.05594 0.124265,0.124304 0.09304,0.112543 0.107797,0.15846 0.155972,0.485298 0.04991,0.338619 0.05009,0.391073 0.0028,0.846292 l -0.05033,0.485298 -0.07745,7.5e-5 c -0.114012,1.11e-4 -0.620509,0.135745 -0.937667,0.251095 -0.415027,0.150946 -0.384022,0.146798 -0.384022,0.05139 z"
       id="path2405" />
    <path
       style="fill:#ffe6d5;fill-opacity:1;stroke:#ffe6d5;stroke-width:0.108051;stroke-linecap:round;stroke-linejoin:round;stroke-miterlimit:4;stroke-dasharray:none;stroke-opacity:1;paint-order:normal"
       d="m 34.961839,32.986462 c -0.152072,-0.07535 -0.348152,-0.160995 -0.435732,-0.190313 -0.106293,-0.03558 -0.198223,-0.09512 -0.276496,-0.179075 -0.153261,-0.164383 -0.348629,-0.450446 -0.328865,-0.481534 0.0085,-0.01344 0.0997,-0.02444 0.202573,-0.02444 0.169782,0 0.200078,0.01025 0.328446,0.110617 0.449467,0.351589 0.952335,0.912627 0.809612,0.903264 -0.01267,-8.31e-4 -0.147465,-0.06316 -0.299538,-0.138519 z"
       id="path2411" />
    <path
       style="fill:#008f00;fill-opacity:1;stroke:#008f00;stroke-width:0.107012;stroke-linecap:round;stroke-linejoin:round;stroke-miterlimit:4;stroke-dasharray:none;stroke-opacity:1;paint-order:normal"
       d="m 10.750131,44.383268 c -0.252338,-0.419797 -0.357946,-1.002203 -0.411176,-2.26756 -0.06423,-1.52683 -0.0221,-8.71538 0.06126,-10.452576 0.0431,-0.898443 0.07387,-1.116899 0.214401,-1.5225 0.06556,-0.189217 0.148669,-0.498581 0.184689,-0.687474 0.191877,-1.006182 0.184427,-0.981532 0.376611,-1.246119 0.05537,-0.07622 0.100644,-0.196868 0.130143,-0.346719 0.116263,-0.590705 0.793782,-1.883558 1.497191,-2.856974 1.038085,-1.436555 2.570985,-3.024057 3.879127,-4.017301 0.699206,-0.530892 1.476094,-0.966907 1.918447,-1.076694 0.182128,-0.0452 0.438493,-0.04611 0.484155,-0.0017 0.01022,0.0099 -0.0856,0.283676 -0.212987,0.608259 -0.127389,0.324582 -0.332476,0.858931 -0.455748,1.18744 -0.123273,0.32851 -0.236293,0.613054 -0.251155,0.632321 -0.01486,0.01927 -0.368378,0.246645 -0.785589,0.505288 l -0.758567,0.470255 -0.730354,0.73409 c -0.64633,0.649638 -0.803703,0.828573 -1.367924,1.555364 -0.885949,1.141221 -1.424626,1.999715 -1.883305,3.001442 -0.183196,0.400089 -0.476954,1.09459 -0.652794,1.543335 l -0.319711,0.815902 -0.15745,1.299106 c -0.243752,2.011175 -0.276636,2.359126 -0.372557,3.942116 -0.08936,1.474741 -0.08996,1.480337 -0.247198,2.329431 l -0.157617,0.851138 -0.02721,1.000461 -0.02722,1.000461 0.123891,1.239377 0.123892,1.239377 -0.05684,0.311434 -0.05684,0.311435 z"
       id="path2417" />
    <path
       style="fill:#ffe6d5;fill-opacity:1;stroke:#ffe6d5;stroke-width:0.107012;stroke-linecap:round;stroke-linejoin:round;stroke-miterlimit:4;stroke-dasharray:none;stroke-opacity:1;paint-order:normal"
       d="m 27.875359,13.57078 c -0.23542,-0.247104 -0.657995,-0.787017 -0.821819,-1.050016 -0.1406,-0.225718 -0.146952,-0.244898 -0.115206,-0.347897 0.01848,-0.05995 0.03359,-0.17037 0.03359,-0.245367 0,-0.117954 0.01266,-0.145122 0.09381,-0.201295 0.102098,-0.07067 0.09754,-0.07106 0.470384,0.03977 l 0.24162,0.07183 0.285138,0.400203 c 0.222659,0.312511 0.299685,0.447966 0.351523,0.61818 l 0.06639,0.217979 -0.0956,0.246228 c -0.05895,0.15182 -0.121457,0.26179 -0.163038,0.286817 -0.0371,0.02232 -0.09638,0.05886 -0.131747,0.08119 -0.05934,0.03746 -0.07596,0.02838 -0.215052,-0.117624 z"
       id="path2445" />
    <path
       style="fill:#008f00;fill-opacity:1;stroke:#008f00;stroke-width:0.107012;stroke-linecap:round;stroke-linejoin:round;stroke-miterlimit:4;stroke-dasharray:none;stroke-opacity:1;paint-order:normal"
       d="m 15.754784,53.532113 c -0.45599,-0.04524 -0.951971,-0.111708 -0.985958,-0.132127 -0.01806,-0.01085 -0.02547,-0.0485 -0.01646,-0.08367 0.105134,-0.410341 0.177552,-0.966301 0.205054,-1.574189 l 0.03063,-0.67716 -0.196767,-0.414451 c -0.364892,-0.768568 -0.497225,-1.23317 -0.547618,-1.92261 -0.03307,-0.452594 -0.03056,-0.536584 0.03092,-1.030324 0.215755,-1.732396 0.242036,-2.967905 0.08544,-4.016776 -0.08009,-0.536421 -0.08834,-0.565961 -0.28366,-1.015394 -0.489951,-1.127377 -0.717775,-1.957829 -0.717859,-2.616698 -5.4e-5,-0.430202 0.05534,-0.727084 0.241685,-1.295553 0.191464,-0.58405 0.201235,-0.637264 0.312582,-1.702276 0.168447,-1.611155 0.391193,-2.659275 0.725656,-3.414523 l 0.108003,-0.24388 -0.02157,-0.776477 -0.02157,-0.776477 0.118674,-0.127687 c 0.09844,-0.10592 0.200652,-0.16248 0.599568,-0.331788 0.723479,-0.307059 0.860405,-0.389533 1.193446,-0.718847 0.280909,-0.277767 0.563676,-0.487026 0.921652,-0.682062 0.11547,-0.0629 0.260722,-0.107417 0.458749,-0.14056 0.159379,-0.02668 0.313489,-0.06084 0.342468,-0.07592 0.02897,-0.01508 0.103974,-0.11839 0.16666,-0.229586 0.06269,-0.111196 0.173931,-0.270637 0.247215,-0.354312 l 0.133245,-0.152138 0.487611,-0.02027 c 0.268187,-0.01115 0.604209,-0.0333 0.746716,-0.04922 0.415202,-0.0464 0.94122,-0.03502 1.117286,0.02417 0.08337,0.02803 0.156608,0.06632 0.162753,0.08509 0.0061,0.01878 -0.146574,0.142198 -0.339374,0.274281 -0.268611,0.18402 -0.442887,0.336587 -0.745631,0.652752 -0.625882,0.653629 -1.120039,1.124762 -1.303051,1.242336 -0.09293,0.0597 -0.444116,0.224008 -0.780406,0.365119 -0.336291,0.141111 -0.639848,0.27591 -0.674572,0.299551 -0.03473,0.02365 -0.270179,0.234636 -0.523231,0.468874 -0.418935,0.387782 -0.520492,0.504468 -1.135184,1.304281 -0.371298,0.483118 -0.692622,0.913167 -0.714054,0.955664 -0.02143,0.0425 -0.110054,0.433401 -0.196935,0.868677 -0.08688,0.435275 -0.226149,1.075933 -0.309484,1.423683 -0.176164,0.735128 -0.173974,0.690361 -0.105133,2.148309 0.124682,2.640534 0.381383,4.144675 1.232873,7.224027 l 0.231223,0.836206 0.330332,0.5985 0.33033,0.598499 0.01895,0.640877 0.01895,0.640879 -0.149513,0.612221 -0.149514,0.612223 0.179459,0.716748 c 0.0987,0.394211 0.249588,0.964031 0.335304,1.266266 0.08571,0.302234 0.155847,0.594533 0.155847,0.649552 v 0.100038 l -0.545312,-0.004 c -0.299922,-0.0022 -0.662823,-0.01563 -0.806448,-0.02989 z"
       id="path2451" />
    <path
       style="fill:#c2b400;fill-opacity:1;stroke:#c2b400;stroke-width:0.107012;stroke-linecap:round;stroke-linejoin:round;stroke-miterlimit:4;stroke-dasharray:none;stroke-opacity:1;paint-order:normal"
       d="M 42.363958,44.642573 C 41.72038,44.42965 40.803877,43.912953 39.965235,43.290246 39.21713,42.734765 38.815,42.373469 38.745352,42.194238 c -0.01915,-0.04927 -0.06404,-0.257582 -0.09976,-0.462901 -0.06737,-0.387293 -0.13576,-0.5594 -0.355585,-0.894844 -0.05881,-0.08975 -0.142207,-0.277885 -0.18533,-0.418102 -0.04312,-0.140218 -0.19303,-0.557318 -0.333127,-0.926892 -0.140096,-0.369574 -0.272092,-0.732427 -0.293326,-0.806341 -0.02123,-0.07392 -0.104859,-0.309099 -0.185835,-0.52263 -0.227841,-0.600807 -0.337665,-1.037001 -0.366996,-1.457609 -0.02144,-0.307495 -0.0395,-0.394316 -0.116152,-0.558245 -0.134524,-0.287721 -0.183773,-0.453903 -0.252747,-0.852824 -0.07165,-0.414391 -0.119253,-0.565604 -0.384946,-1.22276 -0.282359,-0.698375 -0.500814,-1.173751 -0.619602,-1.348306 -0.103511,-0.152104 -0.628876,-0.664912 -0.908723,-0.887003 l -0.144819,-0.11493 -0.484696,0.02105 -0.484696,0.02105 -0.143848,-0.189834 c -0.166699,-0.219999 -0.278472,-0.33906 -0.416516,-0.443682 l -0.09851,-0.07467 -0.0043,-0.925799 c -0.0024,-0.50919 0.0085,-0.965775 0.02422,-1.014633 0.0256,-0.07956 0.05724,-0.09774 0.303088,-0.174268 0.735022,-0.228769 1.146752,-0.260375 1.672337,-0.128378 0.453389,0.113867 0.99235,0.274927 1.157181,0.345804 0.226671,0.09747 0.927721,0.491114 1.193037,0.6699 0.135176,0.09109 0.338972,0.220249 0.452879,0.287023 0.214403,0.125687 0.515498,0.431951 1.130009,1.149403 0.536948,0.6269 0.685183,0.886976 1.565983,2.747534 0.784555,1.657256 1.045534,2.18288 1.341939,2.702738 0.36808,0.645571 0.48102,0.915246 0.519052,1.239378 0.02943,0.250858 0.113645,0.453231 0.306461,0.736491 0.09137,0.134237 0.187145,0.314313 0.212821,0.400171 0.05343,0.178633 0.216268,0.341631 0.341315,0.341631 0.174886,0 0.358277,-0.158133 0.561649,-0.484292 0.186691,-0.299409 0.299775,-0.528189 0.374679,-0.758014 0.06673,-0.204714 0.238115,-0.55694 0.521733,-1.072193 0.220963,-0.401426 0.317443,-0.663663 0.473508,-1.28702 0.162231,-0.647985 0.231254,-0.863895 0.372475,-1.165136 0.05551,-0.118402 0.158777,-0.374228 0.22949,-0.5685 0.08276,-0.227379 0.175389,-0.417206 0.259989,-0.532816 0.07228,-0.09878 0.228249,-0.374458 0.346595,-0.612627 0.172941,-0.348045 0.265125,-0.49165 0.469688,-0.731681 0.305613,-0.358603 1.333763,-1.37718 1.77004,-1.753559 0.617249,-0.532505 0.802889,-0.64018 1.583496,-0.918462 0.958138,-0.34157 1.238642,-0.386279 2.573183,-0.410135 1.364442,-0.02439 1.877938,0.04273 2.674918,0.349691 1.092427,0.420743 1.879719,0.927373 2.52285,1.623479 0.494712,0.535462 0.706944,0.866493 0.940764,1.46737 0.266308,0.684365 0.295375,0.799471 0.545585,2.160546 0.144405,0.785535 0.166844,1.049385 0.166844,1.961881 v 0.869687 l -0.104638,0.371149 c -0.05756,0.204132 -0.134359,0.451685 -0.170682,0.550117 -0.07311,0.198132 -0.100687,0.311379 -0.155891,0.640185 -0.07123,0.424305 -0.279954,0.893482 -0.585323,1.315723 -0.197444,0.27301 -0.699411,0.765652 -0.888215,0.871717 -0.272773,0.153236 -0.559069,0.176218 -0.710482,0.05703 l -0.0655,-0.05155 0.06135,-0.134821 c 0.03374,-0.07415 0.18187,-0.27939 0.329177,-0.456086 0.554325,-0.664926 0.965921,-1.348051 1.170751,-1.943098 0.151931,-0.441371 0.169388,-0.759966 0.13749,-2.509287 -0.02429,-1.331762 -0.0295,-1.421216 -0.101909,-1.747073 -0.190036,-0.855213 -0.598829,-1.519449 -1.428041,-2.320381 -0.556152,-0.537186 -1.100779,-0.9087 -1.583818,-1.080392 l -0.220679,-0.07844 -1.520728,-2e-6 c -1.717422,-1e-6 -1.688356,-0.0031 -2.196609,0.235072 -0.553938,0.259591 -1.046829,0.699325 -1.63771,1.461087 -0.451913,0.582606 -0.746022,1.123921 -0.95528,1.758227 -0.137978,0.418242 -0.175626,0.580639 -0.309711,1.335997 -0.12997,0.732169 -0.199057,1.020862 -0.383045,1.60062 -0.103111,0.324892 -0.116466,0.407202 -0.142994,0.881003 -0.05736,1.02437 -0.121086,1.267663 -0.618008,2.359296 -0.343272,0.754096 -0.363965,0.812057 -0.484011,1.355623 -0.05041,0.228189 -0.122224,0.476812 -0.159617,0.552493 -0.120732,0.244351 -1.552013,1.590491 -1.992108,1.873605 -0.07772,0.05 -0.200001,0.08243 -0.430378,0.114158 -0.176997,0.02438 -0.4808,0.06731 -0.675116,0.09541 -0.194315,0.0281 -0.491548,0.0556 -0.660518,0.0611 -0.285394,0.0093 -0.329962,0.0025 -0.627375,-0.09592 z m 1.380059,-0.04092 c 0.294696,-0.04064 0.369223,-0.05805 0.257478,-0.06013 -0.137955,-0.0026 -0.418651,0.03793 -0.825832,0.11911 l -0.122887,0.02451 0.138248,-0.01314 c 0.07604,-0.0073 0.324883,-0.03888 0.552993,-0.07034 z m 0.576033,-0.08364 c -0.02956,-0.0075 -0.07796,-0.0075 -0.107526,0 -0.02956,0.0075 -0.0054,0.01366 0.05377,0.01366 0.05914,0 0.08333,-0.0061 0.05377,-0.01366 z m 0.919019,-0.508164 c 0.184208,-0.16999 0.187363,-0.174526 0.02568,-0.03692 -0.101382,0.08628 -0.256911,0.21015 -0.345621,0.275269 -0.0887,0.06512 -0.161288,0.124338 -0.161288,0.131597 0,0.03012 0.285791,-0.189587 0.481232,-0.369939 z m -4.35218,-0.172155 c 0,-0.0077 -0.107142,-0.08346 -0.238093,-0.168327 -0.130953,-0.08487 -0.222554,-0.138036 -0.203559,-0.118153 0.02927,0.03063 0.411272,0.293622 0.433972,0.298763 0.0042,9.56e-4 0.0077,-0.0046 0.0077,-0.01228 z m 4.854045,-0.269692 c 0.09178,-0.09034 0.159959,-0.164253 0.151509,-0.164253 -0.0084,0 -0.09045,0.07392 -0.182231,0.164253 -0.09178,0.09034 -0.159959,0.164255 -0.151511,0.164255 0.0084,0 0.09045,-0.07392 0.182233,-0.164255 z m -5.345594,-0.05607 c 0,-0.0063 -0.160412,-0.128406 -0.35647,-0.271559 -0.196058,-0.143155 -0.489835,-0.369006 -0.652838,-0.501892 -0.163002,-0.132886 -0.276804,-0.218298 -0.252893,-0.189805 0.0641,0.07639 0.458644,0.391558 0.878179,0.701512 0.368635,0.27235 0.384022,0.282837 0.384022,0.261744 z m 6.411121,-1.338226 c -0.0098,-0.02383 -0.01709,-0.01675 -0.01855,0.01804 -0.0014,0.03148 0.0059,0.04911 0.01613,0.03919 0.01022,-0.0099 0.0113,-0.03567 0.0024,-0.05724 z m -8.054678,-0.385804 c -0.06486,-0.424645 -0.115674,-0.580688 -0.259568,-0.797108 -0.154403,-0.232224 -0.186562,-0.243063 -0.04548,-0.01534 0.152241,0.245765 0.215837,0.432117 0.271282,0.794908 0.02699,0.176633 0.04909,0.329704 0.04909,0.340157 0,0.01045 0.0073,0.01199 0.01606,0.0034 0.0089,-0.0086 -0.0053,-0.155294 -0.03136,-0.326021 z M 47.040044,41.3431 c 0.04203,-0.106767 0.133249,-0.320694 0.202722,-0.475396 0.06948,-0.154702 0.121365,-0.286089 0.115315,-0.29197 -0.01357,-0.0132 -0.267209,0.536292 -0.36961,0.800755 -0.07532,0.194523 -0.174164,0.603834 -0.170128,0.704497 0.0012,0.02945 0.03435,-0.08087 0.07372,-0.245122 0.03936,-0.164256 0.105957,-0.385999 0.147981,-0.492764 z m -8.904732,-1.142265 c -0.11854,-0.348337 -0.263731,-0.714846 -0.277777,-0.701192 -0.0065,0.0064 0.04228,0.151598 0.108479,0.322752 0.06621,0.171156 0.145651,0.395074 0.176545,0.497597 0.03089,0.102522 0.06077,0.173102 0.0664,0.156843 0.0056,-0.01626 -0.02751,-0.140459 -0.07364,-0.276 z m 9.354588,0.111939 c 0,-0.01643 -0.01976,0.0037 -0.04392,0.04479 -0.02415,0.04106 -0.04391,0.08811 -0.04391,0.104525 0,0.01643 0.01976,-0.0037 0.04391,-0.04479 0.02415,-0.04106 0.04392,-0.08811 0.04392,-0.104525 z m 0.09216,-0.209052 c 0,-0.01643 -0.01976,0.0037 -0.04389,0.04479 -0.02415,0.04106 -0.04392,0.08811 -0.04392,0.104526 0,0.01642 0.01976,-0.0037 0.04392,-0.04479 0.02415,-0.04106 0.04389,-0.08811 0.04389,-0.104526 z M 47.64474,39.9544 c 0,-0.01643 -0.0134,-0.0097 -0.02978,0.01494 -0.01637,0.02464 -0.02978,0.05823 -0.02978,0.07467 0,0.01642 0.0134,0.0097 0.02978,-0.01494 0.01637,-0.02464 0.02978,-0.05823 0.02978,-0.07467 z m 0.168549,-0.476159 c 0.043,-0.144211 0.07707,-0.284218 0.07574,-0.311126 -0.0029,-0.05912 -0.0036,-0.05723 -0.100213,0.279588 -0.0424,0.14783 -0.08608,0.295659 -0.09707,0.32851 -0.01634,0.04886 -0.01421,0.05113 0.0117,0.01248 0.01743,-0.02599 0.06686,-0.165241 0.109845,-0.309453 z m -4.503526,-0.01455 c 0.13585,-0.06737 0.318672,-0.287874 0.512515,-0.618139 0.135983,-0.231685 0.322364,-0.659646 0.319805,-0.734321 -7.23e-4,-0.02106 -0.05618,0.09453 -0.123227,0.256854 -0.25443,0.615963 -0.600326,1.06817 -0.846979,1.107293 -0.20259,0.03213 -0.335011,-0.03847 -0.42967,-0.229082 -0.0472,-0.09504 -0.07078,-0.124013 -0.0592,-0.07273 0.06527,0.289104 0.356749,0.424029 0.62676,0.290124 z m -5.49131,-0.08194 c -0.03621,-0.06054 -0.04496,-0.04117 -0.01531,0.03393 0.01054,0.0267 0.02562,0.04223 0.03355,0.03456 0.0079,-0.0077 -2.77e-4,-0.03851 -0.01822,-0.06848 z m 10.093988,-0.403546 c -0.0098,-0.02383 -0.01708,-0.01675 -0.01855,0.01804 -0.0014,0.03148 0.0059,0.04912 0.01613,0.0392 0.01022,-0.0099 0.01129,-0.03568 0.0024,-0.05724 z M 42.484964,38.730736 C 42.3285,38.50967 42.213002,38.24091 42.174339,38.007922 c -0.02009,-0.121114 -0.04273,-0.214189 -0.0503,-0.206835 -0.03136,0.03049 0.06145,0.462802 0.131159,0.611058 0.07006,0.14896 0.27801,0.452208 0.310114,0.452208 0.0078,0 -0.02833,-0.06013 -0.08035,-0.133617 z M 37.50776,38.470234 c -0.03749,-0.119957 -0.09516,-0.26514 -0.128179,-0.32263 -0.03302,-0.05748 -0.05049,-0.07765 -0.03881,-0.04479 0.01167,0.03285 0.06433,0.182793 0.117012,0.333203 0.113227,0.323261 0.147651,0.346834 0.04998,0.03422 z m 10.582028,-1.006445 c 0.06054,-0.203632 0.105208,-0.37497 0.09925,-0.380753 -0.02117,-0.02058 -0.208684,0.605665 -0.2517,0.840585 -0.02405,0.131404 -0.04268,0.32627 -0.0414,0.433036 0.002,0.165107 0.0084,0.140559 0.04306,-0.164254 0.02434,-0.214291 0.08496,-0.507229 0.150787,-0.728614 z M 37.122814,37.35135 c -0.02753,-0.09589 -0.06143,-0.214658 -0.07532,-0.263934 -0.0139,-0.04927 -0.02686,-0.06943 -0.02881,-0.04479 -0.0047,0.05947 0.132841,0.543182 0.144842,0.50938 0.0052,-0.01448 -0.01318,-0.104762 -0.04071,-0.200649 z m 7.493223,-0.166875 c 0.07586,-0.13551 0.180804,-0.350714 0.233214,-0.478233 0.09486,-0.230787 0.278295,-0.862446 0.275251,-0.947797 -8.79e-4,-0.02464 -0.04791,0.116471 -0.104491,0.313577 -0.131218,0.457009 -0.215629,0.672765 -0.411861,1.052725 -0.08694,0.168361 -0.151779,0.30611 -0.144062,0.30611 0.0077,0 0.07609,-0.110871 0.151955,-0.246382 z m -2.766177,-0.09835 c -0.01001,-0.02535 -0.02478,-0.03968 -0.03283,-0.03185 -0.008,0.0078 -0.0055,0.02857 0.0056,0.04608 0.03029,0.04764 0.048,0.03839 0.02723,-0.01423 z m -0.08741,-0.162967 c -0.02622,-0.04927 -0.05458,-0.08959 -0.06303,-0.08959 -0.0084,0 0.0061,0.04032 0.03229,0.08959 0.02621,0.04927 0.05458,0.08959 0.06303,0.08959 0.0084,0 -0.0061,-0.04031 -0.03229,-0.08959 z m 6.487925,-0.03546 c -0.0098,-0.02383 -0.01709,-0.01675 -0.01855,0.01804 -0.0014,0.03148 0.0059,0.04912 0.01613,0.0392 0.01022,-0.0099 0.0113,-0.03567 0.0024,-0.05724 z m 0.03072,-0.119459 c -0.0098,-0.02383 -0.01709,-0.01675 -0.01856,0.01804 -0.0014,0.03148 0.0059,0.04912 0.01613,0.0392 0.01022,-0.0099 0.0113,-0.03567 0.0024,-0.05724 z m -6.673044,-0.102948 c -0.149584,-0.248123 -0.639701,-1.230018 -1.104923,-2.213594 -0.250598,-0.529813 -0.46018,-0.958875 -0.46574,-0.953471 -0.0095,0.0092 0.727408,1.580867 1.104845,2.356474 0.180707,0.371339 0.504966,0.948993 0.532704,0.948993 0.0091,0 -0.021,-0.06228 -0.06688,-0.138402 z m -4.671983,-0.460165 c -0.105803,-0.229182 -0.126255,-0.215933 -0.02743,0.01776 0.04828,0.114151 0.07752,0.247001 0.08187,0.37175 l 0.0067,0.194119 0.01076,-0.202243 c 0.0091,-0.169443 -0.0026,-0.231299 -0.07194,-0.381392 z m 11.375755,0.443645 c -0.0098,-0.02383 -0.01709,-0.01675 -0.01855,0.01804 -0.0014,0.03148 0.0059,0.04911 0.01613,0.0392 0.01022,-0.0099 0.01129,-0.03567 0.0024,-0.05724 z m 0.03071,-0.149323 c -0.0098,-0.02383 -0.01708,-0.01675 -0.01855,0.01805 -0.0014,0.03148 0.0059,0.04911 0.01613,0.03919 0.01022,-0.0099 0.01129,-0.03567 0.0024,-0.05724 z m 0.03071,-0.149322 c -0.0098,-0.02383 -0.01709,-0.01675 -0.01855,0.01804 -0.0014,0.03148 0.0059,0.04912 0.01613,0.03921 0.01022,-0.0099 0.0113,-0.03568 0.0024,-0.05724 z m 0.03008,-0.181054 c -0.0085,-0.02053 -0.01549,-0.0037 -0.01549,0.03732 0,0.04106 0.007,0.05786 0.01549,0.03732 0.0085,-0.02053 0.0085,-0.05413 0,-0.07467 z m 0.145806,-0.724214 c 0.155221,-0.839589 0.407891,-1.505035 0.878816,-2.314499 0.05256,-0.09034 0.06768,-0.130657 0.03361,-0.08959 -0.104133,0.125516 -0.5128,0.923409 -0.629216,1.228499 -0.06039,0.158271 -0.145387,0.420333 -0.188877,0.582358 -0.07649,0.284999 -0.23205,1.114301 -0.22611,1.205458 0.0037,0.05679 0.03477,-0.0876 0.13177,-0.612222 z m -11.744515,0.472606 c -0.03621,-0.06054 -0.04496,-0.04116 -0.01531,0.03393 0.01054,0.02669 0.02562,0.04223 0.03354,0.03456 0.0079,-0.0077 -2.77e-4,-0.0385 -0.01822,-0.06848 z m 8.342846,-0.284086 c -0.0098,-0.02383 -0.01709,-0.01675 -0.01855,0.01804 -0.0014,0.03148 0.0059,0.04912 0.01613,0.0392 0.01022,-0.0099 0.01129,-0.03567 0.0024,-0.05724 z m 0.03071,-0.119458 c -0.0098,-0.02383 -0.01708,-0.01675 -0.01855,0.01804 -0.0014,0.03148 0.0059,0.04911 0.01613,0.0392 0.01022,-0.0099 0.0113,-0.03567 0.0024,-0.05724 z M 36.6642,35.377664 C 36.61106,34.939894 36.484901,34.561685 36.062054,33.572432 35.722947,32.779091 35.66088,32.673 35.360593,32.373406 c -0.14564,-0.145303 -0.361573,-0.346787 -0.479851,-0.447741 -0.11828,-0.100961 -0.01235,0.01121 0.235386,0.249256 l 0.450439,0.43281 0.214865,0.433034 c 0.223292,0.450021 0.557208,1.24431 0.696798,1.65748 0.04439,0.131404 0.10349,0.376667 0.131326,0.545028 0.05462,0.330363 0.08857,0.413873 0.05465,0.134391 z m 8.949633,-0.992995 c 0.04927,-0.123192 0.09784,-0.271021 0.107954,-0.328511 0.0208,-0.118216 0.02252,-0.121843 -0.134673,0.283713 -0.160672,0.414537 -0.166051,0.431288 -0.110263,0.343443 0.02608,-0.04106 0.08771,-0.175454 0.136982,-0.298645 z m 0.219231,-0.597291 c 0.01808,-0.03285 0.02597,-0.05973 0.01752,-0.05973 -0.0084,0 -0.03016,0.02688 -0.04825,0.05973 -0.01808,0.03285 -0.02597,0.05973 -0.01752,0.05973 0.0084,0 0.03016,-0.02688 0.04825,-0.05973 z m 0.338634,-0.52481 c 0.169722,-0.334875 0.151637,-0.354765 -0.0247,-0.02717 -0.07973,0.148113 -0.17738,0.316101 -0.217005,0.373307 l -0.07205,0.104011 0.09578,-0.104526 c 0.05268,-0.05749 0.15077,-0.21302 0.217976,-0.345623 z m -6.233695,-0.0023 c -0.05101,-0.0961 -0.09339,-0.164926 -0.09422,-0.152971 -0.0023,0.03335 0.162523,0.351423 0.175518,0.33879 0.0063,-0.0061 -0.0303,-0.08974 -0.08131,-0.185819 z M 39.692231,32.7527 c -0.06782,-0.128986 -0.124004,-0.224663 -0.124848,-0.212615 -0.0023,0.03289 0.224184,0.470446 0.237041,0.457947 0.0061,-0.0059 -0.04438,-0.116345 -0.112193,-0.245332 z m 7.170891,-0.60036 c 0.0994,-0.110873 0.148704,-0.174707 0.109562,-0.141857 -0.07841,0.0658 -0.323394,0.343442 -0.303056,0.343442 0.0071,0 0.09409,-0.09072 0.193494,-0.201585 z m -7.420162,0.111991 c -0.01808,-0.03286 -0.03979,-0.05973 -0.04824,-0.05973 -0.0084,0 -5.62e-4,0.02688 0.01752,0.05973 0.01808,0.03286 0.03981,0.05973 0.04824,0.05973 0.0084,0 5.62e-4,-0.02688 -0.01752,-0.05973 z m 7.803338,-0.522628 c 0.108854,-0.106765 0.191004,-0.19412 0.182555,-0.19412 -0.0084,0 -0.104427,0.08736 -0.213277,0.19412 -0.108855,0.106765 -0.191005,0.194118 -0.182556,0.194118 0.0084,0 0.104428,-0.08736 0.213278,-0.194118 z m -12.642022,-0.04479 c -0.04795,-0.05149 -0.08987,-0.05889 -0.304299,-0.05365 l -0.248694,0.006 0.250687,0.01004 c 0.172149,0.0069 0.262359,0.0237 0.287939,0.05364 0.02048,0.024 0.04462,0.04363 0.05362,0.04363 0.009,0 -0.0086,-0.02688 -0.03925,-0.05973 z m -0.850349,-0.02201 -0.17447,-0.01072 -0.215768,-0.26554 c -0.118672,-0.146047 -0.247533,-0.281943 -0.286358,-0.301992 -0.03882,-0.02005 0.01351,0.05114 0.116308,0.15822 0.102794,0.107069 0.227217,0.250041 0.276497,0.317714 0.08897,0.122183 0.09088,0.123008 0.27393,0.118033 l 0.18433,-0.005 z m 5.320371,0.01074 c 0,-0.0062 -0.02419,-0.02972 -0.05377,-0.05226 -0.04873,-0.03715 -0.04981,-0.03608 -0.0116,0.01128 0.04013,0.04974 0.06537,0.06557 0.06537,0.04098 z M 38.951411,31.53729 c 0,-0.0056 -0.0311,-0.0359 -0.06913,-0.0672 l -0.06913,-0.05689 0.05853,0.0672 c 0.055,0.06315 0.07973,0.08079 0.07973,0.05689 z m -0.122882,-0.148798 c 0,-0.0053 -0.03803,-0.0423 -0.08448,-0.08213 l -0.08449,-0.0724 0.07448,0.08212 c 0.06961,0.07677 0.09449,0.09582 0.09449,0.0724 z m -0.15361,-0.178806 c 0,-0.0051 -0.04494,-0.04882 -0.09984,-0.09706 l -0.09984,-0.08772 0.09023,0.09706 c 0.08411,0.09047 0.109459,0.110787 0.109459,0.08772 z m -0.184331,-0.209052 c 0,-0.0051 -0.04494,-0.04881 -0.09984,-0.09706 l -0.09984,-0.08772 0.09023,0.09706 c 0.08411,0.09047 0.109459,0.110787 0.109459,0.08772 z m 9.830977,-0.310449 c 0,-0.02243 -0.02758,0.0013 -0.154893,0.133142 l -0.136964,0.141856 0.145928,-0.133142 c 0.08027,-0.07323 0.145929,-0.137064 0.145929,-0.141856 z m -15.358295,-0.248179 -0.02412,-0.432487 -0.0042,0.32851 c -0.0038,0.292821 0.0182,0.569817 0.04331,0.545398 0.0051,-0.0049 -0.0017,-0.203554 -0.01493,-0.441421 z m 5.342987,0.349577 c 0,-0.0051 -0.04494,-0.04882 -0.09984,-0.09705 l -0.09984,-0.08772 0.09023,0.09706 c 0.08411,0.09047 0.109459,0.110788 0.109459,0.08772 z m 10.5683,-0.581004 c 0,-0.01934 -0.344215,0.27476 -0.414744,0.354353 -0.03379,0.03813 0.04571,-0.0231 0.176651,-0.136081 0.130951,-0.112981 0.238093,-0.211205 0.238093,-0.218272 z m -10.75263,0.372427 c 0,-0.0049 -0.05876,-0.06199 -0.130568,-0.126924 l -0.130567,-0.118053 0.121441,0.126924 c 0.112939,0.118038 0.139694,0.140647 0.139694,0.118053 z m -0.630684,-0.507658 c -0.284213,-0.183552 -0.350659,-0.22234 -0.306331,-0.178822 0.06205,0.06091 0.486841,0.336977 0.518521,0.336977 0.01799,0 -0.0775,-0.07117 -0.21219,-0.158155 z m 11.479399,0.07603 c 0.03821,-0.04736 0.03713,-0.04842 -0.0116,-0.01128 -0.05117,0.03901 -0.06745,0.06354 -0.04216,0.06354 0.0064,0 0.03057,-0.02352 0.05377,-0.05226 z m 0.472104,-0.276186 c 0.04702,-0.01738 0.07795,-0.03893 0.06873,-0.0479 -0.01821,-0.0177 -0.206807,0.06908 -0.206807,0.09517 0,0.0088 0.01183,0.0088 0.02629,1.28e-4 0.01446,-0.0087 0.06477,-0.03002 0.111787,-0.04739 z M 36.954499,29.741789 c 0,-0.0077 -0.0311,-0.02854 -0.06913,-0.04644 -0.06638,-0.03128 -0.06676,-0.03073 -0.0095,0.01388 0.06268,0.04882 0.07861,0.05541 0.07861,0.03257 z m -0.15361,-0.08959 c 0,-0.0077 -0.0311,-0.02854 -0.06913,-0.04644 -0.06638,-0.03128 -0.06676,-0.03072 -0.0095,0.01388 0.06268,0.04881 0.07861,0.05541 0.07861,0.03256 z m -0.153608,-0.08958 c 0,-0.0077 -0.0311,-0.02854 -0.06913,-0.04644 -0.06638,-0.03128 -0.06676,-0.03072 -0.0095,0.01388 0.06268,0.04882 0.07861,0.05542 0.07861,0.03257 z m -0.15361,-0.08988 c 0,-0.0078 -0.04147,-0.03501 -0.09216,-0.0605 -0.115541,-0.05808 -0.122532,-0.03286 -0.0077,0.02772 0.09654,0.05091 0.09984,0.05199 0.09984,0.03278 z M 36.234345,29.32169 c -0.0328,-0.02412 -0.07427,-0.04337 -0.09216,-0.04278 -0.01789,5.82e-4 0.002,0.02027 0.04427,0.04374 0.09952,0.0553 0.123743,0.05482 0.0479,-9.5e-4 z m -2.874298,-0.339705 c 0.381445,-0.112004 0.600521,-0.158027 0.860211,-0.180705 0.243289,-0.02125 0.248538,-0.02306 0.07681,-0.02645 -0.250761,-0.0049 -1.05342,0.173069 -1.213511,0.269155 -0.05471,0.03285 -0.0199,0.02504 0.276495,-0.062 z m 1.935474,0.0093 c -0.126727,-0.03935 -0.244238,-0.07022 -0.261135,-0.0686 -0.04377,0.0042 0.389835,0.140914 0.445466,0.140488 0.02534,-1.94e-4 -0.0576,-0.03254 -0.184331,-0.07189 z m -0.353301,-0.09976 c -0.03379,-0.01326 -0.10983,-0.03204 -0.168969,-0.04173 -0.106009,-0.01739 -0.105791,-0.01706 0.01536,0.0237 0.131836,0.04433 0.258638,0.05923 0.153609,0.01804 z m -0.330898,-0.07976 c -0.01022,-0.0099 -0.0367,-0.01098 -0.05889,-0.0024 -0.02451,0.0095 -0.01723,0.01662 0.01855,0.01804 0.03238,0.0013 0.05053,-0.0057 0.04032,-0.01569 z"
       id="path2729" />
    <path
       style="fill:#c2b400;fill-opacity:1;stroke:#c2b400;stroke-width:0.107012;stroke-linecap:round;stroke-linejoin:round;stroke-miterlimit:4;stroke-dasharray:none;stroke-opacity:1;paint-order:normal"
       d="m 17.599061,53.537131 c -0.0067,-0.02095 -0.0203,-0.125438 -0.03024,-0.232203 -0.0099,-0.106766 -0.08526,-0.422582 -0.167398,-0.701815 -0.08213,-0.279234 -0.222392,-0.802655 -0.311686,-1.163161 l -0.162355,-0.655463 0.143544,-0.584601 0.143544,-0.584602 -0.03148,-0.747865 -0.03147,-0.747866 -0.325489,-0.588605 c -0.353416,-0.639084 -0.348217,-0.624789 -0.702192,-1.931064 -0.777244,-2.86827 -1.023847,-4.500438 -1.110003,-7.346669 l -0.02033,-0.671951 0.171952,-0.720087 c 0.09457,-0.396048 0.228603,-1.014243 0.297845,-1.373767 0.143195,-0.743527 0.08956,-0.631265 0.667481,-1.39719 0.563245,-0.746477 0.878872,-1.131368 1.042788,-1.271625 0.126845,-0.108539 0.149489,-0.118173 0.180587,-0.07683 0.01956,0.026 0.04493,0.131033 0.05636,0.23341 0.03534,0.316247 0.192471,1.027087 0.349828,1.582605 0.138726,0.489745 0.166304,0.556117 0.35985,0.86607 0.333349,0.533842 0.664248,0.993655 1.00452,1.395869 l 0.315818,0.373307 0.524649,0.256383 c 0.429362,0.209817 0.60952,0.27931 0.991932,0.382625 0.630918,0.170453 0.829042,0.203087 1.616512,0.266259 l 0.675349,0.05418 0.584245,-0.114391 0.584245,-0.114394 0.337939,0.223531 c 0.320804,0.212197 0.341568,0.232286 0.409503,0.396215 0.07935,0.191467 0.300447,0.560439 0.51271,0.855612 0.173731,0.241586 0.272652,0.279615 0.835945,0.321362 l 0.406399,0.03011 0.260763,-0.213458 c 0.249017,-0.203844 0.269723,-0.230506 0.459641,-0.591867 l 0.198878,-0.378405 0.255306,-0.101021 c 0.140419,-0.05556 0.421204,-0.184976 0.623968,-0.287593 0.839401,-0.424812 1.897076,-0.748104 2.557589,-0.781759 0.194922,-0.0099 0.345547,-0.006 0.34545,0.0089 -9.2e-5,0.01461 -0.07811,0.120637 -0.17336,0.235616 -0.536511,0.647613 -1.15979,1.753107 -1.31913,2.339708 -0.02969,0.109326 -0.07698,0.232373 -0.10507,0.273436 -0.02809,0.04106 -0.316527,0.582782 -0.640968,1.203818 -1.00772,1.928947 -1.56657,2.877411 -2.637681,4.476586 -0.62528,0.933547 -1.426671,2.078673 -1.643518,2.348456 -0.08374,0.104186 -0.313456,0.374268 -0.510477,0.600182 -0.447614,0.513259 -0.776846,0.921943 -1.14412,1.420225 -0.309445,0.419825 -1.73217,2.480768 -1.975567,2.861785 -0.08556,0.133946 -0.179803,0.244876 -0.220942,0.26008 -0.108052,0.03994 -1.044688,0.08462 -2.163492,0.103226 -0.549153,0.0091 -1.105901,0.02338 -1.23722,0.03166 -0.177615,0.01121 -0.241881,0.0053 -0.250941,-0.02303 z"
       id="path2735" />
    <path
       style="fill:#365900;fill-opacity:1;stroke:#365900;stroke-width:0.107012;stroke-linecap:round;stroke-linejoin:round;stroke-miterlimit:4;stroke-dasharray:none;stroke-opacity:1;paint-order:normal"
       d="m 27.397801,16.752684 c -0.05632,-0.01295 -0.18765,-0.06689 -0.291857,-0.119865 -0.747093,-0.379816 -1.358968,-1.016543 -2.12353,-2.209775 -0.366925,-0.57265 -0.779313,-1.176748 -1.03716,-1.519312 l -0.165748,-0.220204 0.02499,-0.212831 c 0.06851,-0.583352 0.265719,-1.252117 0.492402,-1.669774 0.222447,-0.409855 0.743674,-0.892037 1.214098,-1.1231541 0.259485,-0.127483 0.480984,-0.16196 0.913928,-0.142251 1.11691,0.05084 1.90067,0.305101 2.663967,0.8642121 0.316576,0.231891 0.9622,0.856829 1.228176,1.188825 0.500705,0.624992 0.637095,0.986556 0.703102,1.863892 0.05679,0.754751 0.0073,1.230838 -0.159829,1.538022 -0.113462,0.20853 -0.477627,0.690706 -0.65411,0.86608 -0.125541,0.124752 -0.711818,0.485956 -1.085192,0.668583 -0.363799,0.177942 -1.364359,0.310065 -1.723241,0.227552 z m 1.101953,-2.700385 0.231518,-0.144063 0.135214,-0.362285 c 0.07436,-0.199256 0.133895,-0.402601 0.132286,-0.451878 -0.0016,-0.04927 -0.04577,-0.218952 -0.09813,-0.377057 -0.08024,-0.242275 -0.141447,-0.352601 -0.389346,-0.701817 -0.360333,-0.507599 -0.392181,-0.541434 -0.548435,-0.582633 -0.0686,-0.01809 -0.273809,-0.07961 -0.456022,-0.136693 l -0.331296,-0.103806 -0.206336,0.120119 c -0.113484,0.06607 -0.252387,0.158042 -0.308672,0.20439 -0.09711,0.07997 -0.103605,0.09797 -0.127244,0.353052 -0.0137,0.147829 -0.04126,0.311591 -0.06127,0.363913 -0.04797,0.125497 0.0073,0.246673 0.312747,0.68575 0.306948,0.441232 0.533263,0.716545 0.851703,1.036094 l 0.263105,0.264023 0.184331,-0.01153 c 0.157296,-0.0098 0.218287,-0.03266 0.415848,-0.155587 z"
       id="path2737" />
    <path
       style="fill:none;stroke:#000000;stroke-width:0.45;stroke-linecap:round;stroke-linejoin:round;stroke-miterlimit:4;stroke-dasharray:none;stroke-opacity:1"
       d="m 29.389208,40.560445 -0.63597,0.53889 -0.317986,0.251482 -0.618305,0.269445 -0.459312,0.08982 -0.847961,0.03593 -0.777297,-0.08982 -0.582973,-0.323334 -0.353317,-0.07185 -0.706634,-0.17963 -0.476978,-0.05389 -0.900959,0.03593 -1.077617,0.03593 -1.519263,0.03593 -0.830295,-0.197593 -0.777298,-0.107778 -0.7243,-0.143704 -0.547641,-0.197593 -0.494644,-0.287407 -0.582972,-0.323334 -0.547642,-0.323334"
       id="path3727" />
    <path
       style="fill:none;stroke:#000000;stroke-width:0.45;stroke-linecap:round;stroke-linejoin:round;stroke-miterlimit:4;stroke-dasharray:none;stroke-opacity:1"
       d="m 25.381714,47.06305 -0.754446,0.143704 -0.71852,0.01796 -0.826298,-0.251482 -0.592779,-0.287408 -0.53889,-0.251482 -0.485001,-0.05389 -0.610741,0.125741 -0.467038,0.08982 -0.592779,0.03593 -0.592779,-0.17963 L 18.28633,46.254715 17.675588,46.1649 17.20855,45.913418"
       id="path3729" />
    <path
       style="fill:none;stroke:#000000;stroke-width:0.45;stroke-linecap:round;stroke-linejoin:round;stroke-miterlimit:4;stroke-dasharray:none;stroke-opacity:1"
       d="m 22.72189,50.179206 -0.366823,0.03484 -0.366824,0.01741 -0.343897,-0.191569 -0.298044,-0.03484 -0.298044,0.06966 -0.275116,0.06966 -0.38975,0.191569 -0.275117,0.121906 -0.206339,0.03484 -0.32097,-0.104489"
       id="path3731" />
    <path
       style="fill:none;stroke:#000000;stroke-width:0.35;stroke-linecap:round;stroke-linejoin:round;stroke-miterlimit:4;stroke-dasharray:none;stroke-opacity:1"
       d="M 58.227202,35.167305 V 38.26634"
       id="path1412" />
    <path
       style="fill:none;stroke:#000000;stroke-width:0.32799;stroke-linecap:butt;stroke-linejoin:miter;stroke-miterlimit:4;stroke-dasharray:none;stroke-opacity:1"
       d="m 59.308757,33.4486 0.168698,0.732925 0.118088,0.636488 0.118088,0.694351 0.05061,0.713638 -0.05061,0.810075 -0.08434,0.829363 -0.253046,1.118675"
       id="path1414" />
    <path
       style="fill:none;stroke:#000000;stroke-width:0.467528;stroke-linecap:round;stroke-linejoin:round;stroke-miterlimit:4;stroke-dasharray:none;stroke-opacity:1"
       d="m 26.629761,12.251354 0.370173,0.599739 0.329043,0.399826 0.246781,0.319859 0.370173,0.359843 h 0.205651 l 0.370173,-0.239895 0.246781,-0.639721 -0.164521,-0.559755 -0.370173,-0.519774 -0.287911,-0.399825 -0.370173,-0.07996 -0.411303,-0.15993 -0.452433,0.31986 0.04113,0.31986 z"
       id="path1502" />
  </g>
</svg>
