<?xml version="1.0" encoding="UTF-8" standalone="no"?>
<svg
   xmlns:dc="http://purl.org/dc/elements/1.1/"
   xmlns:cc="http://creativecommons.org/ns#"
   xmlns:rdf="http://www.w3.org/1999/02/22-rdf-syntax-ns#"
   xmlns:svg="http://www.w3.org/2000/svg"
   xmlns="http://www.w3.org/2000/svg"
   xmlns:sodipodi="http://sodipodi.sourceforge.net/DTD/sodipodi-0.dtd"
   xmlns:inkscape="http://www.inkscape.org/namespaces/inkscape"
   version="1.1"
   viewBox="0 0 64 64"
   id="svg2130"
   sodipodi:docname="icon.svg"
   inkscape:version="1.0.2 (e86c870879, 2021-01-15)"
   inkscape:export-filename="C:\Users\Sam\Downloads\Capture.PNG"
   inkscape:export-xdpi="2000"
   inkscape:export-ydpi="2000">
  <metadata
     id="metadata2136">
    <rdf:RDF>
      <cc:Work
         rdf:about="">
        <dc:format>image/svg+xml</dc:format>
        <dc:type
           rdf:resource="http://purl.org/dc/dcmitype/StillImage" />
        <dc:title />
      </cc:Work>
    </rdf:RDF>
  </metadata>
  <defs
     id="defs2134">
    <inkscape:path-effect
       effect="spiro"
       id="path-effect2741"
       is_visible="true"
       lpeversion="1" />
    <inkscape:path-effect
       effect="bspline"
       id="path-effect2737"
       is_visible="true"
       lpeversion="1"
       weight="33.333333"
       steps="2"
       helper_size="0"
       apply_no_weight="true"
       apply_with_weight="true"
       only_selected="false" />
  </defs>
  <sodipodi:namedview
     pagecolor="#ffffff"
     bordercolor="#666666"
     borderopacity="1"
     objecttolerance="10"
     gridtolerance="10"
     guidetolerance="10"
     inkscape:pageopacity="0"
     inkscape:pageshadow="2"
     inkscape:window-width="3840"
     inkscape:window-height="2066"
     id="namedview2132"
     showgrid="false"
     showguides="true"
     inkscape:guide-bbox="true"
     inkscape:zoom="20"
     inkscape:cx="39.713362"
     inkscape:cy="30.669733"
     inkscape:window-x="-11"
     inkscape:window-y="-11"
     inkscape:window-maximized="1"
     inkscape:current-layer="svg2130"
     inkscape:document-rotation="0" />
  <path
     style="fill:none;stroke:#000000;stroke-width:0px;stroke-linecap:butt;stroke-linejoin:miter;stroke-opacity:1"
     d="m -15.0319,7.3985132 v 0"
     id="path2721" />
  <path
     style="fill:#ff8080;fill-opacity:1;stroke:#000000;stroke-width:0.0054226;stroke-linecap:round;stroke-linejoin:round;stroke-miterlimit:4;stroke-dasharray:none;stroke-opacity:1"
     d=""
     id="path2877" />
  <path
     style="fill:#ffe6d5;fill-opacity:1;stroke:none;stroke-width:0.00301306;stroke-linecap:round;stroke-linejoin:round;stroke-miterlimit:4;stroke-dasharray:none;stroke-opacity:1"
     d=""
     id="path6382" />
  <path
     style="fill:#ffe6d5;fill-opacity:1;stroke:none;stroke-width:0.0028125;stroke-linecap:round;stroke-linejoin:round;stroke-miterlimit:4;stroke-dasharray:none;stroke-opacity:1"
     d=""
     id="path6394" />
  <path
     style="fill:#ffe6d5;fill-opacity:1;stroke:none;stroke-width:0.0028125;stroke-linecap:round;stroke-linejoin:round;stroke-miterlimit:4;stroke-dasharray:none;stroke-opacity:1"
     d=""
     id="path6396" />
  <path
     style="fill:#ffe6d5;fill-opacity:1;stroke:none;stroke-width:0.0028125;stroke-linecap:round;stroke-linejoin:round;stroke-miterlimit:4;stroke-dasharray:none;stroke-opacity:1"
     d=""
     id="path6398" />
  <path
     style="fill:#ffe6d5;fill-opacity:1;stroke:none;stroke-width:0.0028125;stroke-linecap:round;stroke-linejoin:round;stroke-miterlimit:4;stroke-dasharray:none;stroke-opacity:1"
     d=""
     id="path6410" />
  <path
     style="fill:#ffe6d5;fill-opacity:1;stroke:none;stroke-width:0.0028125;stroke-linecap:round;stroke-linejoin:round;stroke-miterlimit:4;stroke-dasharray:none;stroke-opacity:1"
     d=""
     id="path6412" />
  <path
     style="fill:#ff8080;fill-opacity:1;stroke:#ff8080;stroke-width:0.222;stroke-linecap:round;stroke-linejoin:round;stroke-miterlimit:4;stroke-dasharray:none;stroke-opacity:1"
     d="m 20.937323,55.647916 c -0.270147,-0.02547 -0.457728,-0.07036 -0.547635,-0.131083 -0.219138,-0.148 -0.277322,-0.157198 -1.302145,-0.205792 -0.758688,-0.03598 -1.030975,-0.06705 -1.22572,-0.139886 -0.139151,-0.05204 -0.515095,-0.118794 -0.846346,-0.150258 -0.386534,-0.03672 -0.674717,-0.09138 -0.820017,-0.155562 -0.123224,-0.05441 -0.398658,-0.115063 -0.612086,-0.134777 -0.315848,-0.02916 -0.413115,-0.0586 -0.522744,-0.158234 -0.190224,-0.172879 -0.293094,-0.214344 -0.630969,-0.254329 -0.165053,-0.01954 -0.349188,-0.07508 -0.41423,-0.124949 -0.0644,-0.04938 -0.221929,-0.104672 -0.350066,-0.122861 -0.128137,-0.0182 -0.324557,-0.08482 -0.43649,-0.148057 -0.11193,-0.06324 -0.235906,-0.114976 -0.275497,-0.114976 -0.03959,0 -0.193688,-0.07643 -0.342441,-0.169858 -0.148754,-0.09343 -0.308896,-0.16986 -0.355873,-0.16986 -0.119956,0 -0.278053,-0.235256 -0.340422,-0.506551 -0.108878,-0.473603 -0.356576,-0.780751 -0.835377,-1.035876 l -0.262153,-0.139688 0.23726,-0.194513 c 0.130494,-0.10698 0.326874,-0.250262 0.436401,-0.318399 0.32496,-0.202163 0.477724,-0.394579 1.243392,-1.566143 l 0.729497,-1.116218 -0.01939,-0.82503 c -0.01517,-0.645377 -0.03805,-0.865471 -0.105024,-1.010751 -0.07055,-0.153004 -0.09373,-0.435132 -0.131621,-1.60153 -0.05465,-1.682056 -0.07692,-1.959476 -0.175832,-2.190257 -0.05189,-0.12105 -0.09063,-0.496789 -0.125743,-1.219715 -0.03842,-0.79063 -0.07427,-1.117859 -0.147395,-1.345225 -0.09317,-0.2897 -0.09666,-0.490882 -0.09728,-5.620652 -5.69e-4,-4.718026 0.0083,-5.344236 0.07769,-5.532558 0.04308,-0.116798 0.110633,-0.478029 0.150125,-0.802736 0.03949,-0.324707 0.105724,-0.669525 0.147183,-0.766262 0.04146,-0.09674 0.107988,-0.416848 0.147839,-0.711356 0.03984,-0.294508 0.106194,-0.632363 0.14744,-0.750789 0.04124,-0.118422 0.09755,-0.409407 0.125119,-0.646624 0.03146,-0.270711 0.09633,-0.528049 0.174196,-0.691121 0.06824,-0.142897 0.124292,-0.34921 0.124559,-0.458473 2.7e-4,-0.10926 0.04634,-0.327654 0.102392,-0.485313 0.05853,-0.164623 0.129372,-0.565561 0.166421,-0.941822 0.05803,-0.589355 0.08086,-0.683347 0.227263,-0.935638 0.08951,-0.154257 0.225074,-0.438164 0.301245,-0.630906 0.07617,-0.192743 0.221483,-0.536071 0.322913,-0.762955 0.101426,-0.226883 0.225002,-0.516 0.274607,-0.642481 0.0496,-0.126481 0.35924,-0.596021 0.688078,-1.043421 0.328839,-0.447401 0.826201,-1.1738 1.105249,-1.614221 1.03259,-1.629732 1.0661,-1.673362 1.919697,-2.499357 0.882812,-0.854267 0.963219,-0.951848 1.086537,-1.318618 0.11993,-0.356693 0.398819,-0.642477 0.83391,-0.854527 0.200887,-0.0979 0.488468,-0.277216 0.639067,-0.398469 0.150599,-0.121248 0.505469,-0.38681 0.788599,-0.590133 0.516349,-0.370801 0.78421,-0.655863 0.834108,-0.887666 0.01471,-0.06835 0.06045,-0.184827 0.101641,-0.258842 0.04119,-0.07401 0.116776,-0.281904 0.167964,-0.461976 0.05119,-0.1800727 0.127894,-0.3925035 0.170453,-0.472069 0.04255,-0.079568 0.07752,-0.1784353 0.07769,-0.2197107 1.5e-4,-0.041272 0.07814,-0.1941481 0.17328,-0.3397185 0.09513,-0.1455693 0.173548,-0.2986413 0.174247,-0.3401603 0.0015,-0.09385 0.454424,-0.641667 0.89168,-1.078709 0.320457,-0.320298 0.904662,-0.714255 1.059181,-0.714255 0.04216,0 0.165581,-0.06279 0.274261,-0.139535 0.108675,-0.07674 0.252061,-0.156047 0.318627,-0.176226 0.06657,-0.02018 0.179314,-0.07669 0.250556,-0.12557 0.07125,-0.04888 0.239265,-0.112595 0.373387,-0.141583 0.134123,-0.02899 0.324823,-0.104586 0.423781,-0.167996 0.09896,-0.06341 0.30563,-0.137945 0.459271,-0.165631 0.153643,-0.02768 0.34964,-0.08578 0.435547,-0.12908 0.08591,-0.0433 0.271293,-0.09023 0.411967,-0.104276 0.211748,-0.02114 0.297746,-0.0037 0.499663,0.101127 0.134142,0.06966 0.275054,0.126667 0.313141,0.126667 0.117577,0 0.427837,0.174999 0.662699,0.373795 0.259948,0.22003 1.394559,0.982798 1.734394,1.165986 0.577733,0.311427 0.597681,0.3176 1.044475,0.323227 0.390101,0.005 0.457838,-0.0083 0.694413,-0.136142 0.144182,-0.07787 0.345811,-0.210097 0.448066,-0.293833 0.102253,-0.08373 0.297934,-0.213849 0.434843,-0.289141 0.13691,-0.07529 0.372144,-0.229335 0.522743,-0.342321 0.600781,-0.450727 2.370224,-1.430762 2.585551,-1.43205 0.03927,-2.34e-4 0.16982,-0.04687 0.290105,-0.103632 0.181158,-0.08549 0.281401,-0.09928 0.583972,-0.08035 0.344741,0.02157 0.408198,0.04556 1.128768,0.42684 0.41993,0.222192 0.85791,0.468958 0.97329,0.54837 0.1222,0.08409 0.31339,0.160348 0.45791,0.182617 0.32343,0.04984 0.81019,-0.01927 1.03124,-0.1464 0.0969,-0.0557 0.38002,-0.133001 0.63222,-0.172577 0.25124,-0.03942 0.58506,-0.115633 0.74182,-0.169362 0.24104,-0.0826 0.41007,-0.09761 1.09527,-0.09721 0.75839,4.41e-4 0.8273,0.0082 1.07657,0.121323 0.14647,0.06648 0.29881,0.120852 0.33852,0.120852 0.13412,0 0.38902,0.157019 0.78915,0.486124 0.21905,0.180171 0.48789,0.373057 0.59742,0.428636 0.23137,0.117405 0.79412,0.400902 1.12789,0.568189 0.13983,0.07008 0.39653,0.291225 0.6472,0.557556 l 0.41545,0.441395 0.026,1.0278848 c 0.025,0.9911057 0.0308,1.0380777 0.1618,1.3128027 0.0747,0.156706 0.13584,0.311807 0.13584,0.34467 0,0.07714 0.49863,1.068061 0.67272,1.336884 0.12667,0.195613 0.13605,0.253069 0.18122,1.109691 0.0262,0.496867 0.0702,1.012591 0.0978,1.146051 0.0276,0.133461 0.091,0.450127 0.14091,0.703703 0.0499,0.253575 0.13682,0.559323 0.19312,0.679437 0.15035,0.320733 0.35716,1.002111 0.35716,1.176695 0,0.08335 -0.0362,0.277296 -0.0804,0.430993 l -0.0804,0.279448 -0.27878,0.03396 c -0.23814,0.02901 -0.35158,0.01079 -0.77835,-0.124772 -0.40428,-0.128443 -0.5443,-0.199202 -0.73393,-0.370882 -0.30084,-0.272353 -0.43242,-0.275371 -0.78625,-0.01803 l -0.26691,0.194126 h -0.58457 -0.58456 l -0.0565,-0.166827 c -0.088,-0.259993 -0.23701,-0.415548 -0.398,-0.415548 -0.11165,0 -0.20729,0.07211 -0.46172,0.348082 -0.30126,0.326771 -0.36177,0.366518 -0.98818,0.649182 -0.59684,0.269317 -0.67764,0.294048 -0.76548,0.234293 -0.18311,-0.124574 -0.35128,-0.08037 -0.63211,0.166157 -0.42474,0.372848 -0.86214,0.689129 -0.95303,0.689129 -0.066,0 -0.084,-0.04536 -0.084,-0.210869 0,-0.253857 -0.12094,-0.386571 -0.33081,-0.363011 -0.10554,0.0119 -0.20192,0.09425 -0.38744,0.331224 -0.13582,0.173498 -0.50935,0.564691 -0.83006,0.869315 l -0.58311,0.553864 -0.83857,0.29057 c -0.92248,0.319596 -1.14299,0.357754 -1.63555,0.283001 -0.30292,-0.04597 -0.367235,-0.07829 -0.733187,-0.3684 -0.452428,-0.358665 -0.562563,-0.383851 -0.825057,-0.188679 -0.09566,0.07113 -0.342737,0.176816 -0.549047,0.234858 -0.347425,0.09774 -0.399235,0.100706 -0.702,0.04007 -0.179791,-0.036 -0.478311,-0.130771 -0.663379,-0.210593 -0.185067,-0.07982 -0.388826,-0.145132 -0.452795,-0.145132 -0.129655,0 -0.261578,0.120703 -0.288497,0.263948 -0.0097,0.05175 -0.137364,0.164147 -0.283644,0.249773 -0.241852,0.141571 -0.293745,0.153535 -0.572433,0.131988 -0.168559,-0.01303 -0.488936,-0.0763 -0.71195,-0.140576 -0.223014,-0.06428 -0.458249,-0.116662 -0.522744,-0.116389 -0.06879,2.91e-4 -0.56865,0.301167 -1.209391,0.727967 l -1.09214,0.727483 h -0.680528 -0.680529 l -0.228205,0.16986 c -0.125514,0.09342 -0.241212,0.169859 -0.25711,0.169859 -0.0159,0 -0.538118,-0.178804 -1.160489,-0.397341 -0.838531,-0.294438 -1.242307,-0.464114 -1.559125,-0.655172 -0.235146,-0.141807 -0.478354,-0.25783 -0.540462,-0.25783 -0.116051,0 -1.099584,0.553336 -1.336228,0.751761 -0.131488,0.110252 -0.132033,0.113463 -0.07472,0.439646 0.0336,0.191206 0.09546,0.36453 0.147964,0.414564 0.04962,0.0473 0.560695,0.331132 1.135712,0.630757 0.844258,0.439917 1.256119,0.694113 2.139838,1.320684 0.601893,0.426751 1.571512,1.167507 2.154707,1.646124 l 1.060356,0.87021 0.301517,0.590836 c 0.165834,0.324959 0.460521,0.852903 0.654858,1.173209 l 0.353342,0.582375 0.974098,0.835895 c 1.95781,1.680045 4.113116,3.048045 6.444618,4.090484 0.52346,0.234044 1.2878,0.583704 1.69853,0.777023 l 0.74677,0.351485 0.74678,-0.02876 c 0.41073,-0.01582 1.08282,-0.07207 1.49355,-0.124986 0.41073,-0.05293 1.15004,-0.129916 1.64291,-0.171089 0.84704,-0.07076 0.92849,-0.08666 1.48689,-0.290227 0.35515,-0.129474 0.64801,-0.268841 0.73433,-0.34945 l 0.14357,-0.134087 v 0.280101 c 0,0.259493 -0.0169,0.301086 -0.2299,0.565353 -0.12644,0.156889 -0.2849,0.320385 -0.35213,0.363326 -0.1539,0.0983 -0.44145,0.676951 -0.51483,1.036006 -0.0307,0.150002 -0.12125,0.44128 -0.20132,0.647282 -0.0801,0.206004 -0.14559,0.417446 -0.14559,0.46987 0,0.217031 -0.33125,0.714919 -0.74678,1.12246 -0.35254,0.345765 -0.50211,0.452815 -0.89613,0.641378 -0.26012,0.124488 -0.57377,0.240727 -0.69699,0.25831 -0.12322,0.01758 -0.35515,0.08532 -0.5154,0.150541 -0.27293,0.11107 -0.36757,0.120406 -1.49556,0.147529 l -1.20419,0.02896 -0.3216,-0.124434 c -0.17687,-0.06843 -0.50081,-0.149876 -0.71987,-0.18097 -0.21905,-0.03109 -0.518605,-0.109459 -0.665669,-0.174153 -0.147064,-0.06469 -0.291689,-0.117617 -0.321392,-0.117617 -0.05094,0 -0.479341,-0.181249 -1.153697,-0.488103 -0.164291,-0.07476 -0.432562,-0.150575 -0.596159,-0.168482 -0.255089,-0.02792 -0.443216,-0.111021 -1.321007,-0.583481 L 34.3387,37.942116 32.996206,37.622878 31.653712,37.30364 30.010805,37.25565 C 28.103434,37.199932 26.727657,37.071162 25.917581,36.872523 25.394887,36.744353 25.326283,36.712814 24.847202,36.380448 24.565663,36.185126 24.104675,35.806184 23.822785,35.538353 23.355386,35.094265 23.279771,34.995992 22.964043,34.42228 22.68595,33.916953 22.581902,33.663755 22.435232,33.135426 22.25594,32.48958 22.252865,32.463422 22.265255,31.689607 l 0.01259,-0.788071 -0.230162,-0.673212 c -0.22453,-0.656747 -0.243448,-0.690886 -0.773438,-1.395832 -0.298804,-0.397442 -0.774481,-0.98469 -1.057061,-1.304995 -0.548655,-0.621905 -0.690022,-0.706113 -0.889699,-0.52996 -0.194078,0.171215 -0.128056,0.316158 0.444493,0.97585 0.296812,0.341987 0.752416,0.905704 1.012451,1.252702 0.44236,0.590295 0.485903,0.669953 0.676472,1.237547 l 0.203679,0.606638 -0.02667,0.703703 -0.02667,0.703704 0.209279,0.776498 c 0.180605,0.6701 0.258087,0.86605 0.565466,1.430038 0.305084,0.559777 0.424037,0.723395 0.829143,1.140482 0.298131,0.306951 0.721395,0.665727 1.145056,0.970604 l 0.672097,0.483657 0.621842,0.158185 c 0.901062,0.229213 2.099104,0.348283 4.13263,0.410736 l 1.717584,0.05275 1.294411,0.306631 1.294411,0.306633 0.871239,0.468919 c 0.479181,0.257908 0.876262,0.473428 0.8824,0.478933 0.0061,0.0055 -0.09978,0.183469 -0.235384,0.395469 -0.1356,0.212002 -0.247038,0.411508 -0.247641,0.443348 -6.02e-4,0.03184 -0.04964,0.138087 -0.108967,0.236108 -0.140481,0.232099 -0.141193,0.537901 -0.0018,0.757817 0.138801,0.21893 1.075727,1.106282 1.339422,1.268554 0.113138,0.06962 0.269174,0.140823 0.346749,0.158228 0.168197,0.03774 0.695319,0.335066 1.211424,0.68332 0.445592,0.300673 0.851589,0.63547 1.633599,1.34712 0.32001,0.291212 0.69385,0.600412 0.83076,0.687109 0.13691,0.0867 0.36094,0.271291 0.49785,0.410208 0.26596,0.269863 0.48191,0.387251 0.71241,0.387251 0.12289,0 0.15118,0.0264 0.20057,0.187095 0.0316,0.1029 0.13476,0.282259 0.22918,0.398571 0.0944,0.116315 0.18539,0.264781 0.20216,0.329933 0.0168,0.06515 0.0964,0.211855 0.17699,0.326008 l 0.14649,0.207551 v 0.971544 0.971544 l -0.16524,0.12286 c -0.0909,0.06757 -0.32051,0.191434 -0.5103,0.275248 -0.18978,0.08382 -0.44587,0.219086 -0.56909,0.300604 -0.12322,0.08151 -0.28192,0.186049 -0.35267,0.232292 -0.0708,0.04624 -0.20547,0.10476 -0.29938,0.130035 -0.0939,0.02528 -0.347,0.163799 -0.56242,0.307827 -0.37016,0.247481 -0.56441,0.364639 -1.00972,0.608997 -0.1047,0.05746 -0.24469,0.161197 -0.31107,0.230524 -0.06639,0.06933 -0.157249,0.126051 -0.201919,0.126051 -0.04467,0 -0.157135,0.0546 -0.24992,0.121323 -0.09279,0.06672 -0.194008,0.121323 -0.224941,0.121323 -0.03093,0 -0.16653,0.07643 -0.301326,0.16986 -0.134795,0.09343 -0.27883,0.169859 -0.320078,0.169859 -0.04124,0 -0.185284,0.07644 -0.32008,0.169859 -0.134795,0.09342 -0.281559,0.169859 -0.326142,0.169859 -0.04458,0 -0.182027,0.06242 -0.30543,0.138708 -0.123402,0.07628 -0.32651,0.153638 -0.451346,0.171887 -0.12484,0.01825 -0.331479,0.09778 -0.459205,0.176746 -0.128613,0.07951 -0.303647,0.144515 -0.3923,0.145695 -0.08805,0.0012 -0.249686,0.03625 -0.359213,0.07796 -0.109526,0.04171 -0.386331,0.09454 -0.615119,0.11743 -0.327313,0.03273 -0.465265,0.07187 -0.647206,0.183647 -0.190138,0.116811 -0.300048,0.146026 -0.618531,0.164434 -0.330648,0.01912 -0.418043,0.0438 -0.597421,0.168733 -0.181783,0.126613 -0.264498,0.14935 -0.613439,0.168612 -0.298052,0.01645 -0.44099,0.048 -0.547635,0.120889 -0.102074,0.06976 -0.257117,0.106632 -0.529773,0.126001 -0.301991,0.02146 -0.44214,0.05862 -0.647205,0.171645 -0.164501,0.09068 -0.400467,0.165822 -0.635133,0.202294 -0.205363,0.03191 -0.493712,0.110636 -0.640775,0.174955 -0.160317,0.07011 -0.361278,0.116934 -0.501859,0.116934 -0.163225,0 -0.308894,0.04055 -0.479388,0.133461 l -0.244917,0.133461 -2.688393,0.0025 c -1.900839,0.0017 -2.766951,0.01948 -2.956559,0.06066 -0.293662,0.06378 -0.563077,0.06521 -1.188207,0.0063 z m 9.076738,-40.096922 c 0.244648,-0.167611 0.568033,-0.377944 0.718632,-0.467405 0.315005,-0.187126 0.346692,-0.223711 0.347733,-0.40148 8.02e-4,-0.136781 -0.1657,-0.292356 -0.663089,-0.619576 -0.174232,-0.114629 -0.326542,-0.287551 -0.551681,-0.626368 -0.171051,-0.257417 -0.342786,-0.493112 -0.381634,-0.523766 -0.03885,-0.03066 -0.303378,-0.116476 -0.587842,-0.190716 -0.486809,-0.127044 -0.537985,-0.131506 -0.870644,-0.0759 -0.262513,0.04389 -0.431323,0.108554 -0.65621,0.25138 -0.257148,0.16332 -0.342925,0.192298 -0.569202,0.192298 -0.492093,0 -0.553177,0.181697 -0.269207,0.800765 0.133998,0.292124 0.176559,0.448328 0.171899,0.630905 -0.005,0.194378 0.02634,0.295763 0.157349,0.509579 0.143188,0.2337 0.210057,0.289296 0.53728,0.446697 0.4876,0.234546 1.094603,0.368415 1.695593,0.373949 l 0.47621,0.0043 0.444813,-0.304748 z"
     id="path2869" />
  <path
     style="fill:#ff8080;fill-opacity:1;stroke:#ff8080;stroke-width:0.122;stroke-linecap:round;stroke-linejoin:round;stroke-miterlimit:4;stroke-dasharray:none;stroke-opacity:1"
     d="m 46.33387,33.525045 c -0.9396,-0.08599 -1.16286,-0.125182 -2.20425,-0.386946 -1.42347,-0.357801 -1.98431,-0.593543 -2.96036,-1.244351 -0.55757,-0.371769 -0.90468,-0.554417 -1.87836,-0.988377 l -1.1944,-0.532333 -0.76025,-0.09868 c -0.41814,-0.05428 -0.911428,-0.145521 -1.096197,-0.202769 l -0.335942,-0.10409 -1.082932,0.256328 c -0.595612,0.140982 -1.157242,0.300824 -1.248065,0.355205 l -0.165135,0.09887 -0.133575,-0.118918 c -0.07347,-0.06541 -0.431481,-0.376936 -0.795589,-0.692296 -0.608188,-0.526761 -0.688075,-0.616182 -0.982578,-1.099824 -0.17631,-0.289544 -0.441129,-0.761441 -0.588486,-1.048662 l -0.267923,-0.522218 0.405187,-0.623274 c 0.501746,-0.771807 0.678575,-0.914592 1.337532,-1.080024 1.580927,-0.396894 2.97363,-0.523294 5.014903,-0.455147 1.83168,0.06114 1.91669,0.07502 3.36049,0.548452 0.99391,0.325908 1.51301,0.531612 2.57698,1.021188 0.73279,0.337189 1.34888,0.613998 1.36909,0.615133 0.0202,0.0011 0.19356,0.09997 0.38523,0.219646 0.19167,0.119674 0.44931,0.261672 0.57253,0.315557 0.12322,0.05388 0.25763,0.118967 0.29871,0.144637 0.34432,0.215163 1.07645,0.479689 1.54646,0.558757 0.25558,0.043 0.55546,0.11448 0.6664,0.158857 0.18036,0.07214 0.51788,0.08068 3.18882,0.08068 2.75097,0 2.99969,-0.0067 3.14643,-0.08494 0.13026,-0.06944 0.28638,-0.08492 0.85585,-0.08492 0.47953,0 0.70778,0.01775 0.73265,0.05698 0.0199,0.03134 0.0361,0.180856 0.0361,0.332252 0,0.24856 -0.0237,0.310129 -0.24459,0.634586 -0.2866,0.421011 -1.1356,1.25774 -1.54915,1.52676 -0.15891,0.103371 -0.34494,0.235318 -0.41339,0.293214 -0.2666,0.225476 -1.64097,0.974345 -1.95215,1.063685 -0.14257,0.04094 -0.7301,0.284157 -1.05985,0.43875 -0.13691,0.06418 -0.36094,0.130954 -0.49785,0.148372 -0.13691,0.01742 -0.35115,0.08166 -0.47609,0.142779 -0.12494,0.06111 -0.36888,0.136163 -0.54207,0.166779 -0.1732,0.03061 -0.42942,0.100595 -0.56939,0.155506 -0.36251,0.142218 -1.19415,0.153811 -2.49482,0.03478 z"
     id="path2873" />
  <path
     style="fill:#000000;fill-opacity:1;stroke:#000000;stroke-width:0.0108637;stroke-linecap:round;stroke-linejoin:round;stroke-miterlimit:4;stroke-dasharray:none;stroke-opacity:1"
     d="m 28.660176,15.83877 c -0.233769,-0.03104 -0.695008,-0.135169 -0.882734,-0.199281 -0.119663,-0.04088 -0.33688,-0.13445 -0.482693,-0.207957 -0.239536,-0.120752 -0.27523,-0.147562 -0.369962,-0.277846 -0.168011,-0.231062 -0.221777,-0.3597 -0.254537,-0.60899 -0.01973,-0.150117 -0.0788,-0.371578 -0.175245,-0.657048 -0.166285,-0.492166 -0.17566,-0.573303 -0.07824,-0.677213 0.06411,-0.06839 0.08082,-0.07292 0.359234,-0.09748 0.280362,-0.02473 0.29887,-0.02983 0.464577,-0.127855 0.373593,-0.221018 0.619076,-0.308007 0.951801,-0.337279 0.142063,-0.0125 0.224242,-0.0037 0.443353,0.04743 0.395306,0.09225 0.729309,0.197228 0.799984,0.251422 0.03417,0.0262 0.213034,0.250359 0.397477,0.498129 0.329658,0.442844 0.341013,0.454891 0.668926,0.709646 0.474399,0.368562 0.517625,0.415415 0.517625,0.561057 0,0.08998 -0.01285,0.129889 -0.05502,0.17093 -0.05682,0.05529 -0.4953,0.362627 -1.067566,0.748256 l -0.327908,0.220965 -0.417859,-0.0036 c -0.229822,-0.002 -0.450868,-0.0079 -0.491212,-0.01331 z m 0.701784,-0.61724 c 0.104364,-0.0526 0.543648,-0.360478 0.65966,-0.462315 l 0.09504,-0.08342 -0.220009,-0.185373 c -0.174805,-0.147286 -0.276444,-0.262375 -0.494676,-0.560137 -0.151066,-0.206119 -0.30825,-0.407825 -0.349297,-0.448234 -0.10154,-0.09996 -0.404725,-0.178729 -0.750383,-0.194938 l -0.26008,-0.01215 -0.442898,0.223561 c -0.28796,0.145355 -0.442899,0.236616 -0.442899,0.260877 0,0.02052 0.03166,0.122489 0.07035,0.226604 0.0387,0.104103 0.08203,0.287273 0.0963,0.407031 0.03533,0.296467 0.07076,0.369157 0.230176,0.472339 0.409816,0.265251 1.54547,0.488904 1.808712,0.356204 z"
     id="path3125" />
  <path
     style="fill:#ffe6d5;fill-opacity:1;stroke:#ffe6d5;stroke-width:0.211;stroke-linecap:round;stroke-linejoin:round;stroke-miterlimit:4;stroke-dasharray:none;stroke-opacity:1"
     d="m 30.104772,26.373644 c -0.04034,-0.03013 -0.557491,-0.419428 -1.149216,-0.865107 -1.783031,-1.342955 -2.358911,-1.745513 -3.190908,-2.230541 -0.556826,-0.324613 -1.330973,-0.786937 -1.440222,-0.860106 l -0.107619,-0.07208 0.08241,-0.06556 c 0.04533,-0.03607 0.173998,-0.121795 0.285938,-0.190525 0.24312,-0.149266 0.194035,-0.155756 0.808666,0.106917 0.878203,0.375308 2.439817,0.927232 2.71262,0.958729 0.114207,0.01319 0.144987,0.0042 0.400833,-0.116786 0.152418,-0.07209 0.315635,-0.142676 0.362704,-0.156857 0.142793,-0.04302 0.737644,-0.0996 1.047115,-0.0996 h 0.291461 l 0.571621,-0.361011 c 0.876481,-0.553548 1.350108,-0.845588 1.459992,-0.900234 0.126874,-0.0631 0.172346,-0.0624 0.676519,0.01041 0.228621,0.03301 0.564216,0.06645 0.745769,0.07429 l 0.330093,0.01426 0.459566,-0.243761 c 0.314255,-0.166686 0.476615,-0.240149 0.51348,-0.232336 0.02966,0.0063 0.14952,0.03908 0.266372,0.07288 0.245694,0.07108 0.65814,0.135355 0.868486,0.135355 0.0925,0 0.260622,-0.03135 0.461442,-0.08604 0.17375,-0.04732 0.40046,-0.107463 0.50379,-0.133646 l 0.18786,-0.04761 0.19113,0.101648 c 0.10513,0.05591 0.24374,0.138656 0.30803,0.183885 0.15803,0.111169 0.31382,0.165208 0.55835,0.193684 0.30384,0.03538 1.22975,0.05524 1.29728,0.02783 0.1744,-0.0708 1.20148,-0.451016 1.45879,-0.540023 0.29665,-0.102615 0.30536,-0.107736 0.53793,-0.316067 0.13002,-0.116463 0.43401,-0.38004 0.67555,-0.585714 l 0.43915,-0.373953 0.34329,0.01428 c 0.18881,0.0078 0.38868,0.01967 0.44415,0.02627 0.0992,0.01178 0.10964,0.0053 0.62351,-0.383482 0.3989,-0.30183 0.53424,-0.392075 0.57156,-0.381139 0.16817,0.04927 0.22526,0.04133 0.51636,-0.07183 0.1598,-0.06212 0.47759,-0.202186 0.70621,-0.311261 0.37579,-0.17929 0.54232,-0.266787 0.89699,-0.4713 l 0.11454,-0.06604 0.0963,0.08477 0.0963,0.08478 h 0.91876 0.91877 l 0.14602,-0.08342 c 0.0803,-0.04588 0.16164,-0.08342 0.18073,-0.08342 0.0191,0 0.13447,0.04861 0.25638,0.108008 0.47892,0.233371 1.17572,0.415323 1.59567,0.416672 0.21206,6.82e-4 0.20784,-0.0091 0.16272,0.377737 -0.0422,0.361386 -0.0907,0.515047 -0.33977,1.075937 -0.26839,0.604317 -0.51793,1.008604 -0.64116,1.038755 -0.074,0.0181 -0.26344,-0.02391 -0.46143,-0.102343 -0.19443,-0.07701 -0.43172,-0.09552 -0.6044,-0.04712 -0.33785,0.09468 -0.70117,0.13747 -1.75922,0.20719 -1.10778,0.073 -1.00865,0.05481 -1.1442,0.209979 -0.0633,0.07244 -0.26071,0.258551 -0.43874,0.413576 l -0.32369,0.281865 -0.20202,-0.07384 c -0.47209,-0.172543 -0.57108,-0.176 -0.77062,-0.0269 -0.0638,0.04768 -0.21506,0.144085 -0.3361,0.214226 -0.25529,0.147947 -0.26495,0.148161 -0.59905,0.01333 -0.17089,-0.06897 -0.23872,-0.08389 -0.38156,-0.08401 -0.17938,-1.43e-4 -0.35813,0.05573 -0.45791,0.143125 -0.0997,0.08732 -0.90778,1.091012 -0.98466,1.223009 -0.0148,0.02544 -0.0347,0.198899 -0.0441,0.385453 -0.009,0.186553 -0.0331,0.500078 -0.0525,0.696722 -0.0194,0.196644 -0.0353,0.371793 -0.0353,0.389222 -10e-5,0.04285 -0.0158,0.03931 -0.99035,-0.223083 -1.34501,-0.362123 -1.41146,-0.373946 -2.39624,-0.426241 -1.69075,-0.08978 -3.196585,-0.06809 -4.107838,0.05919 -0.971486,0.135691 -2.330157,0.430982 -2.615262,0.568399 -0.216948,0.104561 -0.522389,0.354449 -0.687582,0.562515 -0.311807,0.392729 -0.727402,0.893412 -0.741376,0.893161 -0.0081,-1.43e-4 -0.04772,-0.02492 -0.08807,-0.05505 z"
     id="path3213" />
  <path
     style="fill:#ffe6d5;fill-opacity:1;stroke:#ffe6d5;stroke-width:0.304;stroke-linecap:round;stroke-linejoin:round;stroke-miterlimit:4;stroke-dasharray:none;stroke-opacity:1"
     d="m 41.25831,35.097381 c -0.01856,-0.0038 -0.04001,-0.01066 -0.04769,-0.015 -0.01094,-0.0062 -0.0055,-0.0082 0.02578,-0.009 l 0.03974,-0.0011 -0.05564,-0.0094 c -0.04891,-0.0083 -0.215703,-0.08737 -1.3791,-0.653513 -0.727902,-0.354225 -1.441496,-0.70382 -1.585766,-0.776881 -1.117779,-0.566062 -1.865975,-0.989211 -2.690636,-1.521718 -0.773955,-0.499764 -1.249724,-0.848827 -1.220268,-0.895288 0.02937,-0.04633 0.588451,-0.195457 1.103075,-0.294238 0.426273,-0.08182 0.517285,-0.08249 0.979185,-0.0072 0.604246,0.09849 1.444334,0.293034 1.836593,0.42533 0.46154,0.155662 1.045978,0.442055 2.321021,1.137367 0.650792,0.354893 0.84567,0.457115 1.212177,0.635844 0.490256,0.239073 0.661732,0.310889 1.041281,0.436094 0.580415,0.191465 1.346806,0.387203 2.058714,0.525798 0.296828,0.05778 0.555491,0.101376 0.965767,0.162734 0.14427,0.02158 0.315523,0.04798 0.380564,0.05866 0.06504,0.01066 0.122257,0.01813 0.127153,0.01654 0.0048,-0.0016 -0.09661,-0.01942 -0.225563,-0.03961 -0.377203,-0.05907 -0.556165,-0.08952 -0.500746,-0.0852 0.109082,0.0086 1.131944,0.158583 1.164871,0.1709 0.0067,0.0025 0.01094,0.0086 0.0094,0.0133 -0.0047,0.01468 -0.249058,0.131236 -0.379531,0.181011 -0.291342,0.111145 -0.638764,0.201625 -0.957718,0.249421 -0.495171,0.0742 -2.003667,0.226551 -2.845636,0.287394 -0.144603,0.01041 -1.332357,0.01717 -1.377063,0.0078 z m 1.319674,-0.04456 c -0.01844,-0.0016 -0.05064,-0.0016 -0.07154,-4.7e-5 -0.0209,0.0016 -0.0059,0.003 0.03354,0.003 0.03935,2.2e-5 0.05644,-0.0012 0.038,-0.0029 z m 0.40265,-0.0179 c 0.270559,-0.01706 0.498522,-0.03584 0.453583,-0.03738 -0.0153,-5.23e-4 -0.0922,0.0041 -0.170897,0.01029 -0.117755,0.0093 -0.358539,0.02435 -0.600127,0.03764 -0.04054,0.0022 -0.0397,0.0025 0.01145,0.0038 0.03032,7.88e-4 0.168036,-0.0057 0.306025,-0.01438 z m 0.703967,-0.05392 c 0.272679,-0.02529 0.635528,-0.06469 0.625587,-0.06793 -0.0051,-0.0016 -0.112159,0.0079 -0.237929,0.02136 -0.12578,0.0134 -0.31453,0.03244 -0.419453,0.04233 -0.104922,0.0099 -0.178249,0.01835 -0.162948,0.01883 0.0153,4.86e-4 0.102939,-0.0061 0.194743,-0.01461 z m 0.842563,-0.09092 c 0.09617,-0.01178 0.165929,-0.0222 0.155,-0.02317 -0.01094,-9.59e-4 -0.09677,0.0082 -0.190769,0.02042 -0.094,0.01215 -0.163744,0.02261 -0.155,0.02317 0.0088,5.5e-4 0.0946,-0.0087 0.190769,-0.02042 z m 0.286153,-0.03657 c 0.03497,-0.0056 0.05286,-0.01029 0.03974,-0.01041 -0.01311,-1.9e-4 -0.05246,0.0042 -0.08744,0.0098 -0.03497,0.0056 -0.05286,0.01029 -0.03974,0.01041 0.01311,1.89e-4 0.05246,-0.0042 0.08744,-0.0098 z m 0.218589,-0.03161 c 0.05672,-0.0099 0.0573,-0.01017 0.01196,-0.0062 -0.02624,0.0022 -0.07451,0.0088 -0.107314,0.01452 -0.05672,0.0099 -0.05729,0.01017 -0.01195,0.0062 0.02622,-0.0022 0.07451,-0.0088 0.107301,-0.01452 z m 0.131154,-0.01866 c 0.0204,-0.0041 0.02467,-0.0066 0.01196,-0.0068 -0.01094,-2.46e-4 -0.03419,0.0025 -0.05166,0.0059 -0.0204,0.0041 -0.02467,0.0066 -0.01196,0.0068 0.01094,2.46e-4 0.03419,-0.0025 0.05167,-0.006 z m 0.270256,-0.04276 c 0.234914,-0.03925 0.519163,-0.09474 0.659742,-0.128805 0.128576,-0.03115 0.267512,-0.07047 0.263355,-0.07452 -0.0019,-0.0019 -0.03326,0.0056 -0.06978,0.01631 -0.177977,0.05258 -0.495091,0.119067 -0.87319,0.183109 -0.120222,0.02036 -0.211435,0.03734 -0.202692,0.03773 0.0088,3.87e-4 0.108904,-0.01483 0.222564,-0.03382 z m 0.993588,-0.225889 c 0.01915,-0.0086 0.01993,-0.0097 0.0039,-0.0058 -0.01094,0.0026 -0.0306,0.0095 -0.04371,0.01534 -0.01915,0.0086 -0.01993,0.0097 -0.0039,0.0058 0.01094,-0.0026 0.0306,-0.0095 0.04373,-0.01534 z m 0.05166,-0.0185 c 0.0066,-0.0041 0.0084,-0.0076 0.0039,-0.0076 -0.0043,0 -0.01332,0.0033 -0.01988,0.0076 -0.0066,0.0041 -0.0084,0.0076 -0.0039,0.0076 0.0043,0 0.01332,-0.0033 0.01988,-0.0076 z m 0.07846,-0.03437 c 0.05977,-0.02935 0.104363,-0.06245 0.104363,-0.07747 0,-0.01334 -0.02368,-0.03249 -0.04769,-0.03858 -0.01347,-0.0035 -0.0103,9.3e-5 0.0099,0.01091 0.0501,0.02678 0.03866,0.04338 -0.06721,0.09758 -0.03626,0.01856 -0.06316,0.03386 -0.05976,0.03398 0.0034,1.24e-4 0.03056,-0.01178 0.06037,-0.02639 z m 0.03134,-0.124627 c -0.0061,-0.006 -0.174852,-0.04243 -0.193267,-0.04173 -0.0088,3.28e-4 0.02291,0.0088 0.07033,0.01891 0.04743,0.01004 0.09035,0.01996 0.09539,0.02197 0.01279,0.0051 0.03255,0.0057 0.02755,8.57e-4 z"
     id="path6408" />
  <path
     style="fill:#ffe6d5;fill-opacity:1;stroke:none;stroke-width:0.0028125;stroke-linecap:round;stroke-linejoin:round;stroke-miterlimit:4;stroke-dasharray:none;stroke-opacity:1"
     d=""
     id="path6416" />
  <path
     style="fill:#000000;fill-opacity:1;stroke:#ff8080;stroke-width:0.0061;stroke-linecap:round;stroke-linejoin:round;stroke-miterlimit:4;stroke-dasharray:none;stroke-opacity:1;paint-order:stroke markers fill"
     d="m 20.758274,56.294923 c -0.165,-0.02423 -0.435,-0.09139 -0.6,-0.14925 -0.21692,-0.07607 -0.559188,-0.12489 -1.235916,-0.17629 -0.514753,-0.0391 -1.066004,-0.104435 -1.225,-0.145185 -0.158996,-0.04075 -0.55465,-0.110475 -0.879229,-0.154935 -0.32458,-0.04445 -0.680291,-0.11264 -0.79047,-0.15151 -0.110178,-0.03888 -0.387838,-0.10341 -0.617022,-0.143415 -0.267893,-0.04676 -0.513786,-0.127525 -0.688573,-0.22617 -0.149532,-0.08439 -0.313546,-0.153435 -0.364475,-0.153435 -0.188061,0 -1.319056,-0.417958 -1.953743,-0.722004 -0.740424,-0.354699 -0.827382,-0.438254 -1.071038,-1.029126 -0.08365,-0.20285 -0.190889,-0.411824 -0.238311,-0.464387 -0.04742,-0.05256 -0.294218,-0.21806 -0.548434,-0.367772 -0.254216,-0.149712 -0.486193,-0.317016 -0.515505,-0.371786 -0.1060228,-0.198106 0.0827,-0.434953 0.767857,-0.963663 l 0.640141,-0.493972 0.697359,-1.044765 0.697359,-1.044765 v -0.569932 c 0,-0.392766 -0.03062,-0.699387 -0.0985,-0.98638 -0.06651,-0.281203 -0.123608,-0.838634 -0.175819,-1.716448 -0.04253,-0.715 -0.121434,-1.69375 -0.17535,-2.175 -0.05392,-0.48125 -0.149173,-1.325 -0.211682,-1.875 -0.111438,-0.980522 -0.113631,-1.105666 -0.112553,-6.425 l 0.0011,-5.425 0.382483,-1.875 c 0.210366,-1.03125 0.474285,-2.272759 0.586487,-2.75891 0.112202,-0.486151 0.263283,-1.228651 0.335735,-1.65 0.12715,-0.73944 0.148224,-0.803486 0.6058,-1.84109 0.737836,-1.673127 0.619588,-1.473898 2.577234,-4.342213 0.937562,-1.373701 1.020407,-1.478489 2.025783,-2.562355 0.338646,-0.365084 0.704788,-0.813713 0.813649,-0.996953 0.30112,-0.50686 0.495867,-0.70511 1.082523,-1.101998 0.998422,-0.675458 1.656844,-1.189189 1.830093,-1.427922 0.09352,-0.128865 0.289297,-0.517634 0.435065,-0.86393 0.633139,-1.504129 1.023185,-2.088691 1.889944,-2.832457 0.853505,-0.732392 3.427671,-1.822569 4.302008,-1.82193 0.474213,3.45e-4 1.047806,0.275934 2.275223,1.093151 1.268175,0.844354 1.487896,0.956607 1.872426,0.956607 0.282672,0 0.32039,-0.0164 0.938926,-0.408238 2.181532,-1.381988 2.800618,-1.730899 3.71017,-2.091015 0.399191,-0.15805 0.433951,-0.163231 0.872884,-0.130095 0.524269,0.03958 0.650715,0.08866 1.846735,0.716848 0.545625,0.28658 0.838342,0.4125 0.958905,0.4125 0.09545,0 0.661539,-0.12375 1.257979,-0.275 l 1.08444,-0.275 h 0.94449 0.94449 l 0.46217,0.180684 c 0.28636,0.111954 0.69992,0.338298 1.08719,0.595035 0.34377,0.227893 0.89502,0.55721 1.225,0.731816 0.54564,0.288714 0.655,0.371804 1.20754,0.917465 l 0.60757,0.6 0.0269,0.325 c 0.0148,0.17875 0.0494,0.652778 0.0768,1.053396 0.0559,0.817122 0.0816,0.900343 0.66849,2.171604 0.36835,0.797836 0.41463,0.968756 0.48739,1.8 0.0891,1.018196 0.20005,1.617997 0.45496,2.459901 0.2964,0.978879 0.30978,1.262061 0.12102,2.559704 -0.13192,0.906844 -0.20422,1.170109 -0.52353,1.906322 -0.2789,0.643013 -0.40109,0.836178 -0.71946,1.137274 -0.26522,0.250837 -0.2884,0.261799 -0.55347,0.261799 -0.18322,0 -0.35323,-0.03721 -0.50342,-0.110172 -0.22498,-0.109306 -0.23001,-0.109499 -0.63884,-0.02456 -0.36025,0.07484 -1.56691,0.180718 -2.0937,0.183704 -0.15705,8.9e-4 -0.24502,0.05833 -0.65,0.424394 -0.46236,0.41793 -0.47177,0.423385 -0.73373,0.425 -0.14594,9e-4 -0.36521,-0.02351 -0.48726,-0.05424 -0.21444,-0.054 -0.23339,-0.04894 -0.56265,0.15 -0.40144,0.242553 -0.63017,0.26439 -1.0187,0.09725 -0.18268,-0.07859 -0.27511,-0.09483 -0.33426,-0.05873 -0.045,0.02744 -0.23364,0.237994 -0.41927,0.46789 l -0.3375,0.417994 v 0.635133 0.635133 l 1.5125,0.898552 c 2.37044,1.408237 2.53155,1.486767 3.77711,1.841022 l 0.77924,0.221629 h 2.75929 c 2.32489,0 2.79276,-0.01181 2.97186,-0.075 0.157,-0.05539 0.43486,-0.075 1.06289,-0.075 0.76551,0 0.86659,0.01006 1.01354,0.100881 0.26972,0.166696 0.33594,0.317228 0.3613,0.821263 l 0.0228,0.452856 -0.25986,0.4 c -0.33027,0.508363 -1.36219,1.53144 -2.00255,1.985369 -1.39427,0.988363 -3.23814,1.779985 -5.4481,2.339014 -0.45375,0.114781 -0.84046,0.22375 -0.85936,0.242154 -0.0189,0.01841 -0.0601,0.280963 -0.0914,0.583463 -0.0626,0.60388 -0.0123,0.498606 -0.66768,1.396049 -0.19422,0.265957 -0.31349,0.526309 -0.58953,1.286846 -0.40157,1.106415 -0.50323,1.320673 -0.79934,1.68461 -0.54966,0.675577 -1.32195,1.159856 -2.36765,1.484683 l -0.6,0.186379 -1.375,0.04898 -1.375,0.04898 -0.825,-0.234456 c -0.45375,-0.12895 -1.24125,-0.387091 -1.75,-0.573646 -0.50875,-0.186555 -0.975357,-0.351468 -1.036905,-0.366473 -0.175871,-0.04288 -0.330669,0.119865 -0.588073,0.618247 -0.215895,0.418012 -0.2301,0.466884 -0.168925,0.581191 0.141559,0.264504 0.925743,0.893949 1.694121,1.359827 0.928905,0.563209 1.177936,0.744546 2.474782,1.802068 0.55,0.448501 1.09,0.888001 1.2,0.976665 0.11,0.08866 0.39275,0.285539 0.62832,0.4375 0.47358,0.305487 0.63966,0.476962 0.8302,0.857175 0.0704,0.140455 0.24007,0.442102 0.37707,0.670326 l 0.24909,0.414954 -0.005,0.760046 c -0.003,0.418026 -0.0197,0.949363 -0.0374,1.18075 -0.0293,0.383539 -0.0466,0.436718 -0.19594,0.601994 -0.15107,0.167224 -1.1541,0.770522 -1.904152,1.145309 -0.169413,0.08465 -0.69763,0.394095 -1.173816,0.687652 -2.463903,1.518934 -4.173161,2.280899 -5.493162,2.44878 -0.15125,0.01924 -0.396727,0.08834 -0.545505,0.153557 -0.148777,0.06522 -0.430027,0.142614 -0.625,0.171984 -0.194972,0.02937 -0.473821,0.108995 -0.619664,0.17694 -0.146063,0.06804 -0.426795,0.141875 -0.625,0.164365 -0.197907,0.02246 -0.4478,0.07783 -0.555318,0.123055 -0.107518,0.04523 -0.355017,0.10686 -0.55,0.136965 -0.194982,0.0301 -0.489513,0.10778 -0.654513,0.172615 -0.165,0.06484 -0.73875,0.22934 -1.275,0.365565 -0.53625,0.13623 -1.0425,0.27507 -1.125,0.30854 -0.107401,0.04357 -0.95228,0.07197 -2.975,0.09999 -1.55375,0.02152 -3.08375,0.05085 -3.4,0.06518 -0.31625,0.01432 -0.71,0.0062 -0.875,-0.01801 z m 5.6,-0.648435 c 1.321733,-0.03251 1.532682,-0.04887 1.775,-0.13765 0.15125,-0.05542 0.62375,-0.18633 1.05,-0.290915 0.42625,-0.10458 0.9325,-0.251375 1.125,-0.326205 0.1925,-0.07483 0.480983,-0.15159 0.641073,-0.17057 0.16009,-0.01897 0.364663,-0.06525 0.454606,-0.10283 0.08994,-0.03758 0.369741,-0.101523 0.621772,-0.142092 0.25203,-0.04057 0.531207,-0.118666 0.620393,-0.173547 0.08919,-0.05488 0.331613,-0.123211 0.538725,-0.151842 0.207114,-0.02863 0.488364,-0.101541 0.625,-0.162023 0.136638,-0.06048 0.563431,-0.172873 0.948431,-0.249759 1.022032,-0.204106 2.31063,-0.7182 3.386207,-1.35095 0.157414,-0.0926 0.494915,-0.291073 0.75,-0.44104 0.255086,-0.149968 0.677543,-0.411117 0.938793,-0.580331 0.26125,-0.169214 0.77875,-0.470747 1.15,-0.670071 0.37125,-0.199325 0.916878,-0.498791 1.212498,-0.66548 l 0.5375,-0.303071 -3e-4,-0.85419 c -1.5e-4,-0.469804 -0.0231,-0.936341 -0.051,-1.036749 -0.0279,-0.100408 -0.20416,-0.437346 -0.39171,-0.748752 -0.31723,-0.52671 -0.36422,-0.580333 -0.67388,-0.768974 -0.183087,-0.11153 -0.949092,-0.701832 -1.702238,-1.311782 -1.638757,-1.327198 -1.91127,-1.525842 -2.838772,-2.069301 -0.557966,-0.326933 -0.817805,-0.5172 -1.186253,-0.868631 -0.656612,-0.626287 -0.755865,-0.77258 -0.755865,-1.1141 0,-0.218224 0.04633,-0.376536 0.227279,-0.776643 0.125003,-0.276401 0.220628,-0.548857 0.2125,-0.605459 -0.01108,-0.07719 -0.183508,-0.186903 -0.689779,-0.438915 C 34.09758,38.743523 33.431833,38.51506 32.457229,38.302081 31.63545,38.122498 31.211983,38.078496 29.008254,37.943702 27.179411,37.831838 26.45809,37.750168 25.695562,37.568629 25.066856,37.41895 24.92428,37.347672 24.273208,36.857556 c -1.176566,-0.8857 -1.851478,-1.722273 -2.285946,-2.833501 -0.39661,-1.014398 -0.454008,-1.294226 -0.454008,-2.213391 0,-0.807861 -0.0029,-0.829893 -0.15716,-1.206907 -0.226222,-0.552826 -0.519242,-1.029345 -1.173871,-1.909024 -1.057774,-1.421415 -1.102161,-1.510411 -0.839241,-1.682683 0.122797,-0.08046 0.138965,-0.08 0.303499,0.0086 0.323551,0.174244 1.592105,1.689684 2.024137,2.418076 0.272823,0.459972 0.564231,1.132343 0.609365,1.406001 0.01587,0.09625 0.06579,0.579316 0.11093,1.073479 0.09287,1.016742 0.184606,1.430711 0.441821,1.993781 0.265641,0.581512 0.56847,1.00369 1.08934,1.51866 1.366326,1.35085 1.768578,1.475805 5.5162,1.713544 1.89327,0.120105 2.311063,0.164877 3.075,0.329525 1.357192,0.292512 1.474022,0.333376 3.275,1.145508 0.4125,0.186012 1.03125,0.444694 1.375,0.574849 0.877902,0.332401 2.59873,0.894976 2.993615,0.978676 0.873655,0.185182 3.094853,-0.0058 3.910273,-0.33627 0.65052,-0.263615 1.38566,-0.877663 1.63247,-1.363562 0.0707,-0.139254 0.28228,-0.666365 0.47012,-1.171358 0.31757,-0.853758 0.3692,-0.955476 0.73604,-1.45 0.21699,-0.292507 0.41993,-0.580978 0.451,-0.641045 0.0809,-0.15652 0.0717,-0.365787 -0.0162,-0.365787 -0.04,0 -0.33809,0.09862 -0.6625,0.219154 -0.71207,0.264559 -0.88623,0.301127 -2.03986,0.428295 -1.42681,0.157283 -2.04764,0.201483 -2.83779,0.202035 l -0.737793,5.16e-4 -0.712208,-0.331983 c -3.759582,-1.752468 -5.431495,-2.731232 -7.512207,-4.397769 -1.183432,-0.947864 -1.478163,-1.266938 -2.073943,-2.245248 -0.284703,-0.4675 -0.603904,-0.97813 -0.709335,-1.134735 -0.453071,-0.672978 -3.092856,-2.698236 -4.968914,-3.812179 -1.709094,-1.014806 -1.563311,-0.909149 -1.648021,-1.194399 -0.09868,-0.332276 -0.09721,-0.343835 0.06271,-0.494627 0.234589,-0.221196 1.078285,-0.73906 1.204065,-0.73906 0.0657,0 0.516348,0.166551 1.001443,0.370112 0.926674,0.388862 2.067538,0.779888 2.275413,0.779888 0.06747,0 0.242807,-0.04411 0.38963,-0.09802 0.172511,-0.06334 0.489698,-0.113116 0.896596,-0.140697 l 0.629648,-0.04268 0.995352,-0.60321 c 1.417007,-0.858743 1.19093,-0.784765 2.014729,-0.659269 0.384302,0.05855 0.753162,0.09278 0.819688,0.07609 0.06653,-0.0167 0.273255,-0.155193 0.459394,-0.307768 0.20734,-0.169954 0.370024,-0.26771 0.419988,-0.25237 0.385952,0.118498 1.179849,0.277808 1.384675,0.277861 0.149455,3.8e-5 0.434861,-0.06137 0.696879,-0.149936 0.244067,-0.0825 0.478913,-0.150696 0.521879,-0.151547 0.04297,-8.5e-4 0.325786,0.125048 0.628488,0.279776 0.509939,0.260659 0.581667,0.283276 0.976489,0.307908 0.396992,0.02477 0.463618,0.01382 0.974633,-0.160186 1.003646,-0.341748 1.165658,-0.441266 2.050292,-1.259422 0.44098,-0.407841 0.83751,-0.770042 0.88117,-0.804891 0.114,-0.091 0.22566,-0.02941 0.35101,0.193617 0.0602,0.10711 0.13716,0.194745 0.17102,0.194745 0.0339,0 0.33488,-0.180587 0.66893,-0.401305 0.59458,-0.392855 0.61236,-0.400644 0.84438,-0.369866 0.2122,0.02815 0.28501,0.0079 0.69555,-0.193045 0.2522,-0.123468 0.67851,-0.380588 0.94735,-0.571379 0.26885,-0.19079 0.51818,-0.364175 0.55406,-0.385299 0.0426,-0.02505 0.15887,0.05013 0.33451,0.216243 l 0.26926,0.254651 h 0.5611 c 0.50866,0 0.58108,-0.01171 0.77491,-0.125305 0.1176,-0.06892 0.26725,-0.129727 0.33254,-0.135131 0.0653,-0.0054 0.35356,0.105998 0.64058,0.24756 0.50437,0.248765 0.53891,0.258152 1.03117,0.280237 l 0.50931,0.02285 0.0532,-0.152567 c 0.11116,-0.318891 0.0636,-0.84929 -0.14124,-1.574373 -0.25525,-0.903602 -0.38726,-1.577542 -0.48248,-2.463271 -0.0429,-0.39875 -0.10114,-0.815 -0.1295,-0.925 -0.0284,-0.11 -0.25449,-0.680432 -0.50251,-1.267626 l -0.45095,-1.067627 -0.0442,-0.907373 c -0.0243,-0.499056 -0.0566,-0.979097 -0.0717,-1.066758 -0.0464,-0.268095 -0.79084,-0.919417 -1.55103,-1.356975 -0.35007,-0.201498 -0.89787,-0.537188 -1.21734,-0.745978 -0.31946,-0.208791 -0.75297,-0.454554 -0.96336,-0.546141 -0.36816,-0.160268 -0.4067,-0.166522 -1.02631,-0.166522 -0.87643,0 -1.31275,0.06279 -2.26315,0.325684 -0.62632,0.17325 -0.89585,0.224316 -1.183976,0.224316 H 41.07927 L 40.015808,5.79746 38.952347,5.250191 38.530309,5.235331 38.108271,5.220471 37.262514,5.633506 C 36.732392,5.892396 35.874583,6.386744 34.963978,6.95813 L 33.5112,7.86972 33.079585,7.86582 C 32.685782,7.86222 32.61647,7.84588 32.288395,7.679212 32.090629,7.578742 31.482122,7.203531 30.936157,6.845411 29.385592,5.828334 29.091407,5.72735 28.304357,5.942001 27.715589,6.102576 26.851486,6.458178 26.014381,6.88439 25.372972,7.210963 25.212179,7.318338 24.84722,7.663802 c -0.765197,0.724323 -1.079177,1.228224 -1.61713,2.59531 -0.366525,0.931437 -0.39995,0.971587 -1.471819,1.767912 -1.413842,1.050385 -1.410363,1.047308 -1.847636,1.634982 -0.228253,0.306761 -0.711493,0.883998 -1.073864,1.282748 -0.831461,0.914929 -0.954279,1.078034 -2.297644,3.051322 -0.920931,1.352768 -1.179685,1.773843 -1.550823,2.523678 -0.63936,1.291742 -0.781808,1.685074 -1.010142,2.789232 -0.109275,0.528422 -0.311953,1.489518 -0.450394,2.135768 -0.138441,0.64625 -0.354161,1.67 -0.479378,2.275 l -0.227666,1.1 -0.04905,2.295743 c -0.03253,1.522672 -0.03191,3.534698 0.0019,5.975 l 0.0509,3.679257 0.178994,1.572253 c 0.111639,0.980616 0.19908,2.053068 0.232371,2.85 0.02936,0.702761 0.0858,1.492479 0.125428,1.75493 0.09476,0.627577 0.09709,1.685916 0.004,1.79388 -0.03745,0.04342 -0.284891,0.423176 -0.549862,0.843912 -0.833462,1.32342 -1.100825,1.623389 -1.92757,2.16265 l -0.119006,0.07762 0.258777,0.166057 c 0.386051,0.247728 0.716806,0.645743 0.849889,1.022716 0.0622,0.176179 0.162209,0.366476 0.22225,0.422881 0.248776,0.233713 1.67883,0.81969 2.449605,1.003747 0.132543,0.03165 0.32475,0.112978 0.427128,0.18073 0.102377,0.06775 0.320183,0.147355 0.484013,0.176905 0.16383,0.02955 0.466623,0.09546 0.672873,0.146465 0.20625,0.05101 0.555,0.11814 0.775,0.149175 0.22,0.03104 0.6025,0.09865 0.85,0.150245 0.2475,0.05159 0.855,0.120825 1.35,0.15384 0.68283,0.04554 0.960325,0.08444 1.15,0.16122 0.1375,0.05565 0.34,0.11713 0.45,0.13662 0.212773,0.0377 3.16376,0.01206 5.65,-0.04909 z M 43.558272,34.964021 c 1.40489,-0.122782 2.26891,-0.249185 2.71697,-0.397481 0.39074,-0.12933 0.66498,-0.281704 0.60803,-0.337841 -0.0138,-0.01355 -0.37375,-0.0727 -0.8,-0.131446 -1.346,-0.185494 -2.99597,-0.593847 -3.77334,-0.933867 -0.22091,-0.09663 -0.941658,-0.46538 -1.601658,-0.81945 -1.390344,-0.745876 -2.120731,-1.0998 -2.568841,-1.244785 -0.175362,-0.05674 -0.726613,-0.184089 -1.225,-0.283002 -0.99404,-0.197285 -1.134369,-0.198529 -1.854555,-0.01644 -0.703821,0.177948 -0.926604,0.250813 -0.926604,0.303061 0,0.07501 0.149432,0.189573 0.925,0.709167 1.499745,1.004761 2.700229,1.654817 5.25,2.842849 l 0.95,0.44264 0.724998,-0.02956 c 0.39875,-0.01626 1.1075,-0.06299 1.575,-0.103845 z m 6.29165,-1.79582 c 0.5729,-0.179564 1.2479,-0.407393 1.5,-0.506286 1.02359,-0.401541 2.09496,-0.980227 2.88335,-1.557415 0.43562,-0.318921 1.39247,-1.260874 1.686,-1.659767 0.19401,-0.263633 0.20092,-0.28582 0.16724,-0.536776 -0.0193,-0.143977 -0.0464,-0.273027 -0.0601,-0.286778 -0.0138,-0.01375 -0.30701,-0.05012 -0.65168,-0.08082 -0.54949,-0.04894 -0.64577,-0.04595 -0.78158,0.02428 -0.1372,0.07095 -0.51123,0.08009 -3.27586,0.08009 h -3.12098 l -0.51901,-0.151446 c -0.8441,-0.246311 -1.03532,-0.325763 -2.919,-1.212836 -2.70688,-1.274741 -3.08091,-1.428173 -4.56265,-1.871662 l -0.787348,-0.235654 -2.575,-0.01686 c -2.847838,-0.01864 -2.875324,-0.01659 -4.180959,0.312275 -0.406058,0.102278 -0.759079,0.222477 -0.871062,0.296584 -0.296828,0.196431 -1.060479,1.246615 -1.060479,1.458386 0,0.119622 0.507807,1.045545 0.891648,1.625811 0.220082,0.332706 1.143365,1.266203 1.527747,1.544647 0.11446,0.08291 0.262099,0.150753 0.328087,0.150753 0.06599,0 0.590246,-0.1125 1.165018,-0.25 0.574771,-0.1375 1.157277,-0.25 1.294455,-0.25 0.289103,0 1.602349,0.216347 2.005545,0.330397 0.556767,0.157491 2.186746,0.924685 3.508035,1.651153 1.250913,0.687776 1.928373,0.937428 3.293303,1.213623 1.01599,0.205587 1.44264,0.243955 2.77366,0.249429 l 1.3,0.0053 z M 30.724975,25.951068 c 0.65963,-0.776141 0.791564,-0.851901 1.934502,-1.11085 1.541777,-0.349311 1.979829,-0.394993 3.790192,-0.395254 2.310602,-3.5e-4 2.698449,0.04359 4.421168,0.500702 0.446909,0.118585 0.825455,0.202716 0.841215,0.186957 0.0158,-0.01576 0.0609,-0.351355 0.10036,-0.745771 0.0682,-0.681863 0.0802,-0.72941 0.24388,-0.967119 0.29724,-0.431627 0.72744,-0.926739 0.8929,-1.027629 0.20093,-0.122511 0.31602,-0.121875 0.73897,0.0041 l 0.34067,0.101456 0.43337,-0.234318 0.43337,-0.234317 0.34656,0.111618 0.34657,0.111618 0.27794,-0.241257 c 0.15287,-0.132691 0.38227,-0.323785 0.50979,-0.424653 l 0.23184,-0.183395 1.075,-0.08133 c 0.59125,-0.04473 1.17625,-0.101852 1.3,-0.126927 0.33126,-0.06712 0.64343,-0.05844 0.92045,0.02559 0.13499,0.04095 0.28794,0.07446 0.33989,0.07446 0.20194,0 0.4783,-0.439417 0.8699,-1.383191 0.15159,-0.36535 0.18431,-0.506695 0.18904,-0.816748 l 0.006,-0.37494 -0.34107,-0.03377 c -0.38913,-0.03853 -0.86834,-0.174619 -1.36596,-0.387903 l -0.34297,-0.146999 -0.16536,0.09678 c -0.14722,0.08616 -0.26581,0.09678 -1.08137,0.09678 -0.75325,0 -0.92708,-0.01333 -0.97827,-0.075 -0.0342,-0.04125 -0.0809,-0.075 -0.10373,-0.075 -0.0228,0 -0.44194,0.195291 -0.93138,0.433979 -0.69911,0.340942 -0.94884,0.438947 -1.16489,0.457158 -0.25027,0.0211 -0.31795,0.05625 -0.75277,0.391022 l -0.47776,0.367841 h -0.4831 -0.4831 l -0.66413,0.567069 -0.664138,0.567068 -0.9,0.339584 -0.9,0.339584 -0.688863,-0.02897 -0.688864,-0.02897 -0.449094,-0.236787 -0.449094,-0.236788 -0.578419,0.1432 c -0.550881,0.136382 -0.596356,0.140186 -0.955187,0.07989 -0.207223,-0.03482 -0.467525,-0.09533 -0.578449,-0.134466 -0.200883,-0.07088 -0.203515,-0.07017 -0.666109,0.17921 -0.532119,0.286857 -0.636243,0.298492 -1.595113,0.178238 -0.388755,-0.04875 -0.578642,-0.05366 -0.65,-0.01681 -0.05544,0.02864 -0.528308,0.316272 -1.050808,0.639192 l -0.95,0.587126 -0.65,0.05782 c -0.528067,0.04698 -0.722912,0.08748 -1.038677,0.215907 L 28.1312,23.213938 27.269877,22.926765 c -0.473728,-0.157945 -1.198823,-0.4208 -1.611323,-0.584122 -0.4125,-0.163322 -0.80655,-0.297162 -0.875668,-0.297423 -0.06912,-2.5e-4 -0.246122,0.08065 -0.393345,0.179791 -0.259094,0.174484 -0.264685,0.183087 -0.174333,0.268221 0.05134,0.04838 0.520846,0.342541 1.043346,0.6537 1.31798,0.784884 1.915997,1.192406 3.484998,2.374869 0.748858,0.564369 1.392349,1.019785 1.429982,1.012036 0.03763,-0.0078 0.285907,-0.26999 0.551721,-0.582756 z"
     id="path2581" />
</svg>
