<?xml version="1.0" encoding="UTF-8" standalone="no"?>
<svg
   xmlns:dc="http://purl.org/dc/elements/1.1/"
   xmlns:cc="http://creativecommons.org/ns#"
   xmlns:rdf="http://www.w3.org/1999/02/22-rdf-syntax-ns#"
   xmlns:svg="http://www.w3.org/2000/svg"
   xmlns="http://www.w3.org/2000/svg"
   xmlns:sodipodi="http://sodipodi.sourceforge.net/DTD/sodipodi-0.dtd"
   xmlns:inkscape="http://www.inkscape.org/namespaces/inkscape"
   version="1.1"
   viewBox="0 0 64 64"
   id="svg6"
   sodipodi:docname="icon.svg"
   inkscape:version="1.0.2 (e86c870879, 2021-01-15)">
  <metadata
     id="metadata12">
    <rdf:RDF>
      <cc:Work
         rdf:about="">
        <dc:format>image/svg+xml</dc:format>
        <dc:type
           rdf:resource="http://purl.org/dc/dcmitype/StillImage" />
      </cc:Work>
    </rdf:RDF>
  </metadata>
  <defs
     id="defs10" />
  <sodipodi:namedview
     pagecolor="#ffffff"
     bordercolor="#666666"
     borderopacity="1"
     objecttolerance="10"
     gridtolerance="10"
     guidetolerance="10"
     inkscape:pageopacity="0"
     inkscape:pageshadow="2"
     inkscape:window-width="3840"
     inkscape:window-height="2066"
     id="namedview8"
     showgrid="false"
     inkscape:zoom="15.75"
     inkscape:cx="18.253968"
     inkscape:cy="11.68254"
     inkscape:window-x="-11"
     inkscape:window-y="-11"
     inkscape:window-maximized="1"
     inkscape:current-layer="svg6"
     inkscape:document-rotation="0" />
  <path
     style="fill:#ff8080;fill-opacity:1;stroke:#000000;stroke-width:0.45;stroke-miterlimit:4;stroke-dasharray:none;stroke-opacity:1"
     d="m 36.262696,59.256804 c -0.104762,-0.05598 -0.289025,-0.187537 -0.409472,-0.292337 -0.574793,-0.500118 -1.470445,-0.662123 -5.167341,-0.934661 -0.937089,-0.06908 -1.723927,-0.138047 -1.748528,-0.153251 -0.0246,-0.01521 -0.600751,-0.07317 -1.28033,-0.128806 -0.679579,-0.05564 -1.349884,-0.128419 -1.489567,-0.161735 -0.139682,-0.03332 -0.362028,-0.06126 -0.494103,-0.06209 -0.325273,-0.0021 -0.614169,-0.132395 -0.934129,-0.421459 -0.50511,-0.456337 -0.47329,-0.766627 0.116446,-1.135509 0.195488,-0.122279 0.377699,-0.222324 0.404914,-0.222324 0.02721,0 0.770965,-0.346128 1.65278,-0.769174 1.400678,-0.671967 3.734728,-1.736722 4.066354,-1.855003 0.140781,-0.05021 0.104673,-0.123677 -0.317349,-0.645664 -0.391011,-0.483631 -0.784141,-0.7471 -1.437188,-0.96318 -0.466693,-0.154418 -0.612444,-0.171819 -1.470423,-0.175543 -0.874497,-0.0038 -0.99392,0.0099 -1.460318,0.167998 -0.767103,0.25996 -1.403737,0.369122 -1.759965,0.301775 -0.652052,-0.123273 -1.135984,-0.490617 -1.392965,-1.057377 -0.09867,-0.217608 -0.241843,-0.429072 -0.318165,-0.469918 -0.07632,-0.04085 -0.345951,-0.0975 -0.599173,-0.125899 -1.060157,-0.118891 -1.470463,-0.670399 -1.176892,-1.581907 0.07483,-0.23233 0.136049,-0.480288 0.136049,-0.551017 0,-0.214288 -0.193695,-0.541061 -0.552045,-0.931327 -0.492417,-0.536274 -0.84478,-1.315179 -0.84478,-1.867399 0,-0.257462 -0.0316,-0.321019 -0.544725,-1.095457 -0.468707,-0.707403 -0.598631,-1.089012 -0.473567,-1.390942 0.266918,-0.644397 1.779763,-1.390134 3.309816,-1.63153 1.111372,-0.17534 2.180417,-0.611001 2.767601,-1.12786 0.475679,-0.41871 0.56724,-0.791087 0.3377,-1.373433 -0.174023,-0.441501 -0.164797,-0.880643 0.02637,-1.255138 0.09239,-0.180997 0.180735,-0.512693 0.222236,-0.834424 0.03811,-0.295416 0.138224,-0.685466 0.22408,-0.873002 l 0.155197,-0.338997 -0.347527,-0.396839 c -0.745346,-0.851103 -1.232737,-1.695153 -1.232737,-2.134821 0,-0.105592 0.0794,-0.280971 0.190476,-0.420748 0.104762,-0.131826 0.190477,-0.276618 0.190477,-0.32176 0,-0.08416 0.319544,-0.372357 0.825106,-0.74418 0.156984,-0.115455 0.295238,-0.260876 0.307232,-0.323157 0.01199,-0.06228 -0.07975,-0.489498 -0.203883,-0.949372 -0.360977,-1.337341 -0.704674,-3.045397 -1.017849,-5.058356 -0.160271,-1.030159 -0.348875,-2.204595 -0.419119,-2.609858 -0.07024,-0.405265 -0.242092,-1.81955 -0.381884,-3.142858 -0.296512,-2.806859 -0.407935,-3.701145 -0.537145,-4.311148 -0.05174,-0.24424 -0.09482,-0.58693 -0.09574,-0.761533 -9.23e-4,-0.174603 -0.04371,-0.674603 -0.09509,-1.111111 -0.05137,-0.436508 -0.151456,-1.350794 -0.222403,-2.031747 -0.07095,-0.680952 -0.177986,-1.5523814 -0.237864,-1.9365084 -0.136675,-0.8767995 -0.153694,-3.2617199 -0.02813,-3.942189 0.104316,-0.5653264 0.268444,-0.8514613 0.488402,-0.8514613 0.128628,0 0.212289,0.080335 0.413256,0.3968254 0.424785,0.6689687 1.320733,2.5206186 2.15819,4.4603169 0.817734,1.8940184 1.098282,2.4854804 2.283686,4.8145584 1.825664,3.587056 4.920306,10.344864 5.945135,12.982465 0.353731,0.910396 0.510772,1.218887 0.555827,1.091867 0.127016,-0.358087 0.646315,-2.914134 0.733802,-3.611859 0.04713,-0.375872 0.04552,-0.597942 -0.0057,-0.789575 -0.06611,-0.247196 -0.05704,-0.292014 0.124596,-0.615134 0.107748,-0.191681 0.265981,-0.591368 0.35163,-0.888194 0.33983,-1.177727 1.001626,-4.611397 1.251459,-6.493079 0.05441,-0.40983 0.1168,-0.619079 0.236622,-0.793651 0.226355,-0.329782 0.329653,-0.824425 0.330815,-1.584103 0.001,-0.684792 0.123015,-1.702028 0.318072,-2.652796 0.0645,-0.314385 0.206714,-1.2001814 0.316035,-1.9684354 0.109321,-0.7682539 0.295908,-1.9825396 0.414638,-2.6984127 0.118731,-0.715873 0.275952,-1.7730158 0.34938,-2.3492063 0.07619,-0.597826 0.173558,-1.1089545 0.226793,-1.1904762 0.12479,-0.1910997 0.375899,-0.1838426 0.561313,0.016222 0.184558,0.1991416 0.289276,0.5768462 0.580806,2.0948889 0.289914,1.509629 0.6414,3.1022996 1.00186,4.5396823 0.153252,0.611111 0.45586,1.8447354 0.672462,2.7413864 0.263828,1.09215 0.434856,1.677588 0.518139,1.773614 0.142134,0.163882 0.153317,0.208176 0.24048,0.952534 0.08352,0.713244 0.45248,2.396128 1.153794,5.262626 0.738457,3.018313 0.968855,4.107399 1.235729,5.84127 0.272803,1.772386 0.372746,2.328049 0.5715,3.177409 0.08616,0.368209 0.184957,1.011066 0.219543,1.428571 0.121984,1.472548 0.05402,3.73587 -0.133221,4.436415 -0.115726,0.432977 -0.681654,1.695726 -1.05519,2.35443 -0.576029,1.015789 -0.508701,1.34669 0.360045,1.769516 0.224581,0.109306 0.438867,0.248984 0.47619,0.310397 0.10368,0.170594 -0.07565,0.437954 -0.392456,0.585111 -0.148412,0.06894 -0.269734,0.140366 -0.269603,0.15873 1.27e-4,0.01836 0.126885,0.08547 0.281675,0.149118 0.524797,0.215802 0.753715,0.593736 0.495865,0.818652 -0.196919,0.171769 -0.373136,0.235753 -0.902095,0.327546 -0.285238,0.0495 -0.531816,0.1032 -0.54795,0.119335 -0.01613,0.01613 0.03184,0.169095 0.10662,0.33991 0.314535,0.718509 0.411083,1.6323 0.220625,2.088131 -0.09897,0.236875 -0.35469,0.353099 -0.504088,0.229109 -0.06959,-0.05775 -0.09181,-0.0021 -0.119037,0.298218 -0.01841,0.203074 -0.09466,0.50353 -0.169443,0.66768 -0.07478,0.164151 -0.165005,0.530084 -0.200503,0.813185 -0.0355,0.283101 -0.166485,0.804264 -0.291083,1.158141 -0.632814,1.79729 -0.812919,2.580805 -0.745308,3.242339 0.02752,0.269219 0.0062,0.517288 -0.07075,0.823894 -0.07109,0.283209 -0.09779,0.558162 -0.07533,0.775767 0.06903,0.668824 0.619501,1.417505 1.346895,1.831875 0.673803,0.383841 0.94987,0.794299 0.799767,1.1891 -0.160026,0.420901 -0.990174,1.109292 -1.995101,1.654415 -0.320855,0.174048 -1.285558,0.679083 -2.143784,1.1223 -0.858227,0.443217 -1.663904,0.884788 -1.790395,0.981266 -0.128714,0.09817 -0.262434,0.273747 -0.303681,0.398728 -0.05905,0.178936 -0.138558,0.25351 -0.400082,0.375281 -0.40111,0.186761 -1.161588,0.210744 -1.46924,0.04633 z"
     id="path1130" />
</svg>
