<?xml version="1.0" encoding="UTF-8" standalone="no"?>
<svg
   xmlns:dc="http://purl.org/dc/elements/1.1/"
   xmlns:cc="http://creativecommons.org/ns#"
   xmlns:rdf="http://www.w3.org/1999/02/22-rdf-syntax-ns#"
   xmlns:svg="http://www.w3.org/2000/svg"
   xmlns="http://www.w3.org/2000/svg"
   xmlns:xlink="http://www.w3.org/1999/xlink"
   xmlns:sodipodi="http://sodipodi.sourceforge.net/DTD/sodipodi-0.dtd"
   xmlns:inkscape="http://www.inkscape.org/namespaces/inkscape"
   viewBox="0 0 64 64"
   version="1.1"
   id="svg865"
   sodipodi:docname="cock_snapper_vial.svg"
   inkscape:version="1.0.2 (e86c870879, 2021-01-15)">
  <metadata
     id="metadata871">
    <rdf:RDF>
      <cc:Work
         rdf:about="">
        <dc:format>image/svg+xml</dc:format>
        <dc:type
           rdf:resource="http://purl.org/dc/dcmitype/StillImage" />
        <dc:title />
      </cc:Work>
    </rdf:RDF>
  </metadata>
  <defs
     id="defs869">
    <rect
       x="20.840103"
       y="33.578929"
       width="31.712364"
       height="16.029368"
       id="rect1829" />
    <rect
       x="-81.409824"
       y="-17.059822"
       width="10.783929"
       height="2.0330355"
       id="rect1108" />
    <rect
       x="40.60981"
       y="33.981441"
       width="10.340256"
       height="1.7675648"
       id="rect1095" />
  </defs>
  <sodipodi:namedview
     pagecolor="#ffffff"
     bordercolor="#666666"
     borderopacity="1"
     objecttolerance="10"
     gridtolerance="10"
     guidetolerance="10"
     inkscape:pageopacity="0"
     inkscape:pageshadow="2"
     inkscape:window-width="1918"
     inkscape:window-height="2054"
     id="namedview867"
     showgrid="false"
     showguides="true"
     inkscape:guide-bbox="true"
     inkscape:zoom="36.742839"
     inkscape:cx="32.441911"
     inkscape:cy="19.917935"
     inkscape:window-x="-10"
     inkscape:window-y="0"
     inkscape:window-maximized="0"
     inkscape:current-layer="svg865"
     inkscape:document-rotation="0" />
  <path
     id="path880-2"
     style="fill:none;fill-opacity:1;stroke:none;stroke-width:0.1;stroke-linecap:round;stroke-linejoin:round;stroke-miterlimit:4;stroke-dasharray:none;stroke-opacity:1"
     d="m 48.564004,43.075747 a 2.9501418,0.6336067 0 0 0 -2.949219,0.634765 2.9501418,0.6336067 0 0 0 0,0.0059 h -0.01953 a 2.9501418,0.6336067 0 0 0 0,0.0039 2.9501418,0.6336067 0 0 0 2.949219,0.634766 2.9501418,0.6336067 0 0 0 2.951172,-0.634766 2.9501418,0.6336067 0 0 0 0,-0.0039 h 0.01953 a 2.9501418,0.6336067 0 0 0 0,-0.0059 2.9501418,0.6336067 0 0 0 -2.951172,-0.634765 z" />
  <path
     id="path880-2-6"
     style="fill:none;fill-opacity:1;stroke:none;stroke-width:0.1;stroke-linecap:round;stroke-linejoin:round;stroke-miterlimit:4;stroke-dasharray:none;stroke-opacity:1"
     d="m 47.712025,36.922551 a 2.9501418,0.6336067 0 0 0 -2.949219,0.634765 2.9501418,0.6336067 0 0 0 0,0.0059 h -0.01953 a 2.9501418,0.6336067 0 0 0 0,0.0039 2.9501418,0.6336067 0 0 0 2.949219,0.634766 2.9501418,0.6336067 0 0 0 2.951172,-0.634766 2.9501418,0.6336067 0 0 0 0,-0.0039 h 0.01953 a 2.9501418,0.6336067 0 0 0 0,-0.0059 2.9501418,0.6336067 0 0 0 -2.951172,-0.634765 z" />
  <text
     xml:space="preserve"
     id="text1093"
     style="font-style:normal;font-weight:normal;font-size:0.589174px;line-height:1.25;font-family:sans-serif;text-align:center;text-anchor:middle;white-space:pre;fill:#000000;fill-opacity:1;stroke:none;stroke-width:0.266221;stroke-miterlimit:4;stroke-dasharray:none"
     transform="scale(0.94222352,1.0613193)"
     x="-16.530869"
     y="-11.008055"><textPath
       xlink:href="#path880-2"
       startOffset="50%"
       id="textPath1103"
       style="stroke-width:0.266221"><tspan
         id="tspan1097"
         style="font-style:normal;font-variant:normal;font-weight:normal;font-stretch:normal;font-size:0.589174px;font-family:Impact;-inkscape-font-specification:Impact;text-align:center;text-anchor:middle;stroke-width:0.266221;stroke-miterlimit:4;stroke-dasharray:none" /></textPath></text>
  <text
     xml:space="preserve"
     id="text1106"
     style="font-size:0.544436px;line-height:1.25;font-family:sans-serif;text-align:center;text-anchor:middle;white-space:pre;stroke-width:0.266221;stroke-miterlimit:4;stroke-dasharray:none"
     x="-38.896172"
     y="-3.3246102"><textPath
       xlink:href="#path880-2-6"
       startOffset="50%"
       id="textPath1217"><tspan
         id="tspan1110"
         style="font-style:normal;font-variant:normal;font-weight:normal;font-stretch:normal;font-family:Impact;-inkscape-font-specification:Impact;text-align:center;text-anchor:middle;stroke-width:0.266221;stroke-miterlimit:4;stroke-dasharray:none" /></textPath></text>
  <g
     id="g1006"
     transform="matrix(0.97460362,0,0,0.95969721,1.6482585,1.3396568)">
    <path
       style="fill:#fff6d5;fill-opacity:1;stroke:#fff6d5;stroke-width:0.472224;stroke-linecap:round;stroke-linejoin:round;stroke-miterlimit:4;stroke-dasharray:none;stroke-opacity:1"
       d="M 29.935137,62.514163 C 28.34488,62.095473 27.144084,60.880548 26.744678,59.28614 26.623748,58.803411 26.622474,58.567357 26.622474,36.698678 V 14.599049 h 4.384538 4.384535 v 22.01958 c 0,24.506833 0.03635,22.492649 -0.423418,23.463692 -0.595505,1.257724 -1.603683,2.097826 -2.925635,2.437855 -0.622874,0.160275 -1.48537,0.157784 -2.107357,-0.0053 z"
       id="path928" />
    <path
       id="path928-5"
       style="fill:#fff6d5;fill-opacity:1;stroke:#fff6d5;stroke-width:0.472224;stroke-linecap:round;stroke-linejoin:round;stroke-miterlimit:4;stroke-dasharray:none;stroke-opacity:1"
       d="m 31.006378,13.320438 a 4.3844546,1.1350503 0 0 0 -4.383904,1.136107 4.3844546,1.1350503 0 0 0 0,0.0105 h -0.02765 a 4.3844546,1.1350503 0 0 0 0,0.0069 4.3844546,1.1350503 0 0 0 0.02765,0.125071 v 21.968205 c 0,21.868679 0.0034,22.103908 0.124362,22.586637 0.399406,1.594408 1.59835,2.812439 3.188607,3.231129 0.621987,0.163121 1.484438,0.163744 2.107313,0.0036 1.321951,-0.340028 2.330552,-1.177782 2.926057,-2.435506 0.459767,-0.971043 0.424919,1.041189 0.424919,-23.465642 V 14.466967 a 4.3844546,1.1350503 0 0 0 0,-0.0105 4.3844546,1.1350503 0 0 0 -4.387359,-1.136107 z" />
    <path
       id="path875"
       style="fill:#8cc1e0;fill-opacity:0.22541;stroke:#000000;stroke-width:0.472224;stroke-linecap:round;stroke-linejoin:round;stroke-miterlimit:4;stroke-dasharray:none;stroke-opacity:1"
       d="M 26.531383,6.3262322 V 57.885328 h 0.02073 a 4.4219042,4.4471457 0 0 0 -0.02073,0.430817 4.4219042,4.4471457 0 0 0 4.421904,4.447145 4.4219042,4.4471457 0 0 0 4.421904,-4.447145 4.4219042,4.4471457 0 0 0 -0.02073,-0.430817 h 0.02073 V 6.3262322 Z" />
    <path
       style="fill:#ff5555;fill-opacity:1;stroke:#ff5555;stroke-width:0.472224;stroke-linecap:round;stroke-linejoin:round;stroke-miterlimit:4;stroke-dasharray:none;stroke-opacity:1"
       d="M 29.149074,7.2721365 C 27.707284,7.1352 26.575093,6.8743607 26.138575,6.5785775 l -0.208916,-0.1415616 -0.01627,-1.7985022 -0.01627,-1.798504 0.322863,0.1428423 c 1.16327,0.514686 3.865386,0.766679 6.332437,0.5905472 1.567813,-0.1119258 2.98538,-0.4188073 3.416951,-0.7397027 l 0.170402,-0.1266903 v 1.7554895 c 0,0.9655198 -0.02581,1.8237584 -0.05734,1.9071958 C 35.96587,6.678037 35.025655,6.9928647 33.633935,7.189569 32.853059,7.2999472 29.99561,7.352548 29.149054,7.272144 Z"
       id="path1006" />
    <path
       id="rect897"
       style="fill:none;fill-opacity:1;stroke:#000000;stroke-width:0.472224;stroke-linecap:round;stroke-linejoin:round;stroke-miterlimit:4;stroke-dasharray:none;stroke-opacity:1"
       d="m 25.771017,2.3759162 v 3.950316 h 0.01733 a 5.2180975,1.1270965 0 0 0 0,0.00694 5.2180975,1.1270965 0 0 0 5.216464,1.1291588 5.2180975,1.1270965 0 0 0 5.21986,-1.1291481 5.2180975,1.1270965 0 0 0 0,-0.00694 h 0.01733 v -3.950316 z" />
    <path
       style="fill:#ff8080;fill-opacity:1;stroke:#ff8080;stroke-width:0.472224;stroke-linecap:round;stroke-linejoin:round;stroke-miterlimit:4;stroke-dasharray:none;stroke-opacity:1"
       d="m 29.087751,3.3235123 c -1.238117,-0.1098801 -2.454928,-0.3742398 -2.913649,-0.633021 -0.653699,-0.3687751 0.0046,-0.8082545 1.625883,-1.0853224 2.878691,-0.4919717 7.25848,-0.1840958 8.132092,0.5716415 0.424013,0.3668024 -0.412195,0.7607572 -2.192127,1.0327553 -0.950877,0.145315 -3.574646,0.2095709 -4.652199,0.1139537 z"
       id="path1010" />
    <path
       id="path880"
       style="fill:none;fill-opacity:1;stroke:#000000;stroke-width:0.472224;stroke-linecap:round;stroke-linejoin:round;stroke-miterlimit:4;stroke-dasharray:none;stroke-opacity:1"
       d="m 30.986475,1.2367852 a 5.2180978,1.1270965 0 0 0 -5.216466,1.129157 5.2180978,1.1270965 0 0 0 0,0.010495 h -0.03454 a 5.2180978,1.1270965 0 0 0 0,0.00694 5.2180978,1.1270965 0 0 0 5.216466,1.1291587 5.2180978,1.1270965 0 0 0 5.21992,-1.1291587 5.2180978,1.1270965 0 0 0 0,-0.00694 h 0.03454 a 5.2180978,1.1270965 0 0 0 0,-0.010495 5.2180978,1.1270965 0 0 0 -5.21992,-1.129157 z" />
    <path
       id="path1006-6"
       style="fill:#ff5555;fill-opacity:1;stroke:#000000;stroke-width:0.472224;stroke-linecap:round;stroke-linejoin:round;stroke-miterlimit:4;stroke-dasharray:none;stroke-opacity:1"
       d="m 35.38874,24.352793 -0.146931,0.128576 c -0.374335,0.32467 -1.603444,0.6338 -2.963328,0.747031 -2.139862,0.178203 -4.486296,-0.07688 -5.495286,-0.597625 l -0.278204,-0.142469 0.01256,1.817202 0.01574,1.820675 0.01256,1.643473 0.01256,1.639999 0.01574,1.820674 0.01256,1.639999 v 0.17721 l 0.01574,1.643473 0.01256,1.820674 0.178175,0.142468 c 0.371843,0.299258 1.335049,0.563335 2.563218,0.701863 0.721126,0.08138 3.154635,0.02827 3.819816,-0.08337 1.18552,-0.199019 1.988791,-0.518452 2.088082,-0.830423 0.0055,-0.0169 0.0048,-0.311563 0.0096,-0.385677 8.51e-4,-0.01334 0.0021,-0.05447 0.0032,-0.06948 0.01751,-0.318134 0.03439,-0.726941 0.03439,-1.47322 v -1.778981 l 0.0062,-0.865169 c 0.0078,-0.282475 0.0219,-0.402878 0.0219,-0.816523 v -1.778981 l 0.0062,-0.865169 c 0.0078,-0.282477 0.02188,-0.402881 0.02188,-0.816524 V 27.81351 l 0.0062,-1.104915 c 0.0042,-0.230656 0.01574,-0.286828 0.01574,-0.580253 z m -0.0219,2.647624 -0.0062,0.82 -0.01574,0.01388 c 0.01114,-0.11157 0.01397,-0.553733 0.0219,-0.833896 z m -0.03437,3.877623 -0.0032,0.40305 -0.0062,0.0069 c 0.0055,-0.05609 0.0044,-0.312009 0.0096,-0.409998 z m -0.02814,3.523215 -0.0032,0.340509 -0.0062,0.0069 c 0.0048,-0.04753 0.0051,-0.269634 0.0096,-0.347457 z" />
    <path
       style="fill:#ffffff;fill-opacity:1;stroke:#ffffff;stroke-width:0.472224;stroke-linecap:round;stroke-linejoin:round;stroke-miterlimit:4;stroke-dasharray:none;stroke-opacity:1"
       d="m 29.95503,29.543683 c -1.122589,-0.05214 -2.420695,-0.257511 -2.907749,-0.460027 l -0.127899,-0.05319 -9e-5,-1.390155 c -4.8e-5,-0.764583 -0.01026,-1.646894 -0.02264,-1.960686 -0.02188,-0.55317 -0.02055,-0.570065 0.04272,-0.555278 0.03591,0.0084 0.201988,0.0483 0.369077,0.08869 1.871062,0.452266 5.038866,0.460838 7.058502,0.0191 0.209211,-0.04575 0.438607,-0.103138 0.509771,-0.127508 l 0.129385,-0.04431 -0.02283,1.978653 c -0.01256,1.088259 -0.03363,1.988448 -0.04684,2.000424 -0.01309,0.01192 -0.168599,0.06411 -0.345339,0.115857 -0.612702,0.179414 -1.565911,0.320449 -2.555448,0.378101 -0.449579,0.02618 -1.61439,0.03197 -2.080621,0.01032 z"
       id="path1169" />
    <path
       style="fill:#ff8080;fill-opacity:1;stroke:#ff8080;stroke-width:0.472224;stroke-linecap:round;stroke-linejoin:round;stroke-miterlimit:4;stroke-dasharray:none;stroke-opacity:1"
       d="m 29.992816,32.332577 c -1.154004,-0.0679 -2.278727,-0.263695 -2.850529,-0.496211 L 26.963598,31.7637 v -0.401234 c 0,-0.22068 -0.01008,-0.795671 -0.02243,-1.277758 l -0.02243,-0.876522 0.25217,0.08017 c 1.081504,0.343851 3.112393,0.505362 4.949162,0.393593 1.010465,-0.0615 2.114365,-0.233896 2.621798,-0.409475 0.108266,-0.03746 0.20339,-0.06811 0.211392,-0.06811 0.0349,0 -0.02436,2.405196 -0.06031,2.448778 -0.02069,0.02508 -0.147638,0.09163 -0.282066,0.147841 -0.456257,0.190835 -1.297532,0.370739 -2.184483,0.467146 -0.463061,0.05032 -1.98737,0.09069 -2.433587,0.06443 z"
       id="path1222" />
    <path
       style="fill:none;fill-opacity:1;stroke:none;stroke-width:0.472224;stroke-linecap:round;stroke-linejoin:round;stroke-miterlimit:4;stroke-dasharray:none;stroke-opacity:1"
       d="m 29.95713,30.558921 c -1.12021,-0.06384 -2.415563,-0.315325 -2.901583,-0.563312 l -0.127634,-0.06512 -9e-5,-1.70227 c -4.8e-5,-0.936249 -0.01026,-2.016652 -0.02259,-2.400896 -0.02183,-0.677368 -0.02052,-0.698058 0.04263,-0.679949 0.03583,0.01032 0.201559,0.05915 0.368293,0.108599 1.867094,0.553806 5.028183,0.564302 7.043536,0.02339 0.208767,-0.05603 0.437677,-0.126299 0.508689,-0.156131 l 0.12912,-0.05426 -0.02278,2.422898 c -0.01256,1.332592 -0.03355,2.434892 -0.04673,2.449555 -0.01309,0.01459 -0.168244,0.0785 -0.344606,0.141882 -0.611404,0.219694 -1.562591,0.392395 -2.55003,0.462992 -0.448626,0.03207 -1.610966,0.03915 -2.076208,0.01263 z m 1.327411,-1.880119 c 0,-0.03497 0.0187,-0.0478 0.05135,-0.03519 0.02825,0.01085 0.0895,0.0052 0.136142,-0.01263 0.08041,-0.03074 0.08476,-0.04622 0.08428,-0.298556 -7.18e-4,-0.366995 0.0032,-0.363049 -0.34835,-0.355767 -0.161736,0.0034 -0.195887,0.01441 -0.196743,0.06397 -9.73e-4,0.0563 -0.0032,0.05623 -0.0364,-0.0012 -0.02579,-0.04458 -0.07388,-0.05997 -0.177655,-0.05683 -0.07827,0.0023 -0.165255,4.75e-4 -0.193343,-0.0041 -0.02809,-0.0046 -0.131472,-0.006 -0.229745,-0.003 l -0.178689,0.0053 v 0.32519 0.325189 h 0.119126 0.119126 l 0.0069,-0.265286 0.0069,-0.265285 0.01167,0.265285 0.01167,0.265286 h 0.117694 0.117693 l 5.22e-4,-0.21394 c 2.72e-4,-0.117671 0.01592,-0.237045 0.03477,-0.265286 0.02356,-0.03531 0.02724,0.03152 0.01185,0.21394 l -0.02246,0.265286 h 0.121726 c 0.11948,0 0.122133,-0.003 0.143518,-0.162587 0.03408,-0.254434 0.04487,-0.250567 0.04777,0.01708 l 0.0027,0.24817 h 0.119126 c 0.08672,0 0.119126,-0.01494 0.119126,-0.055 z m -1.123194,-0.355021 c 0,-0.34227 -0.02287,-0.377273 -0.246528,-0.377273 -0.141271,0 -0.219233,0.0563 -0.248822,0.179711 -0.01976,0.08241 -0.01256,0.09419 0.0577,0.09465 0.06431,4.2e-4 0.07013,0.0071 0.02922,0.03371 -0.07402,0.04812 -0.136142,0.04161 -0.136142,-0.01423 0,-0.02666 -0.04211,-0.0801 -0.0936,-0.118721 l -0.0936,-0.07023 0.110619,-0.0011 c 0.09413,-9.23e-4 0.110618,-0.01352 0.110618,-0.08421 0,-0.129217 -0.08639,-0.190712 -0.267913,-0.190712 -0.08853,0 -0.179322,0.01848 -0.201787,0.04107 -0.06979,0.07019 -0.04969,0.290271 0.03364,0.368355 l 0.0745,0.0698 h -0.09152 c -0.08161,0 -0.09151,0.01281 -0.09151,0.117867 0,0.144265 0.09765,0.224439 0.273356,0.224439 0.146737,0 0.227212,-0.05573 0.247162,-0.171144 0.01256,-0.07222 0.01556,-0.06847 0.01942,0.02398 0.0058,0.137665 0.05985,0.167853 0.312959,0.174861 l 0.202219,0.0057 z m 1.703967,0.196089 c 0.0019,-0.101253 0.005,-0.104313 0.03304,-0.03396 0.04208,0.105326 0.172101,0.158657 0.319161,0.130906 0.197047,-0.03718 0.274188,-0.27806 0.09663,-0.301698 -0.0647,-0.0085 -0.03316,-0.0211 0.102111,-0.04045 0.186594,-0.02668 0.195708,-0.03259 0.195708,-0.126743 0,-0.0869 -0.0122,-0.09875 -0.10211,-0.09875 -0.08234,0 -0.102677,0.01494 -0.105029,0.07702 -0.0025,0.06504 -0.0076,0.06148 -0.0326,-0.02275 -0.03695,-0.124289 -0.08499,-0.155757 -0.238775,-0.156433 -0.18193,-7.86e-4 -0.247206,0.0658 -0.272712,0.278167 -0.01965,0.163709 -0.02253,0.150812 -0.02681,-0.119912 l -0.0048,-0.303326 -0.127634,0.02398 c -0.0702,0.01316 -0.127633,0.02645 -0.127633,0.02948 0,0.003 0.0048,0.178795 0.01061,0.390596 l 0.01061,0.385093 H 31.7291 c 0.128076,0 0.134107,-0.005 0.136177,-0.11125 z m 0.780675,-0.02567 c 0,-0.09127 -0.01132,-0.102694 -0.102111,-0.102694 -0.09076,0 -0.102111,0.01139 -0.102111,0.102694 0,0.09129 0.01132,0.102693 0.102111,0.102693 0.09076,0 0.102111,-0.01139 0.102111,-0.102693 z m 0.668512,-0.01884 c 0.05985,-0.0602 0.08106,-0.110681 0.06831,-0.162588 -0.01716,-0.06996 -0.0058,-0.07565 0.160762,-0.08039 0.168457,-0.0048 0.181507,8.92e-4 0.216502,0.09414 0.03437,0.09158 0.0506,0.09923 0.21038,0.09923 0.184613,0 0.309282,-0.07896 0.309282,-0.195884 0,-0.04847 0.0094,-0.04541 0.05299,0.01708 0.09658,0.13868 0.438604,0.07838 0.47925,-0.0845 0.03216,-0.128878 -0.04896,-0.277534 -0.176823,-0.324035 -0.118861,-0.04323 -0.126113,-0.0973 -0.01309,-0.0973 0.07977,0 0.08463,-0.0608 0.01309,-0.163531 -0.07475,-0.107318 -0.284716,-0.104543 -0.411855,0.0055 -0.07609,0.06582 -0.108725,0.07487 -0.169482,0.04705 -0.100678,-0.04614 -0.295212,-0.006 -0.369127,0.07612 -0.04558,0.05064 -0.05418,0.09638 -0.03624,0.192597 0.02722,0.145955 -0.0085,0.183311 -0.175921,0.184113 -0.07661,3.67e-4 -0.120877,-0.02099 -0.147621,-0.07124 -0.03099,-0.05824 -0.06337,-0.06936 -0.171693,-0.05897 -0.08135,0.0078 -0.129014,-9.34e-4 -0.122045,-0.02236 0.0064,-0.01934 0.06843,-0.03999 0.13807,-0.0459 0.112705,-0.0096 0.124096,-0.01894 0.103755,-0.08558 -0.01256,-0.04116 -0.02478,-0.07633 -0.02713,-0.07814 -0.01716,-0.01316 -0.431072,0.04458 -0.449116,0.06272 -0.01256,0.01263 -0.01221,0.108439 6.98e-4,0.212847 0.02264,0.182184 0.02765,0.189833 0.124309,0.189833 0.05796,0 0.109009,-0.02172 0.12024,-0.05114 0.03538,-0.09271 0.08053,-0.01583 0.0765,0.130194 -0.0021,0.07891 -0.01132,0.112655 -0.02032,0.075 -0.02554,-0.106767 -0.06276,-0.128576 -0.176558,-0.103441 -0.09328,0.0206 -0.103065,0.03383 -0.08487,0.114719 0.04841,0.21508 0.317618,0.284918 0.477693,0.123933 z m -4.416518,-0.246452 c -0.0064,-0.473762 -0.01733,-0.501412 -0.209141,-0.523609 l -0.161594,-0.01871 -0.05833,0.206978 c -0.06415,0.227597 -0.100218,0.187634 -0.04673,-0.05178 0.01845,-0.08259 0.03058,-0.152626 0.02696,-0.15565 -0.0037,-0.003 -0.05637,-0.01619 -0.117216,-0.02932 -0.102341,-0.02204 -0.110618,-0.01725 -0.110618,0.06447 0,0.118081 -0.06069,0.113313 -0.07432,-0.0059 -0.009,-0.07843 -0.02922,-0.09592 -0.12139,-0.104864 -0.07169,-0.0069 -0.110618,0.0044 -0.110618,0.03222 0,0.0277 -0.01504,0.02323 -0.04254,-0.01263 -0.03843,-0.0502 -0.424842,-0.185725 -0.449083,-0.157517 -0.01663,0.01943 -0.223131,0.704433 -0.223131,0.740408 0,0.03997 0.259762,0.109969 0.408131,0.109969 0.08621,0 0.114987,-0.02051 0.156111,-0.111249 l 0.05043,-0.11125 -0.02027,0.141063 c -0.01924,0.133806 -0.01539,0.142007 0.07556,0.159564 0.114916,0.0222 0.113873,0.02305 0.147373,-0.119184 l 0.0266,-0.112993 0.0035,0.124698 c 0.0041,0.14254 0.02144,0.153285 0.300693,0.185057 0.186878,0.02126 0.202171,0.01761 0.238247,-0.05794 l 0.03856,-0.08067 0.0023,0.09414 c 0.0021,0.08661 0.01327,0.09414 0.138459,0.09414 h 0.136141 z"
       id="path1141" />
    <g
       id="g1844"
       style="stroke-width:0.266221;stroke-miterlimit:4;stroke-dasharray:none"
       transform="matrix(1.7687617,0,0,1.7788583,-26.531468,-33.321673)">
      <path
         id="path1824"
         style="fill:#ffdf00;fill-opacity:1;stroke:#000000;stroke-width:0.266221;stroke-linecap:round;stroke-linejoin:round;stroke-miterlimit:4;stroke-dasharray:none;stroke-opacity:1"
         d="m 32.510722,37.314624 -1.48811,2.971649 2.974656,0.003 z" />
      <text
         xml:space="preserve"
         id="text1827"
         style="font-size:1.33333px;line-height:1.25;font-family:sans-serif;white-space:pre;shape-inside:url(#rect1829);stroke-width:0.12771;stroke-miterlimit:4;stroke-dasharray:none;"
         transform="matrix(2.3195191,0,0,1.8734171,-16.414467,-25.213814)" />
    </g>
    <path
       style="fill:#000000;stroke:#000000;stroke-width:0.00376979;stroke-linecap:round;stroke-linejoin:round;paint-order:stroke markers fill"
       d="m 27.771554,27.984566 c -0.0092,-0.0022 -0.08562,-0.02507 -0.169791,-0.05085 -0.12336,-0.03779 -0.152309,-0.04947 -0.149288,-0.06024 0.0021,-0.0073 0.04785,-0.194304 0.101758,-0.415465 0.05391,-0.221162 0.0994,-0.403678 0.101109,-0.405593 0.0061,-0.0069 0.251224,0.07693 0.2992,0.102267 0.08253,0.04359 0.112536,0.102973 0.09779,0.193557 -0.01552,0.09535 -0.127558,0.532816 -0.145377,0.567637 -0.01,0.01948 -0.02755,0.04203 -0.03907,0.05013 -0.02265,0.01591 -0.06944,0.02493 -0.09634,0.01856 z m -0.03286,-0.191276 c 0.0075,-0.01142 0.03726,-0.117913 0.06617,-0.236659 0.06989,-0.287047 0.06704,-0.267103 0.04174,-0.292409 -0.01159,-0.01159 -0.02566,-0.01954 -0.03128,-0.01767 -0.0057,0.0019 -0.03862,0.119178 -0.07481,0.266598 -0.03553,0.144759 -0.06672,0.27168 -0.0693,0.282047 -0.0042,0.01685 -0.0016,0.01885 0.02459,0.01885 0.02193,0 0.03271,-0.0052 0.04289,-0.02076 z"
       id="path867" />
    <path
       style="fill:#000000;stroke:#000000;stroke-width:0.00376979;stroke-linecap:round;stroke-linejoin:round;paint-order:stroke markers fill"
       d="m 28.314365,28.116914 c -0.03319,-0.0076 -0.06374,-0.01762 -0.06789,-0.02223 -0.0041,-0.0046 -0.01397,-0.08566 -0.02184,-0.180112 -0.01414,-0.169632 -0.02115,-0.229478 -0.0263,-0.224328 -0.0015,0.0015 -0.01657,0.08551 -0.03359,0.186786 -0.01702,0.10128 -0.03368,0.187177 -0.03702,0.190883 -0.0096,0.01061 -0.150924,-0.02124 -0.150924,-0.034 0,-0.01257 0.133618,-0.822584 0.137958,-0.836319 0.002,-0.0062 0.02792,-0.0039 0.0817,0.0074 l 0.07883,0.01646 0.0197,0.185309 c 0.01083,0.10192 0.02222,0.194733 0.02531,0.206252 0.0052,0.01921 0.006,0.01955 0.01059,0.0042 0.0027,-0.0092 0.0171,-0.09215 0.03192,-0.184301 0.01482,-0.09215 0.03002,-0.170992 0.03378,-0.175203 0.0092,-0.01027 0.149812,0.01951 0.150008,0.03176 8.3e-5,0.0052 -0.03097,0.196951 -0.06901,0.426175 -0.06484,0.390714 -0.07022,0.416721 -0.08602,0.41596 -0.0093,-4.46e-4 -0.04402,-0.007 -0.07721,-0.01466 z"
       id="path869" />
    <path
       style="fill:#000000;stroke:#000000;stroke-width:0.00376979;stroke-linecap:round;stroke-linejoin:round;paint-order:stroke markers fill"
       d="m 28.885738,28.211607 c -0.03225,-0.0055 -0.07561,-0.01248 -0.09634,-0.01548 l -0.0377,-0.0055 0.0026,-0.07828 c 0.0026,-0.07578 0.002,-0.07845 -0.01675,-0.08348 -0.05542,-0.01484 -0.05789,-0.01224 -0.0745,0.07835 -0.0055,0.02995 -0.0123,0.05706 -0.01514,0.06025 -0.0063,0.0071 -0.193641,-0.01961 -0.193641,-0.02764 0,-0.0082 0.201003,-0.839744 0.203318,-0.841078 0.0011,-6.1e-4 0.06446,0.0084 0.140899,0.01995 l 0.138974,0.02106 0.0054,0.439737 c 0.003,0.241855 0.0045,0.440268 0.0034,0.440919 -0.0011,6.49e-4 -0.02832,-0.0033 -0.06058,-0.0088 z m -0.109671,-0.479238 c 0.0029,-0.08178 0.007,-0.164719 0.0091,-0.184301 0.0053,-0.04831 -0.0083,-0.04523 -0.01854,0.0042 -0.0045,0.02189 -0.0226,0.101391 -0.04018,0.176677 -0.03503,0.15003 -0.03482,0.151747 0.01805,0.152005 l 0.02633,1.28e-4 z"
       id="path871" />
    <path
       style="fill:#000000;stroke:#000000;stroke-width:0.00376979;stroke-linecap:round;stroke-linejoin:round;paint-order:stroke markers fill"
       d="m 29.325547,28.275344 c -0.123191,-0.03761 -0.166932,-0.115616 -0.153556,-0.273851 l 0.0054,-0.06339 0.04687,0.0052 c 0.02578,0.0028 0.06528,0.0074 0.08777,0.01012 l 0.0409,0.0049 -0.0041,0.07245 c -0.0051,0.09018 0.0011,0.109975 0.03486,0.109975 0.02991,0 0.03935,-0.01448 0.04699,-0.07206 0.01013,-0.07635 -0.0028,-0.100528 -0.10409,-0.194725 -0.113432,-0.105483 -0.129356,-0.134438 -0.129705,-0.235849 -5.06e-4,-0.147217 0.03475,-0.218699 0.12219,-0.247742 0.09755,-0.0324 0.234946,0.0051 0.286244,0.07806 0.02341,0.03331 0.02492,0.0403 0.02492,0.115012 0,0.04375 -0.0024,0.08196 -0.0054,0.08492 -0.003,0.003 -0.04228,0.0021 -0.08739,-0.002 l -0.08202,-0.0073 -0.0042,-0.06702 -0.0042,-0.06702 h -0.02488 c -0.03429,0 -0.04788,0.02804 -0.04399,0.09077 l 0.003,0.04888 0.09709,0.09142 c 0.126272,0.118895 0.136437,0.138605 0.135731,0.263188 -8.47e-4,0.149357 -0.03135,0.216275 -0.114349,0.250895 -0.0328,0.01368 -0.136153,0.01674 -0.174099,0.0052 z"
       id="path873" />
    <path
       style="fill:#000000;stroke:#000000;stroke-width:0.00376979;stroke-linecap:round;stroke-linejoin:round;paint-order:stroke markers fill"
       d="m 29.749902,28.304467 c -0.04407,-0.01572 -0.07095,-0.04311 -0.08199,-0.08357 -0.01162,-0.04259 -0.0033,-0.18736 0.01298,-0.226372 0.01357,-0.03247 0.05422,-0.05821 0.146384,-0.09267 0.08742,-0.03269 0.09306,-0.04002 0.09306,-0.121017 0,-0.05731 -0.0023,-0.06794 -0.01615,-0.07537 -0.03803,-0.02035 -0.05058,0.0042 -0.05076,0.09921 l -1.15e-4,0.06183 -0.03142,-0.0052 c -0.01728,-0.0029 -0.05742,-0.0052 -0.0892,-0.0053 l -0.05779,-9.2e-5 0.0053,-0.06857 c 0.0069,-0.08911 0.0295,-0.135853 0.08312,-0.171686 0.04434,-0.02963 0.106466,-0.04165 0.166713,-0.03226 0.05171,0.0081 0.117685,0.04158 0.139252,0.07075 0.03689,0.0499 0.03928,0.08032 0.02809,0.358195 -0.0057,0.142034 -0.01238,0.268611 -0.0148,0.281281 -0.005,0.02596 -0.01637,0.0276 -0.122447,0.01758 l -0.05655,-0.0053 v -0.03294 -0.03294 l -0.02265,0.02691 c -0.02165,0.02573 -0.06525,0.05018 -0.08808,0.0494 -0.0059,-2.02e-4 -0.02523,-0.0055 -0.04295,-0.01185 z m 0.143769,-0.11578 c 0.0049,-0.0059 0.01161,-0.05953 0.01492,-0.119188 l 0.006,-0.108469 -0.0199,0.01321 c -0.04033,0.02678 -0.05127,0.0517 -0.056,0.127614 -0.0032,0.05144 -0.0015,0.07571 0.0061,0.08481 0.0129,0.01554 0.03683,0.01653 0.04887,0.002 z"
       id="path876" />
    <path
       style="fill:#000000;stroke:#000000;stroke-width:0.00376979;stroke-linecap:round;stroke-linejoin:round;paint-order:stroke markers fill"
       d="m 30.699428,28.335752 -0.0377,-0.003 v -0.29912 -0.299121 l -0.02303,-0.0027 c -0.018,-0.0021 -0.02473,0.0018 -0.03081,0.01781 -0.0043,0.01126 -0.0105,0.147219 -0.01383,0.30214 l -0.0061,0.281675 -0.0888,3e-6 -0.0888,3e-6 V 28.03489 c 0,-0.27128 -0.0013,-0.29937 -0.01417,-0.307517 -0.01081,-0.0068 -0.01802,-0.0055 -0.03039,0.0057 -0.0152,0.01376 -0.01661,0.03283 -0.02241,0.303326 l -0.0062,0.288646 -0.08908,8e-6 -0.08908,9e-6 0.002,-0.144517 c 0.0011,-0.07949 0.0043,-0.239705 0.0072,-0.356045 l 0.0052,-0.211527 h 0.09194 0.09194 l -0.0057,0.03351 c -0.0031,0.01843 -0.0041,0.03351 -0.0021,0.03351 0.002,0 0.01902,-0.01471 0.03792,-0.03269 0.04454,-0.04237 0.08622,-0.05065 0.138521,-0.02752 0.02204,0.0097 0.04352,0.02711 0.05263,0.04253 0.0085,0.01433 0.01809,0.02605 0.02139,0.02605 0.0033,0 0.01372,-0.01084 0.02316,-0.0241 0.04802,-0.06744 0.159482,-0.06635 0.200639,0.002 0.02606,0.04325 0.02816,0.0803 0.02179,0.384465 l -0.0061,0.291112 -0.05125,-0.0015 c -0.02819,-8.31e-4 -0.06821,-0.0029 -0.08894,-0.0046 z"
       id="path878" />
    <path
       style="fill:#000000;stroke:#000000;stroke-width:0.00376979;stroke-linecap:round;stroke-linejoin:round;paint-order:stroke markers fill"
       d="m 30.917238,28.29711 c 0,-0.07988 -0.0025,-0.2646 -0.0055,-0.410489 l -0.0055,-0.265252 h 0.09582 0.09582 l -0.0032,0.0356 -0.0032,0.0356 0.03571,-0.03564 c 0.04291,-0.04282 0.08738,-0.0578 0.129921,-0.04376 0.03965,0.01308 0.07714,0.05299 0.08475,0.0902 0.0035,0.0171 0.0065,0.147953 0.0066,0.290786 2.35e-4,0.246353 -6.29e-4,0.261188 -0.0168,0.288721 -0.04361,0.07424 -0.149822,0.08104 -0.203319,0.01303 -0.0091,-0.01161 -0.01889,-0.02111 -0.02168,-0.02111 -0.0028,0 -0.0051,0.03541 -0.0051,0.07869 0,0.06403 -0.0025,0.07963 -0.01325,0.08377 -0.0073,0.0028 -0.04876,0.0051 -0.09215,0.0051 h -0.0789 z m 0.246235,-0.08582 c 0.0063,-0.01631 0.0048,-0.259424 -0.0023,-0.384671 l -0.0052,-0.09215 h -0.02513 c -0.02225,0 -0.02567,0.0034 -0.02981,0.02932 -0.0053,0.03296 -6.92e-4,0.412661 0.0053,0.441903 0.0029,0.01428 0.0097,0.01885 0.02795,0.01885 0.01423,0 0.02616,-0.0054 0.02916,-0.01325 z"
       id="path881" />
    <path
       style="fill:#000000;stroke:#000000;stroke-width:0.00376979;stroke-linecap:round;stroke-linejoin:round;paint-order:stroke markers fill"
       d="m 31.427992,28.32297 c -0.0015,-0.01194 -0.02453,-0.770397 -0.02468,-0.8126 l -1.93e-4,-0.05655 h 0.09634 0.09634 l -1.6e-5,0.0733 c -2e-5,0.08546 0.01457,0.596859 0.02044,0.716261 l 0.004,0.08168 h -0.09599 c -0.05279,0 -0.09611,-9.42e-4 -0.09625,-0.0021 z"
       id="path883" />
    <path
       style="fill:#000000;stroke:#000000;stroke-width:0.00376979;stroke-linecap:round;stroke-linejoin:round;paint-order:stroke markers fill"
       d="m 31.812649,28.305129 c -0.08829,-0.03155 -0.121557,-0.08999 -0.13331,-0.234184 -0.01226,-0.150387 -0.01216,-0.314462 2.2e-4,-0.35486 0.01471,-0.04802 0.05088,-0.08942 0.09844,-0.112663 0.05516,-0.02696 0.157918,-0.02733 0.208633,-7.66e-4 0.07582,0.03972 0.108502,0.112089 0.11753,0.260271 l 0.0051,0.08314 -0.125546,0.0061 -0.125547,0.0061 0.0038,0.08498 c 0.0021,0.04674 0.0063,0.09783 0.0094,0.113525 0.0068,0.03473 0.02796,0.05088 0.04915,0.03754 0.01219,-0.0077 0.01506,-0.02423 0.01704,-0.09839 l 0.0024,-0.08916 0.0437,-7.3e-5 c 0.02403,-4e-5 0.06394,-0.0025 0.08868,-0.0055 l 0.04498,-0.0054 -0.0035,0.08715 c -0.004,0.09711 -0.01744,0.133988 -0.0666,0.182053 -0.04766,0.0466 -0.161688,0.06613 -0.234392,0.04015 z m 0.100205,-0.524944 c -0.0029,-0.06346 -0.0107,-0.08277 -0.03372,-0.08329 -0.02691,-6.07e-4 -0.0398,0.05935 -0.02678,0.124485 0.0047,0.0233 0.0084,0.02618 0.0344,0.02618 h 0.02916 z"
       id="path885" />
    <path
       style="fill:#000000;stroke:#000000;stroke-width:0.00376979;stroke-linecap:round;stroke-linejoin:round;paint-order:stroke markers fill"
       d="m 32.198182,28.277609 c -4.33e-4,-0.0038 -0.0033,-0.04188 -0.0063,-0.0845 l -0.0055,-0.0775 0.02513,-0.0038 c 0.01382,-0.0021 0.04456,-0.0053 0.0683,-0.0071 l 0.04317,-0.0033 0.0059,0.08292 c 0.0033,0.04561 0.0046,0.08414 0.0029,0.08564 -0.0075,0.0067 -0.132965,0.01379 -0.133666,0.0076 z"
       id="path887" />
    <path
       style="fill:#000000;stroke:#000000;stroke-width:0.00376979;stroke-linecap:round;stroke-linejoin:round;paint-order:stroke markers fill"
       d="m 32.170562,27.871542 c -0.0022,-0.01089 -0.0059,-0.04855 -0.008,-0.08368 l -0.004,-0.06388 0.03814,-0.0052 c 0.02098,-0.0029 0.05214,-0.0052 0.06925,-0.0052 h 0.0311 l 0.0057,0.08073 c 0.0031,0.0444 0.0046,0.08172 0.0033,0.08293 -0.0013,0.0012 -0.03138,0.0049 -0.06687,0.0082 -0.06322,0.0059 -0.06461,0.0056 -0.0686,-0.01382 z"
       id="path889" />
    <path
       style="fill:#000000;stroke:#000000;stroke-width:0.00376979;stroke-linecap:round;stroke-linejoin:round;paint-order:stroke markers fill"
       d="m 32.675039,28.228623 c -0.04681,-0.01506 -0.09959,-0.07041 -0.114458,-0.120042 -0.01235,-0.04123 -0.03062,-0.167569 -0.02503,-0.173154 0.0042,-0.0042 0.176971,-0.03 0.179082,-0.02678 6.26e-4,9.55e-4 0.0056,0.03888 0.01098,0.08428 0.01044,0.0876 0.01766,0.109233 0.0392,0.1175 0.01804,0.0069 0.04551,-0.0087 0.04651,-0.02651 0.0031,-0.0546 -0.02302,-0.319727 -0.03443,-0.349756 -0.0058,-0.01522 -0.01407,-0.02065 -0.03151,-0.02065 -0.03172,0 -0.04377,0.01397 -0.04377,0.05072 v 0.03061 l -0.08847,0.01049 c -0.04866,0.0058 -0.08947,0.0091 -0.0907,0.0075 -0.0037,-0.0049 -0.03595,-0.421544 -0.03297,-0.425359 0.0015,-0.0019 0.09276,-0.01522 0.202792,-0.02954 l 0.200052,-0.02603 0.0056,0.06191 c 0.0031,0.03405 0.0037,0.06382 0.0014,0.06615 -0.0023,0.0023 -0.05344,0.01071 -0.113563,0.01862 -0.06013,0.0079 -0.111421,0.01648 -0.113987,0.01904 -0.0073,0.0073 0.0062,0.148854 0.01419,0.148854 0.0039,0 0.0119,-0.0078 0.0177,-0.01723 0.01435,-0.02346 0.05432,-0.0466 0.0921,-0.05331 0.07404,-0.01317 0.13727,0.03184 0.160958,0.114563 0.01351,0.04718 0.03813,0.262732 0.03813,0.333845 0,0.128044 -0.08007,0.20535 -0.22107,0.213432 -0.0388,0.0022 -0.07321,-9.74e-4 -0.09871,-0.0092 z"
       id="path891" />
    <path
       style="fill:#000000;stroke:#000000;stroke-width:0.00376979;stroke-linecap:round;stroke-linejoin:round;paint-order:stroke markers fill"
       d="m 33.033933,27.878972 c -0.0025,-0.01037 -0.0071,-0.04157 -0.01016,-0.06934 l -0.0056,-0.05049 0.118887,-0.01928 c 0.06539,-0.01061 0.119939,-0.01804 0.121226,-0.01653 0.0035,0.0041 0.02198,0.134849 0.01937,0.136752 -0.0026,0.0019 -0.225953,0.03812 -0.233793,0.03789 -0.003,-8.5e-5 -0.0074,-0.0086 -0.01,-0.019 z"
       id="path893" />
    <path
       style="fill:#000000;stroke:#000000;stroke-width:0.00376979;stroke-linecap:round;stroke-linejoin:round;paint-order:stroke markers fill"
       d="m 33.459755,28.091892 c -0.06234,-0.02983 -0.08906,-0.07146 -0.116521,-0.181505 -0.02439,-0.09774 -0.07396,-0.411341 -0.07483,-0.473319 -7.58e-4,-0.05444 0.0024,-0.06871 0.02329,-0.106847 0.04417,-0.08047 0.121659,-0.122525 0.226704,-0.12303 0.07736,-3.72e-4 0.12302,0.01823 0.157918,0.06435 0.02313,0.03057 0.04927,0.112246 0.06693,0.209177 l 0.01177,0.06459 -0.06386,0.01365 c -0.03512,0.0075 -0.07684,0.01698 -0.0927,0.02105 -0.01587,0.0041 -0.03004,0.0062 -0.0315,0.0047 -0.0015,-0.0015 -0.01052,-0.04754 -0.02014,-0.102395 -0.0184,-0.104946 -0.0317,-0.137442 -0.05626,-0.137442 -0.04468,0 -0.04485,0.03747 -0.0013,0.2927 0.05087,0.298436 0.05566,0.317812 0.08012,0.323951 0.04619,0.01159 0.05549,-0.03204 0.03322,-0.155899 -0.0062,-0.03456 -0.0099,-0.0643 -0.0082,-0.06611 0.0029,-0.003 0.168815,-0.04222 0.180367,-0.04262 0.0088,-3.08e-4 0.02427,0.113678 0.02408,0.177361 -2.19e-4,0.07299 -0.01675,0.114293 -0.06374,0.159236 -0.04679,0.04476 -0.104121,0.06758 -0.179016,0.07128 -0.04928,0.0024 -0.07006,-3.55e-4 -0.09634,-0.01293 z"
       id="path895" />
    <path
       style="fill:#000000;stroke:#000000;stroke-width:0.00376979;stroke-linecap:round;stroke-linejoin:round;paint-order:stroke markers fill"
       d="m 33.98132,27.969674 c -0.01724,-0.0062 -0.04045,-0.01716 -0.05159,-0.02445 -0.02527,-0.01656 -0.0579,-0.08322 -0.07949,-0.162382 l -0.01651,-0.06053 0.07909,-0.02534 c 0.0435,-0.01393 0.08252,-0.02534 0.08671,-0.02534 0.0042,0 0.01026,0.01225 0.01349,0.02723 0.0032,0.01497 0.01311,0.05079 0.02194,0.07958 0.01464,0.0477 0.01813,0.05236 0.03919,0.05236 0.03028,0 0.04322,-0.01401 0.04322,-0.04679 0,-0.03916 -0.02477,-0.109218 -0.04513,-0.12762 -0.0097,-0.0088 -0.06255,-0.03345 -0.117362,-0.05478 -0.05481,-0.02133 -0.11236,-0.04846 -0.127877,-0.0603 -0.07422,-0.05661 -0.120057,-0.248456 -0.07872,-0.329473 0.0566,-0.110942 0.250451,-0.168082 0.344072,-0.101418 0.02369,0.01687 0.04779,0.06525 0.06981,0.140148 l 0.0129,0.04389 -0.0843,0.02619 c -0.09273,0.02881 -0.09333,0.02866 -0.103211,-0.02546 -0.01043,-0.05714 -0.04299,-0.08407 -0.06955,-0.05751 -0.02157,0.02157 -0.0045,0.110558 0.02689,0.140029 0.0097,0.0092 0.05725,0.03035 0.105574,0.04709 0.142857,0.04951 0.175959,0.0777 0.213492,0.181775 0.03037,0.08422 0.04238,0.16728 0.0301,0.208248 -0.02118,0.07068 -0.105999,0.13737 -0.200128,0.157342 -0.05582,0.01184 -0.07352,0.01145 -0.112605,-0.0025 z"
       id="path897" />
    <path
       style="fill:#000000;stroke:#000000;stroke-width:0.00376979;stroke-linecap:round;stroke-linejoin:round;paint-order:stroke markers fill"
       d="m 27.789339,30.91739 c -0.03169,-0.0063 -0.05939,-0.01323 -0.06156,-0.0154 -0.0022,-0.0022 0.01527,-0.110922 0.03876,-0.241662 0.04143,-0.230565 0.04659,-0.264354 0.03921,-0.256981 -0.0019,0.0019 -0.03814,0.110934 -0.08047,0.242244 -0.04233,0.131309 -0.07829,0.240145 -0.0799,0.241858 -0.0016,0.0017 -0.02803,-0.0016 -0.05871,-0.0074 l -0.05578,-0.01053 0.0051,-0.109871 c 0.01021,-0.222012 0.01323,-0.402685 0.0064,-0.382129 -0.0038,0.01152 -0.02503,0.122732 -0.04709,0.247131 -0.02206,0.1244 -0.04096,0.227225 -0.042,0.228501 -0.001,0.0013 -0.03813,-0.0041 -0.08243,-0.01195 -0.07402,-0.01312 -0.08021,-0.01568 -0.07646,-0.03164 0.0022,-0.0096 0.03246,-0.175539 0.06715,-0.368857 0.03468,-0.193319 0.0646,-0.353028 0.06648,-0.354909 0.0032,-0.0032 0.191504,0.0284 0.225462,0.03789 0.01527,0.0043 0.0157,0.01205 0.01016,0.185299 -0.0032,0.09947 -0.0035,0.178613 -8.13e-4,0.175884 0.0027,-0.0027 0.0285,-0.07983 0.05728,-0.171345 0.03778,-0.120168 0.05569,-0.165979 0.06446,-0.164931 0.01824,0.0022 0.229656,0.03894 0.231892,0.04032 0.0019,0.0012 -0.106303,0.609174 -0.12411,0.697526 -0.01013,0.05025 -0.0084,0.04974 -0.102985,0.03096 z"
       id="path899" />
    <path
       style="fill:#000000;stroke:#000000;stroke-width:0.00376979;stroke-linecap:round;stroke-linejoin:round;paint-order:stroke markers fill"
       d="m 28.135967,30.976269 c -0.100665,-0.0277 -0.15042,-0.08728 -0.150653,-0.180405 -1.77e-4,-0.0703 0.0295,-0.284926 0.04648,-0.336153 0.0312,-0.09413 0.132076,-0.135776 0.252933,-0.104426 0.06395,0.01659 0.106871,0.04995 0.133015,0.103383 0.02101,0.04293 0.02195,0.05006 0.01678,0.126677 -0.003,0.04465 -0.0076,0.08888 -0.01012,0.09829 l -0.0046,0.01711 -0.117176,-0.01599 c -0.06445,-0.0088 -0.119076,-0.01409 -0.121399,-0.01177 -0.0083,0.0083 -0.02552,0.1698 -0.01986,0.18623 0.0079,0.02303 0.04623,0.02696 0.0575,0.0059 0.0047,-0.0088 0.01272,-0.04193 0.01778,-0.07356 0.0051,-0.03164 0.01055,-0.05888 0.01222,-0.06055 0.0017,-0.0017 0.03916,0.0015 0.08332,0.0071 0.07886,0.0099 0.08029,0.0105 0.08029,0.03244 0,0.04092 -0.02497,0.118917 -0.04755,0.148517 -0.04528,0.05937 -0.137421,0.08241 -0.228902,0.05723 z m 0.120575,-0.410956 c 0.0028,-0.0073 0.0051,-0.03556 0.0051,-0.06283 0,-0.0491 -2.36e-4,-0.04958 -0.02424,-0.04958 -0.02812,0 -0.03145,0.0064 -0.0392,0.07483 l -0.0057,0.05083 h 0.02951 c 0.01918,0 0.03129,-0.0046 0.03459,-0.01325 z"
       id="path901" />
    <path
       style="fill:#000000;stroke:#000000;stroke-width:0.00376979;stroke-linecap:round;stroke-linejoin:round;paint-order:stroke markers fill"
       d="m 28.544831,31.018382 c -0.04466,-0.0049 -0.08347,-0.01111 -0.08624,-0.01387 -0.0059,-0.0059 0.05554,-0.590229 0.06342,-0.602977 0.0037,-0.0059 0.03137,-0.0056 0.0882,0.0012 0.04556,0.0054 0.08415,0.01112 0.08574,0.01268 0.0016,0.0016 -7.76e-4,0.02005 -0.0053,0.04111 -0.0045,0.02106 -0.0067,0.03829 -0.005,0.03829 0.0018,0 0.01675,-0.015 0.03332,-0.03334 0.01742,-0.01928 0.04283,-0.03685 0.06024,-0.04166 0.01656,-0.0046 0.03096,-0.0075 0.03199,-0.0064 0.0025,0.0025 -0.02063,0.200483 -0.02367,0.202605 -0.0013,9.15e-4 -0.02088,0.0051 -0.04348,0.0094 -0.06484,0.01216 -0.06938,0.02296 -0.08947,0.212991 -0.0095,0.08982 -0.01981,0.169077 -0.02294,0.176119 -0.0049,0.01111 -0.0164,0.01164 -0.08688,0.004 z"
       id="path903" />
    <path
       style="fill:#000000;stroke:#000000;stroke-width:0.00376979;stroke-linecap:round;stroke-linejoin:round;paint-order:stroke markers fill"
       d="m 28.882593,31.053858 -0.08692,-0.0081 0.0045,-0.03881 c 0.0025,-0.02135 0.01505,-0.160631 0.02798,-0.309521 l 0.0235,-0.270707 0.038,0.0044 c 0.0209,0.0024 0.06177,0.0069 0.09083,0.0098 l 0.05283,0.0054 -0.0053,0.02635 c -0.0029,0.01449 -0.0073,0.03389 -0.0099,0.0431 -0.003,0.01112 0.0065,0.0049 0.02826,-0.01841 0.02979,-0.03191 0.06464,-0.05279 0.0881,-0.05279 0.0086,0 0.0024,0.172535 -0.0071,0.197223 -0.0021,0.0056 -0.02105,0.01208 -0.04203,0.01444 -0.06011,0.0068 -0.06877,0.02115 -0.08224,0.136635 -0.0064,0.05494 -0.0143,0.138527 -0.01754,0.185754 -0.0032,0.04723 -0.0082,0.08531 -0.01098,0.08463 -0.0028,-6.79e-4 -0.0442,-0.0049 -0.092,-0.0094 z"
       id="path905" />
    <path
       style="fill:#000000;stroke:#000000;stroke-width:0.00376979;stroke-linecap:round;stroke-linejoin:round;paint-order:stroke markers fill"
       d="m 29.467962,31.100484 c -0.08442,-0.0041 -0.09215,-0.0072 -0.09215,-0.03706 v -0.02584 l -0.0287,0.0252 c -0.01578,0.01386 -0.03997,0.02767 -0.05375,0.0307 -0.0353,0.0078 -0.08939,-0.0089 -0.121028,-0.03717 l -0.0269,-0.02407 1.9e-5,-0.09071 c 3e-5,-0.140614 0.0054,-0.147236 0.167206,-0.205903 0.08331,-0.03021 0.08591,-0.03352 0.08745,-0.111413 8.72e-4,-0.04416 -0.0091,-0.06241 -0.03405,-0.06241 -0.02051,0 -0.02913,0.02059 -0.03446,0.08234 -0.0025,0.02916 -0.0059,0.05436 -0.0075,0.05599 -0.0016,0.0016 -0.04008,7.57e-4 -0.08544,-0.0019 l -0.08247,-0.0049 0.0057,-0.05071 c 0.01042,-0.09214 0.03415,-0.13011 0.100852,-0.161442 0.0755,-0.03546 0.205463,-0.02164 0.264628,0.02815 0.05437,0.04575 0.05873,0.09252 0.03696,0.396013 -0.0068,0.09445 -0.01238,0.178333 -0.01244,0.186396 -7.5e-5,0.009 -0.0058,0.01403 -0.01478,0.01305 -0.0081,-8.88e-4 -0.03916,-0.0028 -0.06911,-0.0042 z m -0.09115,-0.140752 c 0.0093,-0.05617 0.01235,-0.163358 0.0046,-0.163358 -0.004,0 -0.01956,0.01228 -0.03457,0.02729 -0.02335,0.02335 -0.02815,0.03535 -0.03328,0.08319 -0.0073,0.06823 0.0025,0.09282 0.03539,0.08898 0.01885,-0.0022 0.02314,-0.0078 0.02785,-0.03611 z"
       id="path907" />
    <path
       style="fill:#000000;stroke:#000000;stroke-width:0.00376979;stroke-linecap:round;stroke-linejoin:round;paint-order:stroke markers fill"
       d="m 29.821903,31.117178 c -0.01767,-0.0034 -0.0188,-0.0076 -0.01812,-0.06797 3.98e-4,-0.03539 0.007,-0.203824 0.01466,-0.374303 l 0.01394,-0.309961 0.09174,0.0024 c 0.05046,0.0013 0.09317,0.0038 0.09491,0.0056 0.0037,0.0037 -0.02131,0.620013 -0.0283,0.697859 l -0.0047,0.05236 -0.07263,-0.0011 c -0.03995,-6.28e-4 -0.08112,-0.0028 -0.09148,-0.0048 z"
       id="path909" />
    <path
       style="fill:#000000;stroke:#000000;stroke-width:0.00376979;stroke-linecap:round;stroke-linejoin:round;paint-order:stroke markers fill"
       d="m 30.620918,31.141986 -0.05757,-0.003 0.0061,-0.245538 c 0.0064,-0.257031 0.004,-0.281421 -0.0285,-0.281421 -0.03325,0 -0.03621,0.01727 -0.03976,0.232497 -0.0019,0.114022 -0.0055,0.227104 -0.0079,0.251293 l -0.0045,0.04398 -0.08526,5e-6 -0.08526,5e-6 v -0.261796 -0.261796 l -0.02047,-0.0029 c -0.03626,-0.0051 -0.04236,0.01583 -0.04236,0.145573 0,0.0652 -0.0025,0.175685 -0.0055,0.24553 l -0.0055,0.126992 h -0.08693 -0.08693 l 0.0048,-0.249225 c 0.0026,-0.137074 0.0068,-0.276557 0.0094,-0.309961 l 0.0046,-0.06074 h 0.08725 0.08725 v 0.03019 0.03019 l 0.02909,-0.02554 c 0.05991,-0.0526 0.134567,-0.05069 0.186897,0.0048 l 0.02791,0.02959 0.02559,-0.02618 c 0.03129,-0.032 0.0782,-0.04726 0.120744,-0.03928 0.04123,0.0077 0.08412,0.05049 0.09182,0.09154 0.0032,0.01721 0.0031,0.146052 -3.02e-4,0.286327 l -0.0062,0.255046 -0.03045,-0.0016 c -0.01675,-9.02e-4 -0.05636,-0.003 -0.08802,-0.0046 z"
       id="path911" />
    <path
       style="fill:#000000;stroke:#000000;stroke-width:0.00376979;stroke-linecap:round;stroke-linejoin:round;paint-order:stroke markers fill"
       d="m 30.81671,30.893399 c 0,-0.186228 -0.0023,-0.34456 -0.0051,-0.351848 -0.0044,-0.01159 0.0066,-0.01325 0.08796,-0.01325 h 0.09305 v 0.02513 c 0,0.01382 0.0015,0.02513 0.0033,0.02513 0.0018,0 0.01514,-0.01106 0.02961,-0.02458 0.0676,-0.06314 0.170502,-0.04971 0.202635,0.02646 0.01671,0.0396 0.01671,0.467664 0,0.507263 -0.03123,0.07403 -0.138672,0.08878 -0.197727,0.02714 -0.01331,-0.0139 -0.02727,-0.02527 -0.03102,-0.02527 -0.0037,0 -0.0068,0.03204 -0.0068,0.07121 v 0.07121 h -0.08796 -0.08796 z m 0.241002,-0.05514 c 0.002,-0.178271 5.25e-4,-0.206504 -0.01086,-0.21483 -0.02177,-0.01592 -0.04491,-0.0039 -0.05057,0.02627 -0.0074,0.03942 -8.11e-4,0.374963 0.0076,0.388004 0.0039,0.006 0.01709,0.0098 0.02932,0.0084 l 0.02225,-0.0026 z"
       id="path913" />
    <path
       style="fill:#000000;stroke:#000000;stroke-width:0.00376979;stroke-linecap:round;stroke-linejoin:round;paint-order:stroke markers fill"
       d="m 31.419732,31.135387 c -0.04314,-0.0133 -0.08467,-0.05297 -0.100584,-0.09607 -0.007,-0.01889 -0.01216,-0.0902 -0.01457,-0.200436 -0.005,-0.229158 0.0056,-0.263345 0.09571,-0.307418 0.03884,-0.019 0.05811,-0.02299 0.110798,-0.0229 0.07653,1.23e-4 0.12662,0.0194 0.165514,0.0637 0.04386,0.04995 0.04858,0.0761 0.04883,0.27019 2.49e-4,0.194132 -0.0013,0.201209 -0.05543,0.254136 -0.04905,0.04795 -0.163184,0.06565 -0.250262,0.0388 z m 0.116356,-0.09523 c 0.0092,-0.0059 0.01123,-0.04333 0.01014,-0.191084 -7.46e-4,-0.101092 -0.0043,-0.19483 -0.0079,-0.208307 -0.0072,-0.02702 -0.03962,-0.03862 -0.05301,-0.01895 -0.0097,0.01418 5.8e-4,0.39111 0.01117,0.411222 0.0084,0.01602 0.02174,0.01842 0.03957,0.0071 z"
       id="path915" />
    <path
       style="fill:#000000;stroke:#000000;stroke-width:0.00376979;stroke-linecap:round;stroke-linejoin:round;paint-order:stroke markers fill"
       d="m 31.805217,31.107055 c -9e-6,-0.01191 -0.0058,-0.149417 -0.0128,-0.305561 -0.007,-0.156145 -0.01123,-0.285446 -0.0093,-0.287338 0.0019,-0.0019 0.04335,-0.0057 0.09214,-0.0085 l 0.0887,-0.005 -0.0043,0.04523 c -0.0037,0.03872 -0.0027,0.04296 0.0065,0.02945 0.02674,-0.0391 0.05239,-0.06539 0.0754,-0.07729 0.0137,-0.0071 0.02612,-0.01166 0.0276,-0.01017 0.0015,0.0015 0.0054,0.0474 0.0088,0.102009 0.0065,0.106206 0.0042,0.113913 -0.03494,0.114196 -0.02723,1.98e-4 -0.0594,0.03031 -0.06488,0.06072 -0.0027,0.01506 -0.0015,0.100852 0.0026,0.190659 0.0041,0.08981 0.0069,0.163798 0.0061,0.164425 -8.07e-4,6.27e-4 -0.04199,0.0029 -0.09152,0.005 l -0.09006,0.0038 z"
       id="path917" />
    <path
       style="fill:#000000;stroke:#000000;stroke-width:0.00376979;stroke-linecap:round;stroke-linejoin:round;paint-order:stroke markers fill"
       d="m 32.236666,31.094586 c -0.05634,-0.02487 -0.06422,-0.05616 -0.07508,-0.298212 -0.008,-0.177629 -0.01067,-0.192678 -0.03461,-0.192678 -0.01885,0 -0.02016,-0.003 -0.02016,-0.04607 0,-0.04257 0.0015,-0.04608 0.01938,-0.04608 0.01845,0 0.01921,-0.0023 0.01584,-0.04899 l -0.0035,-0.04899 0.0449,-0.0054 c 0.02469,-0.003 0.06657,-0.0054 0.09307,-0.0055 l 0.04817,-7.3e-5 v 0.04607 c 0,0.04523 4.44e-4,0.04608 0.02424,0.04608 0.02766,0 0.03441,0.01164 0.03441,0.05933 0,0.03089 -0.0015,0.03282 -0.02513,0.03282 -0.02284,0 -0.0251,0.0025 -0.02478,0.02723 9.23e-4,0.07145 0.02348,0.37438 0.02848,0.382468 0.0031,0.005 0.01676,0.0092 0.03031,0.0092 0.0242,0 0.02464,7.98e-4 0.02464,0.04488 v 0.04488 l -0.05149,0.0054 c -0.07299,0.0076 -0.09993,0.0063 -0.12862,-0.0064 z"
       id="path919" />
    <path
       style="fill:#000000;stroke:#000000;stroke-width:0.00376979;stroke-linecap:round;stroke-linejoin:round;paint-order:stroke markers fill"
       d="m 32.53955,31.07775 c -0.01771,-0.0065 -0.04134,-0.02046 -0.05251,-0.03094 -0.02313,-0.02173 -0.04513,-0.08738 -0.04513,-0.13467 v -0.03199 l 0.04817,-9.2e-5 c 0.02649,-5.1e-5 0.06231,-0.0024 0.07959,-0.0053 l 0.03142,-0.0052 v 0.03825 c 0,0.02104 0.0038,0.04816 0.0084,0.06027 0.007,0.01848 0.01275,0.0216 0.0356,0.01939 0.02575,-0.0025 0.02738,-0.0046 0.02988,-0.03965 0.0048,-0.06677 5.02e-4,-0.07224 -0.09286,-0.118992 -0.04714,-0.0236 -0.09651,-0.05056 -0.10972,-0.0599 -0.03697,-0.02615 -0.05517,-0.07524 -0.05539,-0.149348 -2.26e-4,-0.07805 0.01725,-0.109194 0.07917,-0.141062 0.03611,-0.01859 0.05228,-0.02144 0.121471,-0.02144 0.06961,0 0.08458,0.0027 0.117084,0.02094 0.04554,0.02559 0.0639,0.05632 0.07134,0.119377 l 0.0057,0.04817 h -0.04132 c -0.02273,0 -0.05862,0.0024 -0.07975,0.0053 l -0.03844,0.0053 -0.0057,-0.04282 c -0.0069,-0.05189 -0.02048,-0.0663 -0.04988,-0.0529 -0.0162,0.0074 -0.0207,0.01572 -0.0207,0.03838 0,0.05756 0.0099,0.06816 0.10644,0.114069 0.11359,0.05401 0.141056,0.0792 0.153921,0.141172 0.0053,0.02563 0.0076,0.06656 0.0051,0.09097 -0.01,0.09669 -0.06758,0.138953 -0.194248,0.142514 -0.04924,0.0014 -0.08657,-0.002 -0.107605,-0.0098 z"
       id="path921" />
    <path
       style="fill:#000000;stroke:#000000;stroke-width:0.00376979;stroke-linecap:round;stroke-linejoin:round;paint-order:stroke markers fill"
       d="m 33.067454,31.041201 c -0.0019,-0.0033 -0.0061,-0.03683 -0.0093,-0.07442 l -0.0058,-0.06835 0.06372,-0.006 c 0.03504,-0.0033 0.0652,-0.0045 0.06701,-0.0027 0.0018,0.0018 0.0066,0.03428 0.01055,0.07215 l 0.0073,0.06886 -0.02559,0.0038 c -0.06554,0.0098 -0.104739,0.01215 -0.107929,0.0066 z"
       id="path923" />
    <path
       style="fill:#000000;stroke:#000000;stroke-width:0.00376979;stroke-linecap:round;stroke-linejoin:round;paint-order:stroke markers fill"
       d="m 33.388198,30.630819 -0.04605,-0.37652 0.09085,-0.01037 c 0.04997,-0.0057 0.09258,-0.0086 0.09469,-0.0065 0.0054,0.0054 0.09459,0.737855 0.09065,0.744243 -0.0018,0.0029 -0.03063,0.0078 -0.06414,0.01098 -0.03351,0.0032 -0.0742,0.0078 -0.09043,0.01024 l -0.02951,0.0045 z"
       id="path925" />
    <path
       style="fill:#000000;stroke:#000000;stroke-width:0.00376979;stroke-linecap:round;stroke-linejoin:round;paint-order:stroke markers fill"
       d="m 33.658085,30.669943 c -0.02454,-0.166287 -0.04331,-0.30364 -0.04173,-0.305228 0.003,-0.003 0.159271,-0.02909 0.17421,-0.02909 0.0047,0 0.0085,0.01131 0.0085,0.02513 0,0.03197 0.0087,0.03183 0.02707,-4.53e-4 0.01914,-0.03364 0.08137,-0.06158 0.124304,-0.05582 0.05432,0.0073 0.08844,0.04529 0.103163,0.114917 0.0064,0.0304 0.07218,0.468552 0.07218,0.480992 0,0.0069 -0.02953,0.01497 -0.08587,0.02348 -0.04723,0.0071 -0.08707,0.0119 -0.08854,0.01058 -0.0015,-0.0013 -0.01912,-0.111147 -0.03923,-0.244065 -0.0201,-0.132918 -0.03918,-0.24847 -0.04238,-0.256782 -0.004,-0.01033 -0.01278,-0.01431 -0.02779,-0.01257 -0.01913,0.0022 -0.02228,0.0069 -0.02439,0.03606 -0.0013,0.01843 0.01263,0.135156 0.03102,0.259391 0.01839,0.124235 0.03215,0.227179 0.03056,0.228763 -0.0028,0.0028 -0.151507,0.02661 -0.168069,0.02689 -0.0046,7.9e-5 -0.02836,-0.13527 -0.05299,-0.302198 z"
       id="path927" />
    <path
       style="fill:#000000;stroke:#000000;stroke-width:0.00376979;stroke-linecap:round;stroke-linejoin:round;paint-order:stroke markers fill"
       d="m 34.295603,30.872363 c -0.08376,-0.02098 -0.11692,-0.0776 -0.152443,-0.26029 -0.04449,-0.228803 -0.04266,-0.252195 0.02445,-0.312528 0.101267,-0.09105 0.270494,-0.0818 0.325428,0.01779 0.01091,0.01977 0.0247,0.05441 0.03065,0.07697 l 0.01082,0.04102 -0.0473,0.0095 c -0.02602,0.0052 -0.06228,0.01275 -0.08058,0.0167 -0.0183,0.0039 -0.03457,0.0059 -0.03615,0.0043 -0.0016,-0.0016 -0.0084,-0.02681 -0.01513,-0.05608 -0.01379,-0.05981 -0.02991,-0.07849 -0.05579,-0.06464 -0.02011,0.01076 -0.01883,0.02381 0.02402,0.24505 0.02156,0.111336 0.03374,0.156163 0.04575,0.168372 0.03728,0.0379 0.05776,-0.02509 0.03984,-0.122541 l -0.0056,-0.03051 0.07502,-0.01457 c 0.04126,-0.008 0.077,-0.01259 0.07942,-0.01018 0.0086,0.0086 0.02012,0.116453 0.0148,0.138612 -0.01611,0.06711 -0.0602,0.11566 -0.126162,0.138933 -0.04471,0.01578 -0.117216,0.02252 -0.151021,0.01405 z"
       id="path929" />
    <path
       style="fill:#000000;stroke:#000000;stroke-width:0.00376979;stroke-linecap:round;stroke-linejoin:round;paint-order:stroke markers fill"
       d="m 30.788115,36.79145 c -0.0028,-0.05183 -0.01821,-0.520232 -0.03422,-1.040883 -0.01601,-0.52065 -0.03152,-1.002242 -0.03448,-1.070203 l -0.0054,-0.123565 h 0.294279 0.294279 l 6.1e-5,0.05236 c 8.9e-5,0.07613 -0.05739,2.034251 -0.06357,2.165538 l -0.0052,0.110999 H 31.01355 30.793235 Z"
       id="path931" />
    <path
       style="fill:#000000;stroke:#000000;stroke-width:0.00376979;stroke-linecap:round;stroke-linejoin:round;paint-order:stroke markers fill"
       d="m 30.741315,37.551691 v -0.221999 h 0.268074 0.268074 v 0.221999 0.221999 h -0.268074 -0.268074 z"
       id="path933" />
  </g>
</svg>
