<?xml version="1.0" encoding="UTF-8" standalone="no"?>
<svg
   xmlns:dc="http://purl.org/dc/elements/1.1/"
   xmlns:cc="http://creativecommons.org/ns#"
   xmlns:rdf="http://www.w3.org/1999/02/22-rdf-syntax-ns#"
   xmlns:svg="http://www.w3.org/2000/svg"
   xmlns="http://www.w3.org/2000/svg"
   xmlns:sodipodi="http://sodipodi.sourceforge.net/DTD/sodipodi-0.dtd"
   xmlns:inkscape="http://www.inkscape.org/namespaces/inkscape"
   viewBox="0 0 64 64"
   version="1.1"
   id="svg865"
   sodipodi:docname="deep_sea_snapper_vial.svg"
   inkscape:version="1.0.2 (e86c870879, 2021-01-15)">
  <metadata
     id="metadata871">
    <rdf:RDF>
      <cc:Work
         rdf:about="">
        <dc:format>image/svg+xml</dc:format>
        <dc:type
           rdf:resource="http://purl.org/dc/dcmitype/StillImage" />
        <dc:title />
      </cc:Work>
    </rdf:RDF>
  </metadata>
  <defs
     id="defs869">
    <rect
       x="20.840103"
       y="33.578929"
       width="31.712364"
       height="16.029368"
       id="rect1829" />
    <rect
       x="-81.409824"
       y="-17.059822"
       width="10.783929"
       height="2.0330355"
       id="rect1108" />
    <rect
       x="40.60981"
       y="33.981441"
       width="10.340256"
       height="1.7675648"
       id="rect1095" />
  </defs>
  <sodipodi:namedview
     pagecolor="#ffffff"
     bordercolor="#666666"
     borderopacity="1"
     objecttolerance="10"
     gridtolerance="10"
     guidetolerance="10"
     inkscape:pageopacity="0"
     inkscape:pageshadow="2"
     inkscape:window-width="1918"
     inkscape:window-height="2054"
     id="namedview867"
     showgrid="false"
     showguides="true"
     inkscape:guide-bbox="true"
     inkscape:zoom="36.712984"
     inkscape:cx="27.779515"
     inkscape:cy="20.110891"
     inkscape:window-x="-10"
     inkscape:window-y="0"
     inkscape:window-maximized="0"
     inkscape:current-layer="svg865"
     inkscape:document-rotation="0" />
  <text
     xml:space="preserve"
     id="text1093"
     style="font-style:normal;font-weight:normal;font-size:1.04508px;line-height:1.25;font-family:sans-serif;text-align:center;text-anchor:middle;white-space:pre;fill:#000000;fill-opacity:1;stroke:none;stroke-width:0.472224;stroke-miterlimit:4;stroke-dasharray:none"
     transform="scale(0.93954574,1.0643441)"
     x="32.87146"
     y="26.627317"><tspan
       id="tspan1097"
       style="font-style:normal;font-variant:normal;font-weight:normal;font-stretch:normal;font-size:1.04508px;font-family:Impact;-inkscape-font-specification:Impact;text-align:center;text-anchor:middle;stroke-width:0.472224;stroke-miterlimit:4;stroke-dasharray:none" /></text>
  <text
     xml:space="preserve"
     id="text1106"
     style="font-size:0.965722px;line-height:1.25;font-family:sans-serif;text-align:center;text-anchor:middle;white-space:pre;stroke-width:0.472224;stroke-miterlimit:4;stroke-dasharray:none"
     x="31.028294"
     y="31.059353"
     transform="scale(0.99715802,1.0028501)"><tspan
       id="tspan1110"
       style="font-style:normal;font-variant:normal;font-weight:normal;font-stretch:normal;font-family:Impact;-inkscape-font-specification:Impact;text-align:center;text-anchor:middle;stroke-width:0.472224;stroke-miterlimit:4;stroke-dasharray:none" /></text>
  <g
     id="g2175"
     transform="matrix(0.97456681,0,0,0.95969719,1.6491971,1.3396568)">
    <path
       style="fill:#fff6d5;fill-opacity:1;stroke:#fff6d5;stroke-width:0.472224;stroke-linecap:round;stroke-linejoin:round;stroke-miterlimit:4;stroke-dasharray:none;stroke-opacity:1"
       d="M 29.935137,62.514163 C 28.34488,62.095473 27.144084,60.880548 26.744678,59.28614 26.623748,58.803411 26.622474,58.567357 26.622474,36.698678 V 14.599049 h 4.384538 4.384535 v 22.01958 c 0,24.506833 0.03635,22.492649 -0.423418,23.463692 -0.595505,1.257724 -1.603683,2.097826 -2.925635,2.437855 -0.622874,0.160275 -1.48537,0.157784 -2.107357,-0.0053 z"
       id="path928" />
    <path
       id="path928-5"
       style="fill:#fff6d5;fill-opacity:1;stroke:#fff6d5;stroke-width:0.472224;stroke-linecap:round;stroke-linejoin:round;stroke-miterlimit:4;stroke-dasharray:none;stroke-opacity:1"
       d="m 31.006378,13.320438 a 4.3844546,1.1350503 0 0 0 -4.383904,1.136107 4.3844546,1.1350503 0 0 0 0,0.0105 h -0.02765 a 4.3844546,1.1350503 0 0 0 0,0.0069 4.3844546,1.1350503 0 0 0 0.02765,0.125071 v 21.968205 c 0,21.868679 0.0034,22.103908 0.124362,22.586637 0.399406,1.594408 1.59835,2.812439 3.188607,3.231129 0.621987,0.163121 1.484438,0.163744 2.107313,0.0036 1.321951,-0.340028 2.330552,-1.177782 2.926057,-2.435506 0.459767,-0.971043 0.424919,1.041189 0.424919,-23.465642 V 14.466967 a 4.3844546,1.1350503 0 0 0 0,-0.0105 4.3844546,1.1350503 0 0 0 -4.387359,-1.136107 z" />
    <path
       id="path875"
       style="fill:#8cc1e0;fill-opacity:0.22541;stroke:#000000;stroke-width:0.472224;stroke-linecap:round;stroke-linejoin:round;stroke-miterlimit:4;stroke-dasharray:none;stroke-opacity:1"
       d="M 26.531383,6.3262322 V 57.885328 h 0.02073 a 4.4219042,4.4471457 0 0 0 -0.02073,0.430817 4.4219042,4.4471457 0 0 0 4.421904,4.447145 4.4219042,4.4471457 0 0 0 4.421904,-4.447145 4.4219042,4.4471457 0 0 0 -0.02073,-0.430817 h 0.02073 V 6.3262322 Z" />
    <path
       style="fill:#ff5555;fill-opacity:1;stroke:#ff5555;stroke-width:0.472224;stroke-linecap:round;stroke-linejoin:round;stroke-miterlimit:4;stroke-dasharray:none;stroke-opacity:1"
       d="M 29.149074,7.2721365 C 27.707284,7.1352 26.575093,6.8743607 26.138575,6.5785775 l -0.208916,-0.1415616 -0.01627,-1.7985022 -0.01627,-1.798504 0.322863,0.1428423 c 1.16327,0.514686 3.865386,0.766679 6.332437,0.5905472 1.567813,-0.1119258 2.98538,-0.4188073 3.416951,-0.7397027 l 0.170402,-0.1266903 v 1.7554895 c 0,0.9655198 -0.02581,1.8237584 -0.05734,1.9071958 C 35.96587,6.678037 35.025655,6.9928647 33.633935,7.189569 32.853059,7.2999472 29.99561,7.352548 29.149054,7.272144 Z"
       id="path1006" />
    <path
       id="rect897"
       style="fill:none;fill-opacity:1;stroke:#000000;stroke-width:0.472224;stroke-linecap:round;stroke-linejoin:round;stroke-miterlimit:4;stroke-dasharray:none;stroke-opacity:1"
       d="m 25.771017,2.3759162 v 3.950316 h 0.01733 a 5.2180975,1.1270965 0 0 0 0,0.00694 5.2180975,1.1270965 0 0 0 5.216464,1.1291588 5.2180975,1.1270965 0 0 0 5.21986,-1.1291481 5.2180975,1.1270965 0 0 0 0,-0.00694 h 0.01733 v -3.950316 z" />
    <path
       style="fill:#ff8080;fill-opacity:1;stroke:#ff8080;stroke-width:0.472224;stroke-linecap:round;stroke-linejoin:round;stroke-miterlimit:4;stroke-dasharray:none;stroke-opacity:1"
       d="m 29.087751,3.3235123 c -1.238117,-0.1098801 -2.454928,-0.3742398 -2.913649,-0.633021 -0.653699,-0.3687751 0.0046,-0.8082545 1.625883,-1.0853224 2.878691,-0.4919717 7.25848,-0.1840958 8.132092,0.5716415 0.424013,0.3668024 -0.412195,0.7607572 -2.192127,1.0327553 -0.950877,0.145315 -3.574646,0.2095709 -4.652199,0.1139537 z"
       id="path1010" />
    <path
       id="path880"
       style="fill:none;fill-opacity:1;stroke:#000000;stroke-width:0.472224;stroke-linecap:round;stroke-linejoin:round;stroke-miterlimit:4;stroke-dasharray:none;stroke-opacity:1"
       d="m 30.986475,1.2367852 a 5.2180978,1.1270965 0 0 0 -5.216466,1.129157 5.2180978,1.1270965 0 0 0 0,0.010495 h -0.03454 a 5.2180978,1.1270965 0 0 0 0,0.00694 5.2180978,1.1270965 0 0 0 5.216466,1.1291587 5.2180978,1.1270965 0 0 0 5.21992,-1.1291587 5.2180978,1.1270965 0 0 0 0,-0.00694 h 0.03454 a 5.2180978,1.1270965 0 0 0 0,-0.010495 5.2180978,1.1270965 0 0 0 -5.21992,-1.129157 z" />
    <path
       id="path1006-6"
       style="fill:#ff5555;fill-opacity:1;stroke:#000000;stroke-width:0.472224;stroke-linecap:round;stroke-linejoin:round;stroke-miterlimit:4;stroke-dasharray:none;stroke-opacity:1"
       d="m 35.38874,24.352793 -0.146931,0.128576 c -0.374335,0.32467 -1.603444,0.6338 -2.963328,0.747031 -2.139862,0.178203 -4.486296,-0.07688 -5.495286,-0.597625 l -0.278204,-0.142469 0.01256,1.817202 0.01574,1.820675 0.01256,1.643473 0.01256,1.639999 0.01574,1.820674 0.01256,1.639999 v 0.17721 l 0.01574,1.643473 0.01256,1.820674 0.178175,0.142468 c 0.371843,0.299258 1.335049,0.563335 2.563218,0.701863 0.721126,0.08138 3.154635,0.02827 3.819816,-0.08337 1.18552,-0.199019 1.988791,-0.518452 2.088082,-0.830423 0.0055,-0.0169 0.0048,-0.311563 0.0096,-0.385677 8.51e-4,-0.01334 0.0021,-0.05447 0.0032,-0.06948 0.01751,-0.318134 0.03439,-0.726941 0.03439,-1.47322 v -1.778981 l 0.0062,-0.865169 c 0.0078,-0.282475 0.0219,-0.402878 0.0219,-0.816523 v -1.778981 l 0.0062,-0.865169 c 0.0078,-0.282477 0.02188,-0.402881 0.02188,-0.816524 V 27.81351 l 0.0062,-1.104915 c 0.0042,-0.230656 0.01574,-0.286828 0.01574,-0.580253 z m -0.0219,2.647624 -0.0062,0.82 -0.01574,0.01388 c 0.01114,-0.11157 0.01397,-0.553733 0.0219,-0.833896 z m -0.03437,3.877623 -0.0032,0.40305 -0.0062,0.0069 c 0.0055,-0.05609 0.0044,-0.312009 0.0096,-0.409998 z m -0.02814,3.523215 -0.0032,0.340509 -0.0062,0.0069 c 0.0048,-0.04753 0.0051,-0.269634 0.0096,-0.347457 z" />
    <path
       style="fill:#ffffff;fill-opacity:1;stroke:#ffffff;stroke-width:0.472224;stroke-linecap:round;stroke-linejoin:round;stroke-miterlimit:4;stroke-dasharray:none;stroke-opacity:1"
       d="m 29.95503,29.543683 c -1.122589,-0.05214 -2.420695,-0.257511 -2.907749,-0.460027 l -0.127899,-0.05319 -9e-5,-1.390155 c -4.8e-5,-0.764583 -0.01026,-1.646894 -0.02264,-1.960686 -0.02188,-0.55317 -0.02055,-0.570065 0.04272,-0.555278 0.03591,0.0084 0.201988,0.0483 0.369077,0.08869 1.871062,0.452266 5.038866,0.460838 7.058502,0.0191 0.209211,-0.04575 0.438607,-0.103138 0.509771,-0.127508 l 0.129385,-0.04431 -0.02283,1.978653 c -0.01256,1.088259 -0.03363,1.988448 -0.04684,2.000424 -0.01309,0.01192 -0.168599,0.06411 -0.345339,0.115857 -0.612702,0.179414 -1.565911,0.320449 -2.555448,0.378101 -0.449579,0.02618 -1.61439,0.03197 -2.080621,0.01032 z"
       id="path1169" />
    <path
       style="fill:#ff8080;fill-opacity:1;stroke:#ff8080;stroke-width:0.472224;stroke-linecap:round;stroke-linejoin:round;stroke-miterlimit:4;stroke-dasharray:none;stroke-opacity:1"
       d="m 29.992816,32.332577 c -1.154004,-0.0679 -2.278727,-0.263695 -2.850529,-0.496211 L 26.963598,31.7637 v -0.401234 c 0,-0.22068 -0.01008,-0.795671 -0.02243,-1.277758 l -0.02243,-0.876522 0.25217,0.08017 c 1.081504,0.343851 3.112393,0.505362 4.949162,0.393593 1.010465,-0.0615 2.114365,-0.233896 2.621798,-0.409475 0.108266,-0.03746 0.20339,-0.06811 0.211392,-0.06811 0.0349,0 -0.02436,2.405196 -0.06031,2.448778 -0.02069,0.02508 -0.147638,0.09163 -0.282066,0.147841 -0.456257,0.190835 -1.297532,0.370739 -2.184483,0.467146 -0.463061,0.05032 -1.98737,0.09069 -2.433587,0.06443 z"
       id="path1222" />
    <path
       style="fill:none;fill-opacity:1;stroke:none;stroke-width:0.472224;stroke-linecap:round;stroke-linejoin:round;stroke-miterlimit:4;stroke-dasharray:none;stroke-opacity:1"
       d="m 29.95713,30.558921 c -1.12021,-0.06384 -2.415563,-0.315325 -2.901583,-0.563312 l -0.127634,-0.06512 -9e-5,-1.70227 c -4.8e-5,-0.936249 -0.01026,-2.016652 -0.02259,-2.400896 -0.02183,-0.677368 -0.02052,-0.698058 0.04263,-0.679949 0.03583,0.01032 0.201559,0.05915 0.368293,0.108599 1.867094,0.553806 5.028183,0.564302 7.043536,0.02339 0.208767,-0.05603 0.437677,-0.126299 0.508689,-0.156131 l 0.12912,-0.05426 -0.02278,2.422898 c -0.01256,1.332592 -0.03355,2.434892 -0.04673,2.449555 -0.01309,0.01459 -0.168244,0.0785 -0.344606,0.141882 -0.611404,0.219694 -1.562591,0.392395 -2.55003,0.462992 -0.448626,0.03207 -1.610966,0.03915 -2.076208,0.01263 z m 1.327411,-1.880119 c 0,-0.03497 0.0187,-0.0478 0.05135,-0.03519 0.02825,0.01085 0.0895,0.0052 0.136142,-0.01263 0.08041,-0.03074 0.08476,-0.04622 0.08428,-0.298556 -7.18e-4,-0.366995 0.0032,-0.363049 -0.34835,-0.355767 -0.161736,0.0034 -0.195887,0.01441 -0.196743,0.06397 -9.73e-4,0.0563 -0.0032,0.05623 -0.0364,-0.0012 -0.02579,-0.04458 -0.07388,-0.05997 -0.177655,-0.05683 -0.07827,0.0023 -0.165255,4.75e-4 -0.193343,-0.0041 -0.02809,-0.0046 -0.131472,-0.006 -0.229745,-0.003 l -0.178689,0.0053 v 0.32519 0.325189 h 0.119126 0.119126 l 0.0069,-0.265286 0.0069,-0.265285 0.01167,0.265285 0.01167,0.265286 h 0.117694 0.117693 l 5.22e-4,-0.21394 c 2.72e-4,-0.117671 0.01592,-0.237045 0.03477,-0.265286 0.02356,-0.03531 0.02724,0.03152 0.01185,0.21394 l -0.02246,0.265286 h 0.121726 c 0.11948,0 0.122133,-0.003 0.143518,-0.162587 0.03408,-0.254434 0.04487,-0.250567 0.04777,0.01708 l 0.0027,0.24817 h 0.119126 c 0.08672,0 0.119126,-0.01494 0.119126,-0.055 z m -1.123194,-0.355021 c 0,-0.34227 -0.02287,-0.377273 -0.246528,-0.377273 -0.141271,0 -0.219233,0.0563 -0.248822,0.179711 -0.01976,0.08241 -0.01256,0.09419 0.0577,0.09465 0.06431,4.2e-4 0.07013,0.0071 0.02922,0.03371 -0.07402,0.04812 -0.136142,0.04161 -0.136142,-0.01423 0,-0.02666 -0.04211,-0.0801 -0.0936,-0.118721 l -0.0936,-0.07023 0.110619,-0.0011 c 0.09413,-9.23e-4 0.110618,-0.01352 0.110618,-0.08421 0,-0.129217 -0.08639,-0.190712 -0.267913,-0.190712 -0.08853,0 -0.179322,0.01848 -0.201787,0.04107 -0.06979,0.07019 -0.04969,0.290271 0.03364,0.368355 l 0.0745,0.0698 h -0.09152 c -0.08161,0 -0.09151,0.01281 -0.09151,0.117867 0,0.144265 0.09765,0.224439 0.273356,0.224439 0.146737,0 0.227212,-0.05573 0.247162,-0.171144 0.01256,-0.07222 0.01556,-0.06847 0.01942,0.02398 0.0058,0.137665 0.05985,0.167853 0.312959,0.174861 l 0.202219,0.0057 z m 1.703967,0.196089 c 0.0019,-0.101253 0.005,-0.104313 0.03304,-0.03396 0.04208,0.105326 0.172101,0.158657 0.319161,0.130906 0.197047,-0.03718 0.274188,-0.27806 0.09663,-0.301698 -0.0647,-0.0085 -0.03316,-0.0211 0.102111,-0.04045 0.186594,-0.02668 0.195708,-0.03259 0.195708,-0.126743 0,-0.0869 -0.0122,-0.09875 -0.10211,-0.09875 -0.08234,0 -0.102677,0.01494 -0.105029,0.07702 -0.0025,0.06504 -0.0076,0.06148 -0.0326,-0.02275 -0.03695,-0.124289 -0.08499,-0.155757 -0.238775,-0.156433 -0.18193,-7.86e-4 -0.247206,0.0658 -0.272712,0.278167 -0.01965,0.163709 -0.02253,0.150812 -0.02681,-0.119912 l -0.0048,-0.303326 -0.127634,0.02398 c -0.0702,0.01316 -0.127633,0.02645 -0.127633,0.02948 0,0.003 0.0048,0.178795 0.01061,0.390596 l 0.01061,0.385093 H 31.7291 c 0.128076,0 0.134107,-0.005 0.136177,-0.11125 z m 0.780675,-0.02567 c 0,-0.09127 -0.01132,-0.102694 -0.102111,-0.102694 -0.09076,0 -0.102111,0.01139 -0.102111,0.102694 0,0.09129 0.01132,0.102693 0.102111,0.102693 0.09076,0 0.102111,-0.01139 0.102111,-0.102693 z m 0.668512,-0.01884 c 0.05985,-0.0602 0.08106,-0.110681 0.06831,-0.162588 -0.01716,-0.06996 -0.0058,-0.07565 0.160762,-0.08039 0.168457,-0.0048 0.181507,8.92e-4 0.216502,0.09414 0.03437,0.09158 0.0506,0.09923 0.21038,0.09923 0.184613,0 0.309282,-0.07896 0.309282,-0.195884 0,-0.04847 0.0094,-0.04541 0.05299,0.01708 0.09658,0.13868 0.438604,0.07838 0.47925,-0.0845 0.03216,-0.128878 -0.04896,-0.277534 -0.176823,-0.324035 -0.118861,-0.04323 -0.126113,-0.0973 -0.01309,-0.0973 0.07977,0 0.08463,-0.0608 0.01309,-0.163531 -0.07475,-0.107318 -0.284716,-0.104543 -0.411855,0.0055 -0.07609,0.06582 -0.108725,0.07487 -0.169482,0.04705 -0.100678,-0.04614 -0.295212,-0.006 -0.369127,0.07612 -0.04558,0.05064 -0.05418,0.09638 -0.03624,0.192597 0.02722,0.145955 -0.0085,0.183311 -0.175921,0.184113 -0.07661,3.67e-4 -0.120877,-0.02099 -0.147621,-0.07124 -0.03099,-0.05824 -0.06337,-0.06936 -0.171693,-0.05897 -0.08135,0.0078 -0.129014,-9.34e-4 -0.122045,-0.02236 0.0064,-0.01934 0.06843,-0.03999 0.13807,-0.0459 0.112705,-0.0096 0.124096,-0.01894 0.103755,-0.08558 -0.01256,-0.04116 -0.02478,-0.07633 -0.02713,-0.07814 -0.01716,-0.01316 -0.431072,0.04458 -0.449116,0.06272 -0.01256,0.01263 -0.01221,0.108439 6.98e-4,0.212847 0.02264,0.182184 0.02765,0.189833 0.124309,0.189833 0.05796,0 0.109009,-0.02172 0.12024,-0.05114 0.03538,-0.09271 0.08053,-0.01583 0.0765,0.130194 -0.0021,0.07891 -0.01132,0.112655 -0.02032,0.075 -0.02554,-0.106767 -0.06276,-0.128576 -0.176558,-0.103441 -0.09328,0.0206 -0.103065,0.03383 -0.08487,0.114719 0.04841,0.21508 0.317618,0.284918 0.477693,0.123933 z m -4.416518,-0.246452 c -0.0064,-0.473762 -0.01733,-0.501412 -0.209141,-0.523609 l -0.161594,-0.01871 -0.05833,0.206978 c -0.06415,0.227597 -0.100218,0.187634 -0.04673,-0.05178 0.01845,-0.08259 0.03058,-0.152626 0.02696,-0.15565 -0.0037,-0.003 -0.05637,-0.01619 -0.117216,-0.02932 -0.102341,-0.02204 -0.110618,-0.01725 -0.110618,0.06447 0,0.118081 -0.06069,0.113313 -0.07432,-0.0059 -0.009,-0.07843 -0.02922,-0.09592 -0.12139,-0.104864 -0.07169,-0.0069 -0.110618,0.0044 -0.110618,0.03222 0,0.0277 -0.01504,0.02323 -0.04254,-0.01263 -0.03843,-0.0502 -0.424842,-0.185725 -0.449083,-0.157517 -0.01663,0.01943 -0.223131,0.704433 -0.223131,0.740408 0,0.03997 0.259762,0.109969 0.408131,0.109969 0.08621,0 0.114987,-0.02051 0.156111,-0.111249 l 0.05043,-0.11125 -0.02027,0.141063 c -0.01924,0.133806 -0.01539,0.142007 0.07556,0.159564 0.114916,0.0222 0.113873,0.02305 0.147373,-0.119184 l 0.0266,-0.112993 0.0035,0.124698 c 0.0041,0.14254 0.02144,0.153285 0.300693,0.185057 0.186878,0.02126 0.202171,0.01761 0.238247,-0.05794 l 0.03856,-0.08067 0.0023,0.09414 c 0.0021,0.08661 0.01327,0.09414 0.138459,0.09414 h 0.136141 z"
       id="path1141" />
    <g
       id="g1844"
       style="stroke-width:0.266221;stroke-miterlimit:4;stroke-dasharray:none"
       transform="matrix(1.7687617,0,0,1.7788583,-26.531468,-33.421673)">
      <path
         id="path1824"
         style="fill:#ffdf00;fill-opacity:1;stroke:#000000;stroke-width:0.266221;stroke-linecap:round;stroke-linejoin:round;stroke-miterlimit:4;stroke-dasharray:none;stroke-opacity:1"
         d="m 32.510722,37.314624 -1.48811,2.971649 2.974656,0.003 z" />
      <text
         xml:space="preserve"
         id="text1827"
         style="font-size:1.33333px;line-height:1.25;font-family:sans-serif;white-space:pre;shape-inside:url(#rect1829);stroke-width:0.12771;stroke-miterlimit:4;stroke-dasharray:none;"
         transform="matrix(2.3195191,0,0,1.8734171,-16.414467,-25.213814)" />
    </g>
    <path
       style="fill:#000000;fill-opacity:1;stroke:#000000;stroke-width:0.00433163;stroke-linecap:round;stroke-linejoin:round;stroke-miterlimit:4;stroke-dasharray:none;stroke-opacity:1"
       d="m 30.788474,36.68102 c -0.0032,-0.05956 -0.01871,-0.530625 -0.03446,-1.046811 -0.01575,-0.516186 -0.03136,-0.993748 -0.0347,-1.061249 l -0.0061,-0.122729 h 0.294662 0.294662 v 0.05114 c 0,0.07457 -0.0559,1.968085 -0.06321,2.141148 l -0.0062,0.146794 h -0.219431 -0.219431 z"
       id="path1911" />
    <path
       style="fill:#000000;fill-opacity:1;stroke:#000000;stroke-width:0.00433163;stroke-linecap:round;stroke-linejoin:round;stroke-miterlimit:4;stroke-dasharray:none;stroke-opacity:1"
       d="m 30.744274,37.453494 v -0.221395 h 0.269524 0.269524 v 0.221395 0.221394 h -0.269524 -0.269524 z"
       id="path1913" />
    <path
       style="fill:#000000;fill-opacity:1;stroke:#000000;stroke-width:0.00433163;stroke-linecap:round;stroke-linejoin:round;stroke-miterlimit:4;stroke-dasharray:none;stroke-opacity:1"
       d="m 27.795137,30.918031 c -0.03641,-0.0072 -0.06736,-0.01441 -0.06877,-0.01594 -0.0014,-0.0015 0.01644,-0.106747 0.03969,-0.233809 0.02325,-0.127061 0.0412,-0.23968 0.0399,-0.250265 -0.0013,-0.01058 -0.03694,0.08848 -0.07918,0.220138 -0.04224,0.13166 -0.08232,0.241497 -0.08906,0.244083 -0.01817,0.007 -0.10386,-0.01142 -0.102386,-0.02197 0.004,-0.02889 0.01179,-0.498338 0.0081,-0.490384 -0.0025,0.0053 -0.02373,0.115144 -0.04728,0.24411 -0.02355,0.128966 -0.04415,0.235808 -0.04577,0.237426 -0.0016,0.0016 -0.03783,-0.0035 -0.08046,-0.01135 l -0.0775,-0.01429 0.06623,-0.367479 c 0.03642,-0.202113 0.0679,-0.369157 0.06996,-0.371209 0.0021,-0.0021 0.05755,0.0061 0.123339,0.01821 l 0.119608,0.02194 -0.0035,0.05394 c -0.0089,0.135132 -0.01162,0.310788 -0.0047,0.303087 0.0042,-0.0047 0.03061,-0.08312 0.0587,-0.174332 0.0468,-0.151944 0.05275,-0.165431 0.07115,-0.161052 0.01104,0.0026 0.06465,0.01282 0.119135,0.02264 0.05448,0.0098 0.100387,0.01949 0.102005,0.02148 0.0016,0.002 -0.01792,0.118401 -0.04342,0.258698 -0.0255,0.140297 -0.05562,0.305982 -0.06693,0.368189 -0.01241,0.06825 -0.02493,0.112744 -0.03158,0.112199 -0.0061,-4.98e-4 -0.0408,-0.0068 -0.07721,-0.01406 z"
       id="path1915" />
    <path
       style="fill:#000000;fill-opacity:1;stroke:#000000;stroke-width:0.00433163;stroke-linecap:round;stroke-linejoin:round;stroke-miterlimit:4;stroke-dasharray:none;stroke-opacity:1"
       d="m 28.163783,30.981226 c -0.05687,-0.0099 -0.117191,-0.04088 -0.142717,-0.07333 -0.04203,-0.05343 -0.045,-0.0887 -0.02194,-0.260576 0.02188,-0.16306 0.03616,-0.213434 0.07107,-0.250592 0.0738,-0.07855 0.261954,-0.05954 0.33285,0.03364 0.02512,0.03302 0.0262,0.03914 0.02601,0.14761 -1.09e-4,0.06224 -0.0025,0.115419 -0.0052,0.118175 -0.0028,0.0028 -0.04598,-0.0012 -0.09606,-0.0088 -0.05008,-0.0076 -0.104572,-0.01394 -0.121097,-0.01403 l -0.03004,-1.73e-4 -0.0122,0.09217 c -0.01069,0.08073 -0.01037,0.094 0.0025,0.106873 0.02643,0.02643 0.05279,0.0076 0.06427,-0.04593 0.0057,-0.0265 0.01033,-0.05935 0.01033,-0.07301 0,-0.02477 1.54e-4,-0.02482 0.06016,-0.01804 0.11565,0.01306 0.115567,0.01302 0.108518,0.05241 -0.01803,0.100713 -0.04608,0.150723 -0.100039,0.178326 -0.0355,0.01816 -0.09458,0.02435 -0.146413,0.01534 z m 0.09506,-0.465318 c 0.0028,-0.06242 0.0022,-0.06421 -0.02063,-0.06421 -0.02673,0 -0.03196,0.0098 -0.04076,0.07607 -0.0059,0.0445 -0.0049,0.04769 0.0165,0.05168 0.03871,0.0072 0.04196,0.0026 0.04489,-0.06354 z"
       id="path1917" />
    <path
       style="fill:#000000;fill-opacity:1;stroke:#000000;stroke-width:0.00433163;stroke-linecap:round;stroke-linejoin:round;stroke-miterlimit:4;stroke-dasharray:none;stroke-opacity:1"
       d="m 28.531802,31.017228 -0.08035,-0.0093 0.0056,-0.03985 c 0.0031,-0.02192 0.01656,-0.145979 0.03001,-0.275687 0.01345,-0.129708 0.02679,-0.250281 0.02966,-0.267939 l 0.0052,-0.03211 0.04995,0.006 c 0.02747,0.0033 0.06667,0.0085 0.08711,0.01147 l 0.03716,0.0054 -0.0064,0.03984 -0.0064,0.03984 0.03178,-0.03009 c 0.03367,-0.03188 0.06633,-0.05165 0.08533,-0.05165 0.01133,0 0.01016,0.02772 -0.007,0.166045 -0.0055,0.04458 -0.0065,0.04572 -0.03877,0.04572 -0.07417,0 -0.08071,0.01528 -0.105407,0.246388 -0.01023,0.09574 -0.02086,0.15737 -0.02699,0.156556 -0.0056,-7.38e-4 -0.04627,-0.0055 -0.09047,-0.01068 z"
       id="path1919" />
    <path
       style="fill:#000000;fill-opacity:1;stroke:#000000;stroke-width:0.00433163;stroke-linecap:round;stroke-linejoin:round;stroke-miterlimit:4;stroke-dasharray:none;stroke-opacity:1"
       d="m 28.85039,31.051033 c -0.03071,-0.0021 -0.05062,-0.0081 -0.05074,-0.01506 -3.9e-4,-0.02174 0.05156,-0.598703 0.05422,-0.602177 0.0015,-0.0019 0.04174,-3.78e-4 0.08951,0.0034 l 0.08685,0.0069 -0.006,0.04473 -0.006,0.04473 0.02757,-0.03259 c 0.02311,-0.02732 0.07462,-0.05885 0.09613,-0.05885 0.0031,0 0.0034,0.01841 6.38e-4,0.04091 -0.0028,0.0225 -0.0077,0.07015 -0.01098,0.105884 l -0.0059,0.06498 h -0.03186 c -0.04263,0 -0.07158,0.02545 -0.08213,0.07219 -0.0048,0.02118 -0.01407,0.10456 -0.02065,0.185297 l -0.01196,0.146794 -0.03904,-0.0018 c -0.02147,-9.8e-4 -0.06178,-0.0034 -0.08957,-0.0053 z"
       id="path1921" />
    <path
       style="fill:#000000;fill-opacity:1;stroke:#000000;stroke-width:0.00433163;stroke-linecap:round;stroke-linejoin:round;stroke-miterlimit:4;stroke-dasharray:none;stroke-opacity:1"
       d="m 29.447192,31.099111 -0.06979,-0.0033 v -0.02931 -0.02931 l -0.02883,0.02426 c -0.05071,0.04267 -0.09857,0.0447 -0.160694,0.0068 -0.03842,-0.02344 -0.0524,-0.06957 -0.04512,-0.148918 0.01093,-0.119234 0.02335,-0.133828 0.148009,-0.174005 0.104883,-0.0338 0.105884,-0.03485 0.105884,-0.11096 v -0.06713 h -0.02767 c -0.02329,0 -0.02863,0.0048 -0.03369,0.03008 -0.0033,0.01654 -0.006,0.04749 -0.006,0.06877 v 0.03869 l -0.06497,-0.0061 c -0.03574,-0.0034 -0.07499,-0.0062 -0.08722,-0.0062 -0.02099,-6.5e-5 -0.0219,-0.0027 -0.01607,-0.04579 0.0096,-0.0708 0.02205,-0.102941 0.05057,-0.130257 0.05671,-0.05431 0.15152,-0.06968 0.249803,-0.0405 0.05823,0.01729 0.104422,0.06443 0.114194,0.116518 0.0059,0.03135 -0.0057,0.272351 -0.02156,0.448897 -0.0047,0.05225 -0.0089,0.0646 -0.02144,0.06306 -0.0086,-0.0011 -0.04701,-0.0034 -0.08539,-0.0052 z m -0.07543,-0.114477 c 0.01053,-0.02743 0.01863,-0.186414 0.0095,-0.186189 -0.02195,5.43e-4 -0.05395,0.03797 -0.06195,0.07246 -0.01234,0.05323 -0.01136,0.104286 0.0023,0.11792 0.01649,0.01649 0.0431,0.01427 0.05018,-0.0042 z"
       id="path1923" />
    <path
       style="fill:#000000;fill-opacity:1;stroke:#000000;stroke-width:0.00433163;stroke-linecap:round;stroke-linejoin:round;stroke-miterlimit:4;stroke-dasharray:none;stroke-opacity:1"
       d="m 29.851477,31.118413 c -0.04768,-0.0033 -0.05052,-0.005 -0.05028,-0.0295 1.41e-4,-0.01428 0.0065,-0.158083 0.01418,-0.319556 0.0077,-0.161474 0.01404,-0.318495 0.01418,-0.348937 l 2.56e-4,-0.05535 h 0.09758 0.09758 l -0.0059,0.07941 c -0.0032,0.04368 -0.01114,0.214776 -0.01756,0.38022 l -0.01169,0.300808 -0.04392,-0.0018 c -0.02416,-9.79e-4 -0.06666,-0.0034 -0.09446,-0.0053 z"
       id="path1925" />
    <path
       style="fill:#000000;fill-opacity:1;stroke:#000000;stroke-width:0.00433163;stroke-linecap:round;stroke-linejoin:round;stroke-miterlimit:4;stroke-dasharray:none;stroke-opacity:1"
       d="m 30.566173,30.882457 2.3e-5,-0.262304 -0.02524,-0.0029 c -0.0149,-0.0017 -0.02734,0.0026 -0.03037,0.01044 -0.0028,0.0074 -0.0083,0.12454 -0.01219,0.260418 l -0.0071,0.247053 h -0.0864 -0.08641 l 0.0035,-0.254553 c 0.0037,-0.266862 0.0014,-0.283138 -0.03769,-0.270727 -0.0268,0.0085 -0.03099,0.04047 -0.03099,0.236296 0,0.09386 -0.0028,0.197434 -0.0062,0.230171 l -0.0062,0.05952 -0.08282,-0.0028 -0.08282,-0.0028 0.003,-0.283962 c 0.0017,-0.15618 0.0052,-0.295875 0.008,-0.310434 0.0044,-0.02319 0.0094,-0.02646 0.04031,-0.02639 0.01943,4.6e-5 0.05807,0.0028 0.08587,0.0062 0.04873,0.0059 0.05054,0.0071 0.05054,0.03575 0,0.02964 2e-5,0.02965 0.01502,0.0082 0.04572,-0.06528 0.164449,-0.06589 0.209844,-0.0011 l 0.01427,0.02037 0.03685,-0.02927 c 0.04809,-0.03819 0.09411,-0.04614 0.13724,-0.02371 0.07157,0.03723 0.07113,0.03468 0.06921,0.399796 l -0.0011,0.218988 H 30.65526 30.5662 l 2.4e-5,-0.262305 z"
       id="path1927" />
    <path
       style="fill:#000000;fill-opacity:1;stroke:#000000;stroke-width:0.00433163;stroke-linecap:round;stroke-linejoin:round;stroke-miterlimit:4;stroke-dasharray:none;stroke-opacity:1"
       d="m 30.811655,30.880051 v -0.351343 h 0.09145 0.09145 v 0.02455 0.02455 l 0.03294,-0.02512 c 0.05379,-0.04102 0.09538,-0.04808 0.144195,-0.02444 0.02322,0.01124 0.04684,0.03152 0.05395,0.04632 0.01497,0.03116 0.02531,0.351078 0.01458,0.451266 -0.0056,0.05245 -0.01191,0.06954 -0.03361,0.09124 -0.04928,0.04928 -0.120623,0.04821 -0.17857,-0.0027 l -0.03348,-0.0294 v 0.07319 0.07319 h -0.09145 -0.09145 z m 0.248188,-0.02888 c 0.0015,-0.105885 3.35e-4,-0.202264 -0.0026,-0.214176 -0.0063,-0.02566 -0.04769,-0.03034 -0.05686,-0.0064 -0.0077,0.02017 -0.0076,0.383013 2e-4,0.403232 0.0039,0.01026 0.01484,0.01473 0.03128,0.01282 l 0.02524,-0.0029 z"
       id="path1929" />
    <path
       style="fill:#000000;fill-opacity:1;stroke:#000000;stroke-width:0.00433163;stroke-linecap:round;stroke-linejoin:round;stroke-miterlimit:4;stroke-dasharray:none;stroke-opacity:1"
       d="m 31.414419,31.135352 c -0.01525,-0.0049 -0.03855,-0.01882 -0.05178,-0.031 -0.04665,-0.04297 -0.05383,-0.07618 -0.05811,-0.268746 -0.0036,-0.163882 -0.0023,-0.182965 0.01543,-0.223101 0.02781,-0.06286 0.07938,-0.09466 0.163108,-0.10059 0.07768,-0.0055 0.135291,0.0084 0.175569,0.04226 0.05706,0.04801 0.06196,0.06775 0.06577,0.264733 0.0041,0.21152 -0.005,0.246758 -0.07538,0.293359 -0.03502,0.02317 -0.05117,0.027 -0.12358,0.0293 -0.04582,0.0015 -0.09578,-0.0013 -0.111028,-0.0062 z m 0.129431,-0.108507 c 0.0065,-0.01428 0.0072,-0.08688 0.0022,-0.213154 -0.0068,-0.169485 -0.0096,-0.19272 -0.02505,-0.202143 -0.01391,-0.0085 -0.02017,-0.0069 -0.03118,0.0079 -0.01134,0.01528 -0.01271,0.05168 -0.0077,0.206956 0.0033,0.10363 0.0099,0.195999 0.01467,0.205264 0.01202,0.02342 0.03535,0.02104 0.0471,-0.0048 z"
       id="path1931" />
    <path
       style="fill:#000000;fill-opacity:1;stroke:#000000;stroke-width:0.00433163;stroke-linecap:round;stroke-linejoin:round;stroke-miterlimit:4;stroke-dasharray:none;stroke-opacity:1"
       d="m 31.79378,30.82193 c -0.0068,-0.166969 -0.01075,-0.305009 -0.0087,-0.306756 0.002,-0.0017 0.04133,-0.0054 0.08739,-0.0082 l 0.08374,-0.005 0.0029,0.0436 0.0029,0.0436 0.02407,-0.03717 c 0.02259,-0.03489 0.07058,-0.07171 0.08028,-0.06159 0.0024,0.0025 0.0075,0.05112 0.01132,0.108034 l 0.007,0.103478 h -0.03046 c -0.01999,0 -0.03909,0.0086 -0.05554,0.02507 l -0.02507,0.02507 0.0066,0.186698 0.0066,0.186697 H 31.8965 31.8062 Z"
       id="path1933" />
    <path
       style="fill:#000000;fill-opacity:1;stroke:#000000;stroke-width:0.00433163;stroke-linecap:round;stroke-linejoin:round;stroke-miterlimit:4;stroke-dasharray:none;stroke-opacity:1"
       d="m 32.231304,31.091484 c -0.01597,-0.0079 -0.03455,-0.02316 -0.04129,-0.03394 -0.0093,-0.01493 -0.03712,-0.330083 -0.04017,-0.455355 -1.11e-4,-0.0046 -0.0089,-0.0061 -0.01945,-0.0033 -0.01566,0.0041 -0.01928,2.69e-4 -0.01938,-0.02054 -7.3e-5,-0.01406 -0.0027,-0.03532 -0.0059,-0.04723 -0.0049,-0.01818 -0.002,-0.02166 0.01797,-0.02166 0.02263,0 0.02356,-0.0022 0.01929,-0.04671 -0.0044,-0.04619 -0.0041,-0.04678 0.02668,-0.05294 0.01714,-0.0034 0.05878,-0.0062 0.09253,-0.0062 h 0.06137 v 0.04813 c 0,0.04706 6.41e-4,0.04813 0.02888,0.04813 0.02781,0 0.02888,0.0016 0.02888,0.04332 0,0.03979 -0.002,0.04332 -0.02407,0.04332 -0.02838,0 -0.02718,-0.0195 -0.01333,0.216537 0.0059,0.100615 0.0151,0.18835 0.02043,0.194968 0.0053,0.0066 0.02,0.01203 0.03258,0.01203 0.0206,0 0.02289,0.0042 0.02289,0.04197 v 0.04198 l -0.05054,0.0061 c -0.0758,0.0091 -0.10531,0.0073 -0.137331,-0.0085 z"
       id="path1935" />
    <path
       style="fill:#000000;fill-opacity:1;stroke:#000000;stroke-width:0.00433163;stroke-linecap:round;stroke-linejoin:round;stroke-miterlimit:4;stroke-dasharray:none;stroke-opacity:1"
       d="m 32.574342,31.086518 c -0.04902,-0.01 -0.08161,-0.02927 -0.10207,-0.06049 -0.01437,-0.02193 -0.04014,-0.128504 -0.03282,-0.135735 0.0021,-0.0021 0.03952,-0.0068 0.0832,-0.01064 l 0.07941,-0.0069 v 0.04038 c 0,0.04853 0.01384,0.07762 0.03692,0.07762 0.02588,0 0.04009,-0.01967 0.04009,-0.0555 0,-0.05145 -0.01516,-0.06787 -0.09978,-0.108072 -0.137761,-0.06545 -0.160118,-0.0948 -0.160118,-0.210228 0,-0.0774 0.01596,-0.104935 0.08032,-0.138542 0.05608,-0.02928 0.177764,-0.03042 0.231635,-0.0022 0.04566,0.02395 0.07308,0.07157 0.07308,0.126906 v 0.04106 l -0.04091,1.06e-4 c -0.0225,5.9e-5 -0.05653,0.0027 -0.07563,0.0058 l -0.03472,0.0057 -0.0065,-0.04917 c -0.0062,-0.04654 -0.008,-0.04917 -0.03488,-0.04917 -0.03365,0 -0.04446,0.0267 -0.03133,0.07738 0.0087,0.03374 0.02621,0.04593 0.135398,0.09445 0.07267,0.03229 0.103274,0.06143 0.117353,0.11171 0.01606,0.05738 0.0084,0.143303 -0.01565,0.176491 -0.03996,0.05505 -0.153139,0.08714 -0.242976,0.0689 z"
       id="path1937" />
    <path
       style="fill:#000000;fill-opacity:1;stroke:#000000;stroke-width:0.00433163;stroke-linecap:round;stroke-linejoin:round;stroke-miterlimit:4;stroke-dasharray:none;stroke-opacity:1"
       d="m 33.060162,30.975709 c -0.0037,-0.04059 -0.0054,-0.07486 -0.0038,-0.07617 0.0016,-0.0013 0.03154,-0.0049 0.06654,-0.008 l 0.06364,-0.0057 0.0064,0.06859 c 0.0073,0.07856 0.0035,0.08407 -0.05826,0.0843 -0.02207,8.1e-5 -0.04636,0.0025 -0.05398,0.0055 -0.01099,0.0042 -0.01524,-0.0099 -0.02054,-0.06848 z"
       id="path1939" />
    <path
       style="fill:#000000;fill-opacity:1;stroke:#000000;stroke-width:0.00433163;stroke-linecap:round;stroke-linejoin:round;stroke-miterlimit:4;stroke-dasharray:none;stroke-opacity:1"
       d="m 33.392764,30.662199 c -0.02274,-0.187246 -0.04211,-0.355525 -0.04303,-0.373953 l -0.0017,-0.03351 0.08663,-0.01095 c 0.04765,-0.006 0.08917,-0.0083 0.09227,-0.005 0.0031,0.0033 0.02386,0.159724 0.04614,0.347669 0.02227,0.187944 0.0427,0.353102 0.0454,0.367017 0.0058,0.02983 -0.0023,0.03291 -0.111908,0.04269 l -0.07249,0.0065 z"
       id="path1941" />
    <path
       style="fill:#000000;fill-opacity:1;stroke:#000000;stroke-width:0.00433163;stroke-linecap:round;stroke-linejoin:round;stroke-miterlimit:4;stroke-dasharray:none;stroke-opacity:1"
       d="m 33.658824,30.670811 c -0.0301,-0.202927 -0.04131,-0.302722 -0.03447,-0.30695 0.0056,-0.0034 0.03232,-0.0091 0.05944,-0.01249 0.02712,-0.0034 0.06338,-0.0087 0.08059,-0.01177 0.03,-0.0053 0.03128,-0.0043 0.03128,0.02564 v 0.03119 l 0.03656,-0.0412 c 0.03306,-0.03725 0.04163,-0.04161 0.08948,-0.04558 0.04679,-0.0039 0.05648,-0.0014 0.08358,0.02141 0.01779,0.01497 0.03487,0.04146 0.0407,0.06311 0.01055,0.03918 0.07695,0.470194 0.07695,0.499498 0,0.01395 -0.01471,0.01918 -0.08235,0.02924 -0.04529,0.0067 -0.08462,0.01 -0.0874,0.0072 -0.0028,-0.0028 -0.02044,-0.108304 -0.03925,-0.234503 -0.01881,-0.126199 -0.03785,-0.239198 -0.04231,-0.25111 -0.0055,-0.0146 -0.01604,-0.02166 -0.03242,-0.02166 -0.02221,0 -0.02428,0.0035 -0.0241,0.04091 1.1e-4,0.0225 0.01508,0.138342 0.03327,0.257426 0.01819,0.119084 0.03001,0.219266 0.02627,0.222627 -0.0056,0.0051 -0.139739,0.02771 -0.164013,0.02771 -0.004,0 -0.02729,-0.135309 -0.05183,-0.300686 z"
       id="path1943" />
    <path
       style="fill:#000000;fill-opacity:1;stroke:#000000;stroke-width:0.00433163;stroke-linecap:round;stroke-linejoin:round;stroke-miterlimit:4;stroke-dasharray:none;stroke-opacity:1"
       d="m 34.257601,30.85358 c -0.05888,-0.02987 -0.08056,-0.07739 -0.115294,-0.252721 -0.04056,-0.204725 -0.03775,-0.245698 0.02063,-0.300168 0.0662,-0.06176 0.198829,-0.08055 0.272817,-0.03865 0.04339,0.02457 0.07775,0.07882 0.08714,0.137573 l 0.0062,0.03881 -0.08212,0.01432 -0.08212,0.01432 -0.0064,-0.04624 c -0.0076,-0.05502 -0.03095,-0.08866 -0.05516,-0.07937 -0.02286,0.0088 -0.02158,0.0299 0.01297,0.215374 0.03451,0.18523 0.04277,0.207722 0.07628,0.207722 0.02231,0 0.02393,-0.0033 0.02392,-0.04813 -7e-6,-0.02647 -0.0031,-0.06193 -0.0069,-0.07881 -0.0068,-0.03065 -0.0068,-0.03069 0.04449,-0.04133 0.106806,-0.02217 0.105629,-0.02264 0.115323,0.04547 0.01033,0.07254 -0.0073,0.12923 -0.05452,0.175403 -0.05878,0.05747 -0.181618,0.07486 -0.257353,0.03643 z"
       id="path1945" />
    <path
       style="fill:#000000;fill-opacity:1;stroke:#000000;stroke-width:0.00433163;stroke-linecap:round;stroke-linejoin:round;stroke-miterlimit:4;stroke-dasharray:none;stroke-opacity:1"
       d="m 27.52443,27.906377 c -0.06199,-0.02003 -0.278486,-0.103765 -0.286359,-0.11076 -0.0059,-0.0052 0.228033,-0.805523 0.238939,-0.817604 0.005,-0.0055 0.184042,0.06506 0.255185,0.100545 0.104594,0.05217 0.145646,0.116824 0.129344,0.203721 -0.01193,0.06358 -0.148908,0.51184 -0.170347,0.557451 -0.03417,0.07269 -0.08508,0.09304 -0.166762,0.06665 z m 0.03766,-0.287274 c 0.0758,-0.245405 0.111538,-0.370364 0.111538,-0.390035 0,-0.02002 -0.04321,-0.05829 -0.05382,-0.04767 -0.0052,0.0052 -0.167464,0.535936 -0.167532,0.547923 -5.9e-5,0.01044 0.04168,0.01449 0.05985,0.0058 0.01054,-0.005 0.02874,-0.04729 0.04997,-0.116021 z"
       id="path1947" />
    <path
       style="fill:#000000;fill-opacity:1;stroke:#000000;stroke-width:0.00433163;stroke-linecap:round;stroke-linejoin:round;stroke-miterlimit:4;stroke-dasharray:none;stroke-opacity:1"
       d="m 28.080998,28.06614 c -0.03272,-0.0088 -0.06161,-0.01827 -0.06421,-0.02094 -0.0026,-0.0027 -0.01,-0.09363 -0.01642,-0.202143 -0.0064,-0.108511 -0.01439,-0.200359 -0.01769,-0.204108 -0.0033,-0.0037 -0.02264,0.07963 -0.04298,0.185297 -0.02034,0.105663 -0.0398,0.192169 -0.04324,0.192237 -0.02602,5.14e-4 -0.145826,-0.03464 -0.145839,-0.04279 -3.9e-5,-0.02588 0.157395,-0.819794 0.164014,-0.827094 0.0041,-0.0045 0.0399,-6.08e-4 0.07953,0.0087 l 0.07205,0.01699 0.0054,0.04421 c 0.003,0.02431 0.01055,0.113514 0.01683,0.198221 0.0063,0.08471 0.01456,0.157549 0.0184,0.161869 0.0038,0.0043 0.02319,-0.0769 0.04301,-0.180484 0.01981,-0.103587 0.0388,-0.188396 0.0422,-0.188464 0.0034,-6.7e-5 0.03758,0.0072 0.07596,0.0162 0.05929,0.01387 0.0697,0.01932 0.06919,0.03622 -3.3e-4,0.01094 -0.03617,0.19966 -0.07964,0.41937 -0.08947,0.452174 -0.07242,0.414848 -0.176576,0.386682 z"
       id="path1949" />
    <path
       style="fill:#000000;fill-opacity:1;stroke:#000000;stroke-width:0.00433163;stroke-linecap:round;stroke-linejoin:round;stroke-miterlimit:4;stroke-dasharray:none;stroke-opacity:1"
       d="m 28.636215,28.173859 c -0.130002,-0.02239 -0.118891,-0.01248 -0.111318,-0.0993 0.0036,-0.04158 0.0031,-0.07775 -0.0012,-0.08038 -0.0043,-0.0026 -0.02296,-0.0063 -0.04149,-0.0081 l -0.03369,-0.0034 -0.01444,0.06903 c -0.0079,0.03797 -0.01715,0.07172 -0.02046,0.07501 -0.0051,0.005 -0.180654,-0.02172 -0.189499,-0.0289 -0.0043,-0.0035 0.211445,-0.826373 0.218489,-0.833123 0.0033,-0.0031 0.0675,0.0054 0.142775,0.01892 l 0.136866,0.02458 -0.0058,0.438307 c -0.0032,0.241069 -0.0063,0.438641 -0.0069,0.439047 -5.91e-4,4.07e-4 -0.03356,-0.0049 -0.07327,-0.01169 z m -0.07269,-0.643391 c 0.0035,-0.03962 0.0023,-0.06331 -0.0027,-0.05776 -0.01331,0.01458 -0.09109,0.339372 -0.08504,0.355122 0.0029,0.0077 0.01968,0.01534 0.03719,0.01702 l 0.03184,0.0031 0.0064,-0.125136 c 0.0035,-0.06882 0.0091,-0.155362 0.0123,-0.192306 z"
       id="path1951" />
    <path
       style="fill:#000000;fill-opacity:1;stroke:#000000;stroke-width:0.00433163;stroke-linecap:round;stroke-linejoin:round;stroke-miterlimit:4;stroke-dasharray:none;stroke-opacity:1"
       d="m 29.129834,28.25594 c -0.05872,-0.0075 -0.127821,-0.04499 -0.156188,-0.08482 -0.02732,-0.03836 -0.04018,-0.114903 -0.03276,-0.194829 0.0061,-0.06552 0.0066,-0.06663 0.03125,-0.06185 0.01378,0.0027 0.05423,0.0077 0.0899,0.01119 0.03567,0.0035 0.06297,0.0094 0.06067,0.0131 -0.0023,0.0037 -0.0052,0.04253 -0.0065,0.08622 -0.0024,0.07978 0.004,0.09673 0.03675,0.09716 0.03572,4.64e-4 0.06267,-0.10277 0.04157,-0.159243 -0.0058,-0.01557 -0.05134,-0.06946 -0.101147,-0.11976 -0.04981,-0.0503 -0.09724,-0.10755 -0.105392,-0.127233 -0.01921,-0.04638 -0.01936,-0.171648 -2.83e-4,-0.235896 0.02637,-0.0888 0.109076,-0.136239 0.215717,-0.123729 0.07031,0.0082 0.124412,0.03369 0.161518,0.07595 0.0352,0.04009 0.0438,0.07397 0.03956,0.155825 l -0.003,0.05776 -0.06738,-0.0021 c -0.111103,-0.0035 -0.113524,-0.0049 -0.105906,-0.06027 0.0084,-0.06124 8.4e-5,-0.0868 -0.02833,-0.0868 -0.02821,0 -0.03976,0.01485 -0.04669,0.06001 -0.0096,0.06266 0.0065,0.09232 0.09426,0.173701 0.04515,0.04186 0.09395,0.09628 0.108447,0.120932 0.02416,0.0411 0.02629,0.05283 0.02563,0.141085 -3.97e-4,0.05294 -0.0058,0.114102 -0.01206,0.135912 -0.02821,0.09862 -0.112985,0.143813 -0.239596,0.12773 z"
       id="path1953" />
    <path
       style="fill:#000000;fill-opacity:1;stroke:#000000;stroke-width:0.00433163;stroke-linecap:round;stroke-linejoin:round;stroke-miterlimit:4;stroke-dasharray:none;stroke-opacity:1"
       d="m 29.727018,28.298029 -0.05948,-0.0034 0.0054,-0.03325 c 0.0066,-0.04072 -7.9e-4,-0.04181 -0.03202,-0.0047 -0.04457,0.05297 -0.132616,0.04727 -0.182333,-0.01182 -0.02473,-0.02939 -0.02526,-0.03283 -0.02197,-0.143042 0.0044,-0.146115 0.0092,-0.153241 0.142395,-0.20755 0.0543,-0.02215 0.10155,-0.04308 0.104989,-0.04651 0.0034,-0.0034 0.0063,-0.03894 0.0063,-0.0789 0,-0.05826 -0.0033,-0.07476 -0.01658,-0.08322 -0.02638,-0.0168 -0.03921,0.0053 -0.04735,0.0815 -0.004,0.03774 -0.0094,0.07068 -0.01193,0.07321 -0.0025,0.0025 -0.0408,0.0016 -0.08505,-0.0021 l -0.08046,-0.0067 0.0068,-0.07144 c 0.008,-0.08361 0.0278,-0.122726 0.081,-0.15988 0.04677,-0.03267 0.108533,-0.04198 0.180019,-0.02714 0.07272,0.0151 0.113211,0.04397 0.141393,0.100826 l 0.02347,0.04735 -0.0119,0.222154 c -0.0065,0.122185 -0.01449,0.253559 -0.01767,0.291942 l -0.0058,0.06979 -0.02987,-0.0019 c -0.01643,-0.001 -0.05664,-0.0034 -0.08936,-0.0053 z m -0.05683,-0.149311 c 0.01112,-0.07136 0.01645,-0.199736 0.0083,-0.199736 -0.0048,0 -0.02134,0.0132 -0.0368,0.02934 -0.02493,0.02602 -0.02852,0.03744 -0.03173,0.101021 -0.0044,0.08615 1.79e-4,0.100661 0.03143,0.100661 0.01958,0 0.02482,-0.0057 0.02881,-0.03128 z"
       id="path1955" />
    <path
       style="fill:#000000;fill-opacity:1;stroke:#000000;stroke-width:0.00433163;stroke-linecap:round;stroke-linejoin:round;stroke-miterlimit:4;stroke-dasharray:none;stroke-opacity:1"
       d="m 30.429048,28.033208 0.0024,-0.300808 -0.02524,-0.0029 c -0.01588,-0.0018 -0.02734,0.0026 -0.03092,0.01186 -0.0031,0.0081 -0.0082,0.106913 -0.01117,0.219509 -0.003,0.112595 -0.0079,0.240454 -0.01086,0.284131 l -0.0054,0.07941 h -0.08637 -0.08637 l 0.003,-0.300808 c 0.003,-0.298784 0.0029,-0.300827 -0.01708,-0.303679 -0.03701,-0.0053 -0.04151,0.01569 -0.04722,0.219987 -0.003,0.108238 -0.0079,0.236863 -0.0109,0.285835 l -0.0054,0.08904 h -0.08703 -0.08703 l 0.0063,-0.252679 c 0.0035,-0.138973 0.0089,-0.299398 0.01219,-0.3565 l 0.0059,-0.103823 0.08778,0.0028 0.08778,0.0028 -0.0028,0.0385 -0.0028,0.0385 0.02685,-0.03031 c 0.03524,-0.03979 0.06019,-0.05151 0.109686,-0.05151 0.03576,0 0.04589,0.0053 0.08218,0.0432 0.03937,0.0411 0.0419,0.04224 0.05191,0.02355 0.01656,-0.03093 0.0678,-0.05705 0.112026,-0.05709 0.05211,-4.6e-5 0.09506,0.03471 0.109591,0.08868 0.01025,0.03806 0.0052,0.527818 -0.0062,0.601935 l -0.0048,0.03128 h -0.08618 -0.08618 z"
       id="path1957" />
    <path
       style="fill:#000000;fill-opacity:1;stroke:#000000;stroke-width:0.00433163;stroke-linecap:round;stroke-linejoin:round;stroke-miterlimit:4;stroke-dasharray:none;stroke-opacity:1"
       d="m 30.676893,28.030801 v -0.409098 h 0.09626 0.09626 v 0.03471 0.03471 l 0.02775,-0.0297 c 0.05729,-0.06133 0.12142,-0.06607 0.174574,-0.01292 0.04722,0.04722 0.05078,0.07593 0.04629,0.373474 -0.003,0.196827 -0.0059,0.234752 -0.02036,0.26142 -0.02643,0.04882 -0.06008,0.06474 -0.129563,0.06132 -0.0119,-5.86e-4 -0.03897,-0.01673 -0.06016,-0.03588 l -0.03853,-0.03481 v 0.08294 0.08294 h -0.09626 -0.09626 z m 0.255232,0.156389 c 0.01041,-0.06942 0.0012,-0.438047 -0.01121,-0.450471 -0.0061,-0.0061 -0.02016,-0.0082 -0.03128,-0.0046 -0.01983,0.0063 -0.02022,0.01106 -0.02022,0.244811 0,0.131116 0.0029,0.241281 0.0064,0.24481 0.0035,0.0035 0.01626,0.0064 0.02829,0.0064 0.01835,0 0.02286,-0.0066 0.02801,-0.04094 z"
       id="path1961" />
    <path
       style="fill:#000000;fill-opacity:1;stroke:#000000;stroke-width:0.00433163;stroke-linecap:round;stroke-linejoin:round;stroke-miterlimit:4;stroke-dasharray:none;stroke-opacity:1"
       d="m 31.182728,27.90529 c -0.0039,-0.236164 -0.0042,-0.432319 -5.85e-4,-0.435901 0.0036,-0.0036 0.04471,-0.008 0.0914,-0.0098 0.07594,-0.003 0.08542,-0.0015 0.08985,0.01444 0.0027,0.0098 0.0064,0.206194 0.0082,0.436492 l 0.0032,0.418725 -0.09248,0.0027 -0.09248,0.0027 z"
       id="path1963" />
    <path
       style="fill:#000000;fill-opacity:1;stroke:#000000;stroke-width:0.00433163;stroke-linecap:round;stroke-linejoin:round;stroke-miterlimit:4;stroke-dasharray:none;stroke-opacity:1"
       d="m 31.6106,28.32528 c -0.06836,-0.01435 -0.108446,-0.04474 -0.139285,-0.105575 -0.0354,-0.06984 -0.0443,-0.454806 -0.01195,-0.51716 0.05387,-0.103847 0.202584,-0.139523 0.312668,-0.07501 0.06139,0.03598 0.08853,0.09932 0.09775,0.228115 0.0039,0.05398 0.0061,0.09947 0.0049,0.10109 -0.0011,0.0016 -0.05672,0.0055 -0.123478,0.0087 l -0.121387,0.0057 v 0.08878 c 0,0.127017 0.0057,0.148941 0.03868,0.148941 0.03377,0 0.03833,-0.01253 0.03833,-0.105364 v -0.07491 l 0.04466,-0.0061 c 0.02456,-0.0034 0.06355,-0.0061 0.08663,-0.0061 h 0.04197 l -2.12e-4,0.0746 c -2.17e-4,0.07666 -0.01964,0.139092 -0.05567,0.178929 -0.04012,0.04436 -0.141272,0.07059 -0.213646,0.05539 z m 0.07701,-0.505044 c 0,-0.08687 -0.01646,-0.119754 -0.05294,-0.105755 -0.01103,0.0042 -0.01444,0.02233 -0.01444,0.0767 v 0.07116 h 0.03369 c 0.03337,0 0.03369,-4.01e-4 0.03369,-0.04211 z"
       id="path1965" />
    <path
       style="fill:#000000;fill-opacity:1;stroke:#000000;stroke-width:0.00433163;stroke-linecap:round;stroke-linejoin:round;stroke-miterlimit:4;stroke-dasharray:none;stroke-opacity:1"
       d="m 32.531271,28.218302 c -0.0034,-0.0171 -0.0062,-0.05065 -0.0062,-0.07458 v -0.04349 l -0.08748,0.0066 c -0.04811,0.0036 -0.09948,0.009 -0.114145,0.01194 -0.02208,0.0044 -0.02771,0.0014 -0.03271,-0.01725 -0.01577,-0.05889 -0.003,-0.16904 0.04992,-0.431491 l 0.0553,-0.274141 0.0429,-0.0074 c 0.0236,-0.0041 0.07966,-0.0085 0.124582,-0.0098 l 0.08168,-0.0024 0.02104,0.245459 c 0.01157,0.135003 0.02138,0.262244 0.0218,0.282759 7.25e-4,0.03582 0.0019,0.03708 0.02839,0.03177 0.02662,-0.0053 0.02786,-0.0039 0.03369,0.03864 0.01168,0.08518 0.0089,0.09924 -0.01944,0.09924 h -0.02549 l 0.0059,0.07647 c 0.0068,0.08842 0.01332,0.08243 -0.100305,0.09238 l -0.0732,0.0064 z m -0.02658,-0.265098 c 0.002,-0.002 -0.0013,-0.06547 -0.0074,-0.141081 -0.01398,-0.172751 -0.02161,-0.240493 -0.02651,-0.235584 -0.0021,0.0021 -0.016,0.09149 -0.03085,0.198612 l -0.02701,0.194766 0.04405,-0.0066 c 0.02423,-0.0036 0.04571,-0.0082 0.04775,-0.01016 z"
       id="path1967" />
    <path
       style="fill:#000000;fill-opacity:1;stroke:#000000;stroke-width:0.00433163;stroke-linecap:round;stroke-linejoin:round;stroke-miterlimit:4;stroke-dasharray:none;stroke-opacity:1"
       d="m 31.935923,27.82725 c -0.0022,-0.04687 -0.0038,-0.08571 -0.0034,-0.08629 3.19e-4,-5.88e-4 0.03198,-0.0039 0.07037,-0.0073 l 0.06979,-0.0062 v 0.0867 0.0867 h -0.0373 c -0.02052,0 -0.05037,0.0026 -0.06635,0.0058 l -0.02905,0.0058 z"
       id="path1969" />
    <path
       style="fill:#000000;fill-opacity:1;stroke:#000000;stroke-width:0.00433163;stroke-linecap:round;stroke-linejoin:round;stroke-miterlimit:4;stroke-dasharray:none;stroke-opacity:1"
       d="m 31.957131,28.214459 v -0.08105 l 0.063,-0.0067 c 0.03465,-0.0037 0.0644,-0.0051 0.06611,-0.0032 0.0017,0.002 0.0054,0.04148 0.0081,0.0878 l 0.005,0.08423 h -0.07113 -0.07113 z"
       id="path1971" />
    <path
       style="fill:#000000;fill-opacity:1;stroke:#000000;stroke-width:0.00433163;stroke-linecap:round;stroke-linejoin:round;stroke-miterlimit:4;stroke-dasharray:none;stroke-opacity:1"
       d="m 32.771544,27.908553 c -0.0027,-0.01747 -0.0072,-0.04965 -0.01008,-0.07152 l -0.0052,-0.03975 0.0713,-0.01061 c 0.03922,-0.0058 0.09482,-0.01337 0.123565,-0.01675 l 0.05226,-0.0061 0.0061,0.06567 c 0.0038,0.0409 0.0024,0.06795 -0.0037,0.07173 -0.0054,0.0033 -0.05188,0.01137 -0.103298,0.01787 -0.05142,0.0065 -0.100837,0.01394 -0.109812,0.01654 -0.01243,0.0036 -0.01747,-0.0028 -0.02116,-0.02704 z"
       id="path1973" />
    <path
       style="fill:#000000;fill-opacity:1;stroke:#000000;stroke-width:0.00433163;stroke-linecap:round;stroke-linejoin:round;stroke-miterlimit:4;stroke-dasharray:none;stroke-opacity:1"
       d="m 33.055576,27.757264 c -0.03273,-0.230738 -0.05936,-0.424158 -0.05918,-0.429822 4.46e-4,-0.01411 0.223071,-0.05227 0.304939,-0.05227 0.08837,0 0.126236,0.02557 0.155049,0.104709 0.01321,0.03629 0.08901,0.544113 0.08901,0.596338 0,0.04591 -0.02571,0.09437 -0.06195,0.116768 -0.02535,0.01567 -0.181494,0.05183 -0.343316,0.07952 l -0.02505,0.0043 z m 0.275644,0.227548 c 0.0069,-0.0053 0.01197,-0.0304 0.01189,-0.05867 -2.13e-4,-0.07295 -0.06319,-0.47567 -0.07698,-0.492291 -0.0065,-0.0079 -0.02441,-0.01429 -0.03975,-0.01429 -0.02392,0 -0.0272,0.0031 -0.02308,0.02166 0.0026,0.01191 0.02018,0.132114 0.03898,0.267117 0.04326,0.310735 0.04074,0.298642 0.06071,0.291544 0.0089,-0.0032 0.02162,-0.0099 0.02823,-0.01507 z"
       id="path1975" />
    <path
       style="fill:#000000;fill-opacity:1;stroke:#000000;stroke-width:0.00433163;stroke-linecap:round;stroke-linejoin:round;stroke-miterlimit:4;stroke-dasharray:none;stroke-opacity:1"
       d="m 33.735061,28.040514 c -0.06387,-0.01629 -0.09947,-0.05362 -0.122626,-0.128593 -0.01051,-0.03403 -0.02164,-0.07771 -0.02474,-0.09706 l -0.0056,-0.03519 0.07552,-0.01773 c 0.04153,-0.0097 0.0802,-0.01948 0.08593,-0.02164 0.0062,-0.0023 0.0153,0.02338 0.02253,0.06389 0.01423,0.07964 0.0352,0.111913 0.06629,0.102046 0.02809,-0.0089 0.03518,-0.04289 0.02115,-0.101371 -0.01652,-0.06887 -0.03595,-0.08809 -0.131654,-0.130259 -0.157351,-0.06933 -0.183116,-0.09483 -0.209692,-0.207584 -0.03688,-0.15647 -0.0057,-0.235701 0.113387,-0.288373 0.127927,-0.05657 0.259418,-0.02024 0.280909,0.0776 0.01061,0.04831 0.0209,0.03984 0.01647,-0.01355 -0.0052,-0.06241 0.01877,-0.115239 0.07221,-0.159318 0.07764,-0.06404 0.206512,-0.08756 0.269464,-0.04917 0.03156,0.01924 0.06994,0.08329 0.08696,0.145106 l 0.0094,0.0341 -0.08104,0.03194 c -0.04457,0.01756 -0.08223,0.03038 -0.08369,0.02847 -0.0015,-0.0019 -0.01099,-0.02724 -0.02119,-0.05629 -0.01975,-0.05631 -0.03932,-0.06925 -0.06535,-0.04323 -0.02133,0.02133 -0.01959,0.05042 0.0061,0.101087 0.02349,0.04642 0.02181,0.04554 0.173295,0.09077 0.05395,0.01611 0.09585,0.03534 0.116486,0.05345 0.03946,0.03465 0.07883,0.119811 0.09957,0.2154 l 0.01556,0.07172 -0.02656,0.05429 c -0.03184,0.06507 -0.09542,0.11197 -0.182213,0.134401 -0.124671,0.03222 -0.197497,-0.01896 -0.245573,-0.172591 l -0.01805,-0.05769 0.07771,-0.03135 c 0.04274,-0.01724 0.08074,-0.03135 0.08444,-0.03135 0.0037,0 0.0095,0.01101 0.01286,0.02446 0.0034,0.01345 0.01499,0.0481 0.0258,0.07701 0.01573,0.04204 0.02395,0.05255 0.04111,0.05255 0.04804,0 0.05575,-0.03674 0.02496,-0.119028 -0.02239,-0.05984 -0.03289,-0.06664 -0.164682,-0.106573 -0.127213,-0.03855 -0.178447,-0.08294 -0.203427,-0.176278 -0.01298,-0.04851 -0.02162,-0.05269 -0.02149,-0.0104 9.2e-5,0.03005 -0.0011,0.03083 -0.07922,0.05219 -0.04362,0.01193 -0.08095,0.01877 -0.08296,0.01522 -0.002,-0.0036 -0.0068,-0.02371 -0.01058,-0.04479 -0.0093,-0.0516 -0.02164,-0.07237 -0.04289,-0.07237 -0.02822,0 -0.04241,0.02512 -0.03676,0.06507 0.0096,0.06786 0.02339,0.0888 0.07198,0.109309 0.151016,0.06374 0.20596,0.09664 0.233269,0.139704 0.03234,0.05099 0.06077,0.159573 0.06181,0.236034 10e-4,0.07671 -0.03447,0.12674 -0.119777,0.16874 -0.07339,0.03614 -0.122277,0.04332 -0.185336,0.02724 z"
       id="path1977" />
    <path
       style="fill:#000000;fill-opacity:1;stroke:#000000;stroke-width:0.00433163;stroke-linecap:round;stroke-linejoin:round;stroke-miterlimit:4;stroke-dasharray:none;stroke-opacity:1"
       d="m 33.735061,28.040514 c -0.02539,-0.0065 -0.05884,-0.02392 -0.07433,-0.03876 -0.02861,-0.02741 -0.06142,-0.110123 -0.07267,-0.183157 l -0.006,-0.03893 0.07552,-0.01773 c 0.04153,-0.0097 0.08011,-0.01945 0.08572,-0.02155 0.0059,-0.0022 0.01551,0.02381 0.02274,0.06147 0.01972,0.102705 0.0455,0.130333 0.08297,0.08892 0.01608,-0.01777 0.0167,-0.02506 0.0063,-0.0746 -0.0063,-0.0302 -0.0193,-0.06541 -0.02886,-0.07824 -0.0096,-0.01284 -0.05614,-0.04114 -0.103513,-0.0629 -0.130839,-0.06009 -0.146872,-0.07022 -0.172387,-0.108957 -0.04788,-0.07268 -0.06935,-0.232006 -0.03914,-0.290425 0.05044,-0.09754 0.217302,-0.153397 0.319561,-0.106968 0.04241,0.01926 0.06502,0.046 0.07574,0.08963 0.01037,0.04218 0.01915,0.03071 0.01561,-0.02038 -0.006,-0.08643 0.05529,-0.164397 0.160031,-0.203614 0.09435,-0.03532 0.181179,-0.02114 0.221318,0.03615 0.01778,0.02538 0.06357,0.137697 0.05781,0.1418 -0.0064,0.0045 -0.157251,0.06299 -0.162454,0.06295 -0.0031,-2.8e-5 -0.01114,-0.01846 -0.01779,-0.04096 -0.01186,-0.04011 -0.03475,-0.0746 -0.04951,-0.0746 -0.0041,0 -0.01461,0.0072 -0.02337,0.01592 -0.02824,0.02824 0.0038,0.130229 0.04629,0.147567 0.01166,0.0048 0.06531,0.02193 0.119217,0.03817 0.05974,0.018 0.110079,0.03967 0.128894,0.0555 0.03893,0.03276 0.08087,0.120685 0.101241,0.212251 0.01474,0.06626 0.01469,0.07354 -8.76e-4,0.114289 -0.03436,0.08996 -0.140145,0.159061 -0.245013,0.160049 -0.09157,8.63e-4 -0.140902,-0.03992 -0.181754,-0.150244 -0.03563,-0.09621 -0.03982,-0.0861 0.04981,-0.12014 0.04427,-0.01682 0.08283,-0.03057 0.0857,-0.03057 0.0029,0 0.008,0.01101 0.01135,0.02446 0.0034,0.01345 0.01499,0.0481 0.0258,0.07701 0.01573,0.04204 0.02395,0.05255 0.04111,0.05255 0.04584,0 0.05487,-0.03368 0.0292,-0.109 -0.01995,-0.05855 -0.04681,-0.0784 -0.147361,-0.108907 -0.145652,-0.04419 -0.179374,-0.06946 -0.217325,-0.162839 -0.02068,-0.05087 -0.02293,-0.05328 -0.02586,-0.0276 -0.003,0.02654 -0.0077,0.0293 -0.08258,0.04894 -0.04365,0.01144 -0.08099,0.01794 -0.08296,0.01444 -0.002,-0.0035 -0.0067,-0.02361 -0.01052,-0.0447 -0.0093,-0.0516 -0.02164,-0.07237 -0.04289,-0.07237 -0.02957,0 -0.04245,0.02484 -0.03548,0.06844 0.01085,0.06788 0.02858,0.09056 0.08957,0.114608 0.203148,0.0801 0.242446,0.125494 0.27273,0.315066 0.01774,0.11105 -0.02034,0.181139 -0.122852,0.226094 -0.07006,0.03073 -0.120084,0.03685 -0.178781,0.02188 z"
       id="path1979" />
  </g>
</svg>
