<?xml version="1.0" encoding="UTF-8" standalone="no"?>
<svg
   xmlns:dc="http://purl.org/dc/elements/1.1/"
   xmlns:cc="http://creativecommons.org/ns#"
   xmlns:rdf="http://www.w3.org/1999/02/22-rdf-syntax-ns#"
   xmlns:svg="http://www.w3.org/2000/svg"
   xmlns="http://www.w3.org/2000/svg"
   xmlns:sodipodi="http://sodipodi.sourceforge.net/DTD/sodipodi-0.dtd"
   xmlns:inkscape="http://www.inkscape.org/namespaces/inkscape"
   viewBox="0 0 64 64"
   version="1.1"
   id="svg865"
   sodipodi:docname="swamp_snapper_vial.svg"
   inkscape:version="1.0.2 (e86c870879, 2021-01-15)">
  <metadata
     id="metadata871">
    <rdf:RDF>
      <cc:Work
         rdf:about="">
        <dc:format>image/svg+xml</dc:format>
        <dc:type
           rdf:resource="http://purl.org/dc/dcmitype/StillImage" />
        <dc:title />
      </cc:Work>
    </rdf:RDF>
  </metadata>
  <defs
     id="defs869">
    <rect
       x="20.840103"
       y="33.578929"
       width="31.712364"
       height="16.029368"
       id="rect1829" />
    <rect
       x="-81.409824"
       y="-17.059822"
       width="10.783929"
       height="2.0330355"
       id="rect1108" />
    <rect
       x="40.60981"
       y="33.981441"
       width="10.340256"
       height="1.7675648"
       id="rect1095" />
    <rect
       x="20.840103"
       y="33.57893"
       width="31.712364"
       height="16.029367"
       id="rect1829-0" />
    <rect
       x="20.840103"
       y="33.57893"
       width="31.712364"
       height="16.029367"
       id="rect4865" />
  </defs>
  <sodipodi:namedview
     pagecolor="#ffffff"
     bordercolor="#666666"
     borderopacity="1"
     objecttolerance="10"
     gridtolerance="10"
     guidetolerance="10"
     inkscape:pageopacity="0"
     inkscape:pageshadow="2"
     inkscape:window-width="1920"
     inkscape:window-height="2066"
     id="namedview867"
     showgrid="false"
     showguides="true"
     inkscape:guide-bbox="true"
     inkscape:zoom="13"
     inkscape:cx="30.588936"
     inkscape:cy="42.197442"
     inkscape:window-x="1909"
     inkscape:window-y="-11"
     inkscape:window-maximized="0"
     inkscape:current-layer="svg865"
     inkscape:document-rotation="0" />
  <text
     xml:space="preserve"
     id="text1093"
     style="font-style:normal;font-weight:normal;font-size:0.589174px;line-height:1.25;font-family:sans-serif;text-align:center;text-anchor:middle;white-space:pre;fill:#000000;fill-opacity:1;stroke:none;stroke-width:0.266221;stroke-miterlimit:4;stroke-dasharray:none"
     transform="scale(0.94222352,1.0613193)"
     x="48.546452"
     y="44.355078"><tspan
       id="tspan1097"
       style="font-style:normal;font-variant:normal;font-weight:normal;font-stretch:normal;font-size:0.589174px;font-family:Impact;-inkscape-font-specification:Impact;text-align:center;text-anchor:middle;stroke-width:0.266221;stroke-miterlimit:4;stroke-dasharray:none" /></text>
  <text
     xml:space="preserve"
     id="text1106"
     style="font-size:0.544436px;line-height:1.25;font-family:sans-serif;text-align:center;text-anchor:middle;white-space:pre;stroke-width:0.266221;stroke-miterlimit:4;stroke-dasharray:none"
     x="47.694473"
     y="38.201882"><tspan
       id="tspan1110"
       style="font-style:normal;font-variant:normal;font-weight:normal;font-stretch:normal;font-family:Impact;-inkscape-font-specification:Impact;text-align:center;text-anchor:middle;stroke-width:0.266221;stroke-miterlimit:4;stroke-dasharray:none" /></text>
  <g
     id="g5220"
     transform="matrix(1.0791758,0,0,0.99192276,-2.0898951,0.50666511)">
    <path
       style="fill:#fff6d5;fill-opacity:1;stroke:#fff6d5;stroke-width:0.441128;stroke-linecap:round;stroke-linejoin:round;stroke-miterlimit:4;stroke-dasharray:none;stroke-opacity:1"
       d="M 30.499759,61.330895 C 29.065827,60.925699 27.98307,59.749932 27.622927,58.206912 27.513884,57.739741 27.512735,57.511295 27.512735,36.347449 V 14.960097 h 3.953532 3.95353 V 36.26998 c 0,23.716972 0.03278,21.767706 -0.381796,22.707452 -0.536966,1.217187 -1.446039,2.030212 -2.638041,2.359282 -0.561645,0.155109 -1.339356,0.152698 -1.900201,-0.0051 z"
       id="path928" />
    <path
       id="path928-5"
       style="fill:#fff6d5;fill-opacity:1;stroke:#fff6d5;stroke-width:0.441128;stroke-linecap:round;stroke-linejoin:round;stroke-miterlimit:4;stroke-dasharray:none;stroke-opacity:1"
       d="m 31.465696,13.722696 a 3.9534567,1.0984673 0 0 0 -3.952961,1.09949 3.9534567,1.0984673 0 0 0 0,0.01016 h -0.02493 a 3.9534567,1.0984673 0 0 0 0,0.0067 3.9534567,1.0984673 0 0 0 0.02493,0.12104 V 36.22025 c 0,21.163846 0.0031,21.391494 0.112137,21.858664 0.360144,1.54302 1.44123,2.721794 2.875163,3.126989 0.560845,0.157864 1.338516,0.158467 1.900161,0.0035 1.192002,-0.329069 2.101456,-1.139822 2.638422,-2.357009 0.414571,-0.939746 0.383149,1.007631 0.383149,-22.709338 V 14.832272 a 3.9534567,1.0984673 0 0 0 0,-0.01016 3.9534567,1.0984673 0 0 0 -3.956076,-1.09949 z" />
    <path
       id="path875"
       style="fill:#8cc1e0;fill-opacity:0.22541;stroke:#000000;stroke-width:0.441128;stroke-linecap:round;stroke-linejoin:round;stroke-miterlimit:4;stroke-dasharray:none;stroke-opacity:1"
       d="m 27.430599,6.953915 v 49.897333 h 0.01869 a 3.987225,4.3038131 0 0 0 -0.01869,0.416932 3.987225,4.3038131 0 0 0 3.987225,4.303812 3.987225,4.3038131 0 0 0 3.987224,-4.303812 3.987225,4.3038131 0 0 0 -0.01869,-0.416932 h 0.01869 V 6.953915 Z" />
    <path
       style="fill:#ff5555;fill-opacity:1;stroke:#ff5555;stroke-width:0.441128;stroke-linecap:round;stroke-linejoin:round;stroke-miterlimit:4;stroke-dasharray:none;stroke-opacity:1"
       d="M 29.790967,7.8693325 C 28.490907,7.7368095 27.470012,7.4843772 27.076404,7.1981271 l -0.188379,-0.136999 -0.01467,-1.740536 -0.01467,-1.7405378 0.291125,0.1382385 c 1.048919,0.4980975 3.485413,0.7419687 5.70995,0.5715137 1.413695,-0.1083184 2.691913,-0.4053091 3.08106,-0.7158619 l 0.15365,-0.1226071 v 1.6989097 c 0,0.9344008 -0.02327,1.7649782 -0.0517,1.8457264 -0.105104,0.2984074 -0.952895,0.6030881 -2.207807,0.7934526 -0.704115,0.1068207 -3.280672,0.1577262 -4.044011,0.079914 z"
       id="path1006" />
    <path
       id="rect897"
       style="fill:none;fill-opacity:1;stroke:#000000;stroke-width:0.441128;stroke-linecap:round;stroke-linejoin:round;stroke-miterlimit:4;stroke-dasharray:none;stroke-opacity:1"
       d="M 26.744978,3.1309186 V 6.953915 h 0.01563 a 4.7051514,1.0907699 0 0 0 0,0.00672 4.7051514,1.0907699 0 0 0 4.703679,1.0927657 4.7051514,1.0907699 0 0 0 4.70674,-1.0927553 4.7051514,1.0907699 0 0 0 0,-0.00672 h 0.01563 V 3.130929 Z" />
    <path
       style="fill:#ff8080;fill-opacity:1;stroke:#ff8080;stroke-width:0.441128;stroke-linecap:round;stroke-linejoin:round;stroke-miterlimit:4;stroke-dasharray:none;stroke-opacity:1"
       d="m 29.735672,4.0479735 c -1.116408,-0.1063386 -2.213605,-0.362178 -2.627233,-0.6126186 -0.58944,-0.3568894 0.0041,-0.7822042 1.466056,-1.0503422 2.595712,-0.4761153 6.544962,-0.1781623 7.332697,0.5532174 0.382332,0.3549802 -0.371676,0.7362378 -1.976638,0.9994693 -0.857405,0.1406315 -3.223254,0.2028164 -4.194882,0.110281 z"
       id="path1010" />
    <path
       id="path880"
       style="fill:none;fill-opacity:1;stroke:#000000;stroke-width:0.441128;stroke-linecap:round;stroke-linejoin:round;stroke-miterlimit:4;stroke-dasharray:none;stroke-opacity:1"
       d="m 31.447749,2.0285021 a 4.7051517,1.0907699 0 0 0 -4.70368,1.092764 4.7051517,1.0907699 0 0 0 0,0.010157 h -0.03114 a 4.7051517,1.0907699 0 0 0 0,0.00672 4.7051517,1.0907699 0 0 0 4.70368,1.0927656 4.7051517,1.0907699 0 0 0 4.706795,-1.0927656 4.7051517,1.0907699 0 0 0 0,-0.00672 h 0.03115 a 4.7051517,1.0907699 0 0 0 0,-0.010157 4.7051517,1.0907699 0 0 0 -4.706795,-1.092764 z" />
    <path
       id="path1006-6"
       style="fill:#ff5555;fill-opacity:1;stroke:#000000;stroke-width:0.441128;stroke-linecap:round;stroke-linejoin:round;stroke-miterlimit:4;stroke-dasharray:none;stroke-opacity:1"
       d="m 35.417266,24.399475 -0.132488,0.124432 c -0.337537,0.314206 -1.445823,0.613373 -2.672029,0.722954 -1.92951,0.17246 -4.045287,-0.0744 -4.955092,-0.578363 l -0.250856,-0.137877 0.01132,1.758633 0.01419,1.761994 0.01133,1.590503 0.01132,1.587142 0.01419,1.761993 0.01132,1.587141 v 0.171499 l 0.01419,1.590503 0.01132,1.761994 0.16066,0.137876 c 0.335291,0.289613 1.203812,0.545178 2.31125,0.679242 0.650239,0.07876 2.84453,0.02736 3.444323,-0.08068 1.068982,-0.192605 1.79329,-0.501743 1.882821,-0.803659 0.005,-0.01635 0.0043,-0.301521 0.0087,-0.373246 7.68e-4,-0.01291 0.0019,-0.05271 0.0029,-0.06724 0.01579,-0.30788 0.03101,-0.703511 0.03101,-1.425738 V 34.44693 l 0.0056,-0.837284 c 0.007,-0.273371 0.01975,-0.389893 0.01975,-0.790206 v -1.721644 l 0.0056,-0.837285 c 0.007,-0.273372 0.01973,-0.389896 0.01973,-0.790207 v -1.721652 l 0.0056,-1.069303 c 0.0038,-0.223222 0.01419,-0.277583 0.01419,-0.561551 z m -0.01975,2.562291 -0.0056,0.793571 -0.01419,0.01343 c 0.01004,-0.107974 0.0126,-0.535886 0.01975,-0.807019 z m -0.03099,3.752646 -0.0029,0.390059 -0.0056,0.0067 c 0.005,-0.05428 0.004,-0.301953 0.0087,-0.396784 z m -0.02537,3.409661 -0.0029,0.329534 -0.0056,0.0067 c 0.0043,-0.046 0.0046,-0.260944 0.0087,-0.336259 z" />
    <path
       style="fill:#ffffff;fill-opacity:1;stroke:#ffffff;stroke-width:0.441128;stroke-linecap:round;stroke-linejoin:round;stroke-miterlimit:4;stroke-dasharray:none;stroke-opacity:1"
       d="M 30.517697,29.423062 C 29.50546,29.372602 28.334959,29.17385 27.895783,28.977861 l -0.115326,-0.05147 -8.1e-5,-1.34535 c -4.3e-5,-0.739941 -0.0093,-1.593815 -0.02041,-1.897493 -0.01973,-0.535341 -0.01853,-0.551692 0.03852,-0.537381 0.03238,0.0081 0.182132,0.04674 0.332796,0.08583 1.687134,0.43769 4.543539,0.445985 6.364642,0.01849 0.188645,-0.04428 0.395491,-0.09981 0.45966,-0.123399 l 0.116666,-0.04288 -0.02059,1.914881 c -0.01132,1.053184 -0.03032,1.92436 -0.04223,1.93595 -0.0118,0.01154 -0.152026,0.06204 -0.311392,0.112123 -0.552473,0.173631 -1.41198,0.310121 -2.304244,0.365914 -0.405385,0.02534 -1.455693,0.03094 -1.876093,0.01 z"
       id="path1169" />
    <path
       style="fill:#ff8080;fill-opacity:1;stroke:#ff8080;stroke-width:0.441128;stroke-linecap:round;stroke-linejoin:round;stroke-miterlimit:4;stroke-dasharray:none;stroke-opacity:1"
       d="m 30.551768,32.122069 c -1.040564,-0.06571 -2.054725,-0.255196 -2.570318,-0.480218 l -0.161124,-0.07032 v -0.388302 c 0,-0.213568 -0.0091,-0.770027 -0.02022,-1.236576 l -0.02022,-0.848271 0.227382,0.07759 c 0.97519,0.332768 2.80644,0.489074 4.462652,0.380907 0.911135,-0.05952 1.90652,-0.226357 2.364072,-0.396277 0.09762,-0.03625 0.183396,-0.06592 0.190612,-0.06592 0.03147,0 -0.02197,2.327676 -0.05438,2.369853 -0.01866,0.02427 -0.133125,0.08868 -0.254338,0.143076 -0.411406,0.184685 -1.169983,0.35879 -1.969746,0.45209 -0.417541,0.0487 -1.792008,0.08777 -2.194362,0.06235 z"
       id="path1222" />
    <path
       style="fill:none;fill-opacity:1;stroke:none;stroke-width:0.441128;stroke-linecap:round;stroke-linejoin:round;stroke-miterlimit:4;stroke-dasharray:none;stroke-opacity:1"
       d="m 30.51959,30.405578 c -1.010092,-0.06178 -2.17811,-0.305162 -2.616353,-0.545156 l -0.115088,-0.06302 -8.1e-5,-1.647406 c -4.3e-5,-0.906073 -0.0093,-1.951655 -0.02037,-2.323514 -0.01968,-0.655537 -0.0185,-0.67556 0.03844,-0.658034 0.03231,0.01 0.181746,0.05724 0.33209,0.105098 1.683556,0.535957 4.533905,0.546115 6.351146,0.02264 0.188245,-0.05423 0.394653,-0.122229 0.458685,-0.151099 l 0.116427,-0.05251 -0.02054,2.344807 c -0.01132,1.289642 -0.03025,2.356415 -0.04214,2.370605 -0.0118,0.01412 -0.151706,0.07597 -0.310731,0.137309 -0.551302,0.212614 -1.408986,0.379748 -2.299359,0.44807 -0.404525,0.03104 -1.452605,0.03789 -1.872113,0.01222 z m 1.196925,-1.819522 c 0,-0.03384 0.01686,-0.04626 0.0463,-0.03406 0.02547,0.0105 0.0807,0.005 0.122759,-0.01222 0.07251,-0.02975 0.07643,-0.04473 0.07599,-0.288933 -6.47e-4,-0.355167 0.0029,-0.351348 -0.314106,-0.344301 -0.145838,0.0033 -0.176631,0.01395 -0.177403,0.06191 -8.78e-4,0.05449 -0.0029,0.05442 -0.03282,-0.0012 -0.02325,-0.04314 -0.06662,-0.05804 -0.160191,-0.055 -0.07058,0.0022 -0.149011,4.59e-4 -0.174338,-0.004 -0.02533,-0.0045 -0.118548,-0.0058 -0.20716,-0.0029 l -0.161124,0.0051 v 0.314709 0.314708 h 0.107416 0.107416 l 0.0062,-0.256736 0.0062,-0.256735 0.01052,0.256735 0.01052,0.256736 h 0.106124 0.106124 l 4.71e-4,-0.207045 c 2.45e-4,-0.113878 0.01435,-0.229405 0.03135,-0.256736 0.02124,-0.03417 0.02456,0.0305 0.01069,0.207045 l -0.02025,0.256736 h 0.10976 c 0.107735,0 0.110127,-0.0029 0.12941,-0.157347 0.03073,-0.246234 0.04046,-0.242491 0.04307,0.01653 l 0.0024,0.240171 h 0.107416 c 0.0782,0 0.107416,-0.01446 0.107416,-0.05323 z m -1.012783,-0.343579 c 0,-0.331238 -0.02062,-0.365113 -0.222294,-0.365113 -0.127383,0 -0.197682,0.05448 -0.224362,0.173919 -0.01782,0.07975 -0.01133,0.09115 0.05203,0.0916 0.05799,4.07e-4 0.06324,0.0069 0.02635,0.03262 -0.06674,0.04657 -0.122759,0.04027 -0.122759,-0.01377 0,-0.0258 -0.03797,-0.07752 -0.0844,-0.114894 l -0.0844,-0.06797 0.09975,-0.0011 c 0.08488,-8.94e-4 0.09974,-0.01309 0.09974,-0.0815 0,-0.125052 -0.0779,-0.184565 -0.241577,-0.184565 -0.07983,0 -0.161695,0.01788 -0.181951,0.03975 -0.06293,0.06793 -0.04481,0.280915 0.03033,0.356483 l 0.06718,0.06755 h -0.08252 c -0.07359,0 -0.08251,0.0124 -0.08251,0.114068 0,0.139615 0.08805,0.217205 0.246484,0.217205 0.132313,0 0.204877,-0.05393 0.222866,-0.165628 0.01132,-0.06989 0.01403,-0.06626 0.01751,0.02321 0.0052,0.133229 0.05397,0.162444 0.282195,0.169226 l 0.18234,0.0055 z m 1.536465,0.189769 c 0.0017,-0.09799 0.0045,-0.100951 0.02979,-0.03286 0.03794,0.101931 0.155183,0.153543 0.287787,0.126687 0.177677,-0.03598 0.247235,-0.269098 0.08713,-0.291975 -0.05834,-0.0082 -0.0299,-0.02042 0.09207,-0.03915 0.168251,-0.02582 0.176469,-0.03154 0.176469,-0.122658 0,-0.0841 -0.011,-0.09557 -0.09207,-0.09557 -0.07425,0 -0.09258,0.01446 -0.09471,0.07454 -0.0023,0.06294 -0.0069,0.0595 -0.0294,-0.02202 -0.03332,-0.120283 -0.07663,-0.150737 -0.215303,-0.151391 -0.164046,-7.61e-4 -0.222905,0.06368 -0.245904,0.269201 -0.01772,0.158433 -0.02032,0.145952 -0.02417,-0.116047 l -0.0043,-0.29355 -0.115087,0.02321 c -0.0633,0.01274 -0.115087,0.0256 -0.115087,0.02853 0,0.0029 0.0043,0.173033 0.0096,0.378007 l 0.0096,0.372682 h 0.120845 c 0.115486,0 0.120924,-0.0048 0.122791,-0.107665 z m 0.703934,-0.02484 c 0,-0.08833 -0.01021,-0.09938 -0.09207,-0.09938 -0.08184,0 -0.09207,0.01102 -0.09207,0.09938 0,0.08835 0.01021,0.09938 0.09207,0.09938 0.08184,0 0.09207,-0.01102 0.09207,-0.09938 z m 0.602796,-0.01823 c 0.05397,-0.05826 0.07309,-0.107114 0.0616,-0.157348 -0.01547,-0.06771 -0.0052,-0.07321 0.144959,-0.0778 0.151897,-0.0046 0.163665,8.63e-4 0.19522,0.09111 0.03099,0.08863 0.04563,0.09603 0.189699,0.09603 0.166465,0 0.278879,-0.07642 0.278879,-0.189571 0,-0.04691 0.0085,-0.04395 0.04778,0.01653 0.08709,0.13421 0.395489,0.07585 0.432139,-0.08178 0.029,-0.124724 -0.04415,-0.268589 -0.159441,-0.313591 -0.107177,-0.04184 -0.113716,-0.09416 -0.0118,-0.09416 0.07193,0 0.07631,-0.05884 0.0118,-0.158261 -0.0674,-0.103859 -0.256728,-0.101173 -0.371369,0.0053 -0.06861,0.0637 -0.09804,0.07246 -0.152822,0.04553 -0.09078,-0.04465 -0.266192,-0.0058 -0.332841,0.07367 -0.0411,0.04901 -0.04885,0.09327 -0.03268,0.18639 0.02455,0.141251 -0.0077,0.177403 -0.158627,0.178179 -0.06908,3.55e-4 -0.108995,-0.02031 -0.13311,-0.06894 -0.02794,-0.05636 -0.05714,-0.06712 -0.154815,-0.05707 -0.07335,0.0075 -0.116332,-9.04e-4 -0.110048,-0.02164 0.0058,-0.01872 0.0617,-0.0387 0.124497,-0.04442 0.101626,-0.0093 0.111898,-0.01833 0.09356,-0.08282 -0.01132,-0.03983 -0.02234,-0.07387 -0.02446,-0.07562 -0.01547,-0.01273 -0.388697,0.04314 -0.404967,0.0607 -0.01133,0.01222 -0.01101,0.104944 6.29e-4,0.205987 0.02041,0.176312 0.02493,0.183714 0.112089,0.183714 0.05226,0 0.09829,-0.02102 0.108421,-0.04949 0.0319,-0.08972 0.07261,-0.01532 0.06898,0.125998 -0.0019,0.07637 -0.01021,0.109024 -0.01832,0.07258 -0.02303,-0.103326 -0.05659,-0.124432 -0.159202,-0.100107 -0.08411,0.01994 -0.09293,0.03274 -0.07653,0.111022 0.04365,0.208148 0.286396,0.275735 0.430735,0.119938 z m -3.982368,-0.238509 c -0.0058,-0.458492 -0.01563,-0.485251 -0.188582,-0.506733 l -0.145709,-0.01811 -0.0526,0.200307 c -0.05784,0.220262 -0.09037,0.181587 -0.04214,-0.05011 0.01664,-0.07993 0.02757,-0.147707 0.02431,-0.150633 -0.0033,-0.0029 -0.05083,-0.01567 -0.105694,-0.02838 -0.09228,-0.02133 -0.09974,-0.01669 -0.09974,0.06239 0,0.114275 -0.05472,0.109661 -0.06701,-0.0057 -0.0081,-0.0759 -0.02635,-0.09283 -0.109457,-0.101484 -0.06464,-0.0067 -0.09974,0.0043 -0.09974,0.03118 0,0.02681 -0.01356,0.02248 -0.03836,-0.01222 -0.03465,-0.04858 -0.383079,-0.179739 -0.404937,-0.15244 -0.01499,0.0188 -0.201197,0.681729 -0.201197,0.716545 0,0.03868 0.234227,0.106424 0.368011,0.106424 0.07774,0 0.103684,-0.01985 0.140765,-0.107663 l 0.04547,-0.107664 -0.01828,0.136516 c -0.01735,0.129493 -0.01388,0.13743 0.06813,0.154421 0.103619,0.02148 0.102679,0.02231 0.132886,-0.115342 l 0.02398,-0.109352 0.0032,0.120679 c 0.0037,0.137946 0.01933,0.148345 0.271134,0.179093 0.168508,0.02058 0.182298,0.01704 0.214827,-0.05607 l 0.03477,-0.07807 0.0021,0.09111 c 0.0019,0.08382 0.01197,0.09111 0.124848,0.09111 h 0.122758 z"
       id="path1141" />
    <g
       id="g1844"
       style="stroke-width:0.266221;stroke-miterlimit:4;stroke-dasharray:none"
       transform="matrix(1.59489,0,0,1.7215253,-20.416102,-31.416128)">
      <path
         id="path1824"
         style="fill:#ffdf00;fill-opacity:1;stroke:#000000;stroke-width:0.266221;stroke-linecap:round;stroke-linejoin:round;stroke-miterlimit:4;stroke-dasharray:none;stroke-opacity:1"
         d="m 32.510722,37.314624 -1.48811,2.971649 2.974656,0.003 z" />
      <text
         xml:space="preserve"
         id="text1827"
         style="font-size:1.33333px;line-height:1.25;font-family:sans-serif;white-space:pre;shape-inside:url(#rect1829-0);stroke-width:0.12771;stroke-miterlimit:4;stroke-dasharray:none;"
         transform="matrix(2.3195191,0,0,1.8734171,-16.414467,-25.213814)" />
    </g>
    <path
       style="fill:#000000;stroke:#000000;stroke-width:0.0020226;stroke-linecap:round;stroke-linejoin:round;paint-order:stroke markers fill"
       d="m 31.227593,37.174516 v -0.218852 h 0.242957 0.242958 v 0.218852 0.218852 H 31.47055 31.227593 Z"
       id="path3070" />
    <path
       style="fill:#000000;stroke:#000000;stroke-width:0.0020226;stroke-linecap:round;stroke-linejoin:round;paint-order:stroke markers fill"
       d="m 31.269286,36.507482 c -0.0013,-0.01344 -0.01606,-0.499053 -0.03286,-1.079129 -0.0168,-0.580074 -0.03175,-1.078254 -0.03323,-1.107066 l -0.0027,-0.05239 h 0.26734 0.26734 v 0.03944 c 0,0.04647 -0.05473,2.048706 -0.05885,2.152583 l -0.0028,0.07102 H 31.472552 31.27158 Z"
       id="path3072" />
    <path
       style="fill:#000000;stroke:#000000;stroke-width:0.0020226;stroke-linecap:round;stroke-linejoin:round;paint-order:stroke markers fill"
       d="m 31.291223,30.829233 c -0.0016,-0.129045 -0.0029,-0.285442 -0.0029,-0.347547 l -5e-6,-0.112918 h 0.0846 0.0846 v 0.02816 0.02816 l 0.02152,-0.0231 c 0.0383,-0.0411 0.09273,-0.05366 0.136832,-0.03158 0.0271,0.01358 0.05262,0.04334 0.05724,0.06677 0.0019,0.0098 0.0035,0.117271 0.0035,0.23892 v 0.221181 l -0.01197,0.02618 c -0.03276,0.07159 -0.126044,0.08079 -0.183612,0.0181 -0.0094,-0.01018 -0.01847,-0.01854 -0.02025,-0.01859 -0.0018,-4.2e-5 -0.0032,0.0303 -0.0032,0.06744 v 0.06752 h -0.04271 c -0.0235,0 -0.06027,0.0014 -0.08171,0.003 l -0.039,0.003 z m 0.214589,0.04404 c 0.0049,-0.0063 0.006,-0.0443 0.006,-0.202932 0,-0.18788 -3.16e-4,-0.195476 -0.0084,-0.201835 -0.01074,-0.0084 -0.02448,-0.0084 -0.03522,-2e-6 -0.008,0.0063 -0.0085,0.01464 -0.0097,0.182765 -0.0014,0.184799 -1.39e-4,0.211174 0.01057,0.222668 0.0087,0.0094 0.02941,0.009 0.03686,-6.64e-4 z"
       id="path3074" />
    <path
       style="fill:#000000;stroke:#000000;stroke-width:0.0020226;stroke-linecap:round;stroke-linejoin:round;paint-order:stroke markers fill"
       d="m 28.569198,30.755641 c -0.03398,-0.007 -0.06274,-0.01374 -0.06391,-0.015 -0.0017,-0.0018 0.06958,-0.438239 0.07827,-0.47897 0.0016,-0.0076 9.92e-4,-0.01004 -0.0017,-0.007 -0.0023,0.0025 -0.03546,0.109039 -0.07362,0.236619 -0.03816,0.127579 -0.07042,0.233076 -0.07169,0.234438 -0.0028,0.003 -0.0921,-0.0129 -0.09921,-0.01762 -0.0037,-0.0024 -0.003,-0.0643 0.0028,-0.246034 0.0042,-0.133506 0.0069,-0.24369 0.0058,-0.244853 -0.0011,-0.0012 -0.02002,0.105255 -0.04207,0.236484 -0.02206,0.131229 -0.04059,0.23912 -0.04118,0.239758 -0.0011,0.0012 -0.14769,-0.02683 -0.148216,-0.02828 -3.34e-4,-9.15e-4 0.120664,-0.722243 0.121297,-0.723118 0.0014,-0.0018 0.219365,0.043 0.221698,0.04555 0.0027,0.0029 -0.0038,0.227056 -0.0088,0.305468 -0.0014,0.02113 -8.89e-4,0.03838 9.92e-4,0.03834 0.0019,-4.3e-5 0.02493,-0.07398 0.05115,-0.164299 l 0.04767,-0.16422 0.109569,0.02146 c 0.06026,0.01181 0.110668,0.02265 0.112011,0.02409 0.0014,0.0015 -0.02454,0.163675 -0.05752,0.36052 l -0.05996,0.357898 -0.01078,7.34e-4 c -0.006,4.04e-4 -0.03858,-0.005 -0.07257,-0.01199 z"
       id="path3076" />
    <path
       style="fill:#000000;stroke:#000000;stroke-width:0.0020226;stroke-linecap:round;stroke-linejoin:round;paint-order:stroke markers fill"
       d="m 28.87768,30.811455 c -0.06375,-0.01843 -0.104884,-0.05086 -0.125598,-0.099 -0.01184,-0.02753 -0.01261,-0.03289 -0.01223,-0.08525 4.26e-4,-0.05753 0.02185,-0.239759 0.03443,-0.292828 0.009,-0.03799 0.0307,-0.07972 0.05128,-0.09863 0.03013,-0.02769 0.05838,-0.03668 0.115619,-0.03681 0.05434,-1.28e-4 0.07889,0.0053 0.117141,0.02581 0.03625,0.01946 0.05856,0.0427 0.07466,0.07773 0.01324,0.02882 0.01438,0.03504 0.0157,0.08479 0.0012,0.04458 -0.0078,0.150958 -0.01308,0.156076 -7.41e-4,7.11e-4 -0.04918,-0.0057 -0.107641,-0.01434 -0.05847,-0.0086 -0.107423,-0.01569 -0.108802,-0.01575 -0.0044,-2.13e-4 -0.02277,0.17014 -0.01972,0.183191 0.0033,0.01424 0.02068,0.02358 0.03608,0.01943 0.01516,-0.0041 0.02279,-0.02574 0.03177,-0.09012 0.0045,-0.03249 0.0083,-0.0592 0.0084,-0.05933 5.95e-4,-8.09e-4 0.15432,0.02211 0.155291,0.02315 0.0036,0.0039 -0.01789,0.115138 -0.02551,0.132012 -0.01391,0.03084 -0.04879,0.06882 -0.07671,0.08351 -0.02182,0.01149 -0.03023,0.01312 -0.07241,0.01416 -0.03616,8.84e-4 -0.05523,-9.68e-4 -0.07869,-0.0077 z m 0.106905,-0.392631 c 7e-6,-0.0032 0.0022,-0.02434 0.0047,-0.04697 0.0056,-0.04893 0.0032,-0.06236 -0.01193,-0.06856 -0.0246,-0.01004 -0.03289,0.0013 -0.04044,0.05511 -0.0024,0.01723 -0.0054,0.03797 -0.0067,0.0461 -0.002,0.01266 -8.86e-4,0.01509 0.0076,0.01683 0.02219,0.0045 0.04677,0.0033 0.04679,-0.0025 z"
       id="path3078" />
    <path
       style="fill:#000000;stroke:#000000;stroke-width:0.0020226;stroke-linecap:round;stroke-linejoin:round;paint-order:stroke markers fill"
       d="m 29.240546,30.851871 c -0.04176,-0.0051 -0.07664,-0.01001 -0.07754,-0.01085 -0.0024,-0.0023 0.0568,-0.590523 0.05988,-0.594391 0.0015,-0.0018 0.03762,7.52e-4 0.08029,0.0058 0.04266,0.005 0.07897,0.0092 0.08068,0.0092 0.0017,0 4.96e-4,0.01309 -0.0027,0.0291 -0.0032,0.01601 -0.0059,0.03413 -0.006,0.04028 -1.36e-4,0.01 0.0012,0.0092 0.01257,-0.0076 0.01345,-0.01994 0.03301,-0.03747 0.05453,-0.0489 0.0159,-0.0084 0.0455,-0.01461 0.04571,-0.0095 8.1e-5,0.002 -0.0042,0.04928 -0.0096,0.10498 l -0.0097,0.101277 h -0.02744 c -0.04825,0 -0.06794,0.01509 -0.07747,0.05935 -0.0045,0.02077 -0.03646,0.308414 -0.03646,0.327836 0,0.0021 -0.0024,0.0037 -0.0054,0.0034 -0.003,-3.2e-4 -0.03958,-0.0047 -0.08135,-0.0099 z"
       id="path3080" />
    <path
       style="fill:#000000;stroke:#000000;stroke-width:0.0020226;stroke-linecap:round;stroke-linejoin:round;paint-order:stroke markers fill"
       d="m 29.552073,30.886021 c -0.04223,-0.0042 -0.07756,-0.0086 -0.07852,-0.0098 -0.0013,-0.0015 0.04727,-0.597065 0.04877,-0.598416 0.0013,-0.0012 0.161822,0.0161 0.163158,0.01754 9.92e-4,0.0011 -0.0011,0.01836 -0.0047,0.03842 -0.0036,0.02006 -0.006,0.0371 -0.0052,0.03784 6.99e-4,7.5e-4 0.0094,-0.0099 0.01928,-0.02361 0.02094,-0.02905 0.05049,-0.04931 0.07648,-0.05245 l 0.01832,-0.0022 -0.0085,0.102932 -0.0085,0.102933 -0.01985,2.6e-5 c -0.04472,5.8e-5 -0.07418,0.01886 -0.08205,0.05238 -0.0051,0.02185 -0.01334,0.103698 -0.02502,0.249102 -0.0049,0.06035 -0.0093,0.09406 -0.01225,0.09365 -0.0026,-3.53e-4 -0.03922,-0.0041 -0.08144,-0.0083 z"
       id="path3082" />
    <path
       style="fill:#000000;stroke:#000000;stroke-width:0.0020226;stroke-linecap:round;stroke-linejoin:round;paint-order:stroke markers fill"
       d="m 30.075713,30.929621 c -0.03818,-0.0032 -0.07251,-0.0061 -0.07628,-0.0063 -0.0057,-3.59e-4 -0.0065,-0.0051 -0.0049,-0.02721 l 0.002,-0.02678 -0.02335,0.02355 c -0.03929,0.03961 -0.08266,0.04464 -0.137049,0.01591 -0.04313,-0.02279 -0.05334,-0.04556 -0.05334,-0.118974 0,-0.06342 0.0072,-0.11645 0.01885,-0.139335 0.01206,-0.02365 0.03534,-0.03744 0.109142,-0.06465 0.105398,-0.03886 0.103077,-0.03646 0.103701,-0.10737 3.66e-4,-0.04151 -7.33e-4,-0.04947 -0.008,-0.05816 -0.01172,-0.01397 -0.03299,-0.01154 -0.04015,0.0045 -0.0029,0.0066 -0.0064,0.02959 -0.0078,0.05122 -0.0014,0.02163 -0.0036,0.04641 -0.0048,0.05508 l -0.0023,0.01575 -0.04634,-0.0031 c -0.02548,-0.0017 -0.06032,-0.0044 -0.07742,-0.0059 l -0.03108,-0.0028 0.0021,-0.02617 c 0.0064,-0.08235 0.01857,-0.120827 0.04718,-0.149126 0.02254,-0.02231 0.04571,-0.03544 0.07882,-0.0447 0.04844,-0.01354 0.129854,-0.0053 0.176424,0.01785 0.02526,0.01255 0.05509,0.04294 0.06667,0.06789 0.01251,0.02694 0.01231,0.13325 -6.29e-4,0.33666 -0.0061,0.09631 -0.01114,0.180544 -0.01114,0.187184 0,0.0069 -0.0023,0.01178 -0.0054,0.01139 -0.003,-3.75e-4 -0.03666,-0.0033 -0.07484,-0.0066 z m -0.08918,-0.106536 c 0.0069,-0.0089 0.01187,-0.04914 0.0157,-0.126749 l 0.0032,-0.06405 -0.02124,0.01656 c -0.03167,0.02469 -0.04076,0.04751 -0.04383,0.110004 -0.0023,0.04778 -0.0019,0.05157 0.0068,0.06093 0.01065,0.01143 0.03178,0.0132 0.03942,0.0033 z"
       id="path3084" />
    <path
       style="fill:#000000;stroke:#000000;stroke-width:0.0020226;stroke-linecap:round;stroke-linejoin:round;paint-order:stroke markers fill"
       d="m 30.441387,30.950994 c -0.03272,-0.0016 -0.06075,-0.0043 -0.06226,-0.0059 -0.0031,-0.0033 0.02536,-0.728253 0.02863,-0.731556 0.0019,-0.0019 0.170132,0.0056 0.171619,0.0076 3.7e-4,5.1e-4 -0.0059,0.158082 -0.01379,0.350159 -0.0079,0.192078 -0.01454,0.35709 -0.01463,0.366694 l -1.71e-4,0.01746 -0.02495,-7.68e-4 c -0.01372,-4.22e-4 -0.05172,-0.0021 -0.08444,-0.0037 z"
       id="path3086" />
    <path
       style="fill:#000000;stroke:#000000;stroke-width:0.0020226;stroke-linecap:round;stroke-linejoin:round;paint-order:stroke markers fill"
       d="m 31.080556,30.970687 -0.01471,-0.0019 0.0031,-0.175436 c 0.0043,-0.245792 0.004,-0.310443 -0.0017,-0.321772 -0.0036,-0.0074 -0.009,-0.0097 -0.02224,-0.0097 -0.02857,0 -0.0294,0.005 -0.03428,0.205997 -0.0023,0.09542 -0.0042,0.202644 -0.0043,0.238264 l -9.3e-5,0.06476 -0.08094,-0.003 c -0.04453,-0.0016 -0.08138,-0.0036 -0.0819,-0.0043 -5.23e-4,-6.64e-4 6.52e-4,-0.0693 0.0026,-0.15254 0.0056,-0.238482 0.0051,-0.336607 -0.0018,-0.346791 -0.0083,-0.01214 -0.03237,-0.01148 -0.0419,0.0012 -0.0094,0.01247 -0.01187,0.06141 -0.0157,0.312415 l -0.0029,0.187961 -0.0807,-0.0034 c -0.04439,-0.0018 -0.08105,-0.0037 -0.08147,-0.0041 -4.22e-4,-3.93e-4 0.002,-0.126417 0.0053,-0.280054 0.0033,-0.153637 0.0061,-0.288244 0.0062,-0.299129 l 1.32e-4,-0.01979 h 0.08294 0.08294 l -0.0031,0.03079 -0.0031,0.03079 0.02379,-0.02553 c 0.02691,-0.02889 0.05238,-0.04072 0.08764,-0.04072 0.04103,0 0.07916,0.02215 0.102968,0.05983 l 0.0069,0.01094 0.01628,-0.01934 c 0.0089,-0.01064 0.02523,-0.02499 0.03617,-0.03189 0.01741,-0.01098 0.02448,-0.01254 0.05676,-0.01249 0.0295,4.4e-5 0.04043,0.0021 0.05464,0.0102 0.0222,0.01268 0.04243,0.03705 0.05011,0.06035 0.0066,0.01995 0.0072,0.186634 0.0015,0.414822 l -0.0032,0.126888 -0.06567,-7.45e-4 c -0.03612,-4.1e-4 -0.07229,-0.0016 -0.08038,-0.0027 z"
       id="path3088" />
    <path
       style="fill:#000000;stroke:#000000;stroke-width:0.0020226;stroke-linecap:round;stroke-linejoin:round;paint-order:stroke markers fill"
       d="m 31.868124,30.973639 c -0.03027,-0.0047 -0.06957,-0.02313 -0.08667,-0.04054 -0.03765,-0.03834 -0.0454,-0.07498 -0.05051,-0.238887 -0.0052,-0.166506 -9.92e-4,-0.21302 0.02342,-0.257678 0.02962,-0.05425 0.08503,-0.08162 0.165229,-0.08162 0.115706,0 0.181476,0.05657 0.192631,0.165698 0.0064,0.0627 0.0094,0.247049 0.0047,0.291114 -0.01313,0.123512 -0.10643,0.184233 -0.248805,0.161918 z m 0.07556,-0.105904 c 0.0098,-0.0085 0.0099,-0.0093 0.0088,-0.115247 -0.0016,-0.171676 -0.0065,-0.279292 -0.0131,-0.287814 -0.0083,-0.0107 -0.03362,-0.0097 -0.03924,0.0015 -0.0051,0.01028 -0.0055,0.174487 -7.37e-4,0.307023 0.003,0.08192 0.0035,0.08591 0.01316,0.09429 0.01262,0.01096 0.01859,0.01099 0.03105,1.73e-4 z"
       id="path3090" />
    <path
       style="fill:#000000;stroke:#000000;stroke-width:0.0020226;stroke-linecap:round;stroke-linejoin:round;paint-order:stroke markers fill"
       d="m 32.186134,30.958744 c -5.83e-4,-0.002 -0.02458,-0.601652 -0.02409,-0.602226 2.8e-4,-3.35e-4 0.03789,-0.0021 0.08357,-0.004 l 0.08306,-0.0033 -0.0021,0.0412 -0.0021,0.0412 0.01288,-0.02338 c 0.01702,-0.03087 0.04776,-0.06075 0.06985,-0.06784 0.0098,-0.0032 0.0187,-0.0047 0.0198,-0.0036 0.0024,0.0026 0.0115,0.200555 0.0093,0.202887 -8.33e-4,8.93e-4 -0.01271,0.0036 -0.02637,0.006 -0.03163,0.0055 -0.05014,0.01704 -0.0602,0.03744 -0.0073,0.01484 -0.0078,0.02557 -0.0055,0.13255 0.0014,0.06403 0.0038,0.142904 0.0053,0.175285 l 0.0029,0.05888 -0.04728,0.0028 c -0.102006,0.0061 -0.118881,0.007 -0.119145,0.0061 z"
       id="path3092" />
    <path
       style="fill:#000000;stroke:#000000;stroke-width:0.0020226;stroke-linecap:round;stroke-linejoin:round;paint-order:stroke markers fill"
       d="m 32.590263,30.93183 c -0.02584,-0.0055 -0.05049,-0.02385 -0.06061,-0.04516 -0.0104,-0.02189 -0.01517,-0.07365 -0.02435,-0.26413 -0.0089,-0.186062 -0.0071,-0.174616 -0.02784,-0.174616 -0.0158,0 -0.01672,-8.32e-4 -0.01928,-0.01746 -0.0014,-0.0096 -0.0027,-0.02928 -0.0027,-0.04373 -5.1e-5,-0.0281 0.0029,-0.03193 0.02479,-0.03193 h 0.01111 l -0.003,-0.04619 c -0.0027,-0.04197 -0.0023,-0.0464 0.0048,-0.04854 0.0042,-0.0013 0.03901,-0.0037 0.07719,-0.0053 0.03818,-0.0016 0.07283,-0.0041 0.07701,-0.0053 0.0068,-0.002 0.0076,0.0015 0.0076,0.03232 0,0.01906 0.0013,0.04146 0.0028,0.04977 0.0028,0.015 0.003,0.0151 0.02343,0.0125 0.02468,-0.0031 0.02567,-0.0011 0.02576,0.05388 l 6e-5,0.03609 h -0.01927 c -0.0106,0 -0.02048,0.0021 -0.02196,0.0046 -0.003,0.0051 0.01385,0.33934 0.01876,0.372506 l 0.0031,0.02095 0.02426,0.0014 0.02426,0.0014 0.0027,0.03122 c 0.0051,0.05811 0.0046,0.06077 -0.01129,0.06336 -0.02913,0.0047 -0.118949,0.0063 -0.137377,0.0024 z"
       id="path3094" />
    <path
       style="fill:#000000;stroke:#000000;stroke-width:0.0020226;stroke-linecap:round;stroke-linejoin:round;paint-order:stroke markers fill"
       d="m 32.867558,30.916444 c -0.07723,-0.02449 -0.100281,-0.05951 -0.110985,-0.168605 l -0.0028,-0.02837 0.07238,-0.0058 c 0.03981,-0.0032 0.07294,-0.0051 0.07363,-0.0043 6.88e-4,8.84e-4 0.0034,0.02229 0.006,0.04756 0.0032,0.03106 0.0071,0.04878 0.01213,0.05472 0.01016,0.01205 0.0339,0.01146 0.04563,-0.0012 0.0082,-0.0088 0.0089,-0.01368 0.007,-0.04308 -0.0036,-0.05517 -0.0022,-0.05354 -0.08661,-0.09875 -0.09222,-0.04939 -0.115951,-0.06767 -0.130805,-0.100729 -0.02282,-0.05079 -0.02631,-0.140322 -0.0071,-0.182863 0.01975,-0.04377 0.07057,-0.07273 0.143162,-0.08155 0.07305,-0.0089 0.127017,0.0063 0.165565,0.04656 0.02706,0.02826 0.03263,0.04531 0.03504,0.107097 l 0.0012,0.03027 -0.03904,0.0031 c -0.02148,0.0016 -0.05395,0.0044 -0.07215,0.0059 l -0.03311,0.0028 -0.0032,-0.03581 c -0.0042,-0.04902 -0.0084,-0.05747 -0.02789,-0.05738 -0.0086,4e-5 -0.01805,0.0017 -0.02107,0.0038 -0.0097,0.0066 -0.01373,0.03221 -0.0096,0.06031 0.0052,0.0356 0.02012,0.04914 0.08804,0.08024 0.122319,0.05598 0.144373,0.08313 0.149305,0.183839 0.0049,0.09855 -0.01969,0.144181 -0.09324,0.173499 -0.02441,0.0097 -0.03852,0.01191 -0.08563,0.01325 -0.03828,0.0011 -0.06268,-3.95e-4 -0.07592,-0.0045 z"
       id="path3096" />
    <path
       style="fill:#000000;stroke:#000000;stroke-width:0.0020226;stroke-linecap:round;stroke-linejoin:round;paint-order:stroke markers fill"
       d="m 33.321186,30.865842 c -0.0033,-0.01692 -0.01244,-0.129324 -0.0106,-0.131273 9.02e-4,-9.68e-4 0.02858,-0.0046 0.06147,-0.0082 0.06967,-0.0075 0.06086,-0.01582 0.06798,0.06385 0.0075,0.08378 0.01254,0.0746 -0.04451,0.08081 -0.06891,0.0075 -0.07187,0.0073 -0.07434,-0.0051 z"
       id="path3098" />
    <path
       style="fill:#000000;stroke:#000000;stroke-width:0.0020226;stroke-linecap:round;stroke-linejoin:round;paint-order:stroke markers fill"
       d="m 33.652831,30.836689 c 0,-0.0014 -0.01857,-0.165077 -0.04126,-0.363928 -0.0227,-0.198852 -0.04076,-0.36195 -0.04013,-0.362442 0.003,-0.0023 0.168476,-0.02215 0.170126,-0.02038 0.0021,0.0022 0.08544,0.726932 0.08373,0.728196 -0.0018,0.0014 -0.156711,0.02108 -0.164871,0.02101 -0.0041,-3.8e-5 -0.0076,-0.0012 -0.0076,-0.0024 z"
       id="path3100" />
    <path
       style="fill:#000000;stroke:#000000;stroke-width:0.0020226;stroke-linecap:round;stroke-linejoin:round;paint-order:stroke markers fill"
       d="m 33.895789,30.807581 c 0,-0.0015 -0.0175,-0.128571 -0.0389,-0.282443 -0.0214,-0.153871 -0.03946,-0.286924 -0.04013,-0.295673 l -0.0013,-0.01591 0.0781,-0.01301 c 0.04295,-0.0072 0.08053,-0.01309 0.08351,-0.0132 0.0033,-1.13e-4 0.0056,0.0066 0.0059,0.01728 2.37e-4,0.0096 0.0018,0.02264 0.0034,0.02895 0.003,0.01143 0.003,0.01141 0.0088,-0.0038 0.0098,-0.02544 0.03956,-0.05439 0.06572,-0.06397 0.03162,-0.01158 0.07059,-0.01095 0.09293,0.0015 0.03426,0.01908 0.04911,0.04427 0.0606,0.102923 0.01003,0.05116 0.06782,0.472097 0.06521,0.474904 -0.0025,0.0027 -0.159454,0.02907 -0.161295,0.0271 -5.96e-4,-6.38e-4 -0.01295,-0.08697 -0.02744,-0.191854 -0.03097,-0.224019 -0.03783,-0.269256 -0.04389,-0.289643 -0.0056,-0.01867 -0.02078,-0.0242 -0.03639,-0.01321 -0.0095,0.0067 -0.01081,0.01093 -0.01081,0.03522 0,0.01518 0.01371,0.126492 0.03048,0.247344 0.01676,0.120852 0.02979,0.220466 0.02895,0.221364 -8.36e-4,8.98e-4 -0.03456,0.007 -0.07495,0.01341 -0.04039,0.0065 -0.07684,0.01258 -0.08102,0.01357 -0.0041,9.68e-4 -0.0076,5.84e-4 -0.0076,-8.88e-4 z"
       id="path3102" />
    <path
       style="fill:#000000;stroke:#000000;stroke-width:0.0020226;stroke-linecap:round;stroke-linejoin:round;paint-order:stroke markers fill"
       d="m 34.418577,30.706882 c -0.02293,-0.0077 -0.05143,-0.0283 -0.0643,-0.04643 -0.02799,-0.03947 -0.03986,-0.08005 -0.06661,-0.228003 -0.01631,-0.09019 -0.02042,-0.122753 -0.02065,-0.163791 -2.65e-4,-0.04739 5.78e-4,-0.0528 0.01128,-0.07233 0.05119,-0.09346 0.184771,-0.133743 0.276947,-0.08353 0.02906,0.01583 0.04781,0.03626 0.06276,0.0684 0.012,0.0258 0.03196,0.101445 0.0279,0.105795 -0.0041,0.0044 -0.146997,0.03219 -0.149792,0.02919 -0.0014,-0.0015 -0.0064,-0.02315 -0.01103,-0.04801 -0.01114,-0.05978 -0.01701,-0.07168 -0.03538,-0.07168 -0.01893,0 -0.02462,0.0072 -0.02462,0.03121 0,0.02205 0.05334,0.327397 0.06094,0.348847 0.007,0.01983 0.01705,0.02971 0.03017,0.02971 0.0273,0 0.03254,-0.0336 0.01788,-0.114759 l -0.0077,-0.04258 0.07137,-0.01465 c 0.03925,-0.008 0.07203,-0.01395 0.07284,-0.01308 0.0032,0.0034 0.01478,0.09071 0.01479,0.110893 5.7e-5,0.06947 -0.0458,0.138145 -0.108114,0.161913 -0.0518,0.01976 -0.121479,0.02542 -0.158692,0.01291 z"
       id="path3104" />
    <path
       style="fill:#000000;stroke:#000000;stroke-width:0.00202267;stroke-linecap:round;stroke-linejoin:round;paint-order:stroke markers fill"
       d="m 28.53124,27.912209 c -0.04547,-0.01094 -0.279738,-0.09091 -0.278287,-0.095 9.01e-4,-0.0025 0.04233,-0.186129 0.09205,-0.407928 l 0.0904,-0.40327 0.0349,0.01145 c 0.106879,0.03505 0.199576,0.06927 0.230191,0.08497 0.08956,0.04594 0.115511,0.108045 0.09343,0.223528 -0.01277,0.06678 -0.08888,0.406888 -0.102631,0.458656 -0.02652,0.0998 -0.05737,0.133509 -0.121,0.132213 -0.01193,-2.43e-4 -0.02951,-0.0023 -0.03905,-0.0046 z m -0.02471,-0.170672 c 0.01369,-0.01269 0.02374,-0.04965 0.0706,-0.259593 0.04502,-0.201674 0.05039,-0.231024 0.04586,-0.250364 -0.0032,-0.01335 -0.0392,-0.03629 -0.0455,-0.02894 -0.0032,0.0038 -0.122405,0.528763 -0.12224,0.538551 1.69e-4,0.01001 0.04055,0.01028 0.05127,3.4e-4 z"
       id="path1603" />
    <path
       style="fill:#000000;stroke:#000000;stroke-width:0.00202267;stroke-linecap:round;stroke-linejoin:round;paint-order:stroke markers fill"
       d="m 29.045396,28.044283 c -0.03937,-0.0089 -0.073,-0.01755 -0.07472,-0.01927 -0.0017,-0.0017 -0.01002,-0.08376 -0.01843,-0.182303 -0.01589,-0.186171 -0.01933,-0.220685 -0.02174,-0.21801 -7.88e-4,8.75e-4 -0.01455,0.08668 -0.0306,0.190677 l -0.02917,0.189086 -0.0591,-0.01357 c -0.03251,-0.0075 -0.06515,-0.01502 -0.07255,-0.0168 l -0.01344,-0.0032 0.0636,-0.413155 c 0.03499,-0.227236 0.06447,-0.414081 0.06552,-0.415213 0.0027,-0.0029 0.139562,0.02889 0.142971,0.03321 0.0015,0.0019 0.01014,0.07481 0.01913,0.161879 0.02245,0.217812 0.02504,0.238507 0.02851,0.227883 0.0016,-0.0049 0.01544,-0.09026 0.0307,-0.189549 0.01677,-0.109123 0.02949,-0.179807 0.03216,-0.178721 0.0024,9.67e-4 0.03521,0.0087 0.07284,0.01708 0.05668,0.01267 0.06808,0.01657 0.06648,0.02273 -0.0011,0.0041 -0.0297,0.189742 -0.06362,0.41255 -0.03392,0.222809 -0.06286,0.406397 -0.06431,0.407974 -0.0014,0.0015 -0.03484,-0.0044 -0.07422,-0.01327 z"
       id="path1605" />
    <path
       style="fill:#000000;stroke:#000000;stroke-width:0.00202267;stroke-linecap:round;stroke-linejoin:round;paint-order:stroke markers fill"
       d="m 29.509899,28.126256 c -0.04401,-0.0075 -0.08074,-0.01439 -0.08162,-0.01533 -8.76e-4,-9.41e-4 3.11e-4,-0.03494 0.0026,-0.07554 0.0023,-0.04061 0.0036,-0.0745 0.0029,-0.0753 -7.52e-4,-8.12e-4 -0.01544,-0.0037 -0.03264,-0.0065 -0.02299,-0.0037 -0.03207,-0.0036 -0.03429,2.75e-4 -0.0016,0.0029 -0.0087,0.03672 -0.01557,0.07517 -0.01025,0.05712 -0.01378,0.06954 -0.01929,0.06792 -0.0037,-0.0011 -0.04357,-0.0078 -0.08859,-0.01498 -0.04502,-0.0072 -0.08259,-0.01516 -0.0835,-0.01783 -0.002,-0.0057 0.177864,-0.811398 0.182147,-0.815994 0.0016,-0.0017 0.05927,0.006 0.128118,0.01718 l 0.125173,0.02033 0.0027,0.0795 c 0.0014,0.04372 0.0038,0.231417 0.0051,0.417091 0.0014,0.185674 0.0033,0.342303 0.0045,0.348065 0.0025,0.01319 0.0042,0.01326 -0.09769,-0.0041 z m -0.06062,-0.431265 c 0.0018,-0.0634 0.0046,-0.144598 0.0063,-0.180453 0.0016,-0.03586 0.0017,-0.06387 1.38e-4,-0.06226 -0.0067,0.0068 -0.0778,0.343751 -0.07359,0.34843 0.0027,0.003 0.0595,0.01307 0.06208,0.01098 9.92e-4,-7.93e-4 0.0032,-0.05331 0.005,-0.116705 z"
       id="path1607" />
    <path
       style="fill:#000000;stroke:#000000;stroke-width:0.00202267;stroke-linecap:round;stroke-linejoin:round;paint-order:stroke markers fill"
       d="m 29.971744,28.199437 c -0.07894,-0.0164 -0.136572,-0.06227 -0.156906,-0.124871 -0.0067,-0.02061 -0.0079,-0.03887 -0.0078,-0.113973 9.4e-5,-0.04918 0.0014,-0.09076 0.0029,-0.09237 0.0023,-0.0025 0.159649,0.01119 0.163093,0.01426 7.16e-4,6.39e-4 -9.01e-4,0.03269 -0.0037,0.07122 -0.0069,0.09637 -0.0014,0.112017 0.03745,0.107169 0.02143,-0.0027 0.02972,-0.02538 0.03155,-0.08633 0.0022,-0.07333 -1.48e-4,-0.07773 -0.0878,-0.164592 -0.07796,-0.07726 -0.08976,-0.09156 -0.10499,-0.127268 -0.01592,-0.03731 -0.02052,-0.07254 -0.01774,-0.135533 0.0055,-0.124668 0.03396,-0.181796 0.105806,-0.21249 0.02161,-0.0092 0.03263,-0.01069 0.07933,-0.01054 0.04611,1.53e-4 0.05918,0.0019 0.0872,0.01193 0.05433,0.01938 0.09655,0.05435 0.111341,0.09224 0.01049,0.02686 0.01468,0.07397 0.01161,0.13067 l -0.0029,0.05372 -0.07652,-0.008 c -0.04209,-0.0045 -0.07899,-0.0081 -0.08201,-0.0083 -0.0042,-2.24e-4 -0.0049,-0.01296 -0.0026,-0.05781 0.0027,-0.05475 0.0024,-0.05802 -0.0064,-0.06752 -0.0207,-0.02222 -0.04967,-0.0045 -0.05499,0.03356 -0.0016,0.01179 -0.0023,0.03668 -0.0014,0.0553 0.0021,0.04258 0.0073,0.05061 0.07091,0.10827 0.120254,0.10905 0.142536,0.15135 0.142311,0.270161 -1.8e-4,0.09442 -0.01372,0.166215 -0.03768,0.19995 -0.03549,0.04994 -0.124022,0.07702 -0.200077,0.06121 z"
       id="path1609" />
    <path
       style="fill:#000000;stroke:#000000;stroke-width:0.00202267;stroke-linecap:round;stroke-linejoin:round;paint-order:stroke markers fill"
       d="m 30.577016,28.231144 c -0.006,-7.76e-4 -0.03355,-0.0027 -0.06129,-0.0044 l -0.05045,-0.003 0.0023,-0.02985 c 0.0015,-0.02059 7.02e-4,-0.02985 -0.0027,-0.02985 -0.0027,0 -0.005,0.0021 -0.005,0.0046 0,0.0093 -0.033,0.0436 -0.04989,0.05186 -0.03316,0.01621 -0.07758,0.01 -0.113485,-0.01588 -0.04191,-0.0302 -0.05277,-0.07473 -0.04545,-0.186399 0.0025,-0.0389 0.0068,-0.07866 0.0094,-0.08833 0.01014,-0.03787 0.03723,-0.05866 0.125817,-0.09653 0.06952,-0.02972 0.08503,-0.03937 0.09054,-0.05634 0.0077,-0.02356 0.0062,-0.11628 -0.0019,-0.128833 -0.008,-0.01235 -0.03258,-0.01423 -0.04114,-0.0032 -0.0035,0.0045 -0.0072,0.03357 -0.01,0.07738 l -0.0044,0.07018 -0.0524,-0.003 c -0.02882,-0.0016 -0.06468,-0.0043 -0.0797,-0.0058 l -0.02731,-0.0028 0.0027,-0.04018 c 0.0062,-0.09294 0.0182,-0.133061 0.0497,-0.16686 0.04706,-0.05051 0.113748,-0.0676 0.19705,-0.05049 0.0181,0.0037 0.04163,0.0109 0.0523,0.01597 0.02915,0.01384 0.06,0.04738 0.07445,0.08095 l 0.0125,0.02903 v 0.09778 c 0,0.05378 -0.0038,0.185266 -0.0085,0.292189 l -0.0085,0.194404 -0.0219,-6.97e-4 c -0.01205,-3.84e-4 -0.02678,-0.0014 -0.03274,-0.0021 z m -0.124249,-0.119547 c 0.01119,-0.0088 0.01495,-0.03386 0.01794,-0.119544 0.0014,-0.04239 0.0036,-0.08178 0.0047,-0.08754 0.003,-0.01543 -0.0046,-0.01287 -0.02679,0.0091 -0.02751,0.02721 -0.03181,0.03859 -0.03709,0.09817 -0.0057,0.06362 -0.0018,0.09137 0.01378,0.09983 0.01359,0.0074 0.0181,0.0074 0.02749,1.3e-5 z"
       id="path1611" />
    <path
       style="fill:#000000;stroke:#000000;stroke-width:0.00202267;stroke-linecap:round;stroke-linejoin:round;paint-order:stroke markers fill"
       d="m 31.151805,28.079127 c 0.0045,-0.268765 0.0048,-0.372128 9.92e-4,-0.391348 -0.0038,-0.01916 -0.01841,-0.02934 -0.03436,-0.0239 -0.01928,0.0066 -0.02124,0.02459 -0.02527,0.232126 -0.0021,0.107763 -0.0039,0.23103 -0.004,0.273927 l -1.67e-4,0.07799 -0.06616,-5.1e-5 c -0.0364,-2.9e-5 -0.07363,-0.0014 -0.08274,-0.003 l -0.01657,-0.0029 0.0032,-0.282674 0.0032,-0.282676 -0.0093,-0.01002 c -0.01208,-0.01297 -0.02458,-0.0127 -0.03716,7.97e-4 -0.01342,0.0144 -0.01469,0.03797 -0.01825,0.337948 l -0.0028,0.239338 -0.0801,-0.0027 c -0.04406,-0.0015 -0.08126,-0.004 -0.08267,-0.0054 -0.0023,-0.0025 0.0066,-0.688335 0.0089,-0.689046 5.52e-4,-1.67e-4 0.03847,3.47e-4 0.08425,0.0012 l 0.08325,0.0015 -0.0026,0.03311 -0.0026,0.03311 0.02794,-0.03058 c 0.02243,-0.02454 0.03256,-0.03205 0.05137,-0.03804 0.0288,-0.0092 0.04074,-0.0093 0.06693,-8.79e-4 0.02658,0.0086 0.04706,0.02572 0.06511,0.05448 l 0.01457,0.02323 0.01289,-0.0188 c 0.02416,-0.03527 0.06571,-0.06084 0.09884,-0.06084 0.02051,0 0.05549,0.01521 0.07216,0.03138 0.04275,0.04145 0.04456,0.05936 0.03872,0.384536 -0.0025,0.140624 -0.0046,0.263821 -0.0046,0.273771 v 0.01809 h -0.08286 -0.08286 z"
       id="path1613" />
    <path
       style="fill:#000000;stroke:#000000;stroke-width:0.00202267;stroke-linecap:round;stroke-linejoin:round;paint-order:stroke markers fill"
       d="m 31.376929,27.955732 c -0.0023,-0.217047 -0.0041,-0.394922 -0.004,-0.39528 1.08e-4,-3.59e-4 0.03869,-0.0015 0.08572,-0.0025 l 0.08552,-0.0018 0.0013,0.03214 0.0013,0.03214 0.01406,-0.02105 c 0.06172,-0.09241 0.185337,-0.06775 0.205928,0.04107 0.0037,0.01957 0.0053,0.101136 0.0054,0.276858 1.89e-4,0.243206 -2.2e-5,0.249614 -0.0089,0.27007 -0.02087,0.04818 -0.05251,0.07042 -0.100165,0.07042 -0.03601,0 -0.05897,-0.01177 -0.09051,-0.0464 l -0.024,-0.02635 0.003,0.08265 0.003,0.08265 h -0.08678 -0.08678 z m 0.219721,0.180539 c 0.0055,-0.0037 0.0067,-0.02454 0.0077,-0.131472 6.48e-4,-0.06988 -3.64e-4,-0.172832 -0.0023,-0.228775 -0.0032,-0.09258 -0.0041,-0.102301 -0.01177,-0.108261 -0.01179,-0.0093 -0.0257,-0.0081 -0.03494,0.0028 -0.01085,0.01286 -0.01224,0.06341 -0.0077,0.277007 0.0026,0.121606 0.0053,0.175368 0.0091,0.182763 0.0058,0.01122 0.02724,0.01442 0.03979,0.0059 z"
       id="path1615" />
    <path
       style="fill:#000000;stroke:#000000;stroke-width:0.00202267;stroke-linecap:round;stroke-linejoin:round;paint-order:stroke markers fill"
       d="m 31.83977,28.237004 c 7.8e-5,-0.003 -0.0051,-0.192372 -0.01161,-0.420918 -0.0065,-0.228547 -0.0108,-0.416563 -0.0096,-0.417815 0.0018,-0.0019 0.168838,-0.01103 0.17183,-0.0094 5.69e-4,3.16e-4 0.0059,0.170151 0.01176,0.37741 0.0059,0.207258 0.01147,0.397084 0.01239,0.421835 l 0.0016,0.045 -0.0438,0.0026 c -0.10885,0.0065 -0.132743,0.0067 -0.132599,0.0013 z"
       id="path1617" />
    <path
       style="fill:#000000;stroke:#000000;stroke-width:0.00202267;stroke-linecap:round;stroke-linejoin:round;paint-order:stroke markers fill"
       d="m 32.230125,28.228608 c -0.08451,-0.0091 -0.140142,-0.06709 -0.155681,-0.162287 -0.0075,-0.04572 -0.01901,-0.288654 -0.01648,-0.346901 0.0036,-0.08334 0.02374,-0.13009 0.07143,-0.165843 0.03344,-0.02506 0.07528,-0.03796 0.123673,-0.0381 0.04871,-1.45e-4 0.08013,0.009 0.113208,0.03283 0.06037,0.04355 0.08114,0.10366 0.08848,0.256101 l 0.0032,0.06635 h -0.01336 c -0.02665,0 -0.207481,0.01424 -0.209593,0.01651 -0.0039,0.0042 0.007,0.19492 0.01186,0.208027 0.009,0.02438 0.04374,0.02145 0.05328,-0.0045 0.0032,-0.0085 0.0039,-0.03789 0.0022,-0.0862 -0.0014,-0.04034 -0.0021,-0.07349 -0.0015,-0.07369 0.0025,-9.02e-4 0.157307,-0.01193 0.15825,-0.01127 0.0041,0.0029 0.0055,0.117164 0.0016,0.142 -0.01064,0.06872 -0.05548,0.132638 -0.107756,0.15363 -0.02919,0.01172 -0.08317,0.01757 -0.122737,0.01332 z m 0.03422,-0.455576 0.01903,-6.4e-5 -0.003,-0.05005 c -0.004,-0.06669 -0.0085,-0.08407 -0.02252,-0.08785 -0.006,-0.0016 -0.01575,-6.49e-4 -0.02154,0.0022 -0.01044,0.0051 -0.01052,0.0057 -0.01052,0.07331 v 0.06816 l 0.0098,-0.0028 c 0.0054,-0.0015 0.01832,-0.0028 0.02879,-0.0029 z"
       id="path1619" />
    <path
       style="fill:#000000;stroke:#000000;stroke-width:0.00202267;stroke-linecap:round;stroke-linejoin:round;paint-order:stroke markers fill"
       d="m 32.511783,27.818279 c -0.0016,-0.0046 -0.01139,-0.164457 -0.01016,-0.165848 0.0018,-0.002 0.124574,-0.01495 0.125597,-0.01325 0.0016,0.0027 0.01034,0.163717 0.0089,0.165198 -8.55e-4,9.16e-4 -0.02081,0.0036 -0.04436,0.006 -0.02354,0.0024 -0.0511,0.0053 -0.06124,0.0067 -0.01014,0.0013 -0.0186,0.0018 -0.01881,0.0013 z"
       id="path1621" />
    <path
       style="fill:#000000;stroke:#000000;stroke-width:0.00202267;stroke-linecap:round;stroke-linejoin:round;paint-order:stroke markers fill"
       d="m 32.532169,28.1513 c -0.0015,-0.02497 -0.0041,-0.06237 -0.0055,-0.08311 l -0.0026,-0.03771 0.02767,-0.0029 c 0.01521,-0.0016 0.04351,-0.0043 0.06288,-0.006 l 0.03521,-0.003 0.0025,0.02041 c 0.0014,0.01123 0.0038,0.04555 0.0052,0.07629 0.0014,0.03074 0.0036,0.05923 0.0046,0.06332 0.0016,0.0064 -0.0062,0.0082 -0.05348,0.01284 -0.08233,0.008 -0.07327,0.01276 -0.07661,-0.04007 z"
       id="path1623" />
    <path
       style="fill:#000000;stroke:#000000;stroke-width:0.00202267;stroke-linecap:round;stroke-linejoin:round;paint-order:stroke markers fill"
       d="m 32.986637,28.154781 c -0.02956,-0.0046 -0.06569,-0.02283 -0.08763,-0.04411 -0.02362,-0.0229 -0.03757,-0.05541 -0.04799,-0.111873 -0.0088,-0.04778 -0.02079,-0.159062 -0.01747,-0.162401 9.92e-4,-0.0011 0.03505,-0.0064 0.07562,-0.01189 0.04057,-0.0055 0.07782,-0.01094 0.08278,-0.01205 0.0087,-0.0019 0.0093,9.68e-4 0.01452,0.06422 0.0067,0.08022 0.01527,0.136674 0.02225,0.145696 0.0077,0.0099 0.03293,0.0083 0.04316,-0.0026 0.0072,-0.0077 0.0087,-0.01548 0.0087,-0.0454 -4.8e-5,-0.04108 -0.01091,-0.152578 -0.01737,-0.178337 -0.0097,-0.03879 -0.03538,-0.054 -0.08158,-0.04839 l -0.02499,0.003 -0.0053,-0.05708 c -0.0029,-0.03139 -0.0041,-0.05831 -0.0028,-0.0598 0.0014,-0.0015 0.01614,-0.0052 0.03277,-0.0082 0.04926,-0.0089 0.06027,-0.02162 0.06027,-0.06964 0,-0.03931 -0.0087,-0.113961 -0.01525,-0.130765 -0.0068,-0.01739 -0.02308,-0.02406 -0.03937,-0.01608 -0.01887,0.0092 -0.02134,0.02301 -0.01587,0.08816 0.0027,0.03239 0.0044,0.05951 0.0037,0.06025 -0.002,0.0021 -0.164417,0.02472 -0.165965,0.02306 -0.0043,-0.0046 -0.01092,-0.104297 -0.009,-0.135892 0.0053,-0.08788 0.03911,-0.128374 0.12898,-0.154473 0.02066,-0.006 0.04504,-0.0082 0.09112,-0.0083 0.05703,-1.42e-4 0.06504,8.74e-4 0.0856,0.01085 0.05853,0.02839 0.09664,0.115122 0.09664,0.219916 0,0.05202 -0.0061,0.07061 -0.03404,0.102939 -0.01295,0.01501 -0.0228,0.02787 -0.02188,0.02857 9.02e-4,6.99e-4 0.01005,0.0051 0.02027,0.0099 0.02516,0.01175 0.0467,0.03857 0.05506,0.06854 0.02662,0.09549 0.03303,0.255328 0.01252,0.311909 -0.02502,0.069 -0.07857,0.106312 -0.17218,0.119958 -0.03718,0.0054 -0.04232,0.0054 -0.07515,2.8e-4 z"
       id="path1625" />
    <path
       style="fill:#000000;stroke:#000000;stroke-width:0.00202267;stroke-linecap:round;stroke-linejoin:round;paint-order:stroke markers fill"
       d="m 33.278104,27.764091 c -0.0041,-0.03481 -0.0082,-0.06649 -0.0092,-0.0704 -0.0014,-0.0059 0.01569,-0.01019 0.09908,-0.02488 0.05548,-0.0098 0.105858,-0.0188 0.111962,-0.02006 l 0.0111,-0.0023 0.0087,0.07025 c 0.0048,0.03863 0.0076,0.07031 0.0062,0.07038 -0.0013,6.9e-5 -0.05143,0.0092 -0.111401,0.02023 l -0.109045,0.0201 z"
       id="path1627" />
    <path
       style="fill:#000000;stroke:#000000;stroke-width:0.00202267;stroke-linecap:round;stroke-linejoin:round;paint-order:stroke markers fill"
       d="m 33.686326,28.023891 c -0.02465,-0.0062 -0.06651,-0.03146 -0.07953,-0.04798 -0.0062,-0.0079 -0.0169,-0.02712 -0.02372,-0.04271 -0.01355,-0.03098 -0.03316,-0.116959 -0.03497,-0.153354 l -0.0012,-0.02293 0.0772,-0.01816 c 0.04246,-0.01 0.07798,-0.01733 0.07892,-0.01631 9.91e-4,0.0011 0.0068,0.03194 0.01301,0.0687 0.0062,0.03676 0.01417,0.07283 0.01769,0.08014 0.01264,0.02625 0.04517,0.02129 0.05692,-0.0086 0.0058,-0.01468 0.0061,-0.02272 0.0021,-0.05008 -0.0064,-0.04399 -0.01623,-0.07771 -0.0269,-0.09227 -0.0053,-0.0073 -0.04694,-0.03275 -0.103846,-0.06365 -0.07447,-0.04043 -0.09933,-0.05628 -0.114988,-0.07334 -0.04024,-0.0438 -0.06235,-0.115142 -0.06604,-0.213108 -0.0021,-0.05508 -0.0014,-0.06305 0.0076,-0.08847 0.01236,-0.03507 0.05139,-0.07812 0.08794,-0.097 0.06697,-0.03459 0.157032,-0.04126 0.209021,-0.01548 0.04028,0.01997 0.05352,0.03731 0.0715,0.09363 0.0083,0.02597 0.02445,0.113129 0.0215,0.115976 -9.92e-4,9.67e-4 -0.03726,0.01003 -0.08052,0.02008 l -0.07864,0.01828 -0.0051,-0.03282 c -0.0029,-0.01805 -0.008,-0.04377 -0.01148,-0.05716 -0.0089,-0.03454 -0.02612,-0.04299 -0.04744,-0.0233 -0.01014,0.0094 -0.01143,0.01389 -0.01132,0.03988 1.86e-4,0.04171 0.01125,0.07878 0.02882,0.09656 0.0079,0.008 0.03363,0.02354 0.05709,0.03445 0.07136,0.03319 0.125695,0.06547 0.150976,0.08964 0.04772,0.04565 0.07748,0.144736 0.07798,0.259709 2.7e-4,0.06119 -6.3e-5,0.06352 -0.01255,0.08772 -0.02611,0.05059 -0.08859,0.09586 -0.152045,0.110153 -0.03355,0.0075 -0.08196,0.0084 -0.107961,0.0018 z"
       id="path1629" />
    <path
       style="fill:#000000;stroke:#000000;stroke-width:0.00202267;stroke-linecap:round;stroke-linejoin:round;paint-order:stroke markers fill"
       d="m 34.121871,27.906457 c -0.06204,-0.0155 -0.0953,-0.05358 -0.120693,-0.138145 -0.0113,-0.03764 -0.02777,-0.107638 -0.02582,-0.109735 0.0046,-0.0049 0.153332,-0.05237 0.155588,-0.0496 0.0015,0.0018 0.0088,0.02977 0.01622,0.06206 0.01574,0.06847 0.01919,0.07916 0.02887,0.08957 0.01877,0.02015 0.05429,-0.0044 0.05429,-0.03752 0,-0.02315 -0.01061,-0.06691 -0.02368,-0.09762 -0.01352,-0.03177 -0.02632,-0.04023 -0.121669,-0.08035 -0.04295,-0.01808 -0.08841,-0.03924 -0.101006,-0.04702 -0.05516,-0.0341 -0.09476,-0.131595 -0.0996,-0.245184 -0.0022,-0.05086 -0.0019,-0.05283 0.01124,-0.08296 0.03415,-0.07832 0.122512,-0.130136 0.221914,-0.130132 0.03839,1e-6 0.04913,0.0017 0.06824,0.01089 0.03187,0.0153 0.05373,0.04266 0.0695,0.08701 0.01326,0.03729 0.03027,0.107466 0.02684,0.11071 -9.92e-4,9.68e-4 -0.03639,0.01327 -0.0786,0.02733 l -0.07673,0.02557 -0.0052,-0.02378 c -0.01808,-0.08252 -0.03044,-0.102957 -0.05475,-0.09046 -0.01985,0.01021 -0.0251,0.02784 -0.01904,0.06394 0.0065,0.03873 0.02095,0.06977 0.03842,0.08245 0.0075,0.0054 0.04052,0.01968 0.07344,0.03169 0.139443,0.05084 0.172169,0.0797 0.206397,0.182051 0.01687,0.05044 0.02948,0.120244 0.02963,0.164026 1.17e-4,0.03371 -0.0016,0.04321 -0.0118,0.06569 -0.01445,0.03182 -0.05167,0.07278 -0.08409,0.09254 -0.05522,0.03367 -0.12942,0.04908 -0.177894,0.03697 z"
       id="path1631" />
  </g>
</svg>
