<?xml version="1.0" encoding="UTF-8" standalone="no"?>
<svg
   xmlns:dc="http://purl.org/dc/elements/1.1/"
   xmlns:cc="http://creativecommons.org/ns#"
   xmlns:rdf="http://www.w3.org/1999/02/22-rdf-syntax-ns#"
   xmlns:svg="http://www.w3.org/2000/svg"
   xmlns="http://www.w3.org/2000/svg"
   xmlns:sodipodi="http://sodipodi.sourceforge.net/DTD/sodipodi-0.dtd"
   xmlns:inkscape="http://www.inkscape.org/namespaces/inkscape"
   viewBox="0 0 64 64"
   version="1.1"
   id="svg865"
   sodipodi:docname="desert_snapper_vial.svg"
   inkscape:version="1.0.2 (e86c870879, 2021-01-15)">
  <metadata
     id="metadata871">
    <rdf:RDF>
      <cc:Work
         rdf:about="">
        <dc:format>image/svg+xml</dc:format>
        <dc:type
           rdf:resource="http://purl.org/dc/dcmitype/StillImage" />
        <dc:title />
      </cc:Work>
    </rdf:RDF>
  </metadata>
  <defs
     id="defs869">
    <rect
       x="20.840103"
       y="33.578929"
       width="31.712364"
       height="16.029368"
       id="rect1829" />
    <rect
       x="-81.409824"
       y="-17.059822"
       width="10.783929"
       height="2.0330355"
       id="rect1108" />
    <rect
       x="40.60981"
       y="33.981441"
       width="10.340256"
       height="1.7675648"
       id="rect1095" />
  </defs>
  <sodipodi:namedview
     pagecolor="#ffffff"
     bordercolor="#666666"
     borderopacity="1"
     objecttolerance="10"
     gridtolerance="10"
     guidetolerance="10"
     inkscape:pageopacity="0"
     inkscape:pageshadow="2"
     inkscape:window-width="1918"
     inkscape:window-height="2054"
     id="namedview867"
     showgrid="false"
     showguides="true"
     inkscape:guide-bbox="true"
     inkscape:zoom="15.992014"
     inkscape:cx="31.264395"
     inkscape:cy="28.16761"
     inkscape:window-x="-10"
     inkscape:window-y="0"
     inkscape:window-maximized="0"
     inkscape:current-layer="svg865"
     inkscape:document-rotation="0" />
  <text
     xml:space="preserve"
     id="text1093"
     style="font-style:normal;font-weight:normal;font-size:0.70898px;line-height:1.25;font-family:sans-serif;text-align:center;text-anchor:middle;white-space:pre;fill:#000000;fill-opacity:1;stroke:none;stroke-width:0.320356;stroke-miterlimit:4;stroke-dasharray:none"
     transform="matrix(0.78300353,0,0,0.88197412,-15.575773,-11.683061)"
     x="48.546452"
     y="44.355078"><tspan
       id="tspan1097"
       style="font-style:normal;font-variant:normal;font-weight:normal;font-stretch:normal;font-size:0.70898px;font-family:Impact;-inkscape-font-specification:Impact;text-align:center;text-anchor:middle;stroke-width:0.320356;stroke-miterlimit:4;stroke-dasharray:none" /></text>
  <text
     xml:space="preserve"
     id="text1106"
     style="font-size:0.544436px;line-height:1.25;font-family:sans-serif;text-align:center;text-anchor:middle;white-space:pre;stroke-width:0.266221;stroke-miterlimit:4;stroke-dasharray:none"
     x="47.694473"
     y="38.201882"><tspan
       id="tspan1110"
       style="font-style:normal;font-variant:normal;font-weight:normal;font-stretch:normal;font-family:Impact;-inkscape-font-specification:Impact;text-align:center;text-anchor:middle;stroke-width:0.266221;stroke-miterlimit:4;stroke-dasharray:none" /></text>
  <path
     style="fill:#000000;stroke:#000000;stroke-width:0.00285697;stroke-linecap:round;stroke-linejoin:round;paint-order:stroke markers fill"
     d=""
     id="path2383" />
  <g
     id="g4259">
    <g
       id="g2473"
       transform="matrix(0.97456681,0,0,0.95969719,1.6491971,1.3396568)">
      <path
         style="fill:#fff6d5;fill-opacity:1;stroke:#fff6d5;stroke-width:0.472224;stroke-linecap:round;stroke-linejoin:round;stroke-miterlimit:4;stroke-dasharray:none;stroke-opacity:1"
         d="M 29.935137,62.514163 C 28.34488,62.095473 27.144084,60.880548 26.744678,59.28614 26.623748,58.803411 26.622474,58.567357 26.622474,36.698678 V 14.599049 h 4.384538 4.384535 v 22.01958 c 0,24.506833 0.03635,22.492649 -0.423418,23.463692 -0.595505,1.257724 -1.603683,2.097826 -2.925635,2.437855 -0.622874,0.160275 -1.48537,0.157784 -2.107357,-0.0053 z"
         id="path928" />
      <path
         id="path928-5"
         style="fill:#fff6d5;fill-opacity:1;stroke:#fff6d5;stroke-width:0.472224;stroke-linecap:round;stroke-linejoin:round;stroke-miterlimit:4;stroke-dasharray:none;stroke-opacity:1"
         d="m 31.006378,13.320438 a 4.3844546,1.1350503 0 0 0 -4.383904,1.136107 4.3844546,1.1350503 0 0 0 0,0.0105 h -0.02765 a 4.3844546,1.1350503 0 0 0 0,0.0069 4.3844546,1.1350503 0 0 0 0.02765,0.125071 v 21.968205 c 0,21.868679 0.0034,22.103908 0.124362,22.586637 0.399406,1.594408 1.59835,2.812439 3.188607,3.231129 0.621987,0.163121 1.484438,0.163744 2.107313,0.0036 1.321951,-0.340028 2.330552,-1.177782 2.926057,-2.435506 0.459767,-0.971043 0.424919,1.041189 0.424919,-23.465642 V 14.466967 a 4.3844546,1.1350503 0 0 0 0,-0.0105 4.3844546,1.1350503 0 0 0 -4.387359,-1.136107 z" />
      <path
         id="path875"
         style="fill:#8cc1e0;fill-opacity:0.22541;stroke:#000000;stroke-width:0.472224;stroke-linecap:round;stroke-linejoin:round;stroke-miterlimit:4;stroke-dasharray:none;stroke-opacity:1"
         d="M 26.531383,6.3262322 V 57.885328 h 0.02073 a 4.4219042,4.4471457 0 0 0 -0.02073,0.430817 4.4219042,4.4471457 0 0 0 4.421904,4.447145 4.4219042,4.4471457 0 0 0 4.421904,-4.447145 4.4219042,4.4471457 0 0 0 -0.02073,-0.430817 h 0.02073 V 6.3262322 Z" />
      <path
         style="fill:#ff5555;fill-opacity:1;stroke:#ff5555;stroke-width:0.472224;stroke-linecap:round;stroke-linejoin:round;stroke-miterlimit:4;stroke-dasharray:none;stroke-opacity:1"
         d="M 29.149074,7.2721365 C 27.707284,7.1352 26.575093,6.8743607 26.138575,6.5785775 l -0.208916,-0.1415616 -0.01627,-1.7985022 -0.01627,-1.798504 0.322863,0.1428423 c 1.16327,0.514686 3.865386,0.766679 6.332437,0.5905472 1.567813,-0.1119258 2.98538,-0.4188073 3.416951,-0.7397027 l 0.170402,-0.1266903 v 1.7554895 c 0,0.9655198 -0.02581,1.8237584 -0.05734,1.9071958 C 35.96587,6.678037 35.025655,6.9928647 33.633935,7.189569 32.853059,7.2999472 29.99561,7.352548 29.149054,7.272144 Z"
         id="path1006" />
      <path
         id="rect897"
         style="fill:none;fill-opacity:1;stroke:#000000;stroke-width:0.472224;stroke-linecap:round;stroke-linejoin:round;stroke-miterlimit:4;stroke-dasharray:none;stroke-opacity:1"
         d="m 25.771017,2.3759162 v 3.950316 h 0.01733 a 5.2180975,1.1270965 0 0 0 0,0.00694 5.2180975,1.1270965 0 0 0 5.216464,1.1291588 5.2180975,1.1270965 0 0 0 5.21986,-1.1291481 5.2180975,1.1270965 0 0 0 0,-0.00694 h 0.01733 v -3.950316 z" />
      <path
         style="fill:#ff8080;fill-opacity:1;stroke:#ff8080;stroke-width:0.472224;stroke-linecap:round;stroke-linejoin:round;stroke-miterlimit:4;stroke-dasharray:none;stroke-opacity:1"
         d="m 29.087751,3.3235123 c -1.238117,-0.1098801 -2.454928,-0.3742398 -2.913649,-0.633021 -0.653699,-0.3687751 0.0046,-0.8082545 1.625883,-1.0853224 2.878691,-0.4919717 7.25848,-0.1840958 8.132092,0.5716415 0.424013,0.3668024 -0.412195,0.7607572 -2.192127,1.0327553 -0.950877,0.145315 -3.574646,0.2095709 -4.652199,0.1139537 z"
         id="path1010" />
      <path
         id="path880"
         style="fill:none;fill-opacity:1;stroke:#000000;stroke-width:0.472224;stroke-linecap:round;stroke-linejoin:round;stroke-miterlimit:4;stroke-dasharray:none;stroke-opacity:1"
         d="m 30.986475,1.2367852 a 5.2180978,1.1270965 0 0 0 -5.216466,1.129157 5.2180978,1.1270965 0 0 0 0,0.010495 h -0.03454 a 5.2180978,1.1270965 0 0 0 0,0.00694 5.2180978,1.1270965 0 0 0 5.216466,1.1291587 5.2180978,1.1270965 0 0 0 5.21992,-1.1291587 5.2180978,1.1270965 0 0 0 0,-0.00694 h 0.03454 a 5.2180978,1.1270965 0 0 0 0,-0.010495 5.2180978,1.1270965 0 0 0 -5.21992,-1.129157 z" />
      <path
         id="path1006-6"
         style="fill:#ff5555;fill-opacity:1;stroke:#000000;stroke-width:0.472224;stroke-linecap:round;stroke-linejoin:round;stroke-miterlimit:4;stroke-dasharray:none;stroke-opacity:1"
         d="m 35.38874,24.352793 -0.146931,0.128576 c -0.374335,0.32467 -1.603444,0.6338 -2.963328,0.747031 -2.139862,0.178203 -4.486296,-0.07688 -5.495286,-0.597625 l -0.278204,-0.142469 0.01256,1.817202 0.01574,1.820675 0.01256,1.643473 0.01256,1.639999 0.01574,1.820674 0.01256,1.639999 v 0.17721 l 0.01574,1.643473 0.01256,1.820674 0.178175,0.142468 c 0.371843,0.299258 1.335049,0.563335 2.563218,0.701863 0.721126,0.08138 3.154635,0.02827 3.819816,-0.08337 1.18552,-0.199019 1.988791,-0.518452 2.088082,-0.830423 0.0055,-0.0169 0.0048,-0.311563 0.0096,-0.385677 8.51e-4,-0.01334 0.0021,-0.05447 0.0032,-0.06948 0.01751,-0.318134 0.03439,-0.726941 0.03439,-1.47322 v -1.778981 l 0.0062,-0.865169 c 0.0078,-0.282475 0.0219,-0.402878 0.0219,-0.816523 v -1.778981 l 0.0062,-0.865169 c 0.0078,-0.282477 0.02188,-0.402881 0.02188,-0.816524 V 27.81351 l 0.0062,-1.104915 c 0.0042,-0.230656 0.01574,-0.286828 0.01574,-0.580253 z m -0.0219,2.647624 -0.0062,0.82 -0.01574,0.01388 c 0.01114,-0.11157 0.01397,-0.553733 0.0219,-0.833896 z m -0.03437,3.877623 -0.0032,0.40305 -0.0062,0.0069 c 0.0055,-0.05609 0.0044,-0.312009 0.0096,-0.409998 z m -0.02814,3.523215 -0.0032,0.340509 -0.0062,0.0069 c 0.0048,-0.04753 0.0051,-0.269634 0.0096,-0.347457 z" />
      <path
         style="fill:#ffffff;fill-opacity:1;stroke:#ffffff;stroke-width:0.472224;stroke-linecap:round;stroke-linejoin:round;stroke-miterlimit:4;stroke-dasharray:none;stroke-opacity:1"
         d="m 29.95503,29.543683 c -1.122589,-0.05214 -2.420695,-0.257511 -2.907749,-0.460027 l -0.127899,-0.05319 -9e-5,-1.390155 c -4.8e-5,-0.764583 -0.01026,-1.646894 -0.02264,-1.960686 -0.02188,-0.55317 -0.02055,-0.570065 0.04272,-0.555278 0.03591,0.0084 0.201988,0.0483 0.369077,0.08869 1.871062,0.452266 5.038866,0.460838 7.058502,0.0191 0.209211,-0.04575 0.438607,-0.103138 0.509771,-0.127508 l 0.129385,-0.04431 -0.02283,1.978653 c -0.01256,1.088259 -0.03363,1.988448 -0.04684,2.000424 -0.01309,0.01192 -0.168599,0.06411 -0.345339,0.115857 -0.612702,0.179414 -1.565911,0.320449 -2.555448,0.378101 -0.449579,0.02618 -1.61439,0.03197 -2.080621,0.01032 z"
         id="path1169" />
      <path
         style="fill:#ff8080;fill-opacity:1;stroke:#ff8080;stroke-width:0.472224;stroke-linecap:round;stroke-linejoin:round;stroke-miterlimit:4;stroke-dasharray:none;stroke-opacity:1"
         d="m 29.992816,32.332577 c -1.154004,-0.0679 -2.278727,-0.263695 -2.850529,-0.496211 L 26.963598,31.7637 v -0.401234 c 0,-0.22068 -0.01008,-0.795671 -0.02243,-1.277758 l -0.02243,-0.876522 0.25217,0.08017 c 1.081504,0.343851 3.112393,0.505362 4.949162,0.393593 1.010465,-0.0615 2.114365,-0.233896 2.621798,-0.409475 0.108266,-0.03746 0.20339,-0.06811 0.211392,-0.06811 0.0349,0 -0.02436,2.405196 -0.06031,2.448778 -0.02069,0.02508 -0.147638,0.09163 -0.282066,0.147841 -0.456257,0.190835 -1.297532,0.370739 -2.184483,0.467146 -0.463061,0.05032 -1.98737,0.09069 -2.433587,0.06443 z"
         id="path1222" />
      <path
         style="fill:none;fill-opacity:1;stroke:none;stroke-width:0.472224;stroke-linecap:round;stroke-linejoin:round;stroke-miterlimit:4;stroke-dasharray:none;stroke-opacity:1"
         d="m 29.95713,30.558921 c -1.12021,-0.06384 -2.415563,-0.315325 -2.901583,-0.563312 l -0.127634,-0.06512 -9e-5,-1.70227 c -4.8e-5,-0.936249 -0.01026,-2.016652 -0.02259,-2.400896 -0.02183,-0.677368 -0.02052,-0.698058 0.04263,-0.679949 0.03583,0.01032 0.201559,0.05915 0.368293,0.108599 1.867094,0.553806 5.028183,0.564302 7.043536,0.02339 0.208767,-0.05603 0.437677,-0.126299 0.508689,-0.156131 l 0.12912,-0.05426 -0.02278,2.422898 c -0.01256,1.332592 -0.03355,2.434892 -0.04673,2.449555 -0.01309,0.01459 -0.168244,0.0785 -0.344606,0.141882 -0.611404,0.219694 -1.562591,0.392395 -2.55003,0.462992 -0.448626,0.03207 -1.610966,0.03915 -2.076208,0.01263 z m 1.327411,-1.880119 c 0,-0.03497 0.0187,-0.0478 0.05135,-0.03519 0.02825,0.01085 0.0895,0.0052 0.136142,-0.01263 0.08041,-0.03074 0.08476,-0.04622 0.08428,-0.298556 -7.18e-4,-0.366995 0.0032,-0.363049 -0.34835,-0.355767 -0.161736,0.0034 -0.195887,0.01441 -0.196743,0.06397 -9.73e-4,0.0563 -0.0032,0.05623 -0.0364,-0.0012 -0.02579,-0.04458 -0.07388,-0.05997 -0.177655,-0.05683 -0.07827,0.0023 -0.165255,4.75e-4 -0.193343,-0.0041 -0.02809,-0.0046 -0.131472,-0.006 -0.229745,-0.003 l -0.178689,0.0053 v 0.32519 0.325189 h 0.119126 0.119126 l 0.0069,-0.265286 0.0069,-0.265285 0.01167,0.265285 0.01167,0.265286 h 0.117694 0.117693 l 5.22e-4,-0.21394 c 2.72e-4,-0.117671 0.01592,-0.237045 0.03477,-0.265286 0.02356,-0.03531 0.02724,0.03152 0.01185,0.21394 l -0.02246,0.265286 h 0.121726 c 0.11948,0 0.122133,-0.003 0.143518,-0.162587 0.03408,-0.254434 0.04487,-0.250567 0.04777,0.01708 l 0.0027,0.24817 h 0.119126 c 0.08672,0 0.119126,-0.01494 0.119126,-0.055 z m -1.123194,-0.355021 c 0,-0.34227 -0.02287,-0.377273 -0.246528,-0.377273 -0.141271,0 -0.219233,0.0563 -0.248822,0.179711 -0.01976,0.08241 -0.01256,0.09419 0.0577,0.09465 0.06431,4.2e-4 0.07013,0.0071 0.02922,0.03371 -0.07402,0.04812 -0.136142,0.04161 -0.136142,-0.01423 0,-0.02666 -0.04211,-0.0801 -0.0936,-0.118721 l -0.0936,-0.07023 0.110619,-0.0011 c 0.09413,-9.23e-4 0.110618,-0.01352 0.110618,-0.08421 0,-0.129217 -0.08639,-0.190712 -0.267913,-0.190712 -0.08853,0 -0.179322,0.01848 -0.201787,0.04107 -0.06979,0.07019 -0.04969,0.290271 0.03364,0.368355 l 0.0745,0.0698 h -0.09152 c -0.08161,0 -0.09151,0.01281 -0.09151,0.117867 0,0.144265 0.09765,0.224439 0.273356,0.224439 0.146737,0 0.227212,-0.05573 0.247162,-0.171144 0.01256,-0.07222 0.01556,-0.06847 0.01942,0.02398 0.0058,0.137665 0.05985,0.167853 0.312959,0.174861 l 0.202219,0.0057 z m 1.703967,0.196089 c 0.0019,-0.101253 0.005,-0.104313 0.03304,-0.03396 0.04208,0.105326 0.172101,0.158657 0.319161,0.130906 0.197047,-0.03718 0.274188,-0.27806 0.09663,-0.301698 -0.0647,-0.0085 -0.03316,-0.0211 0.102111,-0.04045 0.186594,-0.02668 0.195708,-0.03259 0.195708,-0.126743 0,-0.0869 -0.0122,-0.09875 -0.10211,-0.09875 -0.08234,0 -0.102677,0.01494 -0.105029,0.07702 -0.0025,0.06504 -0.0076,0.06148 -0.0326,-0.02275 -0.03695,-0.124289 -0.08499,-0.155757 -0.238775,-0.156433 -0.18193,-7.86e-4 -0.247206,0.0658 -0.272712,0.278167 -0.01965,0.163709 -0.02253,0.150812 -0.02681,-0.119912 l -0.0048,-0.303326 -0.127634,0.02398 c -0.0702,0.01316 -0.127633,0.02645 -0.127633,0.02948 0,0.003 0.0048,0.178795 0.01061,0.390596 l 0.01061,0.385093 H 31.7291 c 0.128076,0 0.134107,-0.005 0.136177,-0.11125 z m 0.780675,-0.02567 c 0,-0.09127 -0.01132,-0.102694 -0.102111,-0.102694 -0.09076,0 -0.102111,0.01139 -0.102111,0.102694 0,0.09129 0.01132,0.102693 0.102111,0.102693 0.09076,0 0.102111,-0.01139 0.102111,-0.102693 z m 0.668512,-0.01884 c 0.05985,-0.0602 0.08106,-0.110681 0.06831,-0.162588 -0.01716,-0.06996 -0.0058,-0.07565 0.160762,-0.08039 0.168457,-0.0048 0.181507,8.92e-4 0.216502,0.09414 0.03437,0.09158 0.0506,0.09923 0.21038,0.09923 0.184613,0 0.309282,-0.07896 0.309282,-0.195884 0,-0.04847 0.0094,-0.04541 0.05299,0.01708 0.09658,0.13868 0.438604,0.07838 0.47925,-0.0845 0.03216,-0.128878 -0.04896,-0.277534 -0.176823,-0.324035 -0.118861,-0.04323 -0.126113,-0.0973 -0.01309,-0.0973 0.07977,0 0.08463,-0.0608 0.01309,-0.163531 -0.07475,-0.107318 -0.284716,-0.104543 -0.411855,0.0055 -0.07609,0.06582 -0.108725,0.07487 -0.169482,0.04705 -0.100678,-0.04614 -0.295212,-0.006 -0.369127,0.07612 -0.04558,0.05064 -0.05418,0.09638 -0.03624,0.192597 0.02722,0.145955 -0.0085,0.183311 -0.175921,0.184113 -0.07661,3.67e-4 -0.120877,-0.02099 -0.147621,-0.07124 -0.03099,-0.05824 -0.06337,-0.06936 -0.171693,-0.05897 -0.08135,0.0078 -0.129014,-9.34e-4 -0.122045,-0.02236 0.0064,-0.01934 0.06843,-0.03999 0.13807,-0.0459 0.112705,-0.0096 0.124096,-0.01894 0.103755,-0.08558 -0.01256,-0.04116 -0.02478,-0.07633 -0.02713,-0.07814 -0.01716,-0.01316 -0.431072,0.04458 -0.449116,0.06272 -0.01256,0.01263 -0.01221,0.108439 6.98e-4,0.212847 0.02264,0.182184 0.02765,0.189833 0.124309,0.189833 0.05796,0 0.109009,-0.02172 0.12024,-0.05114 0.03538,-0.09271 0.08053,-0.01583 0.0765,0.130194 -0.0021,0.07891 -0.01132,0.112655 -0.02032,0.075 -0.02554,-0.106767 -0.06276,-0.128576 -0.176558,-0.103441 -0.09328,0.0206 -0.103065,0.03383 -0.08487,0.114719 0.04841,0.21508 0.317618,0.284918 0.477693,0.123933 z m -4.416518,-0.246452 c -0.0064,-0.473762 -0.01733,-0.501412 -0.209141,-0.523609 l -0.161594,-0.01871 -0.05833,0.206978 c -0.06415,0.227597 -0.100218,0.187634 -0.04673,-0.05178 0.01845,-0.08259 0.03058,-0.152626 0.02696,-0.15565 -0.0037,-0.003 -0.05637,-0.01619 -0.117216,-0.02932 -0.102341,-0.02204 -0.110618,-0.01725 -0.110618,0.06447 0,0.118081 -0.06069,0.113313 -0.07432,-0.0059 -0.009,-0.07843 -0.02922,-0.09592 -0.12139,-0.104864 -0.07169,-0.0069 -0.110618,0.0044 -0.110618,0.03222 0,0.0277 -0.01504,0.02323 -0.04254,-0.01263 -0.03843,-0.0502 -0.424842,-0.185725 -0.449083,-0.157517 -0.01663,0.01943 -0.223131,0.704433 -0.223131,0.740408 0,0.03997 0.259762,0.109969 0.408131,0.109969 0.08621,0 0.114987,-0.02051 0.156111,-0.111249 l 0.05043,-0.11125 -0.02027,0.141063 c -0.01924,0.133806 -0.01539,0.142007 0.07556,0.159564 0.114916,0.0222 0.113873,0.02305 0.147373,-0.119184 l 0.0266,-0.112993 0.0035,0.124698 c 0.0041,0.14254 0.02144,0.153285 0.300693,0.185057 0.186878,0.02126 0.202171,0.01761 0.238247,-0.05794 l 0.03856,-0.08067 0.0023,0.09414 c 0.0021,0.08661 0.01327,0.09414 0.138459,0.09414 h 0.136141 z"
         id="path1141" />
      <g
         id="g1844"
         style="stroke-width:0.266221;stroke-miterlimit:4;stroke-dasharray:none"
         transform="matrix(1.7687617,0,0,1.7788583,-26.531468,-33.321673)">
        <path
           id="path1824"
           style="fill:#ffdf00;fill-opacity:1;stroke:#000000;stroke-width:0.266221;stroke-linecap:round;stroke-linejoin:round;stroke-miterlimit:4;stroke-dasharray:none;stroke-opacity:1"
           d="m 32.510722,37.314624 -1.48811,2.971649 2.974656,0.003 z" />
        <text
           xml:space="preserve"
           id="text1827"
           style="font-size:1.33333px;line-height:1.25;font-family:sans-serif;white-space:pre;shape-inside:url(#rect1829);stroke-width:0.12771;stroke-miterlimit:4;stroke-dasharray:none;"
           transform="matrix(2.3195191,0,0,1.8734171,-16.414467,-25.213814)" />
      </g>
      <path
         style="fill:#000000;stroke:#000000;stroke-width:0.00285697;stroke-linecap:round;stroke-linejoin:round;paint-order:stroke markers fill"
         d="m 30.788233,36.866201 c 0,-0.01611 -0.06403,-2.050592 -0.07124,-2.263571 l -0.0018,-0.05238 0.296285,1e-6 0.296285,10e-7 -0.003,0.07142 c -0.0037,0.08755 -0.06578,2.199519 -0.06578,2.237646 v 0.0273 h -0.225384 -0.225383 z"
         id="path2337" />
      <path
         style="fill:#000000;stroke:#000000;stroke-width:0.00285697;stroke-linecap:round;stroke-linejoin:round;paint-order:stroke markers fill"
         d="m 30.743791,37.550071 v -0.225383 h 0.266651 0.266651 v 0.225383 0.225384 h -0.266651 -0.266651 z"
         id="path2339" />
      <path
         style="fill:#000000;stroke:#000000;stroke-width:0.00285697;stroke-linecap:round;stroke-linejoin:round;paint-order:stroke markers fill"
         d="m 27.794763,30.92014 c -0.03841,-0.0072 -0.07062,-0.01369 -0.07158,-0.01435 -9.57e-4,-6.59e-4 0.01849,-0.113344 0.04321,-0.250409 0.02472,-0.137066 0.04366,-0.250504 0.04208,-0.252084 -0.0031,-0.0031 -0.01754,0.03987 -0.102855,0.305844 -0.03024,0.09428 -0.05723,0.173805 -0.05997,0.176722 -0.0043,0.0046 -0.105859,-0.01055 -0.111982,-0.01667 -0.0012,-0.0012 0.002,-0.114702 0.0071,-0.252184 0.0051,-0.137481 0.0081,-0.251183 0.0066,-0.25267 -0.0039,-0.0039 -0.0055,0.0041 -0.05117,0.25881 -0.02283,0.127294 -0.04212,0.231976 -0.04286,0.232625 -0.0021,0.0018 -0.157151,-0.02731 -0.159778,-0.03 -0.0028,-0.0029 0.129066,-0.736961 0.13316,-0.741055 0.0016,-0.0016 0.0576,0.0068 0.124398,0.01869 l 0.121456,0.02164 -0.0041,0.111105 c -0.0022,0.06111 -0.0058,0.142531 -0.0078,0.180941 -0.0024,0.04497 -0.0016,0.06758 0.0023,0.06349 0.0034,-0.0035 0.02823,-0.07777 0.05525,-0.165069 0.02701,-0.0873 0.05164,-0.161357 0.05473,-0.164578 0.0034,-0.0036 0.05242,0.0025 0.124827,0.01536 0.06557,0.01167 0.119793,0.02155 0.1205,0.02196 7.07e-4,4.09e-4 -0.02857,0.166345 -0.06507,0.368748 -0.03649,0.202402 -0.06636,0.370147 -0.06636,0.372765 -1e-5,0.0067 -0.01251,0.0054 -0.09207,-0.0096 z"
         id="path2341" />
      <path
         style="fill:#000000;stroke:#000000;stroke-width:0.00285697;stroke-linecap:round;stroke-linejoin:round;paint-order:stroke markers fill"
         d="m 28.181396,30.984148 c -0.08602,-0.0089 -0.1528,-0.04666 -0.181519,-0.102685 -0.02089,-0.04075 -0.02143,-0.09787 -0.0022,-0.238986 0.0093,-0.06809 0.01996,-0.136658 0.02379,-0.152372 0.0255,-0.104652 0.09218,-0.151655 0.204733,-0.144327 0.07142,0.0047 0.119309,0.02389 0.159953,0.06427 0.05161,0.05128 0.06062,0.09569 0.04582,0.225849 -0.0066,0.05843 -0.0084,0.06369 -0.02063,0.06345 -0.0074,-1.47e-4 -0.06196,-0.007 -0.121319,-0.01515 -0.05936,-0.0082 -0.108571,-0.01433 -0.109356,-0.01365 -0.0037,0.0032 -0.02079,0.142835 -0.02079,0.169985 0,0.02653 0.0022,0.03176 0.01561,0.03789 0.01243,0.0057 0.01878,0.005 0.03117,-0.0031 0.01666,-0.01091 0.02486,-0.03847 0.03295,-0.110649 0.0024,-0.02182 0.0062,-0.03956 0.0084,-0.03941 0.0022,1.48e-4 0.03965,0.0053 0.0833,0.01154 l 0.07936,0.01127 -0.0013,0.03655 c -0.0028,0.07921 -0.03534,0.142245 -0.09144,0.176924 -0.03523,0.02178 -0.07712,0.02871 -0.136493,0.02258 z m 0.07686,-0.43849 c 0.0023,-0.01833 0.0032,-0.04619 0.002,-0.0619 -0.002,-0.02707 -0.0032,-0.02867 -0.02266,-0.03056 -0.02484,-0.0024 -0.02985,0.0067 -0.03925,0.07158 -0.0073,0.0502 -0.005,0.05396 0.0324,0.05411 l 0.02335,9.7e-5 z"
         id="path2343" />
      <path
         style="fill:#000000;stroke:#000000;stroke-width:0.00285697;stroke-linecap:round;stroke-linejoin:round;paint-order:stroke markers fill"
         d="m 28.534401,31.01882 c -0.04365,-0.0051 -0.08015,-0.01009 -0.08111,-0.01101 -0.0024,-0.0022 0.06317,-0.609044 0.06613,-0.612439 0.0013,-0.0015 0.04161,0.0014 0.08961,0.0063 0.09766,0.0101 0.09128,0.0051 0.0812,0.06299 l -0.005,0.02857 0.02796,-0.0299 c 0.02781,-0.02975 0.06283,-0.04945 0.08787,-0.04945 0.01196,0 0.01278,0.0027 0.0093,0.03016 -0.0021,0.01659 -0.0072,0.06301 -0.01133,0.103169 l -0.0075,0.07301 -0.03713,0.004 c -0.04866,0.0052 -0.06863,0.02037 -0.07848,0.05949 -0.0042,0.01677 -0.01544,0.101491 -0.02492,0.18826 -0.01454,0.133011 -0.01881,0.157637 -0.02724,0.156966 -0.0055,-4.38e-4 -0.04571,-0.005 -0.08935,-0.01014 z"
         id="path2345" />
      <path
         style="fill:#000000;stroke:#000000;stroke-width:0.00285697;stroke-linecap:round;stroke-linejoin:round;paint-order:stroke markers fill"
         d="m 28.862839,31.053392 -0.06836,-0.0062 0.0036,-0.02937 c 0.002,-0.01615 0.01469,-0.154666 0.0283,-0.307808 0.01361,-0.153143 0.02565,-0.279348 0.02676,-0.280457 0.0037,-0.0037 0.16954,0.01334 0.174113,0.01791 0.0025,0.0025 0.0017,0.02023 -0.0018,0.03943 -0.0035,0.0192 -0.0054,0.03492 -0.0044,0.03492 0.0011,0 0.01702,-0.01548 0.03542,-0.0344 0.02454,-0.02524 0.03989,-0.03559 0.05757,-0.03886 0.01326,-0.0024 0.02578,-0.0028 0.02784,-7.15e-4 0.0021,0.0021 2.6e-5,0.04954 -0.0045,0.105518 l -0.0082,0.101782 h -0.02774 c -0.03456,0 -0.06847,0.01371 -0.07802,0.03155 -0.0099,0.01857 -0.01681,0.06633 -0.02835,0.197005 -0.0054,0.06111 -0.01145,0.126104 -0.01346,0.144436 l -0.0037,0.03333 -0.02335,-9.7e-4 c -0.01284,-5.34e-4 -0.05412,-0.0037 -0.09172,-0.0071 z"
         id="path2347" />
      <path
         style="fill:#000000;stroke:#000000;stroke-width:0.00285697;stroke-linecap:round;stroke-linejoin:round;paint-order:stroke markers fill"
         d="m 29.489899,31.101758 c -0.01397,-0.0011 -0.04639,-0.0038 -0.07206,-0.0059 l -0.04666,-0.0038 0.0043,-0.02956 0.0043,-0.02956 -0.02749,0.02646 c -0.03457,0.03328 -0.06745,0.04307 -0.112323,0.03344 -0.03995,-0.0086 -0.06927,-0.02786 -0.08624,-0.05675 -0.01127,-0.01918 -0.0129,-0.03187 -0.01202,-0.09321 6.26e-4,-0.04373 0.005,-0.0846 0.0113,-0.106382 0.01295,-0.04455 0.03121,-0.05698 0.137077,-0.09327 0.104186,-0.03572 0.104051,-0.03559 0.106731,-0.10526 0.0024,-0.06293 -0.0032,-0.07422 -0.03492,-0.07054 -0.02077,0.0024 -0.02504,0.01471 -0.03106,0.08949 l -0.004,0.04935 -0.0296,-0.0032 c -0.01628,-0.0017 -0.05494,-0.005 -0.0859,-0.0071 l -0.0563,-0.0039 0.0044,-0.03905 c 0.01181,-0.105422 0.02996,-0.13739 0.0966,-0.170198 0.04031,-0.01985 0.04723,-0.02121 0.106729,-0.02103 0.08492,2.49e-4 0.127941,0.0134 0.16875,0.05157 0.04101,0.03836 0.0472,0.05878 0.04612,0.15227 -8.61e-4,0.07474 -0.01791,0.358851 -0.02481,0.4134 -0.0037,0.02957 7.71e-4,0.02794 -0.06295,0.0228 z m -0.119634,-0.122793 c 0.0077,-0.0165 0.02091,-0.184116 0.01447,-0.184116 -0.01293,0 -0.05721,0.04832 -0.06284,0.06856 -0.0093,0.03338 -0.0084,0.117544 0.0013,0.127254 0.01257,0.01257 0.03875,0.0061 0.04707,-0.0117 z"
         id="path2349" />
      <path
         style="fill:#000000;stroke:#000000;stroke-width:0.00285697;stroke-linecap:round;stroke-linejoin:round;paint-order:stroke markers fill"
         d="m 29.843211,31.120261 -0.04666,-0.0022 0.0038,-0.04891 c 0.0021,-0.0269 0.0099,-0.197475 0.0174,-0.379052 0.0075,-0.181576 0.01394,-0.33036 0.01432,-0.330631 0.0039,-0.0028 0.182835,0.0091 0.18609,0.01235 0.0043,0.0043 -0.02081,0.674595 -0.02726,0.726188 l -0.0034,0.02698 -0.04881,-0.0013 c -0.02685,-6.94e-4 -0.06981,-0.0023 -0.09548,-0.0035 z"
         id="path2351" />
      <path
         style="fill:#000000;stroke:#000000;stroke-width:0.00285697;stroke-linecap:round;stroke-linejoin:round;paint-order:stroke markers fill"
         d="m 30.401822,31.139284 -0.08484,-0.002 0.0047,-0.253734 c 0.0037,-0.199131 0.003,-0.25579 -0.0032,-0.263287 -0.01204,-0.0145 -0.04266,-0.0121 -0.05129,0.004 -0.0062,0.01163 -0.01688,0.286179 -0.01826,0.470239 l -3.18e-4,0.04258 -0.0873,-0.0038 c -0.04801,-0.0021 -0.08823,-0.0045 -0.08937,-0.0055 -0.0027,-0.0023 0.01197,-0.614845 0.01484,-0.617713 0.0012,-0.0012 0.0417,-1.86e-4 0.08996,0.0023 l 0.08774,0.0045 -0.0023,0.02935 -0.0023,0.02935 0.02938,-0.02708 c 0.03539,-0.03262 0.0539,-0.04032 0.09689,-0.04033 0.04031,-4e-6 0.07774,0.01794 0.100975,0.04841 l 0.01695,0.02223 0.03082,-0.02771 c 0.06002,-0.05396 0.13926,-0.0529 0.185864,0.0025 0.02985,0.03547 0.03122,0.05292 0.0262,0.331666 l -0.0047,0.258714 h -0.08903 -0.08903 l 0.0046,-0.24604 c 0.005,-0.270066 0.004,-0.280912 -0.02712,-0.280912 -0.03496,0 -0.03491,-3.17e-4 -0.04147,0.273708 -0.0033,0.139284 -0.0077,0.25262 -0.0097,0.251858 -0.002,-7.63e-4 -0.04186,-0.0023 -0.08852,-0.0034 z"
         id="path2353" />
      <path
         style="fill:#000000;stroke:#000000;stroke-width:0.00285697;stroke-linecap:round;stroke-linejoin:round;paint-order:stroke markers fill"
         d="M 30.813628,30.877384 V 30.52185 h 0.09206 0.09206 v 0.02932 0.02932 l 0.0262,-0.0262 c 0.04819,-0.04819 0.113649,-0.05502 0.170009,-0.01772 0.04551,0.03012 0.04735,0.03966 0.05024,0.261672 0.0035,0.269711 -0.0044,0.312003 -0.06424,0.343949 -0.03343,0.01784 -0.09034,0.01493 -0.126827,-0.0065 -0.01669,-0.0098 -0.0338,-0.02335 -0.03803,-0.03013 -0.0042,-0.0068 -0.0099,-0.01233 -0.01252,-0.01233 -0.0027,0 -0.0048,0.03143 -0.0048,0.06984 v 0.06984 h -0.09206 -0.09206 z m 0.241413,0.155132 c 0.0068,-0.01779 0.0073,-0.361715 6.49e-4,-0.393213 -0.0032,-0.01494 -0.0079,-0.01949 -0.02185,-0.02109 -0.03619,-0.0042 -0.03609,-0.0047 -0.03609,0.209578 0,0.123279 0.0024,0.201027 0.0066,0.208734 0.01025,0.01914 0.0429,0.01657 0.05072,-0.004 z"
         id="path2355" />
      <path
         style="fill:#000000;stroke:#000000;stroke-width:0.00285697;stroke-linecap:round;stroke-linejoin:round;paint-order:stroke markers fill"
         d="m 31.45486,31.146409 c -0.08856,-0.0172 -0.131584,-0.06114 -0.145548,-0.148638 -0.0036,-0.02257 -0.0073,-0.106737 -0.0083,-0.18705 -0.0019,-0.162974 0.0034,-0.195749 0.03865,-0.238294 0.05336,-0.06438 0.182714,-0.08642 0.276708,-0.04714 0.03499,0.01462 0.07636,0.0561 0.09328,0.09353 0.01466,0.03244 0.015,0.03735 0.015,0.217301 0,0.17858 -4.28e-4,0.184917 -0.01423,0.210741 -0.03465,0.06482 -0.09348,0.09662 -0.185756,0.100417 -0.02968,0.0012 -0.06111,8.31e-4 -0.06984,-8.65e-4 z M 31.5443,31.02789 c 0.01007,-0.0221 -0.0016,-0.393539 -0.01274,-0.407014 -0.013,-0.01566 -0.03769,-0.01274 -0.04597,0.0054 -0.0081,0.01774 5.96e-4,0.394391 0.0094,0.408211 0.009,0.01404 0.04191,0.0096 0.04931,-0.0066 z"
         id="path2357" />
      <path
         style="fill:#000000;stroke:#000000;stroke-width:0.00285697;stroke-linecap:round;stroke-linejoin:round;paint-order:stroke markers fill"
         d="m 31.803972,31.109837 c -4e-5,-0.01087 -0.0057,-0.149594 -0.01254,-0.308272 -0.0069,-0.158677 -0.01165,-0.289316 -0.01066,-0.29031 9.93e-4,-9.93e-4 0.0428,-0.0038 0.09291,-0.0062 l 0.0911,-0.0043 -0.0038,0.04388 c -0.003,0.03517 -0.0023,0.04154 0.0037,0.03207 0.03684,-0.05795 0.0561,-0.07595 0.09244,-0.08637 l 0.01982,-0.0057 v 0.04937 c 0,0.02716 0.0018,0.07514 0.0041,0.106633 l 0.0041,0.05726 -0.02808,0.0042 c -0.01544,0.0023 -0.03698,0.0096 -0.04785,0.01624 -0.03428,0.02085 -0.03634,0.03793 -0.02771,0.230341 0.0042,0.09406 0.0067,0.171848 0.0056,0.172853 -0.0012,0.001 -0.04282,0.0032 -0.09258,0.0049 l -0.09047,0.0031 z"
         id="path2359" />
      <path
         style="fill:#000000;stroke:#000000;stroke-width:0.00285697;stroke-linecap:round;stroke-linejoin:round;paint-order:stroke markers fill"
         d="m 32.243655,31.100547 c -0.02854,-0.0082 -0.05671,-0.03718 -0.06381,-0.06562 -0.0038,-0.01507 -0.01151,-0.113106 -0.01721,-0.217861 -0.0057,-0.104756 -0.0115,-0.196408 -0.01291,-0.203672 -0.0021,-0.01072 -0.0062,-0.01268 -0.02174,-0.01039 -0.01769,0.0026 -0.0192,0.0013 -0.0192,-0.01606 0,-0.01038 -0.0018,-0.03214 -0.004,-0.04834 l -0.004,-0.02946 h 0.02154 0.02154 l -0.0023,-0.04979 -0.0023,-0.04979 0.06253,-0.0041 c 0.03439,-0.0023 0.0761,-0.0042 0.09268,-0.0042 l 0.03016,-3.3e-5 v 0.04762 0.04762 h 0.02857 0.02857 v 0.04437 0.04437 l -0.02428,0.0039 -0.02428,0.0039 0.0022,0.0327 c 0.0012,0.01798 0.0064,0.106654 0.01152,0.197044 0.0056,0.0993 0.01219,0.167774 0.01653,0.173006 0.004,0.0048 0.01653,0.0087 0.02795,0.0087 0.02488,0 0.02847,0.0072 0.02847,0.05673 v 0.03664 l -0.04857,0.0041 c -0.05791,0.0049 -0.107944,0.0044 -0.127652,-0.0013 z"
         id="path2361" />
      <path
         style="fill:#000000;stroke:#000000;stroke-width:0.00285697;stroke-linecap:round;stroke-linejoin:round;paint-order:stroke markers fill"
         d="m 32.564218,31.086729 c -0.08047,-0.02028 -0.114183,-0.06387 -0.12303,-0.159051 l -0.004,-0.0427 0.05006,-0.0041 c 0.02753,-0.0022 0.06339,-0.0056 0.07969,-0.0075 l 0.02963,-0.0034 0.0041,0.03703 c 0.0068,0.06163 0.0102,0.07247 0.02471,0.07908 0.02107,0.0096 0.04592,-0.0023 0.05009,-0.0241 0.0038,-0.0196 -0.0027,-0.07084 -0.01047,-0.08347 -0.0027,-0.0044 -0.04109,-0.02611 -0.08533,-0.04835 -0.139735,-0.07025 -0.158458,-0.09192 -0.164485,-0.190357 -0.0042,-0.0692 0.0052,-0.101653 0.03903,-0.134191 0.03814,-0.03669 0.08419,-0.05044 0.168807,-0.05044 0.05614,0 0.07166,0.0023 0.09833,0.01459 0.05999,0.02765 0.07877,0.05564 0.08403,0.12522 l 0.0035,0.04628 -0.04373,0.004 c -0.02405,0.0022 -0.0598,0.0056 -0.07943,0.0075 l -0.03571,0.0035 -0.0043,-0.04041 c -0.0024,-0.02223 -0.0063,-0.04339 -0.0087,-0.04702 -0.0088,-0.01319 -0.02839,-0.01551 -0.04411,-0.0052 -0.01436,0.0094 -0.01547,0.01345 -0.013,0.04752 0.0035,0.04772 0.0132,0.05852 0.08128,0.09012 0.02968,0.01377 0.0667,0.03101 0.08226,0.03831 0.07348,0.03447 0.09868,0.0802 0.09868,0.179112 0,0.05559 -0.0019,0.06684 -0.01541,0.09038 -0.01738,0.03034 -0.04728,0.05335 -0.08935,0.06876 -0.03359,0.0123 -0.138291,0.01771 -0.173104,0.0089 z"
         id="path2363" />
      <path
         style="fill:#000000;stroke:#000000;stroke-width:0.00285697;stroke-linecap:round;stroke-linejoin:round;paint-order:stroke markers fill"
         d="m 33.067091,31.047642 c -2.03e-4,-0.0011 -0.0039,-0.03531 -0.0082,-0.07599 l -0.0078,-0.07398 0.04785,-0.0041 c 0.02632,-0.0023 0.05674,-0.0057 0.0676,-0.0075 0.02211,-0.0038 0.02141,-0.006 0.03152,0.10325 l 0.0042,0.04522 -0.05629,0.0044 c -0.03096,0.0024 -0.06129,0.0058 -0.0674,0.0076 -0.0061,0.0018 -0.01128,0.0023 -0.01148,0.0012 z"
         id="path2365" />
      <path
         style="fill:#000000;stroke:#000000;stroke-width:0.00285697;stroke-linecap:round;stroke-linejoin:round;paint-order:stroke markers fill"
         d="m 33.43308,30.997314 c -0.0044,-0.0134 -0.09181,-0.738617 -0.08933,-0.741137 0.0031,-0.0031 0.183461,-0.02585 0.185883,-0.02343 0.0011,0.0011 0.02265,0.170583 0.04789,0.376629 l 0.04589,0.374631 -0.05418,0.0069 c -0.116856,0.01497 -0.133081,0.01573 -0.136154,0.0064 z"
         id="path2367" />
      <path
         style="fill:#000000;stroke:#000000;stroke-width:0.00285697;stroke-linecap:round;stroke-linejoin:round;paint-order:stroke markers fill"
         d="m 33.699333,30.951982 c -0.01675,-0.09637 -0.0859,-0.579637 -0.08374,-0.585246 0.0015,-0.004 0.03952,-0.01248 0.08444,-0.01894 0.04492,-0.0065 0.08525,-0.0131 0.08961,-0.01476 0.0056,-0.0021 0.0079,0.0055 0.0079,0.02624 0,0.01609 0.0021,0.02917 0.0048,0.02908 0.0026,-9.4e-5 0.01134,-0.01086 0.01939,-0.02392 0.01917,-0.03112 0.0485,-0.05061 0.08728,-0.05798 0.06849,-0.01303 0.119235,0.01856 0.138156,0.086 0.01204,0.04291 0.08215,0.503356 0.0782,0.51363 -0.0035,0.009 -0.168013,0.03226 -0.174697,0.02468 -0.0028,-0.0032 -0.02106,-0.113449 -0.04058,-0.245069 -0.01953,-0.131619 -0.03864,-0.245184 -0.04249,-0.252365 -0.0077,-0.01441 -0.03142,-0.01739 -0.04336,-0.0054 -0.01301,0.01301 -0.0085,0.06422 0.0262,0.295482 l 0.03354,0.223741 -0.01939,0.0033 c -0.06008,0.01019 -0.141476,0.02217 -0.150845,0.02219 -0.0073,2e-5 -0.01201,-0.0068 -0.01441,-0.02061 z"
         id="path2369" />
      <path
         style="fill:#000000;stroke:#000000;stroke-width:0.00285697;stroke-linecap:round;stroke-linejoin:round;paint-order:stroke markers fill"
         d="m 34.279356,30.868625 c -0.0759,-0.02712 -0.100863,-0.07287 -0.135485,-0.248268 -0.04355,-0.220646 -0.04314,-0.251039 0.0041,-0.304705 0.04619,-0.05248 0.110219,-0.07928 0.189717,-0.07942 0.05821,-1.05e-4 0.0977,0.01494 0.13369,0.05093 0.02454,0.02454 0.03275,0.03907 0.04625,0.0818 0.009,0.02858 0.01642,0.05578 0.01642,0.06044 0,0.0058 -0.02348,0.01279 -0.0746,0.02218 -0.04103,0.0075 -0.07888,0.01496 -0.08412,0.0165 -0.0074,0.0022 -0.01189,-0.0094 -0.02029,-0.05265 -0.0078,-0.03992 -0.01451,-0.05847 -0.02412,-0.06625 -0.01886,-0.01527 -0.04072,-0.0063 -0.04317,0.01781 -0.0025,0.02474 0.06029,0.354998 0.07171,0.377076 0.02182,0.04219 0.06051,0.0286 0.06008,-0.02109 -1.28e-4,-0.01459 -0.0041,-0.04653 -0.0089,-0.07097 -0.0048,-0.02444 -0.0079,-0.04527 -0.0069,-0.04627 0.0046,-0.0049 0.153052,-0.03102 0.156418,-0.02755 0.0021,0.0022 0.0072,0.0286 0.01123,0.05868 0.01243,0.09241 -0.01246,0.157239 -0.07693,0.200325 -0.05212,0.03483 -0.161035,0.05076 -0.21507,0.03145 z"
         id="path2371" />
      <path
         style="fill:#000000;stroke:#000000;stroke-width:0.00285697;stroke-linecap:round;stroke-linejoin:round;paint-order:stroke markers fill"
         d="m 33.982623,27.982027 c -0.06122,-0.01244 -0.09959,-0.04849 -0.127809,-0.120083 -0.0129,-0.03272 -0.04025,-0.133901 -0.03693,-0.136596 0.0033,-0.0027 0.147344,-0.0467 0.159911,-0.04888 0.01027,-0.0018 0.01453,0.0076 0.02986,0.06605 0.0098,0.03747 0.02097,0.07389 0.02475,0.08095 0.0086,0.01612 0.04537,0.01758 0.05802,0.0023 0.02074,-0.02505 -0.0032,-0.136897 -0.03535,-0.165088 -0.0086,-0.0075 -0.05322,-0.02836 -0.09915,-0.04626 -0.10618,-0.04138 -0.137574,-0.05756 -0.162776,-0.08389 -0.0399,-0.04169 -0.0704,-0.130634 -0.0763,-0.222528 -0.0033,-0.05091 -0.0022,-0.05805 0.01338,-0.0899 0.03709,-0.07581 0.138561,-0.131559 0.240518,-0.132147 0.092,-5.31e-4 0.131045,0.02903 0.161372,0.122195 0.03335,0.102463 0.04024,0.08856 -0.05918,0.119564 -0.04741,0.01479 -0.08695,0.02599 -0.08785,0.02489 -9.03e-4,-0.0011 -0.0067,-0.0228 -0.01278,-0.04823 -0.0144,-0.05977 -0.02714,-0.07646 -0.05175,-0.06781 -0.02732,0.0096 -0.03275,0.03321 -0.01941,0.08429 0.0153,0.05856 0.02965,0.07069 0.121796,0.102966 0.13741,0.04813 0.172209,0.07186 0.207293,0.141364 0.02614,0.05178 0.05053,0.149369 0.05189,0.207617 9.85e-4,0.04208 -0.0011,0.05158 -0.01773,0.08164 -0.01037,0.01871 -0.03036,0.04397 -0.04444,0.05612 -0.06396,0.05523 -0.166025,0.08595 -0.237351,0.07146 z"
         id="path2373" />
      <path
         style="fill:#000000;stroke:#000000;stroke-width:0.00285697;stroke-linecap:round;stroke-linejoin:round;paint-order:stroke markers fill"
         d="m 33.363375,28.117609 c -0.002,-0.0098 -0.03368,-0.196396 -0.07039,-0.414637 -0.0367,-0.21824 -0.06813,-0.402824 -0.06984,-0.410186 -0.0029,-0.01251 0.0031,-0.01471 0.09158,-0.03374 0.176611,-0.03797 0.235503,-0.04461 0.281726,-0.03178 0.0273,0.0076 0.0703,0.04351 0.08417,0.07033 0.01474,0.02852 0.03151,0.108895 0.06932,0.332361 0.03714,0.21952 0.046,0.2967 0.0386,0.336142 -0.0063,0.03381 -0.04744,0.07617 -0.08898,0.09171 -0.0266,0.01 -0.181785,0.04644 -0.31248,0.07348 -0.01822,0.0038 -0.02038,0.0025 -0.0237,-0.01369 z m 0.205958,-0.176719 c 0.01793,-0.0093 0.01873,-0.01152 0.01873,-0.05241 0,-0.04597 -0.07148,-0.475945 -0.08256,-0.496656 -0.01269,-0.02371 -0.07422,-0.02492 -0.06737,-0.0013 0.0017,0.006 0.02386,0.134463 0.04916,0.285486 0.03435,0.205094 0.04818,0.274586 0.05465,0.274586 0.0048,0 0.01708,-0.0044 0.02739,-0.0097 z"
         id="path2375" />
      <path
         style="fill:#000000;stroke:#000000;stroke-width:0.00285697;stroke-linecap:round;stroke-linejoin:round;paint-order:stroke markers fill"
         d="m 33.008969,27.834851 c -0.0052,-0.03936 -0.0091,-0.07213 -0.0086,-0.07283 0.0018,-0.0026 0.240559,-0.0401 0.242543,-0.03811 0.0049,0.0049 0.02021,0.134994 0.01626,0.138447 -0.0024,0.0021 -0.05296,0.01159 -0.112316,0.02107 -0.05936,0.0095 -0.112523,0.01853 -0.118136,0.02012 -0.0086,0.0024 -0.01173,-0.0086 -0.01972,-0.06868 z"
         id="path2377" />
      <path
         style="fill:#000000;stroke:#000000;stroke-width:0.00285697;stroke-linecap:round;stroke-linejoin:round;paint-order:stroke markers fill"
         d="m 32.568151,28.190244 -0.0054,-0.05873 0.07396,-0.184116 c 0.111416,-0.277357 0.12178,-0.310234 0.122367,-0.388166 5.63e-4,-0.07458 -0.0076,-0.09117 -0.04479,-0.09117 -0.0365,0 -0.04309,0.01856 -0.03829,0.107789 l 0.0041,0.07535 -0.01738,0.0034 c -0.04087,0.008 -0.141418,0.01849 -0.144815,0.01509 -0.002,-0.002 -0.0053,-0.03616 -0.0073,-0.07583 -0.0027,-0.05564 -0.0012,-0.0801 0.0066,-0.107031 0.02837,-0.09758 0.09945,-0.146626 0.214366,-0.147908 0.04935,-5.5e-4 0.05851,0.0014 0.09646,0.02004 0.0646,0.0318 0.100108,0.08516 0.111848,0.168065 0.0066,0.04635 2.7e-4,0.113817 -0.01582,0.169578 -0.0131,0.04541 -0.067,0.17792 -0.117068,0.287797 -0.02183,0.04791 -0.03786,0.08893 -0.03562,0.09117 0.0038,0.0038 0.172615,-0.01413 0.19509,-0.02069 0.0085,-0.0025 0.01129,0.0084 0.01774,0.06778 0.0042,0.03889 0.0068,0.07149 0.0058,0.07244 -0.002,0.0019 -0.397077,0.05387 -0.409114,0.05386 -0.0046,-6e-6 -0.0093,-0.022 -0.0127,-0.05874 z"
         id="path2379" />
      <path
         style="fill:#000000;stroke:#000000;stroke-width:0.00285697;stroke-linecap:round;stroke-linejoin:round;paint-order:stroke markers fill"
         d="m 32.181662,27.81273 c -0.0025,-0.04465 -0.0049,-0.08404 -0.0054,-0.08754 -0.0011,-0.0079 0.128881,-0.01899 0.135659,-0.01162 0.0027,0.0029 0.0068,0.04138 0.0092,0.08551 l 0.0044,0.08024 -0.05917,0.0043 c -0.03254,0.0024 -0.06391,0.0057 -0.0697,0.0073 -0.0092,0.0026 -0.01107,-0.0069 -0.01501,-0.07823 z"
         id="path2381" />
      <path
         style="fill:#000000;stroke:#000000;stroke-width:0.00285697;stroke-linecap:round;stroke-linejoin:round;paint-order:stroke markers fill"
         d="m 31.842138,28.308621 c -0.06585,-0.01764 -0.111235,-0.06143 -0.130345,-0.125764 -0.01374,-0.04627 -0.0228,-0.164656 -0.02409,-0.314815 -0.0013,-0.155512 0.0045,-0.180783 0.05255,-0.228865 0.03994,-0.03994 0.08819,-0.05812 0.155844,-0.05872 0.06217,-5.49e-4 0.09592,0.0086 0.131288,0.03557 0.0642,0.04897 0.08361,0.09843 0.09443,0.240679 0.0035,0.04564 0.0054,0.08388 0.0043,0.08499 -0.0011,0.0011 -0.0573,0.0057 -0.124881,0.0102 l -0.122868,0.0082 0.0013,0.05811 c 0.0019,0.0846 0.01049,0.159457 0.01958,0.170415 0.0111,0.01337 0.02943,0.01189 0.04496,-0.0036 0.01223,-0.01223 0.01304,-0.01912 0.01111,-0.09477 l -0.0021,-0.08158 0.06031,-0.0038 c 0.03317,-0.0021 0.07223,-0.0053 0.0868,-0.0071 l 0.02649,-0.0033 0.0045,0.03615 c 0.01472,0.117794 -0.02746,0.223502 -0.104771,0.262596 -0.0506,0.02558 -0.123788,0.03173 -0.184451,0.01548 z m 0.07884,-0.463479 c 0.0078,-0.003 0.01001,-0.01333 0.0099,-0.04603 -1.45e-4,-0.04027 -0.0075,-0.08687 -0.0149,-0.09426 -0.007,-0.007 -0.03734,-0.0032 -0.04271,0.0053 -0.0064,0.01017 -0.0078,0.128386 -0.0015,0.134648 0.0053,0.0053 0.03581,0.0055 0.04921,3.79e-4 z"
         id="path2385" />
      <path
         style="fill:#000000;stroke:#000000;stroke-width:0.00285697;stroke-linecap:round;stroke-linejoin:round;paint-order:stroke markers fill"
         d="m 31.442056,28.293413 c -4.6e-5,-0.0192 -0.0057,-0.209194 -0.01259,-0.422197 -0.0069,-0.213003 -0.01255,-0.393361 -0.0126,-0.400795 -9.2e-5,-0.01297 0.0037,-0.01371 0.09234,-0.01814 0.05084,-0.0025 0.09441,-0.0026 0.09682,-2.39e-4 0.0046,0.0046 0.03237,0.86133 0.02806,0.866765 -0.0014,0.0017 -0.04514,0.0046 -0.09723,0.0063 l -0.09472,0.0032 z"
         id="path2387" />
      <path
         style="fill:#000000;stroke:#000000;stroke-width:0.00285697;stroke-linecap:round;stroke-linejoin:round;paint-order:stroke markers fill"
         d="m 30.932121,28.206117 c -0.0023,-0.128326 -0.0042,-0.310784 -0.0042,-0.405462 l -10e-6,-0.172143 0.02946,-0.004 c 0.0162,-0.0022 0.05834,-0.004 0.09364,-0.004 l 0.06419,-4e-6 -0.0022,0.03175 c -0.0012,0.01746 -4.89e-4,0.03175 0.0016,0.03175 0.0021,0 0.01431,-0.01163 0.02716,-0.02585 0.01285,-0.01422 0.03477,-0.03167 0.04871,-0.03879 0.05388,-0.02749 0.128701,-0.002 0.157473,0.05354 0.01327,0.02565 0.01425,0.0384 0.01974,0.258708 0.0065,0.262699 0.0026,0.322966 -0.02385,0.362911 -0.034,0.05138 -0.108692,0.06587 -0.16276,0.03158 -0.01577,-0.01 -0.0346,-0.02571 -0.04184,-0.03492 -0.0072,-0.0092 -0.01532,-0.01674 -0.01796,-0.01674 -0.0026,0 -0.0028,0.03714 -4.4e-4,0.08254 l 0.0044,0.08254 h -0.09444 -0.09444 z m 0.247254,0.0011 c 0.002,-0.0082 0.0027,-0.11452 0.0015,-0.236351 -0.0024,-0.236661 -0.0032,-0.242501 -0.03395,-0.242501 -0.03046,0 -0.03114,0.0054 -0.02961,0.233871 7.87e-4,0.117546 0.0031,0.223231 0.0052,0.234855 0.006,0.03368 0.049,0.04134 0.05683,0.01013 z"
         id="path2389" />
      <path
         style="fill:#000000;stroke:#000000;stroke-width:0.00285697;stroke-linecap:round;stroke-linejoin:round;paint-order:stroke markers fill"
         d="m 30.766569,28.339256 -0.08833,-0.0018 0.0042,-0.278281 c 0.0023,-0.153054 0.0024,-0.28735 1.92e-4,-0.298434 -0.0076,-0.038 -0.04644,-0.04171 -0.05902,-0.0056 -0.0043,0.01243 -0.0085,0.124389 -0.01109,0.298402 -0.0023,0.15318 -0.0058,0.27943 -0.0079,0.280556 -0.002,0.0011 -0.04316,6.29e-4 -0.09136,-0.0011 l -0.08763,-0.0032 0.0045,-0.293336 0.0045,-0.293336 -0.01409,-0.0099 c -0.01727,-0.01209 -0.03662,-0.0079 -0.04635,0.01016 -0.0049,0.0091 -0.0091,0.106234 -0.01289,0.299053 -0.0031,0.157059 -0.0066,0.286551 -0.0078,0.28776 -0.0012,0.0012 -0.04244,1.56e-4 -0.09163,-0.0023 l -0.08943,-0.0045 0.0031,-0.05149 c 0.0017,-0.02832 0.0049,-0.187909 0.0071,-0.354645 l 0.0039,-0.303156 h 0.09131 0.09131 v 0.03581 0.03581 l 0.0267,-0.03033 c 0.01469,-0.01668 0.03602,-0.03423 0.04741,-0.03899 0.02644,-0.01105 0.07283,-0.0111 0.0991,-1.01e-4 0.01991,0.0083 0.06362,0.05118 0.06915,0.06778 0.0017,0.0052 0.0142,-0.0039 0.03316,-0.0242 0.03325,-0.03555 0.06014,-0.04767 0.103778,-0.0468 0.04324,8.68e-4 0.0795,0.02513 0.09991,0.06686 l 0.01669,0.03412 -9.84e-4,0.230949 c -5.41e-4,0.127022 -0.0028,0.26809 -0.0051,0.313484 l -0.0041,0.08254 z"
         id="path2391" />
      <path
         style="fill:#000000;stroke:#000000;stroke-width:0.00285697;stroke-linecap:round;stroke-linejoin:round;paint-order:stroke markers fill"
         d="m 29.776659,28.309455 c -0.08416,-0.02193 -0.10841,-0.07945 -0.09475,-0.224674 0.0042,-0.0444 0.01144,-0.08441 0.01744,-0.096 0.01264,-0.02445 0.0541,-0.05138 0.113673,-0.07387 0.02481,-0.0094 0.06114,-0.02501 0.08075,-0.03478 0.04085,-0.02035 0.04372,-0.02726 0.04372,-0.105364 0,-0.05705 -0.0065,-0.0718 -0.03174,-0.0718 -0.02556,0 -0.02995,0.0113 -0.03527,0.09067 l -0.0046,0.06805 -0.02612,-3.3e-5 c -0.01436,-1.8e-5 -0.05382,-0.0019 -0.08769,-0.0041 l -0.06157,-0.0041 0.0033,-0.04192 c 0.0018,-0.02305 0.0077,-0.06318 0.01307,-0.08916 0.0091,-0.04384 0.0124,-0.0498 0.04562,-0.08286 0.04784,-0.04759 0.08631,-0.06026 0.168289,-0.05543 0.06953,0.0041 0.107844,0.01664 0.143167,0.04688 0.04311,0.0369 0.05315,0.06344 0.05638,0.149104 0.0025,0.06506 -0.01596,0.532014 -0.02121,0.537743 -0.0011,0.0012 -0.04247,1.18e-4 -0.0919,-0.0024 l -0.08988,-0.0046 0.0021,-0.0309 c 0.0012,-0.017 7.14e-4,-0.0309 -0.001,-0.0309 -0.0017,3e-6 -0.01114,0.01 -0.02087,0.02219 -0.03089,0.03871 -0.07082,0.05136 -0.120912,0.0383 z m 0.134617,-0.11981 c 0.0069,-0.0083 0.02252,-0.213139 0.01673,-0.218929 -0.0066,-0.0066 -0.04974,0.03407 -0.05876,0.0553 -0.01263,0.02975 -0.01854,0.139662 -0.0085,0.158399 0.0085,0.0158 0.03914,0.01897 0.05054,0.0052 z"
         id="path2393" />
      <path
         style="fill:#000000;stroke:#000000;stroke-width:0.00285697;stroke-linecap:round;stroke-linejoin:round;paint-order:stroke markers fill"
         d="m 29.334353,28.275155 c -0.04517,-0.01452 -0.05919,-0.02233 -0.08991,-0.05008 -0.04476,-0.04044 -0.05196,-0.06205 -0.05492,-0.164914 -0.0014,-0.04972 -9.59e-4,-0.09696 0.0011,-0.10497 l 0.0037,-0.01456 0.078,0.0078 c 0.0429,0.0043 0.08276,0.0079 0.08858,0.0082 0.0095,3.35e-4 0.01022,0.0089 0.007,0.08533 l -0.0036,0.08496 0.01648,0.0108 c 0.01958,0.01283 0.03889,0.0085 0.05217,-0.01181 0.01194,-0.01822 0.01869,-0.08232 0.01287,-0.122161 -0.0043,-0.02962 -0.0085,-0.03477 -0.101996,-0.126111 -0.05829,-0.05694 -0.102661,-0.105794 -0.110359,-0.121499 -0.02029,-0.04139 -0.02756,-0.102873 -0.02009,-0.169796 0.01247,-0.111701 0.03864,-0.159519 0.103287,-0.188728 0.02923,-0.01321 0.0427,-0.01512 0.103445,-0.01466 0.05599,4.26e-4 0.07695,0.0033 0.105724,0.01451 0.05072,0.01976 0.09018,0.05194 0.107789,0.0879 0.01324,0.02704 0.01483,0.03895 0.01444,0.108146 -2.39e-4,0.04277 -0.0019,0.07922 -0.0037,0.081 -0.0018,0.0018 -0.04154,-3.84e-4 -0.08836,-0.0048 l -0.08513,-0.008 -0.0016,-0.05391 c -0.0024,-0.08011 -0.0037,-0.0836 -0.03191,-0.08126 -0.03051,0.0025 -0.04064,0.02265 -0.041,0.08146 -3.42e-4,0.05456 0.0074,0.06752 0.0745,0.124442 0.07486,0.06351 0.122074,0.115048 0.141168,0.154076 0.01466,0.02995 0.01729,0.04453 0.01956,0.108173 0.0062,0.173162 -0.03041,0.254049 -0.128,0.283031 -0.04303,0.01278 -0.125581,0.01158 -0.169227,-0.0024 z"
         id="path2395" />
      <path
         style="fill:#000000;stroke:#000000;stroke-width:0.00285697;stroke-linecap:round;stroke-linejoin:round;paint-order:stroke markers fill"
         d="m 28.858191,28.20854 -0.08571,-0.01366 0.0018,-0.08013 0.0018,-0.08013 -0.03585,-0.0045 c -0.01972,-0.0025 -0.03796,-0.0021 -0.04055,8.3e-4 -0.0026,0.0029 -0.01081,0.03647 -0.01827,0.07456 -0.0075,0.03809 -0.01437,0.07006 -0.01535,0.07104 -0.003,0.003 -0.188828,-0.02711 -0.192975,-0.03126 -0.0031,-0.0031 0.191583,-0.830583 0.198345,-0.842786 0.0011,-0.002 0.06287,0.0058 0.137248,0.01736 0.07438,0.01155 0.137061,0.02104 0.139295,0.0211 0.0056,1.33e-4 0.01084,0.199627 0.01494,0.569903 0.0033,0.296411 0.0029,0.312644 -0.0078,0.31199 -0.0062,-3.79e-4 -0.04981,-0.0068 -0.09695,-0.01435 z m -0.06744,-0.427795 c 0.0023,-0.05849 0.0055,-0.143483 0.0073,-0.188877 0.0022,-0.05714 0.0012,-0.07863 -0.0032,-0.06984 -0.0049,0.0098 -0.0495,0.198836 -0.07977,0.337932 -0.0033,0.01528 0.0062,0.01915 0.06449,0.02626 0.0048,5.89e-4 0.0084,-0.03303 0.01118,-0.105479 z"
         id="path2397" />
      <path
         style="fill:#000000;stroke:#000000;stroke-width:0.00285697;stroke-linecap:round;stroke-linejoin:round;paint-order:stroke markers fill"
         d="m 28.337588,28.122629 -0.07936,-0.01723 -0.01905,-0.203884 c -0.01048,-0.112136 -0.02056,-0.205388 -0.02241,-0.207226 -0.0019,-0.0018 -0.01704,0.08007 -0.03375,0.182023 -0.01671,0.10195 -0.03166,0.189885 -0.03323,0.195409 -0.0025,0.0089 -0.0116,0.0082 -0.08053,-0.0067 l -0.07768,-0.01678 0.0019,-0.01866 c 0.001,-0.01026 0.03255,-0.203107 0.07,-0.428548 l 0.06809,-0.409893 0.07718,0.01627 c 0.04245,0.0089 0.07856,0.01769 0.08024,0.01944 0.0017,0.0017 0.01353,0.09458 0.02632,0.206303 0.01279,0.111721 0.02419,0.204062 0.02533,0.205203 0.003,0.003 0.0063,-0.01507 0.03841,-0.208112 0.01593,-0.0959 0.03014,-0.175538 0.03158,-0.176977 0.0034,-0.0034 0.139481,0.02474 0.149304,0.03081 0.0054,0.0033 -0.01152,0.118202 -0.06304,0.427736 -0.03874,0.232741 -0.07043,0.424539 -0.07043,0.426216 0,0.004 0.0023,0.0044 -0.08888,-0.01536 z"
         id="path2399" />
      <path
         style="fill:#000000;stroke:#000000;stroke-width:0.00285697;stroke-linecap:round;stroke-linejoin:round;paint-order:stroke markers fill"
         d="m 27.780967,27.988388 c -0.03626,-0.0072 -0.302296,-0.08926 -0.309209,-0.09541 -0.0047,-0.0042 0.189321,-0.828916 0.196955,-0.837222 0.0034,-0.0037 0.201582,0.059 0.26255,0.08307 0.132648,0.05237 0.160017,0.114739 0.123815,0.282178 -0.03081,0.142483 -0.111615,0.461713 -0.124401,0.491435 -0.01642,0.03817 -0.04623,0.06678 -0.07877,0.07562 -0.02845,0.0077 -0.03345,0.0077 -0.07094,3.32e-4 z m -0.02525,-0.188596 c 0.01264,-0.02483 0.02289,-0.06325 0.0732,-0.274587 0.05349,-0.224677 0.05452,-0.230202 0.04603,-0.246065 -0.008,-0.01504 -0.04378,-0.03118 -0.05112,-0.02309 -0.0054,0.006 -0.133822,0.535306 -0.133822,0.55168 0,0.007 0.0074,0.0095 0.02841,0.0095 0.0246,0 0.0296,-0.0023 0.0373,-0.01746 z"
         id="path2401" />
    </g>
    <path
       style="fill:#000000;stroke:#000000;stroke-width:0.00276299;stroke-linecap:round;stroke-linejoin:round;paint-order:stroke markers fill"
       d="m 33.058647,28.424651 c -1.97e-4,-0.0011 -0.0038,-0.03389 -0.008,-0.07293 l -0.0076,-0.071 0.04663,-0.0039 c 0.02565,-0.0022 0.0553,-0.0055 0.06588,-0.0072 0.02155,-0.0036 0.02087,-0.0058 0.03072,0.09909 l 0.0041,0.0434 -0.05486,0.0042 c -0.03017,0.0023 -0.05973,0.0056 -0.06569,0.0073 -0.0059,0.0017 -0.01099,0.0022 -0.01119,0.0012 z"
       id="path2365-3" />
  </g>
</svg>
