<?xml version="1.0" encoding="UTF-8" standalone="no"?>
<svg
   xmlns:dc="http://purl.org/dc/elements/1.1/"
   xmlns:cc="http://creativecommons.org/ns#"
   xmlns:rdf="http://www.w3.org/1999/02/22-rdf-syntax-ns#"
   xmlns:svg="http://www.w3.org/2000/svg"
   xmlns="http://www.w3.org/2000/svg"
   xmlns:sodipodi="http://sodipodi.sourceforge.net/DTD/sodipodi-0.dtd"
   xmlns:inkscape="http://www.inkscape.org/namespaces/inkscape"
   viewBox="0 0 64 64"
   version="1.1"
   id="svg865"
   sodipodi:docname="harpy_snapper_vial.svg"
   inkscape:version="1.0.2 (e86c870879, 2021-01-15)">
  <metadata
     id="metadata871">
    <rdf:RDF>
      <cc:Work
         rdf:about="">
        <dc:format>image/svg+xml</dc:format>
        <dc:type
           rdf:resource="http://purl.org/dc/dcmitype/StillImage" />
        <dc:title></dc:title>
      </cc:Work>
    </rdf:RDF>
  </metadata>
  <defs
     id="defs869">
    <rect
       x="17.590518"
       y="24.037681"
       width="13.10085"
       height="11.664157"
       id="rect935" />
    <rect
       x="20.840103"
       y="33.578929"
       width="31.712364"
       height="16.029368"
       id="rect1829" />
    <rect
       x="-81.409824"
       y="-17.059822"
       width="10.783929"
       height="2.0330355"
       id="rect1108" />
    <rect
       x="40.60981"
       y="33.981441"
       width="10.340256"
       height="1.7675648"
       id="rect1095" />
  </defs>
  <sodipodi:namedview
     pagecolor="#ffffff"
     bordercolor="#666666"
     borderopacity="1"
     objecttolerance="10"
     gridtolerance="10"
     guidetolerance="10"
     inkscape:pageopacity="0"
     inkscape:pageshadow="2"
     inkscape:window-width="1918"
     inkscape:window-height="2054"
     id="namedview867"
     showgrid="false"
     showguides="true"
     inkscape:guide-bbox="true"
     inkscape:zoom="13"
     inkscape:cx="30.824113"
     inkscape:cy="45.79751"
     inkscape:window-x="-10"
     inkscape:window-y="0"
     inkscape:window-maximized="0"
     inkscape:current-layer="svg865"
     inkscape:document-rotation="0" />
  <text
     xml:space="preserve"
     id="text1093"
     style="font-style:normal;font-weight:normal;font-size:0.70898px;line-height:1.25;font-family:sans-serif;text-align:center;text-anchor:middle;white-space:pre;fill:#000000;fill-opacity:1;stroke:none;stroke-width:0.320356;stroke-miterlimit:4;stroke-dasharray:none"
     transform="matrix(0.78300353,0,0,0.88197412,-15.575773,-11.683061)"
     x="48.546452"
     y="44.355078"><tspan
       id="tspan1097"
       style="font-style:normal;font-variant:normal;font-weight:normal;font-stretch:normal;font-size:0.70898px;font-family:Impact;-inkscape-font-specification:Impact;text-align:center;text-anchor:middle;stroke-width:0.320356;stroke-miterlimit:4;stroke-dasharray:none" /></text>
  <text
     xml:space="preserve"
     id="text1106"
     style="font-size:0.544436px;line-height:1.25;font-family:sans-serif;text-align:center;text-anchor:middle;white-space:pre;stroke-width:0.266221;stroke-miterlimit:4;stroke-dasharray:none"
     x="47.694473"
     y="38.201882"><tspan
       id="tspan1110"
       style="font-style:normal;font-variant:normal;font-weight:normal;font-stretch:normal;font-family:Impact;-inkscape-font-specification:Impact;text-align:center;text-anchor:middle;stroke-width:0.266221;stroke-miterlimit:4;stroke-dasharray:none" /></text>
  <g
     id="g5270"
     transform="matrix(1.0791391,0,0,0.99192105,-2.0889228,0.5066682)">
    <path
       style="fill:#fff6d5;fill-opacity:1;stroke:#fff6d5;stroke-width:0.441128;stroke-linecap:round;stroke-linejoin:round;stroke-miterlimit:4;stroke-dasharray:none;stroke-opacity:1"
       d="M 30.499759,61.330895 C 29.065827,60.925699 27.98307,59.749932 27.622927,58.206912 27.513884,57.739741 27.512735,57.511295 27.512735,36.347449 V 14.960097 h 3.953532 3.95353 V 36.26998 c 0,23.716972 0.03278,21.767706 -0.381796,22.707452 -0.536966,1.217187 -1.446039,2.030212 -2.638041,2.359282 -0.561645,0.155109 -1.339356,0.152698 -1.900201,-0.0051 z"
       id="path928" />
    <path
       id="path928-5"
       style="fill:#fff6d5;fill-opacity:1;stroke:#fff6d5;stroke-width:0.441128;stroke-linecap:round;stroke-linejoin:round;stroke-miterlimit:4;stroke-dasharray:none;stroke-opacity:1"
       d="m 31.465696,13.722696 a 3.9534567,1.0984673 0 0 0 -3.952961,1.09949 3.9534567,1.0984673 0 0 0 0,0.01016 h -0.02493 a 3.9534567,1.0984673 0 0 0 0,0.0067 3.9534567,1.0984673 0 0 0 0.02493,0.12104 V 36.22025 c 0,21.163846 0.0031,21.391494 0.112137,21.858664 0.360144,1.54302 1.44123,2.721794 2.875163,3.126989 0.560845,0.157864 1.338516,0.158467 1.900161,0.0035 1.192002,-0.329069 2.101456,-1.139822 2.638422,-2.357009 0.414571,-0.939746 0.383149,1.007631 0.383149,-22.709338 V 14.832272 a 3.9534567,1.0984673 0 0 0 0,-0.01016 3.9534567,1.0984673 0 0 0 -3.956076,-1.09949 z" />
    <path
       id="path875"
       style="fill:#8cc1e0;fill-opacity:0.22541;stroke:#000000;stroke-width:0.441128;stroke-linecap:round;stroke-linejoin:round;stroke-miterlimit:4;stroke-dasharray:none;stroke-opacity:1"
       d="m 27.430599,6.953915 v 49.897333 h 0.01869 a 3.987225,4.3038131 0 0 0 -0.01869,0.416932 3.987225,4.3038131 0 0 0 3.987225,4.303812 3.987225,4.3038131 0 0 0 3.987224,-4.303812 3.987225,4.3038131 0 0 0 -0.01869,-0.416932 h 0.01869 V 6.953915 Z" />
    <path
       style="fill:#ff5555;fill-opacity:1;stroke:#ff5555;stroke-width:0.441128;stroke-linecap:round;stroke-linejoin:round;stroke-miterlimit:4;stroke-dasharray:none;stroke-opacity:1"
       d="M 29.790967,7.8693325 C 28.490907,7.7368095 27.470012,7.4843772 27.076404,7.1981271 l -0.188379,-0.136999 -0.01467,-1.740536 -0.01467,-1.7405378 0.291125,0.1382385 c 1.048919,0.4980975 3.485413,0.7419687 5.70995,0.5715137 1.413695,-0.1083184 2.691913,-0.4053091 3.08106,-0.7158619 l 0.15365,-0.1226071 v 1.6989097 c 0,0.9344008 -0.02327,1.7649782 -0.0517,1.8457264 -0.105104,0.2984074 -0.952895,0.6030881 -2.207807,0.7934526 -0.704115,0.1068207 -3.280672,0.1577262 -4.044011,0.079914 z"
       id="path1006" />
    <path
       id="rect897"
       style="fill:none;fill-opacity:1;stroke:#000000;stroke-width:0.441128;stroke-linecap:round;stroke-linejoin:round;stroke-miterlimit:4;stroke-dasharray:none;stroke-opacity:1"
       d="M 26.744978,3.1309186 V 6.953915 h 0.01563 a 4.7051514,1.0907699 0 0 0 0,0.00672 4.7051514,1.0907699 0 0 0 4.703679,1.0927657 4.7051514,1.0907699 0 0 0 4.70674,-1.0927553 4.7051514,1.0907699 0 0 0 0,-0.00672 h 0.01563 V 3.130929 Z" />
    <path
       style="fill:#ff8080;fill-opacity:1;stroke:#ff8080;stroke-width:0.441128;stroke-linecap:round;stroke-linejoin:round;stroke-miterlimit:4;stroke-dasharray:none;stroke-opacity:1"
       d="m 29.735672,4.0479735 c -1.116408,-0.1063386 -2.213605,-0.362178 -2.627233,-0.6126186 -0.58944,-0.3568894 0.0041,-0.7822042 1.466056,-1.0503422 2.595712,-0.4761153 6.544962,-0.1781623 7.332697,0.5532174 0.382332,0.3549802 -0.371676,0.7362378 -1.976638,0.9994693 -0.857405,0.1406315 -3.223254,0.2028164 -4.194882,0.110281 z"
       id="path1010" />
    <path
       id="path880"
       style="fill:none;fill-opacity:1;stroke:#000000;stroke-width:0.441128;stroke-linecap:round;stroke-linejoin:round;stroke-miterlimit:4;stroke-dasharray:none;stroke-opacity:1"
       d="m 31.447749,2.0285021 a 4.7051517,1.0907699 0 0 0 -4.70368,1.092764 4.7051517,1.0907699 0 0 0 0,0.010157 h -0.03114 a 4.7051517,1.0907699 0 0 0 0,0.00672 4.7051517,1.0907699 0 0 0 4.70368,1.0927656 4.7051517,1.0907699 0 0 0 4.706795,-1.0927656 4.7051517,1.0907699 0 0 0 0,-0.00672 h 0.03115 a 4.7051517,1.0907699 0 0 0 0,-0.010157 4.7051517,1.0907699 0 0 0 -4.706795,-1.092764 z" />
    <path
       id="path1006-6"
       style="fill:#ff5555;fill-opacity:1;stroke:#000000;stroke-width:0.441128;stroke-linecap:round;stroke-linejoin:round;stroke-miterlimit:4;stroke-dasharray:none;stroke-opacity:1"
       d="m 35.417266,24.399475 -0.132488,0.124432 c -0.337537,0.314206 -1.445823,0.613373 -2.672029,0.722954 -1.92951,0.17246 -4.045287,-0.0744 -4.955092,-0.578363 l -0.250856,-0.137877 0.01132,1.758633 0.01419,1.761994 0.01133,1.590503 0.01132,1.587142 0.01419,1.761993 0.01132,1.587141 v 0.171499 l 0.01419,1.590503 0.01132,1.761994 0.16066,0.137876 c 0.335291,0.289613 1.203812,0.545178 2.31125,0.679242 0.650239,0.07876 2.84453,0.02736 3.444323,-0.08068 1.068982,-0.192605 1.79329,-0.501743 1.882821,-0.803659 0.005,-0.01635 0.0043,-0.301521 0.0087,-0.373246 7.68e-4,-0.01291 0.0019,-0.05271 0.0029,-0.06724 0.01579,-0.30788 0.03101,-0.703511 0.03101,-1.425738 V 34.44693 l 0.0056,-0.837284 c 0.007,-0.273371 0.01975,-0.389893 0.01975,-0.790206 v -1.721644 l 0.0056,-0.837285 c 0.007,-0.273372 0.01973,-0.389896 0.01973,-0.790207 v -1.721652 l 0.0056,-1.069303 c 0.0038,-0.223222 0.01419,-0.277583 0.01419,-0.561551 z m -0.01975,2.562291 -0.0056,0.793571 -0.01419,0.01343 c 0.01004,-0.107974 0.0126,-0.535886 0.01975,-0.807019 z m -0.03099,3.752646 -0.0029,0.390059 -0.0056,0.0067 c 0.005,-0.05428 0.004,-0.301953 0.0087,-0.396784 z m -0.02537,3.409661 -0.0029,0.329534 -0.0056,0.0067 c 0.0043,-0.046 0.0046,-0.260944 0.0087,-0.336259 z" />
    <path
       style="fill:#ffffff;fill-opacity:1;stroke:#ffffff;stroke-width:0.441128;stroke-linecap:round;stroke-linejoin:round;stroke-miterlimit:4;stroke-dasharray:none;stroke-opacity:1"
       d="M 30.517697,29.423062 C 29.50546,29.372602 28.334959,29.17385 27.895783,28.977861 l -0.115326,-0.05147 -8.1e-5,-1.34535 c -4.3e-5,-0.739941 -0.0093,-1.593815 -0.02041,-1.897493 -0.01973,-0.535341 -0.01853,-0.551692 0.03852,-0.537381 0.03238,0.0081 0.182132,0.04674 0.332796,0.08583 1.687134,0.43769 4.543539,0.445985 6.364642,0.01849 0.188645,-0.04428 0.395491,-0.09981 0.45966,-0.123399 l 0.116666,-0.04288 -0.02059,1.914881 c -0.01132,1.053184 -0.03032,1.92436 -0.04223,1.93595 -0.0118,0.01154 -0.152026,0.06204 -0.311392,0.112123 -0.552473,0.173631 -1.41198,0.310121 -2.304244,0.365914 -0.405385,0.02534 -1.455693,0.03094 -1.876093,0.01 z"
       id="path1169" />
    <path
       style="fill:#ff8080;fill-opacity:1;stroke:#ff8080;stroke-width:0.441128;stroke-linecap:round;stroke-linejoin:round;stroke-miterlimit:4;stroke-dasharray:none;stroke-opacity:1"
       d="m 30.551768,32.122069 c -1.040564,-0.06571 -2.054725,-0.255196 -2.570318,-0.480218 l -0.161124,-0.07032 v -0.388302 c 0,-0.213568 -0.0091,-0.770027 -0.02022,-1.236576 l -0.02022,-0.848271 0.227382,0.07759 c 0.97519,0.332768 2.80644,0.489074 4.462652,0.380907 0.911135,-0.05952 1.90652,-0.226357 2.364072,-0.396277 0.09762,-0.03625 0.183396,-0.06592 0.190612,-0.06592 0.03147,0 -0.02197,2.327676 -0.05438,2.369853 -0.01866,0.02427 -0.133125,0.08868 -0.254338,0.143076 -0.411406,0.184685 -1.169983,0.35879 -1.969746,0.45209 -0.417541,0.0487 -1.792008,0.08777 -2.194362,0.06235 z"
       id="path1222" />
    <path
       style="fill:none;fill-opacity:1;stroke:none;stroke-width:0.441128;stroke-linecap:round;stroke-linejoin:round;stroke-miterlimit:4;stroke-dasharray:none;stroke-opacity:1"
       d="m 30.51959,30.405578 c -1.010092,-0.06178 -2.17811,-0.305162 -2.616353,-0.545156 l -0.115088,-0.06302 -8.1e-5,-1.647406 c -4.3e-5,-0.906073 -0.0093,-1.951655 -0.02037,-2.323514 -0.01968,-0.655537 -0.0185,-0.67556 0.03844,-0.658034 0.03231,0.01 0.181746,0.05724 0.33209,0.105098 1.683556,0.535957 4.533905,0.546115 6.351146,0.02264 0.188245,-0.05423 0.394653,-0.122229 0.458685,-0.151099 l 0.116427,-0.05251 -0.02054,2.344807 c -0.01132,1.289642 -0.03025,2.356415 -0.04214,2.370605 -0.0118,0.01412 -0.151706,0.07597 -0.310731,0.137309 -0.551302,0.212614 -1.408986,0.379748 -2.299359,0.44807 -0.404525,0.03104 -1.452605,0.03789 -1.872113,0.01222 z m 1.196925,-1.819522 c 0,-0.03384 0.01686,-0.04626 0.0463,-0.03406 0.02547,0.0105 0.0807,0.005 0.122759,-0.01222 0.07251,-0.02975 0.07643,-0.04473 0.07599,-0.288933 -6.47e-4,-0.355167 0.0029,-0.351348 -0.314106,-0.344301 -0.145838,0.0033 -0.176631,0.01395 -0.177403,0.06191 -8.78e-4,0.05449 -0.0029,0.05442 -0.03282,-0.0012 -0.02325,-0.04314 -0.06662,-0.05804 -0.160191,-0.055 -0.07058,0.0022 -0.149011,4.59e-4 -0.174338,-0.004 -0.02533,-0.0045 -0.118548,-0.0058 -0.20716,-0.0029 l -0.161124,0.0051 v 0.314709 0.314708 h 0.107416 0.107416 l 0.0062,-0.256736 0.0062,-0.256735 0.01052,0.256735 0.01052,0.256736 h 0.106124 0.106124 l 4.71e-4,-0.207045 c 2.45e-4,-0.113878 0.01435,-0.229405 0.03135,-0.256736 0.02124,-0.03417 0.02456,0.0305 0.01069,0.207045 l -0.02025,0.256736 h 0.10976 c 0.107735,0 0.110127,-0.0029 0.12941,-0.157347 0.03073,-0.246234 0.04046,-0.242491 0.04307,0.01653 l 0.0024,0.240171 h 0.107416 c 0.0782,0 0.107416,-0.01446 0.107416,-0.05323 z m -1.012783,-0.343579 c 0,-0.331238 -0.02062,-0.365113 -0.222294,-0.365113 -0.127383,0 -0.197682,0.05448 -0.224362,0.173919 -0.01782,0.07975 -0.01133,0.09115 0.05203,0.0916 0.05799,4.07e-4 0.06324,0.0069 0.02635,0.03262 -0.06674,0.04657 -0.122759,0.04027 -0.122759,-0.01377 0,-0.0258 -0.03797,-0.07752 -0.0844,-0.114894 l -0.0844,-0.06797 0.09975,-0.0011 c 0.08488,-8.94e-4 0.09974,-0.01309 0.09974,-0.0815 0,-0.125052 -0.0779,-0.184565 -0.241577,-0.184565 -0.07983,0 -0.161695,0.01788 -0.181951,0.03975 -0.06293,0.06793 -0.04481,0.280915 0.03033,0.356483 l 0.06718,0.06755 h -0.08252 c -0.07359,0 -0.08251,0.0124 -0.08251,0.114068 0,0.139615 0.08805,0.217205 0.246484,0.217205 0.132313,0 0.204877,-0.05393 0.222866,-0.165628 0.01132,-0.06989 0.01403,-0.06626 0.01751,0.02321 0.0052,0.133229 0.05397,0.162444 0.282195,0.169226 l 0.18234,0.0055 z m 1.536465,0.189769 c 0.0017,-0.09799 0.0045,-0.100951 0.02979,-0.03286 0.03794,0.101931 0.155183,0.153543 0.287787,0.126687 0.177677,-0.03598 0.247235,-0.269098 0.08713,-0.291975 -0.05834,-0.0082 -0.0299,-0.02042 0.09207,-0.03915 0.168251,-0.02582 0.176469,-0.03154 0.176469,-0.122658 0,-0.0841 -0.011,-0.09557 -0.09207,-0.09557 -0.07425,0 -0.09258,0.01446 -0.09471,0.07454 -0.0023,0.06294 -0.0069,0.0595 -0.0294,-0.02202 -0.03332,-0.120283 -0.07663,-0.150737 -0.215303,-0.151391 -0.164046,-7.61e-4 -0.222905,0.06368 -0.245904,0.269201 -0.01772,0.158433 -0.02032,0.145952 -0.02417,-0.116047 l -0.0043,-0.29355 -0.115087,0.02321 c -0.0633,0.01274 -0.115087,0.0256 -0.115087,0.02853 0,0.0029 0.0043,0.173033 0.0096,0.378007 l 0.0096,0.372682 h 0.120845 c 0.115486,0 0.120924,-0.0048 0.122791,-0.107665 z m 0.703934,-0.02484 c 0,-0.08833 -0.01021,-0.09938 -0.09207,-0.09938 -0.08184,0 -0.09207,0.01102 -0.09207,0.09938 0,0.08835 0.01021,0.09938 0.09207,0.09938 0.08184,0 0.09207,-0.01102 0.09207,-0.09938 z m 0.602796,-0.01823 c 0.05397,-0.05826 0.07309,-0.107114 0.0616,-0.157348 -0.01547,-0.06771 -0.0052,-0.07321 0.144959,-0.0778 0.151897,-0.0046 0.163665,8.63e-4 0.19522,0.09111 0.03099,0.08863 0.04563,0.09603 0.189699,0.09603 0.166465,0 0.278879,-0.07642 0.278879,-0.189571 0,-0.04691 0.0085,-0.04395 0.04778,0.01653 0.08709,0.13421 0.395489,0.07585 0.432139,-0.08178 0.029,-0.124724 -0.04415,-0.268589 -0.159441,-0.313591 -0.107177,-0.04184 -0.113716,-0.09416 -0.0118,-0.09416 0.07193,0 0.07631,-0.05884 0.0118,-0.158261 -0.0674,-0.103859 -0.256728,-0.101173 -0.371369,0.0053 -0.06861,0.0637 -0.09804,0.07246 -0.152822,0.04553 -0.09078,-0.04465 -0.266192,-0.0058 -0.332841,0.07367 -0.0411,0.04901 -0.04885,0.09327 -0.03268,0.18639 0.02455,0.141251 -0.0077,0.177403 -0.158627,0.178179 -0.06908,3.55e-4 -0.108995,-0.02031 -0.13311,-0.06894 -0.02794,-0.05636 -0.05714,-0.06712 -0.154815,-0.05707 -0.07335,0.0075 -0.116332,-9.04e-4 -0.110048,-0.02164 0.0058,-0.01872 0.0617,-0.0387 0.124497,-0.04442 0.101626,-0.0093 0.111898,-0.01833 0.09356,-0.08282 -0.01132,-0.03983 -0.02234,-0.07387 -0.02446,-0.07562 -0.01547,-0.01273 -0.388697,0.04314 -0.404967,0.0607 -0.01133,0.01222 -0.01101,0.104944 6.29e-4,0.205987 0.02041,0.176312 0.02493,0.183714 0.112089,0.183714 0.05226,0 0.09829,-0.02102 0.108421,-0.04949 0.0319,-0.08972 0.07261,-0.01532 0.06898,0.125998 -0.0019,0.07637 -0.01021,0.109024 -0.01832,0.07258 -0.02303,-0.103326 -0.05659,-0.124432 -0.159202,-0.100107 -0.08411,0.01994 -0.09293,0.03274 -0.07653,0.111022 0.04365,0.208148 0.286396,0.275735 0.430735,0.119938 z m -3.982368,-0.238509 c -0.0058,-0.458492 -0.01563,-0.485251 -0.188582,-0.506733 l -0.145709,-0.01811 -0.0526,0.200307 c -0.05784,0.220262 -0.09037,0.181587 -0.04214,-0.05011 0.01664,-0.07993 0.02757,-0.147707 0.02431,-0.150633 -0.0033,-0.0029 -0.05083,-0.01567 -0.105694,-0.02838 -0.09228,-0.02133 -0.09974,-0.01669 -0.09974,0.06239 0,0.114275 -0.05472,0.109661 -0.06701,-0.0057 -0.0081,-0.0759 -0.02635,-0.09283 -0.109457,-0.101484 -0.06464,-0.0067 -0.09974,0.0043 -0.09974,0.03118 0,0.02681 -0.01356,0.02248 -0.03836,-0.01222 -0.03465,-0.04858 -0.383079,-0.179739 -0.404937,-0.15244 -0.01499,0.0188 -0.201197,0.681729 -0.201197,0.716545 0,0.03868 0.234227,0.106424 0.368011,0.106424 0.07774,0 0.103684,-0.01985 0.140765,-0.107663 l 0.04547,-0.107664 -0.01828,0.136516 c -0.01735,0.129493 -0.01388,0.13743 0.06813,0.154421 0.103619,0.02148 0.102679,0.02231 0.132886,-0.115342 l 0.02398,-0.109352 0.0032,0.120679 c 0.0037,0.137946 0.01933,0.148345 0.271134,0.179093 0.168508,0.02058 0.182298,0.01704 0.214827,-0.05607 l 0.03477,-0.07807 0.0021,0.09111 c 0.0019,0.08382 0.01197,0.09111 0.124848,0.09111 h 0.122758 z"
       id="path1141" />
    <g
       id="g1844"
       style="stroke-width:0.266221;stroke-miterlimit:4;stroke-dasharray:none"
       transform="matrix(1.59489,0,0,1.7215253,-20.416102,-31.416128)">
      <path
         id="path1824"
         style="fill:#ffdf00;fill-opacity:1;stroke:#000000;stroke-width:0.266221;stroke-linecap:round;stroke-linejoin:round;stroke-miterlimit:4;stroke-dasharray:none;stroke-opacity:1"
         d="m 32.510722,37.314624 -1.48811,2.971649 2.974656,0.003 z" />
      <text
         xml:space="preserve"
         id="text1827"
         style="font-size:1.33333px;line-height:1.25;font-family:sans-serif;white-space:pre;shape-inside:url(#rect1829);stroke-width:0.12771;stroke-miterlimit:4;stroke-dasharray:none;"
         transform="matrix(2.3195191,0,0,1.8734171,-16.414467,-25.213814)" />
    </g>
    <path
       style="fill:#000000;stroke:#000000;stroke-width:0.0020226;stroke-linecap:round;stroke-linejoin:round;paint-order:stroke markers fill"
       d="m 31.227593,37.174516 v -0.218852 h 0.242957 0.242958 v 0.218852 0.218852 H 31.47055 31.227593 Z"
       id="path3070" />
    <path
       style="fill:#000000;stroke:#000000;stroke-width:0.0020226;stroke-linecap:round;stroke-linejoin:round;paint-order:stroke markers fill"
       d="m 31.269286,36.507482 c -0.0013,-0.01344 -0.01606,-0.499053 -0.03286,-1.079129 -0.0168,-0.580074 -0.03175,-1.078254 -0.03323,-1.107066 l -0.0027,-0.05239 h 0.26734 0.26734 v 0.03944 c 0,0.04647 -0.05473,2.048706 -0.05885,2.152583 l -0.0028,0.07102 H 31.472552 31.27158 Z"
       id="path3072" />
    <path
       style="fill:#000000;stroke:#000000;stroke-width:0.0020226;stroke-linecap:round;stroke-linejoin:round;paint-order:stroke markers fill"
       d="m 31.291223,30.829233 c -0.0016,-0.129045 -0.0029,-0.285442 -0.0029,-0.347547 l -5e-6,-0.112918 h 0.0846 0.0846 v 0.02816 0.02816 l 0.02152,-0.0231 c 0.0383,-0.0411 0.09273,-0.05366 0.136832,-0.03158 0.0271,0.01358 0.05262,0.04334 0.05724,0.06677 0.0019,0.0098 0.0035,0.117271 0.0035,0.23892 v 0.221181 l -0.01197,0.02618 c -0.03276,0.07159 -0.126044,0.08079 -0.183612,0.0181 -0.0094,-0.01018 -0.01847,-0.01854 -0.02025,-0.01859 -0.0018,-4.2e-5 -0.0032,0.0303 -0.0032,0.06744 v 0.06752 h -0.04271 c -0.0235,0 -0.06027,0.0014 -0.08171,0.003 l -0.039,0.003 z m 0.214589,0.04404 c 0.0049,-0.0063 0.006,-0.0443 0.006,-0.202932 0,-0.18788 -3.16e-4,-0.195476 -0.0084,-0.201835 -0.01074,-0.0084 -0.02448,-0.0084 -0.03522,-2e-6 -0.008,0.0063 -0.0085,0.01464 -0.0097,0.182765 -0.0014,0.184799 -1.39e-4,0.211174 0.01057,0.222668 0.0087,0.0094 0.02941,0.009 0.03686,-6.64e-4 z"
       id="path3074" />
    <path
       style="fill:#000000;stroke:#000000;stroke-width:0.0020226;stroke-linecap:round;stroke-linejoin:round;paint-order:stroke markers fill"
       d="m 28.569198,30.755641 c -0.03398,-0.007 -0.06274,-0.01374 -0.06391,-0.015 -0.0017,-0.0018 0.06958,-0.438239 0.07827,-0.47897 0.0016,-0.0076 9.92e-4,-0.01004 -0.0017,-0.007 -0.0023,0.0025 -0.03546,0.109039 -0.07362,0.236619 -0.03816,0.127579 -0.07042,0.233076 -0.07169,0.234438 -0.0028,0.003 -0.0921,-0.0129 -0.09921,-0.01762 -0.0037,-0.0024 -0.003,-0.0643 0.0028,-0.246034 0.0042,-0.133506 0.0069,-0.24369 0.0058,-0.244853 -0.0011,-0.0012 -0.02002,0.105255 -0.04207,0.236484 -0.02206,0.131229 -0.04059,0.23912 -0.04118,0.239758 -0.0011,0.0012 -0.14769,-0.02683 -0.148216,-0.02828 -3.34e-4,-9.15e-4 0.120664,-0.722243 0.121297,-0.723118 0.0014,-0.0018 0.219365,0.043 0.221698,0.04555 0.0027,0.0029 -0.0038,0.227056 -0.0088,0.305468 -0.0014,0.02113 -8.89e-4,0.03838 9.92e-4,0.03834 0.0019,-4.3e-5 0.02493,-0.07398 0.05115,-0.164299 l 0.04767,-0.16422 0.109569,0.02146 c 0.06026,0.01181 0.110668,0.02265 0.112011,0.02409 0.0014,0.0015 -0.02454,0.163675 -0.05752,0.36052 l -0.05996,0.357898 -0.01078,7.34e-4 c -0.006,4.04e-4 -0.03858,-0.005 -0.07257,-0.01199 z"
       id="path3076" />
    <path
       style="fill:#000000;stroke:#000000;stroke-width:0.0020226;stroke-linecap:round;stroke-linejoin:round;paint-order:stroke markers fill"
       d="m 28.87768,30.811455 c -0.06375,-0.01843 -0.104884,-0.05086 -0.125598,-0.099 -0.01184,-0.02753 -0.01261,-0.03289 -0.01223,-0.08525 4.26e-4,-0.05753 0.02185,-0.239759 0.03443,-0.292828 0.009,-0.03799 0.0307,-0.07972 0.05128,-0.09863 0.03013,-0.02769 0.05838,-0.03668 0.115619,-0.03681 0.05434,-1.28e-4 0.07889,0.0053 0.117141,0.02581 0.03625,0.01946 0.05856,0.0427 0.07466,0.07773 0.01324,0.02882 0.01438,0.03504 0.0157,0.08479 0.0012,0.04458 -0.0078,0.150958 -0.01308,0.156076 -7.41e-4,7.11e-4 -0.04918,-0.0057 -0.107641,-0.01434 -0.05847,-0.0086 -0.107423,-0.01569 -0.108802,-0.01575 -0.0044,-2.13e-4 -0.02277,0.17014 -0.01972,0.183191 0.0033,0.01424 0.02068,0.02358 0.03608,0.01943 0.01516,-0.0041 0.02279,-0.02574 0.03177,-0.09012 0.0045,-0.03249 0.0083,-0.0592 0.0084,-0.05933 5.95e-4,-8.09e-4 0.15432,0.02211 0.155291,0.02315 0.0036,0.0039 -0.01789,0.115138 -0.02551,0.132012 -0.01391,0.03084 -0.04879,0.06882 -0.07671,0.08351 -0.02182,0.01149 -0.03023,0.01312 -0.07241,0.01416 -0.03616,8.84e-4 -0.05523,-9.68e-4 -0.07869,-0.0077 z m 0.106905,-0.392631 c 7e-6,-0.0032 0.0022,-0.02434 0.0047,-0.04697 0.0056,-0.04893 0.0032,-0.06236 -0.01193,-0.06856 -0.0246,-0.01004 -0.03289,0.0013 -0.04044,0.05511 -0.0024,0.01723 -0.0054,0.03797 -0.0067,0.0461 -0.002,0.01266 -8.86e-4,0.01509 0.0076,0.01683 0.02219,0.0045 0.04677,0.0033 0.04679,-0.0025 z"
       id="path3078" />
    <path
       style="fill:#000000;stroke:#000000;stroke-width:0.0020226;stroke-linecap:round;stroke-linejoin:round;paint-order:stroke markers fill"
       d="m 29.240546,30.851871 c -0.04176,-0.0051 -0.07664,-0.01001 -0.07754,-0.01085 -0.0024,-0.0023 0.0568,-0.590523 0.05988,-0.594391 0.0015,-0.0018 0.03762,7.52e-4 0.08029,0.0058 0.04266,0.005 0.07897,0.0092 0.08068,0.0092 0.0017,0 4.96e-4,0.01309 -0.0027,0.0291 -0.0032,0.01601 -0.0059,0.03413 -0.006,0.04028 -1.36e-4,0.01 0.0012,0.0092 0.01257,-0.0076 0.01345,-0.01994 0.03301,-0.03747 0.05453,-0.0489 0.0159,-0.0084 0.0455,-0.01461 0.04571,-0.0095 8.1e-5,0.002 -0.0042,0.04928 -0.0096,0.10498 l -0.0097,0.101277 h -0.02744 c -0.04825,0 -0.06794,0.01509 -0.07747,0.05935 -0.0045,0.02077 -0.03646,0.308414 -0.03646,0.327836 0,0.0021 -0.0024,0.0037 -0.0054,0.0034 -0.003,-3.2e-4 -0.03958,-0.0047 -0.08135,-0.0099 z"
       id="path3080" />
    <path
       style="fill:#000000;stroke:#000000;stroke-width:0.0020226;stroke-linecap:round;stroke-linejoin:round;paint-order:stroke markers fill"
       d="m 29.552073,30.886021 c -0.04223,-0.0042 -0.07756,-0.0086 -0.07852,-0.0098 -0.0013,-0.0015 0.04727,-0.597065 0.04877,-0.598416 0.0013,-0.0012 0.161822,0.0161 0.163158,0.01754 9.92e-4,0.0011 -0.0011,0.01836 -0.0047,0.03842 -0.0036,0.02006 -0.006,0.0371 -0.0052,0.03784 6.99e-4,7.5e-4 0.0094,-0.0099 0.01928,-0.02361 0.02094,-0.02905 0.05049,-0.04931 0.07648,-0.05245 l 0.01832,-0.0022 -0.0085,0.102932 -0.0085,0.102933 -0.01985,2.6e-5 c -0.04472,5.8e-5 -0.07418,0.01886 -0.08205,0.05238 -0.0051,0.02185 -0.01334,0.103698 -0.02502,0.249102 -0.0049,0.06035 -0.0093,0.09406 -0.01225,0.09365 -0.0026,-3.53e-4 -0.03922,-0.0041 -0.08144,-0.0083 z"
       id="path3082" />
    <path
       style="fill:#000000;stroke:#000000;stroke-width:0.0020226;stroke-linecap:round;stroke-linejoin:round;paint-order:stroke markers fill"
       d="m 30.075713,30.929621 c -0.03818,-0.0032 -0.07251,-0.0061 -0.07628,-0.0063 -0.0057,-3.59e-4 -0.0065,-0.0051 -0.0049,-0.02721 l 0.002,-0.02678 -0.02335,0.02355 c -0.03929,0.03961 -0.08266,0.04464 -0.137049,0.01591 -0.04313,-0.02279 -0.05334,-0.04556 -0.05334,-0.118974 0,-0.06342 0.0072,-0.11645 0.01885,-0.139335 0.01206,-0.02365 0.03534,-0.03744 0.109142,-0.06465 0.105398,-0.03886 0.103077,-0.03646 0.103701,-0.10737 3.66e-4,-0.04151 -7.33e-4,-0.04947 -0.008,-0.05816 -0.01172,-0.01397 -0.03299,-0.01154 -0.04015,0.0045 -0.0029,0.0066 -0.0064,0.02959 -0.0078,0.05122 -0.0014,0.02163 -0.0036,0.04641 -0.0048,0.05508 l -0.0023,0.01575 -0.04634,-0.0031 c -0.02548,-0.0017 -0.06032,-0.0044 -0.07742,-0.0059 l -0.03108,-0.0028 0.0021,-0.02617 c 0.0064,-0.08235 0.01857,-0.120827 0.04718,-0.149126 0.02254,-0.02231 0.04571,-0.03544 0.07882,-0.0447 0.04844,-0.01354 0.129854,-0.0053 0.176424,0.01785 0.02526,0.01255 0.05509,0.04294 0.06667,0.06789 0.01251,0.02694 0.01231,0.13325 -6.29e-4,0.33666 -0.0061,0.09631 -0.01114,0.180544 -0.01114,0.187184 0,0.0069 -0.0023,0.01178 -0.0054,0.01139 -0.003,-3.75e-4 -0.03666,-0.0033 -0.07484,-0.0066 z m -0.08918,-0.106536 c 0.0069,-0.0089 0.01187,-0.04914 0.0157,-0.126749 l 0.0032,-0.06405 -0.02124,0.01656 c -0.03167,0.02469 -0.04076,0.04751 -0.04383,0.110004 -0.0023,0.04778 -0.0019,0.05157 0.0068,0.06093 0.01065,0.01143 0.03178,0.0132 0.03942,0.0033 z"
       id="path3084" />
    <path
       style="fill:#000000;stroke:#000000;stroke-width:0.0020226;stroke-linecap:round;stroke-linejoin:round;paint-order:stroke markers fill"
       d="m 30.441387,30.950994 c -0.03272,-0.0016 -0.06075,-0.0043 -0.06226,-0.0059 -0.0031,-0.0033 0.02536,-0.728253 0.02863,-0.731556 0.0019,-0.0019 0.170132,0.0056 0.171619,0.0076 3.7e-4,5.1e-4 -0.0059,0.158082 -0.01379,0.350159 -0.0079,0.192078 -0.01454,0.35709 -0.01463,0.366694 l -1.71e-4,0.01746 -0.02495,-7.68e-4 c -0.01372,-4.22e-4 -0.05172,-0.0021 -0.08444,-0.0037 z"
       id="path3086" />
    <path
       style="fill:#000000;stroke:#000000;stroke-width:0.0020226;stroke-linecap:round;stroke-linejoin:round;paint-order:stroke markers fill"
       d="m 31.080556,30.970687 -0.01471,-0.0019 0.0031,-0.175436 c 0.0043,-0.245792 0.004,-0.310443 -0.0017,-0.321772 -0.0036,-0.0074 -0.009,-0.0097 -0.02224,-0.0097 -0.02857,0 -0.0294,0.005 -0.03428,0.205997 -0.0023,0.09542 -0.0042,0.202644 -0.0043,0.238264 l -9.3e-5,0.06476 -0.08094,-0.003 c -0.04453,-0.0016 -0.08138,-0.0036 -0.0819,-0.0043 -5.23e-4,-6.64e-4 6.52e-4,-0.0693 0.0026,-0.15254 0.0056,-0.238482 0.0051,-0.336607 -0.0018,-0.346791 -0.0083,-0.01214 -0.03237,-0.01148 -0.0419,0.0012 -0.0094,0.01247 -0.01187,0.06141 -0.0157,0.312415 l -0.0029,0.187961 -0.0807,-0.0034 c -0.04439,-0.0018 -0.08105,-0.0037 -0.08147,-0.0041 -4.22e-4,-3.93e-4 0.002,-0.126417 0.0053,-0.280054 0.0033,-0.153637 0.0061,-0.288244 0.0062,-0.299129 l 1.32e-4,-0.01979 h 0.08294 0.08294 l -0.0031,0.03079 -0.0031,0.03079 0.02379,-0.02553 c 0.02691,-0.02889 0.05238,-0.04072 0.08764,-0.04072 0.04103,0 0.07916,0.02215 0.102968,0.05983 l 0.0069,0.01094 0.01628,-0.01934 c 0.0089,-0.01064 0.02523,-0.02499 0.03617,-0.03189 0.01741,-0.01098 0.02448,-0.01254 0.05676,-0.01249 0.0295,4.4e-5 0.04043,0.0021 0.05464,0.0102 0.0222,0.01268 0.04243,0.03705 0.05011,0.06035 0.0066,0.01995 0.0072,0.186634 0.0015,0.414822 l -0.0032,0.126888 -0.06567,-7.45e-4 c -0.03612,-4.1e-4 -0.07229,-0.0016 -0.08038,-0.0027 z"
       id="path3088" />
    <path
       style="fill:#000000;stroke:#000000;stroke-width:0.0020226;stroke-linecap:round;stroke-linejoin:round;paint-order:stroke markers fill"
       d="m 31.868124,30.973639 c -0.03027,-0.0047 -0.06957,-0.02313 -0.08667,-0.04054 -0.03765,-0.03834 -0.0454,-0.07498 -0.05051,-0.238887 -0.0052,-0.166506 -9.92e-4,-0.21302 0.02342,-0.257678 0.02962,-0.05425 0.08503,-0.08162 0.165229,-0.08162 0.115706,0 0.181476,0.05657 0.192631,0.165698 0.0064,0.0627 0.0094,0.247049 0.0047,0.291114 -0.01313,0.123512 -0.10643,0.184233 -0.248805,0.161918 z m 0.07556,-0.105904 c 0.0098,-0.0085 0.0099,-0.0093 0.0088,-0.115247 -0.0016,-0.171676 -0.0065,-0.279292 -0.0131,-0.287814 -0.0083,-0.0107 -0.03362,-0.0097 -0.03924,0.0015 -0.0051,0.01028 -0.0055,0.174487 -7.37e-4,0.307023 0.003,0.08192 0.0035,0.08591 0.01316,0.09429 0.01262,0.01096 0.01859,0.01099 0.03105,1.73e-4 z"
       id="path3090" />
    <path
       style="fill:#000000;stroke:#000000;stroke-width:0.0020226;stroke-linecap:round;stroke-linejoin:round;paint-order:stroke markers fill"
       d="m 32.186134,30.958744 c -5.83e-4,-0.002 -0.02458,-0.601652 -0.02409,-0.602226 2.8e-4,-3.35e-4 0.03789,-0.0021 0.08357,-0.004 l 0.08306,-0.0033 -0.0021,0.0412 -0.0021,0.0412 0.01288,-0.02338 c 0.01702,-0.03087 0.04776,-0.06075 0.06985,-0.06784 0.0098,-0.0032 0.0187,-0.0047 0.0198,-0.0036 0.0024,0.0026 0.0115,0.200555 0.0093,0.202887 -8.33e-4,8.93e-4 -0.01271,0.0036 -0.02637,0.006 -0.03163,0.0055 -0.05014,0.01704 -0.0602,0.03744 -0.0073,0.01484 -0.0078,0.02557 -0.0055,0.13255 0.0014,0.06403 0.0038,0.142904 0.0053,0.175285 l 0.0029,0.05888 -0.04728,0.0028 c -0.102006,0.0061 -0.118881,0.007 -0.119145,0.0061 z"
       id="path3092" />
    <path
       style="fill:#000000;stroke:#000000;stroke-width:0.0020226;stroke-linecap:round;stroke-linejoin:round;paint-order:stroke markers fill"
       d="m 32.590263,30.93183 c -0.02584,-0.0055 -0.05049,-0.02385 -0.06061,-0.04516 -0.0104,-0.02189 -0.01517,-0.07365 -0.02435,-0.26413 -0.0089,-0.186062 -0.0071,-0.174616 -0.02784,-0.174616 -0.0158,0 -0.01672,-8.32e-4 -0.01928,-0.01746 -0.0014,-0.0096 -0.0027,-0.02928 -0.0027,-0.04373 -5.1e-5,-0.0281 0.0029,-0.03193 0.02479,-0.03193 h 0.01111 l -0.003,-0.04619 c -0.0027,-0.04197 -0.0023,-0.0464 0.0048,-0.04854 0.0042,-0.0013 0.03901,-0.0037 0.07719,-0.0053 0.03818,-0.0016 0.07283,-0.0041 0.07701,-0.0053 0.0068,-0.002 0.0076,0.0015 0.0076,0.03232 0,0.01906 0.0013,0.04146 0.0028,0.04977 0.0028,0.015 0.003,0.0151 0.02343,0.0125 0.02468,-0.0031 0.02567,-0.0011 0.02576,0.05388 l 6e-5,0.03609 h -0.01927 c -0.0106,0 -0.02048,0.0021 -0.02196,0.0046 -0.003,0.0051 0.01385,0.33934 0.01876,0.372506 l 0.0031,0.02095 0.02426,0.0014 0.02426,0.0014 0.0027,0.03122 c 0.0051,0.05811 0.0046,0.06077 -0.01129,0.06336 -0.02913,0.0047 -0.118949,0.0063 -0.137377,0.0024 z"
       id="path3094" />
    <path
       style="fill:#000000;stroke:#000000;stroke-width:0.0020226;stroke-linecap:round;stroke-linejoin:round;paint-order:stroke markers fill"
       d="m 32.867558,30.916444 c -0.07723,-0.02449 -0.100281,-0.05951 -0.110985,-0.168605 l -0.0028,-0.02837 0.07238,-0.0058 c 0.03981,-0.0032 0.07294,-0.0051 0.07363,-0.0043 6.88e-4,8.84e-4 0.0034,0.02229 0.006,0.04756 0.0032,0.03106 0.0071,0.04878 0.01213,0.05472 0.01016,0.01205 0.0339,0.01146 0.04563,-0.0012 0.0082,-0.0088 0.0089,-0.01368 0.007,-0.04308 -0.0036,-0.05517 -0.0022,-0.05354 -0.08661,-0.09875 -0.09222,-0.04939 -0.115951,-0.06767 -0.130805,-0.100729 -0.02282,-0.05079 -0.02631,-0.140322 -0.0071,-0.182863 0.01975,-0.04377 0.07057,-0.07273 0.143162,-0.08155 0.07305,-0.0089 0.127017,0.0063 0.165565,0.04656 0.02706,0.02826 0.03263,0.04531 0.03504,0.107097 l 0.0012,0.03027 -0.03904,0.0031 c -0.02148,0.0016 -0.05395,0.0044 -0.07215,0.0059 l -0.03311,0.0028 -0.0032,-0.03581 c -0.0042,-0.04902 -0.0084,-0.05747 -0.02789,-0.05738 -0.0086,4e-5 -0.01805,0.0017 -0.02107,0.0038 -0.0097,0.0066 -0.01373,0.03221 -0.0096,0.06031 0.0052,0.0356 0.02012,0.04914 0.08804,0.08024 0.122319,0.05598 0.144373,0.08313 0.149305,0.183839 0.0049,0.09855 -0.01969,0.144181 -0.09324,0.173499 -0.02441,0.0097 -0.03852,0.01191 -0.08563,0.01325 -0.03828,0.0011 -0.06268,-3.95e-4 -0.07592,-0.0045 z"
       id="path3096" />
    <path
       style="fill:#000000;stroke:#000000;stroke-width:0.0020226;stroke-linecap:round;stroke-linejoin:round;paint-order:stroke markers fill"
       d="m 33.321186,30.865842 c -0.0033,-0.01692 -0.01244,-0.129324 -0.0106,-0.131273 9.02e-4,-9.68e-4 0.02858,-0.0046 0.06147,-0.0082 0.06967,-0.0075 0.06086,-0.01582 0.06798,0.06385 0.0075,0.08378 0.01254,0.0746 -0.04451,0.08081 -0.06891,0.0075 -0.07187,0.0073 -0.07434,-0.0051 z"
       id="path3098" />
    <path
       style="fill:#000000;stroke:#000000;stroke-width:0.0020226;stroke-linecap:round;stroke-linejoin:round;paint-order:stroke markers fill"
       d="m 33.652831,30.836689 c 0,-0.0014 -0.01857,-0.165077 -0.04126,-0.363928 -0.0227,-0.198852 -0.04076,-0.36195 -0.04013,-0.362442 0.003,-0.0023 0.168476,-0.02215 0.170126,-0.02038 0.0021,0.0022 0.08544,0.726932 0.08373,0.728196 -0.0018,0.0014 -0.156711,0.02108 -0.164871,0.02101 -0.0041,-3.8e-5 -0.0076,-0.0012 -0.0076,-0.0024 z"
       id="path3100" />
    <path
       style="fill:#000000;stroke:#000000;stroke-width:0.0020226;stroke-linecap:round;stroke-linejoin:round;paint-order:stroke markers fill"
       d="m 33.895789,30.807581 c 0,-0.0015 -0.0175,-0.128571 -0.0389,-0.282443 -0.0214,-0.153871 -0.03946,-0.286924 -0.04013,-0.295673 l -0.0013,-0.01591 0.0781,-0.01301 c 0.04295,-0.0072 0.08053,-0.01309 0.08351,-0.0132 0.0033,-1.13e-4 0.0056,0.0066 0.0059,0.01728 2.37e-4,0.0096 0.0018,0.02264 0.0034,0.02895 0.003,0.01143 0.003,0.01141 0.0088,-0.0038 0.0098,-0.02544 0.03956,-0.05439 0.06572,-0.06397 0.03162,-0.01158 0.07059,-0.01095 0.09293,0.0015 0.03426,0.01908 0.04911,0.04427 0.0606,0.102923 0.01003,0.05116 0.06782,0.472097 0.06521,0.474904 -0.0025,0.0027 -0.159454,0.02907 -0.161295,0.0271 -5.96e-4,-6.38e-4 -0.01295,-0.08697 -0.02744,-0.191854 -0.03097,-0.224019 -0.03783,-0.269256 -0.04389,-0.289643 -0.0056,-0.01867 -0.02078,-0.0242 -0.03639,-0.01321 -0.0095,0.0067 -0.01081,0.01093 -0.01081,0.03522 0,0.01518 0.01371,0.126492 0.03048,0.247344 0.01676,0.120852 0.02979,0.220466 0.02895,0.221364 -8.36e-4,8.98e-4 -0.03456,0.007 -0.07495,0.01341 -0.04039,0.0065 -0.07684,0.01258 -0.08102,0.01357 -0.0041,9.68e-4 -0.0076,5.84e-4 -0.0076,-8.88e-4 z"
       id="path3102" />
    <path
       style="fill:#000000;stroke:#000000;stroke-width:0.0020226;stroke-linecap:round;stroke-linejoin:round;paint-order:stroke markers fill"
       d="m 34.418577,30.706882 c -0.02293,-0.0077 -0.05143,-0.0283 -0.0643,-0.04643 -0.02799,-0.03947 -0.03986,-0.08005 -0.06661,-0.228003 -0.01631,-0.09019 -0.02042,-0.122753 -0.02065,-0.163791 -2.65e-4,-0.04739 5.78e-4,-0.0528 0.01128,-0.07233 0.05119,-0.09346 0.184771,-0.133743 0.276947,-0.08353 0.02906,0.01583 0.04781,0.03626 0.06276,0.0684 0.012,0.0258 0.03196,0.101445 0.0279,0.105795 -0.0041,0.0044 -0.146997,0.03219 -0.149792,0.02919 -0.0014,-0.0015 -0.0064,-0.02315 -0.01103,-0.04801 -0.01114,-0.05978 -0.01701,-0.07168 -0.03538,-0.07168 -0.01893,0 -0.02462,0.0072 -0.02462,0.03121 0,0.02205 0.05334,0.327397 0.06094,0.348847 0.007,0.01983 0.01705,0.02971 0.03017,0.02971 0.0273,0 0.03254,-0.0336 0.01788,-0.114759 l -0.0077,-0.04258 0.07137,-0.01465 c 0.03925,-0.008 0.07203,-0.01395 0.07284,-0.01308 0.0032,0.0034 0.01478,0.09071 0.01479,0.110893 5.7e-5,0.06947 -0.0458,0.138145 -0.108114,0.161913 -0.0518,0.01976 -0.121479,0.02542 -0.158692,0.01291 z"
       id="path3104" />
    <path
       style="fill:#000000;stroke:#000000;stroke-width:0.0020226;stroke-linecap:round;stroke-linejoin:round;paint-order:stroke markers fill"
       d="m 34.327541,27.899915 c -0.04202,-0.01538 -0.06152,-0.03422 -0.08214,-0.07935 -0.01948,-0.04265 -0.051,-0.15539 -0.04509,-0.161255 0.0086,-0.0085 0.154142,-0.055 0.155797,-0.04977 9.02e-4,0.0029 0.0077,0.03153 0.01505,0.06353 0.01611,0.07015 0.02445,0.09023 0.03839,0.09236 0.04255,0.0065 0.05404,-0.03415 0.0314,-0.110976 -0.01781,-0.06045 -0.02127,-0.06332 -0.129689,-0.107776 -0.0916,-0.03756 -0.109298,-0.04725 -0.132769,-0.07267 -0.04187,-0.04536 -0.07257,-0.141016 -0.0736,-0.22932 -5.28e-4,-0.04528 3.71e-4,-0.05095 0.01216,-0.07683 0.02483,-0.05448 0.08658,-0.101908 0.158638,-0.121832 0.06419,-0.01775 0.13482,-0.0055 0.166832,0.0288 0.02212,0.02374 0.04623,0.08678 0.06055,0.158321 l 0.0028,0.01406 -0.07497,0.02551 c -0.04124,0.01403 -0.07674,0.02551 -0.07891,0.02551 -0.0022,0 -0.0091,-0.02141 -0.01546,-0.04757 -0.0063,-0.02616 -0.01511,-0.05183 -0.0195,-0.05704 -0.01967,-0.02333 -0.05003,-0.0023 -0.05003,0.03455 0,0.02381 0.01081,0.06473 0.02252,0.08531 0.011,0.01933 0.02087,0.02466 0.09734,0.05263 0.152956,0.05596 0.182277,0.08861 0.218581,0.243429 0.02592,0.11057 0.01748,0.162266 -0.03573,0.218837 -0.06407,0.06811 -0.167818,0.09875 -0.242206,0.07154 z"
       id="path3106" />
    <path
       style="fill:#000000;stroke:#000000;stroke-width:0.0020226;stroke-linecap:round;stroke-linejoin:round;paint-order:stroke markers fill"
       d="m 33.337183,27.837218 c -0.0056,-0.03906 -0.01304,-0.117595 -0.01129,-0.119471 0.0033,-0.0036 0.216469,-0.03706 0.218954,-0.03439 0.0031,0.0033 0.01718,0.133326 0.01471,0.13583 -0.0022,0.0021 -0.202166,0.03556 -0.212816,0.03552 -0.0048,-1.7e-5 -0.0078,-0.0056 -0.0095,-0.01749 z"
       id="path3110" />
    <path
       style="fill:#000000;stroke:#000000;stroke-width:0.0020226;stroke-linecap:round;stroke-linejoin:round;paint-order:stroke markers fill"
       d="m 32.53181,28.159465 c -0.0015,-0.0257 -0.004,-0.06368 -0.0054,-0.08438 l -0.0026,-0.03764 0.06187,-0.0055 c 0.03403,-0.0031 0.06279,-0.0045 0.0639,-0.0034 0.0046,0.0049 0.01205,0.165732 0.0077,0.16594 -0.0024,1.17e-4 -0.03102,0.0028 -0.06352,0.006 l -0.0591,0.0058 z"
       id="path3114" />
    <path
       style="fill:#000000;stroke:#000000;stroke-width:0.0020226;stroke-linecap:round;stroke-linejoin:round;paint-order:stroke markers fill"
       d="m 32.511504,27.825721 c -0.0011,-0.0061 -0.01105,-0.164912 -0.01045,-0.165908 4.18e-4,-6.81e-4 0.02302,-0.0033 0.05023,-0.0058 0.0272,-0.0025 0.05549,-0.0054 0.06287,-0.0065 l 0.0134,-0.0019 0.005,0.08149 c 0.0028,0.04482 0.0041,0.0831 0.003,0.08509 -0.0012,0.0019 -0.02116,0.005 -0.04449,0.0067 -0.02333,0.0017 -0.05071,0.0044 -0.06086,0.0058 -0.01014,0.0015 -0.01857,0.0019 -0.01874,0.0011 z"
       id="path3116" />
    <path
       style="fill:#000000;stroke:#000000;stroke-width:0.0020226;stroke-linecap:round;stroke-linejoin:round;paint-order:stroke markers fill"
       d="m 32.226321,28.236021 c -0.08204,-0.01282 -0.132678,-0.06528 -0.150507,-0.155889 -0.01027,-0.05219 -0.02212,-0.330761 -0.0162,-0.381033 0.01092,-0.09289 0.05902,-0.151379 0.140447,-0.170826 0.03624,-0.0086 0.108756,-0.0042 0.135041,0.0084 0.06416,0.0306 0.09738,0.08172 0.111206,0.171152 0.004,0.02565 0.01363,0.164875 0.01169,0.168236 -2.55e-4,4.4e-4 -0.05023,0.0043 -0.111052,0.0085 -0.06082,0.0043 -0.111426,0.0086 -0.112451,0.0097 -0.0046,0.0049 0.0075,0.196632 0.01318,0.209502 0.008,0.01811 0.0325,0.02151 0.04526,0.0063 0.0078,-0.0092 0.0084,-0.01699 0.008,-0.09058 l -4.09e-4,-0.0805 0.0221,-0.0027 c 0.01215,-0.0015 0.04766,-0.0041 0.07892,-0.0057 l 0.05682,-0.003 0.0028,0.02506 c 0.0041,0.03702 0.0035,0.09252 -0.0014,0.12105 -0.0069,0.04042 -0.03145,0.08846 -0.05863,0.115125 -0.02683,0.02632 -0.05706,0.04045 -0.101155,0.04729 -0.03252,0.005 -0.0409,0.005 -0.07363,-7.8e-5 z m 0.04424,-0.456178 0.01257,-5.2e-5 -0.003,-0.05378 c -0.004,-0.07129 -0.0093,-0.08567 -0.0316,-0.08584 -0.02025,-1.53e-4 -0.02308,0.0097 -0.02308,0.08003 v 0.06547 l 0.01627,-0.0029 c 0.0089,-0.0015 0.02193,-0.0029 0.02884,-0.0029 z"
       id="path3118" />
    <path
       style="fill:#000000;stroke:#000000;stroke-width:0.0020226;stroke-linecap:round;stroke-linejoin:round;paint-order:stroke markers fill"
       d="m 31.839388,28.234518 c 3.4e-5,-0.0081 -0.0051,-0.197661 -0.01127,-0.421287 -0.0062,-0.223627 -0.01046,-0.407533 -0.0094,-0.408682 0.0011,-0.0012 0.04016,-0.0036 0.08688,-0.0055 l 0.08493,-0.0034 0.0024,0.0419 c 0.0014,0.02305 0.0063,0.196967 0.01111,0.386484 0.0048,0.189516 0.0095,0.360628 0.01046,0.380246 l 0.0018,0.03567 -0.04403,0.0026 c -0.02422,0.0015 -0.06405,0.0035 -0.0885,0.0046 l -0.04447,0.002 z"
       id="path3120" />
    <path
       style="fill:#000000;stroke:#000000;stroke-width:0.0020226;stroke-linecap:round;stroke-linejoin:round;paint-order:stroke markers fill"
       d="m 31.377334,27.963483 c -0.0018,-0.216539 -0.0025,-0.394372 -0.0016,-0.395186 8.72e-4,-8.14e-4 0.03917,-0.0029 0.0851,-0.0047 l 0.08351,-0.0033 v 0.03058 c 0,0.01682 0.0014,0.03058 0.0032,0.03057 0.0018,-7e-6 0.0071,-0.0065 0.01193,-0.0144 0.02187,-0.03628 0.07564,-0.06395 0.113474,-0.05837 0.03697,0.0054 0.07222,0.034 0.08612,0.06979 0.01197,0.0308 0.01569,0.119404 0.01432,0.34087 -0.0012,0.193279 -0.0021,0.215697 -0.0091,0.232299 -0.02022,0.0481 -0.05398,0.07233 -0.100737,0.07233 -0.03431,0 -0.06322,-0.01468 -0.0902,-0.04579 -0.01143,-0.01318 -0.02175,-0.02397 -0.02294,-0.02397 -0.0012,0 -8.22e-4,0.03529 8.1e-4,0.07844 l 0.003,0.07844 -0.01419,0.003 c -0.0078,0.0016 -0.04689,0.003 -0.08684,0.003 h -0.07265 z m 0.219034,0.179592 c 0.0057,-0.0039 0.0065,-0.0341 0.0062,-0.227548 -2.3e-4,-0.202625 -9.02e-4,-0.224235 -0.0077,-0.235303 -0.0093,-0.01523 -0.02841,-0.01636 -0.04019,-0.0023 -0.0079,0.0094 -0.0082,0.01868 -0.0071,0.206047 0.0013,0.212788 0.0029,0.246479 0.01262,0.256898 0.0072,0.0077 0.02634,0.0089 0.03612,0.0022 z"
       id="path3122" />
    <path
       style="fill:#000000;stroke:#000000;stroke-width:0.0020226;stroke-linecap:round;stroke-linejoin:round;paint-order:stroke markers fill"
       d="m 31.174143,28.255953 -0.02525,-0.0016 0.0031,-0.15924 c 0.0017,-0.08758 0.0033,-0.213796 0.0035,-0.280474 4.26e-4,-0.108736 -3.18e-4,-0.122536 -0.0072,-0.133872 -0.01345,-0.0221 -0.03887,-0.01433 -0.04645,0.01419 -0.0027,0.01035 -0.0066,0.126924 -0.0094,0.28748 -0.0026,0.14854 -0.0054,0.270798 -0.0061,0.271683 -7.26e-4,8.86e-4 -0.03766,8e-5 -0.08206,-0.0018 l -0.08074,-0.0034 0.0031,-0.28077 c 0.0028,-0.261035 0.0025,-0.281631 -0.0044,-0.293003 -0.0098,-0.01609 -0.03057,-0.01472 -0.0427,0.0028 -0.008,0.01157 -0.0087,0.02632 -0.01296,0.291027 -0.0025,0.153367 -0.0048,0.279182 -0.0051,0.27959 -2.66e-4,4.07e-4 -0.0374,-4.39e-4 -0.08251,-0.0018 l -0.08204,-0.0026 0.0029,-0.191363 c 0.0015,-0.10525 0.0041,-0.261034 0.0057,-0.346189 l 0.0029,-0.154826 h 0.02465 c 0.01356,0 0.05149,0.0014 0.08428,0.0031 l 0.05963,0.0031 -0.003,0.03302 -0.003,0.03302 0.02301,-0.02744 c 0.03731,-0.04449 0.07936,-0.05895 0.127011,-0.04368 0.01754,0.0056 0.05325,0.03882 0.06896,0.06413 l 0.0072,0.01164 0.0098,-0.01396 c 0.02983,-0.0427 0.05901,-0.0601 0.101197,-0.06035 0.02436,-1.45e-4 0.03477,0.0022 0.05202,0.01171 0.0247,0.01363 0.04708,0.04243 0.05515,0.07096 0.006,0.02144 0.0066,0.283403 9.92e-4,0.505027 l -0.003,0.117575 -0.057,-8.81e-4 c -0.03135,-4.83e-4 -0.06836,-0.0016 -0.08224,-0.0026 z"
       id="path3124" />
    <path
       style="fill:#000000;stroke:#000000;stroke-width:0.0020226;stroke-linecap:round;stroke-linejoin:round;paint-order:stroke markers fill"
       d="m 31.174446,28.255963 -0.02495,-0.0016 5.1e-5,-0.02655 c 2.6e-5,-0.01459 0.0021,-0.128169 0.0045,-0.252379 0.0049,-0.244103 0.0036,-0.284585 -0.0094,-0.298537 -0.01649,-0.0177 -0.03667,-0.0075 -0.04311,0.0216 -0.0023,0.01017 -0.0063,0.138986 -0.009,0.286246 -0.0027,0.14726 -0.0055,0.268469 -0.0062,0.269355 -7.13e-4,8.85e-4 -0.03765,7.9e-5 -0.08207,-0.0018 l -0.08077,-0.0034 0.0031,-0.280778 c 0.0028,-0.25857 0.0025,-0.281724 -0.0042,-0.292728 -0.0087,-0.01426 -0.02365,-0.01557 -0.03776,-0.0033 -0.0091,0.0079 -0.01021,0.01379 -0.01316,0.07101 -0.0018,0.03431 -0.0046,0.162715 -0.0062,0.285354 l -0.0031,0.222981 -0.03267,-0.003 c -0.01797,-0.0016 -0.05514,-0.003 -0.0826,-0.003 h -0.04994 l 0.0029,-0.194405 c 0.0016,-0.106924 0.0041,-0.26303 0.0057,-0.346905 l 0.0029,-0.152497 h 0.02466 c 0.01356,0 0.05149,0.0014 0.08429,0.0031 l 0.05963,0.0031 -0.003,0.03302 -0.003,0.03302 0.02301,-0.02744 c 0.03713,-0.04427 0.07943,-0.05896 0.126368,-0.04386 0.01944,0.0063 0.05681,0.0401 0.06652,0.06026 0.0035,0.0074 0.0078,0.01324 0.0096,0.0131 0.0017,-1.46e-4 0.01012,-0.0101 0.01864,-0.02211 0.03418,-0.04819 0.09677,-0.06454 0.145075,-0.0379 0.0247,0.01363 0.04708,0.04243 0.05515,0.07096 0.006,0.02144 0.0066,0.283402 9.92e-4,0.505026 l -0.003,0.117576 -0.057,-8.81e-4 c -0.03135,-4.84e-4 -0.06822,-0.0016 -0.08195,-0.0025 z"
       id="path3126" />
    <path
       style="fill:#000000;stroke:#000000;stroke-width:0.0020226;stroke-linecap:round;stroke-linejoin:round;paint-order:stroke markers fill"
       d="m 30.542105,28.233645 c -0.04176,-0.0032 -0.07618,-0.0061 -0.07651,-0.0064 -3.22e-4,-2.65e-4 4.03e-4,-0.01462 0.0016,-0.03192 0.0023,-0.03384 0.0023,-0.03384 -0.01987,-0.0027 -0.04893,0.06846 -0.163208,0.04586 -0.190375,-0.03765 -0.0063,-0.01935 -0.0076,-0.03698 -0.0069,-0.09625 9.91e-4,-0.08386 0.0088,-0.133081 0.02478,-0.155485 0.01228,-0.01727 0.05877,-0.04421 0.119683,-0.06933 0.05344,-0.02205 0.07461,-0.03523 0.08159,-0.05083 0.0076,-0.01695 0.0087,-0.113685 0.0015,-0.127856 -0.0092,-0.01819 -0.03979,-0.01964 -0.04623,-0.0022 -0.0016,0.0044 -0.005,0.03835 -0.0074,0.07549 -0.0024,0.03713 -0.0047,0.06774 -0.005,0.06801 -8.31e-4,7e-4 -0.156576,-0.0087 -0.157701,-0.0096 -0.0024,-0.0017 0.0079,-0.112507 0.01238,-0.131883 0.01958,-0.08588 0.08435,-0.13311 0.181272,-0.132152 0.09098,9e-4 0.14942,0.03266 0.179092,0.09736 l 0.01425,0.03106 0.0012,0.08166 c 6.43e-4,0.04491 -0.0032,0.176974 -0.0087,0.293468 -0.0083,0.179791 -0.01079,0.211898 -0.01632,0.212401 -0.0036,3.27e-4 -0.04068,-0.002 -0.08243,-0.0053 z m -0.08522,-0.120916 c 0.0036,-0.0039 0.0077,-0.01798 0.0091,-0.03143 0.0034,-0.03227 0.01034,-0.182274 0.0085,-0.184521 -0.0035,-0.0043 -0.04485,0.03817 -0.05119,0.0525 -0.0087,0.01966 -0.01729,0.104889 -0.01343,0.133177 0.0015,0.01153 0.006,0.02462 0.0096,0.0291 0.0083,0.01 0.02856,0.01062 0.03737,0.0012 z"
       id="path3128" />
    <path
       style="fill:#000000;stroke:#000000;stroke-width:0.0020226;stroke-linecap:round;stroke-linejoin:round;paint-order:stroke markers fill"
       d="m 29.96131,28.201008 c -0.06678,-0.01555 -0.123603,-0.06141 -0.144059,-0.116254 -0.0098,-0.02629 -0.01039,-0.03319 -0.01006,-0.119915 1.89e-4,-0.05061 0.0013,-0.09302 0.0024,-0.09425 0.0029,-0.0031 0.158647,0.01352 0.162123,0.01724 0.0015,0.0016 6.95e-4,0.033 -0.0018,0.0697 -0.0055,0.07888 -0.003,0.09671 0.01452,0.105763 0.01576,0.0081 0.03072,0.003 0.04314,-0.01493 0.0078,-0.01126 0.0093,-0.0211 0.01066,-0.06854 0.0022,-0.07685 2.2e-4,-0.08054 -0.08569,-0.165099 -0.0757,-0.07451 -0.09178,-0.09397 -0.106838,-0.129338 -0.0257,-0.06035 -0.02418,-0.180213 0.0032,-0.258986 0.02378,-0.06821 0.0983,-0.109133 0.183377,-0.100712 0.08717,0.0086 0.152513,0.04659 0.1787,0.103825 0.01188,0.02598 0.0122,0.02862 0.0122,0.104263 0,0.04269 -0.0011,0.07878 -0.0024,0.08021 -0.0023,0.0024 -0.134447,-0.0092 -0.154227,-0.01361 -0.0088,-0.0019 -0.0091,-0.004 -0.007,-0.05717 0.0026,-0.06811 -3.28e-4,-0.07654 -0.02597,-0.0745 -0.02707,0.0021 -0.03499,0.01672 -0.03729,0.06863 -0.0027,0.06045 0.0034,0.07174 0.07296,0.135548 0.08511,0.07805 0.118429,0.121786 0.132869,0.174416 0.01519,0.05534 0.0083,0.19858 -0.01246,0.258028 -0.02756,0.07905 -0.12478,0.119785 -0.228331,0.09567 z"
       id="path3130" />
    <path
       style="fill:#000000;stroke:#000000;stroke-width:0.0020226;stroke-linecap:round;stroke-linejoin:round;paint-order:stroke markers fill"
       d="m 29.507717,28.128478 c -0.04276,-0.0074 -0.07844,-0.0142 -0.0793,-0.01512 -8.56e-4,-9.19e-4 5.04e-4,-0.03473 0.0031,-0.07514 0.0025,-0.0404 0.0038,-0.07436 0.0027,-0.07547 -9.92e-4,-0.0011 -0.01592,-0.0043 -0.03312,-0.007 -0.0235,-0.0038 -0.03205,-0.0036 -0.0344,4.67e-4 -0.0017,0.003 -0.0087,0.0367 -0.0153,0.0749 l -0.01216,0.06945 -0.01135,-0.0023 c -0.0062,-0.0013 -0.04649,-0.0081 -0.08944,-0.01517 -0.07052,-0.01157 -0.07807,-0.01369 -0.07783,-0.02185 1.44e-4,-0.0049 0.0411,-0.190348 0.09101,-0.41196 l 0.09075,-0.402932 0.128085,0.02137 0.128086,0.02137 0.0029,0.258171 c 0.0016,0.141994 0.0035,0.33413 0.0043,0.426968 l 0.0014,0.168795 -0.01085,-5.35e-4 c -0.006,-2.95e-4 -0.04583,-0.0066 -0.08859,-0.01398 z m -0.05746,-0.419697 c 0.0015,-0.05955 0.0038,-0.141789 0.005,-0.182765 l 0.0021,-0.0745 -0.01735,0.07218 c -0.01734,0.07211 -0.05452,0.248072 -0.05706,0.270074 -0.0013,0.01103 2.36e-4,0.01191 0.02903,0.01691 0.0167,0.0029 0.03152,0.0055 0.03294,0.0058 0.0014,3.03e-4 0.0039,-0.04817 0.0054,-0.10771 z"
       id="path3132" />
    <path
       style="fill:#000000;stroke:#000000;stroke-width:0.0020226;stroke-linecap:round;stroke-linejoin:round;paint-order:stroke markers fill"
       d="m 29.044251,28.045218 c -0.03995,-0.0094 -0.07359,-0.01804 -0.07473,-0.01928 -0.0012,-0.0013 -0.0091,-0.08803 -0.0177,-0.192879 -0.0086,-0.104851 -0.01705,-0.194636 -0.0188,-0.199522 -0.002,-0.0054 -0.01446,0.06367 -0.03237,0.179053 -0.01605,0.103366 -0.02996,0.188773 -0.03091,0.189795 -0.0014,0.0015 -0.116292,-0.0233 -0.137141,-0.02971 -0.006,-0.0018 0.0016,-0.05637 0.05779,-0.415239 0.03555,-0.227222 0.06536,-0.413894 0.06623,-0.414825 0.0018,-0.0019 0.140436,0.02969 0.143145,0.0326 9.02e-4,9.68e-4 0.01097,0.09138 0.02229,0.20082 0.01132,0.109438 0.02188,0.197382 0.02346,0.195431 0.0016,-0.0019 0.01536,-0.08492 0.03061,-0.184388 0.01525,-0.09946 0.02871,-0.18252 0.02991,-0.184574 0.0019,-0.0032 0.138059,0.02541 0.142245,0.0299 0.0022,0.0023 -0.125796,0.823872 -0.128847,0.827133 -0.0014,0.0015 -0.03522,-0.0049 -0.07517,-0.01433 z"
       id="path3136" />
    <path
       style="fill:#000000;stroke:#000000;stroke-width:0.0020226;stroke-linecap:round;stroke-linejoin:round;paint-order:stroke markers fill"
       d="m 28.548068,27.914514 c -0.02201,-0.0041 -0.104094,-0.03011 -0.229869,-0.07299 l -0.06549,-0.02233 0.03784,-0.16522 c 0.02081,-0.09087 0.06271,-0.273771 0.0931,-0.406444 l 0.05525,-0.241224 0.01343,0.0032 c 0.03436,0.0081 0.222034,0.07735 0.251709,0.09289 0.05872,0.03073 0.08898,0.06935 0.09874,0.126051 0.0065,0.03758 -9.92e-4,0.08105 -0.055,0.31837 -0.05135,0.225831 -0.06977,0.292433 -0.08973,0.324485 -0.02263,0.03634 -0.06243,0.05199 -0.11,0.04323 z m -0.04198,-0.171044 c 0.01177,-0.008 0.02525,-0.05616 0.06832,-0.243983 0.05411,-0.235952 0.05773,-0.2553 0.05078,-0.271665 -0.0043,-0.01025 -0.04222,-0.03439 -0.04596,-0.0293 -6.29e-4,8.53e-4 -0.02883,0.12293 -0.06266,0.271279 -0.04758,0.208651 -0.06026,0.27058 -0.05598,0.273495 0.007,0.0047 0.03856,0.0049 0.04549,1.83e-4 z"
       id="path3138" />
    <path
       style="fill:#000000;stroke:#000000;stroke-width:0.00294481;stroke-linecap:round;stroke-linejoin:round;paint-order:stroke markers fill"
       d="m 33.019669,28.211194 c -0.0759,0.0021 -0.129106,-0.02993 -0.164296,-0.09909 -0.01487,-0.02923 -0.01656,-0.04143 -0.04243,-0.306065 -0.03023,-0.309302 -0.03042,-0.301003 0.0087,-0.366614 0.03059,-0.05131 0.06659,-0.07452 0.137339,-0.08858 0.07859,-0.01561 0.124261,-0.0075 0.167739,0.02967 0.03601,0.03082 0.0533,0.06423 0.06457,0.124796 l 0.0078,0.04185 -0.08342,0.01201 -0.08342,0.01201 -0.0038,-0.03778 c -0.0047,-0.04879 -0.01828,-0.06796 -0.04516,-0.06408 -0.03383,0.0048 -0.03679,0.02148 -0.02511,0.140956 l 0.01013,0.103612 0.0167,-0.0281 c 0.04584,-0.07716 0.160291,-0.07295 0.208615,0.0075 0.01698,0.02831 0.01863,0.03647 0.03298,0.163405 0.0089,0.07901 0.01395,0.148775 0.01223,0.170721 -0.0087,0.113447 -0.08809,0.179877 -0.219309,0.183626 z m 0.05007,-0.141932 c 0.0099,-0.0185 -0.01105,-0.265332 -0.02455,-0.28939 -0.01194,-0.02129 -0.04801,-0.0223 -0.05902,-0.0015 -0.01024,0.0192 0.01534,0.28316 0.02894,0.29888 0.01196,0.01381 0.04562,0.009 0.05461,-0.0078 z"
       id="path939" />
    <path
       style="fill:#000000;stroke:#000000;stroke-width:0.0031333;stroke-linecap:round;stroke-linejoin:round;paint-order:stroke markers fill"
       d="m 33.636859,27.710569 -0.09052,-0.422778 0.09091,-0.02581 0.09091,-0.02581 0.03279,0.153074 0.03279,0.153075 0.03136,-0.0089 0.03135,-0.0089 -0.03279,-0.153075 -0.03279,-0.153075 0.09405,-0.0267 0.09405,-0.0267 0.09052,0.422776 0.09052,0.422779 -0.09405,0.0267 -0.09405,0.0267 -0.03825,-0.178586 -0.03826,-0.178589 -0.03136,0.0089 -0.03135,0.0089 0.03825,0.178588 0.03825,0.178585 -0.09091,0.02581 -0.09091,0.02581 z"
       id="path941" />
  </g>
</svg>
